<?xml version="1.0" encoding="utf-8"?>
<!-- Generator: Adobe Illustrator 25.2.3, SVG Export Plug-In . SVG Version: 6.00 Build 0)  -->
<svg version="1.1" id="Layer_1" xmlns="http://www.w3.org/2000/svg" xmlns:xlink="http://www.w3.org/1999/xlink" x="0px" y="0px"
	 width="128px" height="128px" viewBox="0 0 128 128" style="enable-background:new 0 0 128 128;" xml:space="preserve">
<style type="text/css">
	.st0{fill:#FFFFFF;}
</style>
<g>
	<circle cx="64" cy="64" r="63"/>
	<g>
		<path class="st0" d="M60.1,23.2c0.7,1.2,0.1,1.9-0.6,2.6c-2.5,2.4-4.8,5.1-6.2,8.3c-3.6,8.4-1.2,17,6.4,22.2
			c3.6,2.5,7.4,4.8,11,7.2c4.7,3.2,8.8,7.1,10.6,12.7c2.9,8.5,1.5,16.3-4.6,23c-1.8,2-4.1,3.5-6.1,5.2c-0.3,0.2-0.6,0.5-0.9,0.5
			c-0.5,0-1.2,0-1.4-0.3c-0.2-0.3,0-1,0.2-1.4c0.2-0.4,0.7-0.7,1.1-1.1c3-3,5.8-6.2,6.9-10.4c1.8-6.8,0.9-13.1-4.6-17.9
			c-3.2-2.8-6.9-4.9-10.5-7.1c-4.2-2.7-8.4-5.2-11.5-9.3c-3.8-5-5.3-10.6-4.3-16.7c1.2-8.1,6.3-13.5,13.2-17.5
			c0.2-0.1,0.4-0.1,0.6-0.1C59.6,23.1,59.8,23.2,60.1,23.2z"/>
		<path class="st0" d="M76.3,41.7c0.2-5.8-2.4-10.3-6.1-14.4c-0.7-0.8-1.5-1.5-2.1-2.4c-0.2-0.4-0.3-1.1-0.1-1.5
			c0.1-0.2,1-0.3,1.3-0.1c5.9,3.2,10.6,7.6,12.2,14.3c1.6,6.4,0.7,12.6-3,18.2c-0.7,1.1-1.6,2.3-3.2,2.3c-1.9,0-3.3-1.8-2.7-3.6
			c0.6-1.7,1.6-3.3,2.1-5C75.6,46.9,75.7,44.2,76.3,41.7C76.2,41.7,76.4,41.7,76.3,41.7z"/>
		<path class="st0" d="M52.4,70.3c2.3-0.1,3.6,2,2.8,4c-1,2.4-2.1,4.8-2.8,7.3c-2,7.4,0.2,13.6,5.2,19.1c0.7,0.7,1.4,1.4,2,2.3
			c0.3,0.5,0.3,1.1,0.5,1.7c-0.6,0-1.3,0.2-1.8,0c-4.8-2.5-8.7-6-10.8-11c-3-7.2-2.2-14.1,1.7-20.8C50,71.6,50.9,70.4,52.4,70.3z"/>
	</g>
</g>
</svg>
