<?xml version="1.0" encoding="utf-8"?>
<!-- Generator: Adobe Illustrator 25.4.1, SVG Export Plug-In . SVG Version: 6.00 Build 0)  -->
<svg version="1.1" id="Layer_1" xmlns="http://www.w3.org/2000/svg" xmlns:xlink="http://www.w3.org/1999/xlink" x="0px" y="0px"
	 width="128px" height="128px" viewBox="0 0 128 128" style="enable-background:new 0 0 128 128;" xml:space="preserve">
<style type="text/css">
	.st0{fill:#31C77F;stroke:#1A2028;stroke-width:2;stroke-linecap:round;stroke-linejoin:round;stroke-miterlimit:10;}
	.st1{fill:#31C77F;}
	.st2{clip-path:url(#SVGID_00000008871948052141127130000014440235354419544210_);}
	.st3{fill:#FFFFFF;}
	.st4{fill:#FEFEFE;}
	.st5{fill:#E7EBEB;}
	.st6{fill:#EFF2F2;}
	.st7{fill:#030202;}
	.st8{fill:#FDFDFD;}
	.st9{fill:#0E0D0D;}
	.st10{fill:#191717;}
</style>
<g>
	<path class="st1" d="M64,122.6C31.7,122.6,5.4,96.3,5.4,64C5.4,31.7,31.7,5.4,64,5.4c32.3,0,58.6,26.3,58.6,58.6
		C122.6,96.3,96.3,122.6,64,122.6z M64,8.4C33.3,8.4,8.4,33.3,8.4,64c0,30.7,25,55.6,55.6,55.6c30.7,0,55.6-25,55.6-55.6
		C119.6,33.3,94.7,8.4,64,8.4z"/>
</g>
<g>
	<defs>
		<circle id="SVGID_1_" cx="64" cy="64" r="57.1"/>
	</defs>
	<clipPath id="SVGID_00000000914717844787810460000005092922247647935621_">
		<use xlink:href="#SVGID_1_"  style="overflow:visible;"/>
	</clipPath>
	<g style="clip-path:url(#SVGID_00000000914717844787810460000005092922247647935621_);">
		<path d="M127.5,202.7c-0.1,3.2-0.9,6.2-1.4,9.3c-0.5,2.6-1.2,5.2-2.2,7.7c-0.4,0.7-0.8,1.4-1.3,2.1c-0.2,0.4-0.5,0.5-0.9,0.5
			c-2.1,0.6-4.1,0.4-5.9-0.4c-1.3-0.5-1.7-1.4-1.8-2.7c-0.1-1.7-0.4-3.5-0.2-5.2c0.2-1.9,0-3.7-0.1-5.6c-0.1-2-0.2-3.9-0.4-5.9
			c-0.4-4.7-1.2-9.2-1.9-13.9c-0.5-3.2-1.2-6.2-2.2-9.2c-0.3-0.9-0.3-0.9-1.2-0.9c-4.9-0.1-9.7-0.1-14.6,0c-0.5,0-0.7,0.2-1,0.5
			c-1.8,2.2-2.8,4.7-3.7,7.2c-1,2.9-1.5,5.9-2.2,8.7c-1.3,5.8-2.5,11.5-3.7,17.3c-0.6,3-1.2,5.9-1.7,9c-0.2,1-0.5,1.9-1,2.8
			c-0.1,0.1-0.2,0.2-0.2,0.3c-0.4,2.3-2.2,3.2-4,3.9c-2.1,0.7-4.1,0.5-6.1-0.5c-1.4-0.7-2.2-1.9-2.3-3.5c-0.2-2.3-0.1-4.7-0.4-7.1
			c-0.5-4.1-0.5-8.4-1.1-12.5c-0.4-2.2-0.5-4.4-0.9-6.6c-0.1-0.3,0-0.5-0.3-0.9c-0.4,0.7-0.5,1.5-0.5,2.3c-0.4,1.8-0.6,3.6-1,5.3
			c-0.3,1-0.4,2.1-0.4,3.2c0.2,3-0.2,5.9-0.5,8.9c-0.1,1.2-0.2,2.4-0.2,3.6c0,1.6-0.5,3.1-1.4,4.3c-1,1.4-2.6,2-4.4,1.8
			c-0.8-0.1-1.6-0.4-2.4-0.6c-1.7-0.6-2.9-2.6-2.6-4.2c0.2-1.1,0.2-2.3,0-3.3c-0.4-2.6-0.5-5.3-0.7-7.9c-0.3-2-0.3-3.9-0.4-5.9
			c-0.1-3.8-0.4-7.7-0.9-11.4c-0.3-1.9-0.4-3.9-0.6-5.9c-0.6-4.3-1.4-8.6-2.3-12.9c-0.3-1-0.4-2-0.5-3c-0.1-0.5-0.3-1-0.6-1.4
			c-2-2.8-3.2-5.9-3.6-9.4c-0.5-4-0.5-7.9-0.7-11.9c-0.3-4.1,0-8.3-0.2-12.4c-0.2-5-0.2-10.1-0.5-15.1c-0.1-1.7-0.3-3.4,0.1-5.1
			c0.1-0.3,0-0.4-0.3-0.5c-0.5-0.4-0.8-0.8-1.2-1.3c-1.4-1.7-1.4-3.5-0.5-5.4c0.2-0.4,0.3-0.6,0-1.1c-1.2-2.3-0.7-4.6,1.4-6.2
			c0.1-0.1,0.1-0.1,0.2-0.2c0.9-0.4,0.9-1,1-1.9c0.1-1.4,0.2-2.8,0.2-4.2c0.1-1.8,0.2-3.6,0-5.4c-0.1-0.7-0.1-1.5,0.1-2.3
			c0.5-2.3,0.4-4.5,0-6.8c-0.2-1.4-0.3-2.7,0.1-4c0.3-1,0.2-2.1,0.3-3.2c0.1-1.8,0.3-3.6,0.2-5.4c-0.1-1.7,0.1-3.4,0.5-5.1
			c0.4-1.6,0.5-3.2,0.1-4.8c-0.4-1.4-0.3-2.7-0.1-4c0.2-1.3,0.2-2.4,0-3.7c-0.4-2.3-0.2-4.7,0.5-7c0.2-0.6,0.4-1.3,0.5-1.9
			c0.1-0.4,0.1-0.6-0.3-1c-0.8-0.8-1.4-1.8-1.8-2.8c-1.1-2.6-2.4-5.2-3-8c-0.4-2-0.8-4-0.8-5.9c0-0.4,0-0.7,0.1-1.1
			c0.3-1.1,1.1-1.7,2.3-1.7c0.9,0,1.8,0.4,2.5,0.9c1.6,1.2,3,2.6,4.2,4.1c1.4,1.7,2.9,3.3,4.3,5c0.5,0.5,0.8,0.6,1.4,0.4
			c3.2-1.3,6.5-1.1,9.8-0.9c1,0.1,1.8,0.4,2.7,0.8c0.5,0.3,1,0.3,1.4-0.3c1.4-1.7,2.9-3.4,4.4-5.1c1.3-1.4,2.6-2.9,4.1-4
			c0.6-0.5,1.4-0.7,2.1-0.9c1.6-0.4,2.8,0.5,2.9,2.3c0.1,1.2-0.1,2.3-0.3,3.6c-0.5,4.2-2.2,8-4,11.8c-0.4,0.6-0.7,1.3-1.3,1.8
			c-0.4,0.4-0.4,0.7-0.3,1.3c0.5,1.7,0.9,3.3,1,5.1c0.1,1.5,0.1,3-0.3,4.4c-0.2,0.7,0,1.5,0.1,2.3c0.3,1.6,0.3,3.2-0.1,4.9
			c-0.4,1.5-0.3,3,0.2,4.4c0.5,1.9,0.5,3.8,0.5,5.8c0,2.7,0,5.4,0.5,8c0.4,1.8,0.1,3.6-0.1,5.3c-0.2,1.5-0.2,3.1,0.1,4.6
			c0.2,1.2,0.4,2.3,0.2,3.6c0,0.1-0.1,0.3,0.2,0.4c0.3-0.3,0.6-0.5,0.9-0.8c1.9-1.6,4-3.1,6.1-4.3c6-3.2,12.3-6,18.6-8.4
			c7.4-2.7,14.9-5.5,22.1-8.8c1.4-0.6,2.6-1.3,3.8-2.1c1-0.6,2-1.2,3.1-1.7c0.6-0.4,1.3-0.3,1.8,0.2c0.5,0.4,0.9,0.8,1.3,1.2
			c2.6,2.8,5.7,4.9,9.1,6.4c3.8,1.6,7.6,3.2,11.3,5.1c1.2,0.6,2.3,1.2,3.4,2c1.1,0.8,1.1,1.4,0,2.3c-0.6,0.5-1.3,0.9-1.9,1.3
			c-3.6,1.9-7.1,3.9-10.9,5.5c-1.2,0.5-2.4,0.9-3.7,1.4c-3.7,1.2-7.4,2.5-11.3,3.5c-2.2,0.5-4.4,0.7-6.7,1c-6,0.7-12.1,1.7-17.9,3.7
			c-3.4,1.2-6.6,2.8-9.8,4.4c-2.3,1.2-4.4,2.4-6.7,3.7c0.2,0.4,0.5,0.2,0.6,0.3c8,0.3,16-0.1,24.1-0.6c5-0.4,10.1-0.5,15.1-0.3
			c2.4,0.1,4.9,0.5,7.1,1.4c1.3,0.5,2.3,1,3.4,1.9c0.4,0.3,0.5,0.4,0.8-0.1c0.5-1,1.4-1.6,2.4-2.1c1.4-0.6,2.8-1.3,4.3-1.5
			c2.2-0.4,4.2,0.2,6.3,0.7c4.1,1.1,6.6,4.1,8.4,7.7c0.6,1.3,1,2.6,1.1,4.1c0.1,0.6,0,1.3-0.2,2c-0.5,1.9-2.2,2.9-4,3
			c-0.3,0-0.5-0.1-0.9-0.1c0.2,0.8,0.3,1.5,0.3,2.3c0,1.3-0.2,2.4-1,3.5c-1.3,1.7-3,1.9-4.9,1.4c-0.9-0.2-1.6-0.6-2.4-1.1
			c0.1,1,0.2,1.7,0.3,2.5c0.1,1,0.3,2.1,0.4,3.2c0.4,5,0.6,10,0.5,15c-0.1,5.1-0.5,10.3-0.8,15.3c-0.3,4.8-0.6,9.5-1,14.2
			c-0.4,4.3-0.9,8.6-1.4,13.1c-0.7,6.4-1.7,12.8-2.8,19.2c-0.5,3.1-1.2,6.1-2,9.2c-0.2,0.7-0.5,1.4-0.8,2.2c-0.3,0.5-0.5,0.9-1,1
			c-1.1,0.4-2.2,1-3.3,0.8c-1.4-0.2-2.8-0.2-4.1-0.4c-0.5-0.1-0.9-0.2-1.3-0.3c-1.3-0.4-2.2-1.2-2.3-2.5c-0.2-1-0.4-2.1-0.4-3.2
			c-0.2-2.1-0.4-4.1-0.5-6.2c-0.2-2.1-0.6-4.1-1-6.1C128,204.5,127.8,203.6,127.5,202.7C127.6,202.2,127.6,202.5,127.5,202.7z"/>
		<path class="st3" d="M48.8,173.4c0.8,0.8,1.7,1.5,2.6,2.3c1.4,1,2.8,1.9,4.2,2.6c0.4,0.2,0.8,0.4,1.3,0.4c0.6,0,0.8-0.3,0.5-0.8
			c-0.3-0.5-0.8-1-1.3-1.4c-1.8-1.4-3.7-2.9-5.5-4.3c-4.3-3.6-6.4-8.3-6.8-13.9c-0.5-7.7-0.6-15.2-0.9-22.9
			c-0.2-4.4-0.1-8.8-0.5-13.2c-0.2-1.8-0.2-3.6-0.3-5.5c0.5,0,1,0.3,1.4,0.5c2.1,0.5,4.1,0.9,6.2,1c1,0,2-0.1,3-0.2
			c1.9-0.2,3.8-0.4,5.7-0.6c0.7-0.1,1.4,0.1,2.1,0.1c0.6,0,1.2,0.1,1.7-0.2c1-0.5,2-0.5,3.1-0.7c2.3-0.2,4.4-0.7,6.6-1.4
			c2.2-0.7,4.4-1.4,6.4-2.3c2.1-1,4-2.3,5-4.3c0.2-0.4,0.4-0.5,0.7-0.5c0.3,0,0.5-0.1,0.9-0.1c6.7,0.1,13.3,0.3,20.1,0
			c3.6-0.1,7.2-0.4,10.8-0.5c1.4-0.1,2.9,0,4.4-0.1c2.9-0.2,5.7-0.2,8.5,0c2.6,0.1,5.1,0.6,7.6,1.6c1.6,0.6,3,1.6,4.1,2.9
			c0.3,0.4,0.5,0.6,1,0.8c0.3,0.1,0.5,0.2,0.8,0c0.3-0.3,0.4-0.5,0.3-0.9c-0.1-0.5-0.3-0.8-0.5-1.2c-0.3-0.4-0.2-0.5,0.1-0.8
			c0.6-0.6,1.4-1.2,2.2-1.7c2.9-1.7,5.9-1.9,9-0.7c1.4,0.5,2.7,1.3,3.8,2.3c2.2,2.1,3.7,4.5,4.1,7.5c0.1,0.7,0.2,1.4-0.2,2.2
			c-0.5,1.1-1.9,1.8-3.1,0.7c-0.4-0.4-0.6-0.6-1-0.9c-0.3-0.2-0.5-0.4-0.7-0.5c-0.4-0.2-0.8-0.3-1.1,0.1c-0.3,0.4-0.2,0.7,0.1,1
			c0.4,0.5,0.8,1,1,1.7c0.6,1.6,0.8,3.2,0.3,5c-0.3,1-1,1.5-2.1,1.7c-2.3,0.3-4.4-1.2-5.1-3.3c-0.3-0.9-0.6-1.8-1-2.8
			c-0.1-0.3-0.3-0.5-0.4-0.8c-0.2-0.3-0.5-0.4-0.7-0.4c-0.3,0.1-0.4,0.3-0.5,0.5c-0.1,0.5,0,1,0.1,1.5c0.5,1.9,1.1,3.7,1.3,5.7
			c0.4,2.7,0.7,5.3,0.8,8c0,0.8,0.1,1.6,0.2,2.3c0.4,6.8,0,13.6-0.5,20.4c-0.2,2.8-0.3,5.7-0.5,8.5c-0.5,6.3-1,12.6-1.7,18.9
			c-0.7,6.8-1.7,13.5-2.7,20.4c-0.5,3.9-1.3,7.7-2.2,11.5c-0.2,0.9-0.5,1.7-0.8,2.6c-0.2,0.5-0.5,0.7-1.1,0.7
			c-1.8-0.2-3.6-0.3-5.3-0.4c-0.4,0-0.6-0.1-1-0.2c-0.5-0.1-0.7-0.4-0.8-0.8c-0.1-0.7-0.3-1.5-0.4-2.3c-0.3-2.5-0.5-5.1-0.7-7.7
			c-0.4-2.9-0.9-5.8-1.7-8.6c-1.2-3.9-2.3-7.7-3.5-11.6c-1.3-4.1-3.2-7.8-5.6-11.4c-0.7-1.2-1.5-1.7-2.9-2c-1.4-0.2-2.9-0.4-4.3-0.5
			c-5.8-0.3-11.6-0.3-17.5-0.3c-0.6,0-1.3,0.1-1.8,0.1c-1.7-0.1-3,0.9-3.9,2.3c-1.8,2.4-3,5.2-3.8,8.2c-1.4,5.2-2.4,10.4-3.5,15.8
			c-0.7,3.6-1.5,7.1-2.3,10.6c-0.5,2.7-0.9,5.4-1.3,8.1c-0.2,0.9-0.4,1.9-0.5,2.8c-0.1,0.4-0.4,0.5-0.5,0.8c-2.1,1.8-5.5,2.2-7.8,1
			c-0.5-0.3-0.8-0.6-0.8-1.3c0-2.3,0.1-4.4-0.3-6.7c-0.5-4-0.5-7.9-1-12c-0.8-6.3-1.6-12.6-3.1-18.8c-0.5-2.2-1.4-4.3-2.3-6.3
			c-0.5-0.9-1-1.6-1.8-2.2c-0.3-0.2-0.5-0.4-0.9-0.4c-0.5,0-0.8,0.4-0.6,0.8c0.1,0.3,0.4,0.5,0.5,0.8c0.8,0.9,1.3,1.9,1.8,3
			c1.1,2.5,1.8,5.1,2.3,7.8c0.2,0.9,0.1,1.7-0.3,2.6c-0.6,1.7-1,3.5-1.4,5.2c-0.5,2.8-1.2,5.6-1.5,8.4c-0.1,0.4-0.1,0.7-0.1,1.1
			c0.1,3.9-0.3,7.7-0.4,11.5c0,0.8-0.1,1.5-0.2,2.3c-0.2,1.7-1.3,2.8-3,2.7c-1.4-0.1-2.7-0.4-3.6-1.5c-0.2-0.3-0.4-0.5-0.4-0.8
			c0.4-2.1,0.1-4.1-0.2-6.2c-0.5-4.7-0.8-9.4-0.9-14.1c-0.1-3.5-0.5-7-1-10.5c-0.5-3.7-1.1-7.4-1.7-11.1c-0.4-2-0.8-3.9-1.3-5.9
			c-0.1-0.3-0.1-0.5-0.2-0.8C48.7,173.5,48.7,173.4,48.8,173.4z"/>
		<path class="st3" d="M73.5,39.4c-1.1-1.6-1.1-1.6-0.3-3.2c1-1.9,2.1-3.8,2.8-5.8c0.3-0.9,0.5-1.7,0.5-2.7c0-0.5-0.2-1.1-0.7-1.4
			c-0.5-0.3-1,0-1.4,0.4c-0.5,0.5-1,0.9-1.4,1.4c-1.5,1.7-3.2,3.2-4.1,5.2c-0.2,0.4-0.9,0.5-0.6,1.2c0.2,0.4,0.6,0.6,0.9,1
			c1.5,1.9,2.8,4,3.6,6.3c0.5,1.5,0.8,3.1,1,4.6c0.1,0.8,0.1,0.8-0.7,1c-2,0.5-4,1.1-6,1.6c-0.2,0.1-0.4,0.1-0.5,0.2
			c-0.5,0.2-0.5,0.5-0.1,0.8c0.3,0.2,0.5,0.3,0.5,0.6c0.4,1.4,1.3,2.3,2.7,2.5c1.4,0.2,2.8,0,3.6-1.4c0.1-0.1,0.1-0.1,0.3-0.1
			c-0.1,1.6,0.1,3.2,0.4,5c0.1,0.4,0,0.6,0,1c-0.5,2.1-0.4,4.1,0.1,6.2c0.5,2.3,0.5,4.5,0.3,6.8c-0.2,1.7,0,3.3,0.3,5
			c0.4,1.8,0.5,3.7,0.3,5.5c-0.2,1.9-0.2,3.8,0.1,5.7c0.2,1.2,0.2,2.3,0.1,3.6c-0.1,3.2-0.1,6.3,0.3,9.5c0.1,1-0.1,1.6-0.8,2.3
			c-3.2,3.4-6.9,6.4-10.7,9.2c-0.1,0.1-0.3,0.2-0.4,0.3c-0.4,0.5-0.7,0.5-1.3,0.2c-1-0.5-2-0.3-2.8,0.3c-0.5,0.3-0.8,0.3-1.3,0
			c-2.3-1.1-4.4-2.3-6.4-3.7c-2.7-2-5.5-3.9-7.8-6.2c-0.5-0.5-0.8-1.1-0.7-1.9c0.4-3.7,0.5-7.3,0.3-11c0-0.6,0-1.3,0.1-1.8
			c0.4-2.6,0.3-5.1,0.1-7.7c-0.1-1.1,0-2.1,0.2-3.2c0.4-2.3,0.6-4.5,0.4-6.8c-0.3-2.2,0-4.4,0.5-6.5c0.4-1.8,0.4-3.6,0-5.4
			c-0.1-0.4-0.2-0.8-0.1-1.2c0.3-1.4,0.4-2.7,0.5-4.2c1.3,1.2,2.7,1.2,4.1,0.9c1.2-0.3,2-1,2.4-2.2c0.2-0.4,0.3-0.8,0.8-0.6
			c0.3,0.1,0.6,0,0.6-0.4c0-0.4-0.3-0.5-0.5-0.5c-1.8-0.5-3.7-0.9-5.5-1.3c-0.6-0.2-1.2-0.3-1.8-0.4c-0.5-0.1-0.6-0.4-0.5-0.8
			c0.3-2.3,0.7-4.4,1.6-6.5c0.9-2.1,2-4,3.6-5.5c0.2-0.2,0.5-0.5,0.4-0.7c-0.1-0.3-0.4-0.5-0.7-0.4s-0.5-0.1-0.6-0.3
			c-0.4-0.5-0.6-1-0.9-1.4c-1-1.6-2.2-3.1-3.3-4.4c-0.3-0.4-0.5-0.5-0.9-0.8c-1-0.7-1.9-0.4-2,0.9c-0.1,0.8,0,1.6,0.3,2.3
			c1,2.6,1.8,5.4,3.3,7.7c0.4,0.6-0.2,0.9-0.4,1.4c-0.4-0.3-0.5-0.6-0.7-1c-2.1-3.6-3.8-7.4-4.5-11.5c-0.2-1.1-0.2-2.2-0.2-3.2
			c0.1-1.2,0.6-1.5,1.7-1.2c0.8,0.3,1.4,0.7,2.1,1.4c2.1,1.9,3.9,4.1,5.8,6.2c0.5,0.5,1,1.2,1.5,1.7c0.4,0.4,0.5,0.7,0.6,1.2
			c0.1,0.5,0.5,0.7,1,0.5c0.2-0.1,0.3-0.1,0.4-0.2c0.9-0.6,2-0.9,3.1-1c3.1-0.5,6-0.4,9,0.3c0.5,0.1,0.9,0.4,1.3,0.6
			c0.9,0.5,1.3,0.4,1.5-0.5c0.1-0.3,0.3-0.5,0.5-0.7c2.4-2.7,4.7-5.7,7.4-8.1c0.5-0.5,1.2-1.1,2-1.4c1.3-0.5,1.8,0,1.9,1.4
			c0.2,2.5-0.5,5-1.3,7.4c-0.8,2.3-1.9,4.6-3.2,6.8C74.1,38.4,73.8,38.9,73.5,39.4z"/>
		<path class="st1" d="M156.7,80.7c-1.5,0.8-3,1.6-4.4,2.3c-2.3,1.3-4.8,2.4-7.2,3.5c-1.3,0.5-2.5,1-3.9,1.4c-3.2,1-6.2,2-9.4,2.9
			c-2.9,0.9-5.9,1.2-8.9,1.5c-3.8,0.5-7.6,1-11.3,1.9c-3.2,0.8-6.5,1.6-9.5,2.9c-2.3,1-4.7,2.2-6.9,3.4c-2.5,1.4-5,2.8-7.6,4.3
			c-1,0.5-2.1,0.9-3.2,1.3c-0.4,0.1-0.6,0.1-0.7-0.4c-0.4-1.1-1.2-1.9-2.3-2.4c-0.4-0.2-0.5-0.5-0.5-0.9c0-0.6,0-1.3-0.2-1.8
			c-0.3-0.7-0.7-1.3-1.5-1.4c-0.7-0.2-1.4-0.4-2.2-0.4c-0.5,0.1-0.6-0.1-0.7-0.5c0-0.4-0.1-0.7-0.1-1.1c0-1,0.1-1.9-0.1-2.8
			c-0.2-1.1,0.2-1.8,1-2.5c2.8-2.5,5.9-4.3,9.2-5.9c7.1-3.5,14.4-6.3,21.9-9c6.5-2.3,12.9-5,19.1-8c1.4-0.7,2.8-1.5,4.1-2.3
			c0.4-0.3,0.7-0.3,1,0.2c2.5,3.3,5.9,5.4,9.7,7c4.1,1.8,8.1,3.7,12.2,5.7C155.1,79.7,155.8,80.2,156.7,80.7z"/>
		<path class="st1" d="M40.2,109.3c0.4,0.2,0.6,0.3,0.8,0.4c0.4,0.2,0.8,0.2,1.1-0.3c0.3-0.5,0-0.7-0.3-1c-0.4-0.4-0.7-0.6-1.1-1
			c-1.4-1.4-0.8-3.7,0.5-4.5c0.4-0.2,0.5-0.3,0.8,0.1c0.1,0.1,0.2,0.2,0.3,0.3c2.8,3.2,6.3,5.4,9.7,7.7c1.6,1,3.2,2,5,2.7
			c0.5,0.2,0.6,0.4,0.5,0.9c-0.1,0.4-0.1,0.8,0.1,1.2c0.2,0.4-0.1,0.5-0.4,0.5c-0.5,0.1-1.2,0.2-1.7,0.2c-2.3,0-4.4,0.5-6.6,0.3
			c-2.3-0.2-4.4-0.7-6.5-1.7c-0.7-0.4-1.4-0.8-1.9-1.4C39.7,112.2,39.6,110.9,40.2,109.3z"/>
		<path class="st1" d="M65.5,114.9c-0.4-0.1-0.8,0.4-1.1,0c-0.3-0.3-0.3-0.6-0.4-1c-0.1-0.2-0.1-0.3-0.2-0.4
			c-0.4-0.4-0.1-0.5,0.3-0.8c1.9-1.2,3.6-2.7,5.4-4c2.3-1.6,4.1-3.6,6-5.7c0.6-0.6,1-1.4,1-2.3c0-0.4,0.2-0.5,0.5-0.5
			c0.4,0.1,0.7,0.1,1.1,0.2c1.1,0.3,1.5,1.2,1.1,2.3c-0.2,0.5-0.5,0.8-0.7,1.3c-0.2,0.4-0.3,0.6,0.1,0.9c0.3,0.3,0.6,0.2,0.9,0.1
			c0,0,0.1,0,0.1-0.1c0.3-0.1,0.5-0.5,0.7-0.5c0.4,0.1,0.8,0.4,1.1,0.6c0.8,0.6,1.1,1.4,0.8,2.2c-0.4,0.9-0.9,1.7-1.5,2.3
			c-1.4,1.3-3.1,2.2-4.8,2.7c-2.9,1-5.9,2-8.9,2.5C66.6,114.8,66.1,114.9,65.5,114.9z"/>
		<path class="st4" d="M45.6,37.5c-1.1-1.1-1.7-2.3-2.2-3.6c-0.5-1.5-1.1-3.2-1.5-4.8c-0.1-0.4-0.1-0.7-0.1-1.1
			c0-0.3-0.1-0.5,0.3-0.6c0.3-0.1,0.5,0.1,0.7,0.3c0.9,0.8,1.7,1.7,2.3,2.8c0.8,1.3,1.5,2.5,2.3,3.8c0.4,0.5,0.4,0.9-0.2,1.2
			C46.6,35.9,46.3,36.7,45.6,37.5z"/>
		<path class="st4" d="M71.9,36.9c-0.5-0.9-1.3-1.5-2-2.3c-0.4-0.4-0.4-0.6-0.1-1c1.1-1.7,2.3-3.2,3.7-4.9c0.4-0.5,0.7-1,1.3-1.4
			c0.5-0.4,0.9-0.3,1,0.5c0,0.2,0,0.4,0,0.5c-0.4,1.4-0.6,2.8-1.4,4.1c-0.7,1.2-1.4,2.4-2,3.7C72.3,36.5,72.2,36.7,71.9,36.9z"/>
		<path class="st1" d="M60.9,116.1c-0.1,0-0.4,0-0.5-0.1c-0.8-0.1-1.3-0.5-1.4-1.1c-0.1-0.6,0.4-1.4,1-1.6c1.2-0.5,2.3-0.2,2.8,0.9
			c0.4,0.6,0.3,1-0.4,1.4C62.1,115.9,61.6,116.1,60.9,116.1z"/>
		<path class="st5" d="M46.8,50.8c-0.5,0-0.9-0.3-0.9-0.7c0-0.5,0.3-0.8,0.6-0.8c0.5,0,0.8,0.3,0.9,0.7
			C47.4,50.5,47.3,50.8,46.8,50.8z"/>
		<path class="st6" d="M70.1,50.1c-0.1,0.4-0.2,0.7-0.6,0.8c-0.4,0.1-0.8-0.3-0.8-0.7c0-0.5,0.3-0.6,0.7-0.7
			C69.8,49.4,70,49.7,70.1,50.1z"/>
		<path class="st7" d="M59.7,51.6c0.5-0.6,1.3-1,2.1-0.9c1.4,0,2.3,0.9,2.3,2.2c0.1,0.6,0.1,1.4-0.2,1.9c-0.2,0.5-0.2,0.9,0.4,1.3
			c1.1,0.9,1.6,2,1.5,3.4c0,0.5-0.2,1.1-0.5,1.5c-0.5,0.5-0.8,1.1-1.1,1.7c-0.6,1.4-1.7,2-3.1,2.2c-1.4,0.3-2.9-0.2-4.1-1
			c-0.6-0.5-1.1-1-1.4-1.8c-0.1-0.4-0.3-0.6-0.6-0.8c-1.3-0.9-1.6-2.3-0.8-3.6c0.3-0.5,0.5-0.9,0.9-1.2c0.5-0.5,0.6-0.9,0.5-1.5
			c-0.3-0.8-0.1-1.6,0.2-2.4c0.5-1.6,1.9-2.1,3.3-1.2C59.3,51.4,59.5,51.5,59.7,51.6z"/>
		<path class="st3" d="M63,61c-0.8-0.1-1.6-0.5-2.3-1.4c-0.8-1.3-0.8-1.3-1.6,0c-0.6,1-1.5,1.4-2.6,1.4c-1.5-0.1-2.3-1.6-1.4-2.9
			c0.4-0.5,0.7-0.9,1.2-1.3c0.7-0.5,0.8-0.6,0.5-1.5c-0.2-0.6-0.4-1.2-0.4-1.8c0.1-1.4,1.2-2,2.4-1.3c0.2,0.1,0.4,0.3,0.5,0.4
			c0.5,0.3,0.8,0.3,1.1-0.3c0.4-0.6,0.9-0.6,1.5-0.6c0.6,0.1,1,0.5,1.3,1.1c0.2,0.4,0.1,0.6,0,1c-0.2,0.5-0.4,0.9-0.5,1.3
			c-0.4,0.9-0.4,1.1,0.5,1.5c0.8,0.4,1.4,0.8,1.7,1.6C65.5,59.5,64.6,61,63,61z"/>
		<path class="st8" d="M56.8,62c1.6-0.2,1.7-0.2,3.3-1.8c0.9,1.2,2,1.8,3.5,1.7c-0.5,1.4-1.4,2-2.9,2C59.1,63.9,57.2,63.6,56.8,62z"
			/>
		<path class="st9" d="M58.1,53.6c0.1,0,0.3,0.1,0.4,0.2c0.3,0.4,0.5,0.8,0.5,1.3c0,0.3-0.1,0.5-0.4,0.5c-0.2,0.1-0.4,0-0.5-0.2
			c-0.4-0.4-0.6-0.8-0.5-1.4C57.6,53.8,57.8,53.6,58.1,53.6z"/>
		<path class="st10" d="M60.7,54.5c0.1-0.2,0.2-0.5,0.4-0.8c0.1-0.3,0.4-0.5,0.6-0.3c0.2,0.1,0.4,0.4,0.3,0.5
			c-0.1,0.4-0.2,0.6-0.3,0.9c-0.1,0.3-0.4,0.5-0.6,0.4C60.7,55.1,60.7,54.8,60.7,54.5z"/>
	</g>
</g>
</svg>
