<svg enable-background="new 0 0 512 512" height="512" viewBox="0 0 512 512" width="512" xmlns="http://www.w3.org/2000/svg"><path d="m512 214.5c0-118.276-96.225-214.5-214.5-214.5-78.037 0-146.465 41.894-183.999 104.367-70.02 38.201-113.501 111.209-113.501 190.633 0 119.654 97.346 217 217 217 78.528 0 151.193-42.797 189.638-111.69.309-.554.566-1.121.798-1.694 62.581-37.509 104.564-105.998 104.564-184.116zm-295 267.5c-103.112 0-187-83.888-187-187 0-53.042 22.536-102.761 60.78-137.787-5.062 18.244-7.78 37.453-7.78 57.287 0 118.275 96.225 214.5 214.5 214.5 19.829 0 39.033-2.717 57.273-7.776-35.063 38.223-84.879 60.776-137.773 60.776zm80.5-83c-101.733 0-184.5-82.767-184.5-184.5 0-101.734 82.767-184.5 184.5-184.5s184.5 82.766 184.5 184.5c0 101.733-82.767 184.5-184.5 184.5z"/><path d="m405.025 213.493c-8.973-6.537-19.712-10.221-30.097-13.783-1.799-.617-5.682-1.952-5.837-2.001-17.184-6.365-20.156-10.817-20.091-18.014.131-14.517 15.177-15.701 20.018-15.701h.132c8.771.039 22.683 4.263 22.683 15.431 0 8.284 6.716 15 15 15s15-6.716 15-15c0-23.299-17.058-38.149-36.832-43.347v-3.662c0-8.284-6.716-15-15-15s-15 6.716-15 15v3.198c-7.127 1.696-13.651 4.69-19.072 8.837-10.787 8.251-16.798 20.672-16.926 34.975-.289 32.329 28.716 42.573 42.654 47.497.443.156 2.8.911 3.538 1.164 21.278 7.299 27.891 11.11 27.805 20.728-.13 14.518-15.178 15.7-20.018 15.7-.045 0-.089 0-.132 0-8.77-.039-22.683-4.263-22.683-15.431 0-8.284-6.716-15-15-15s-15 6.716-15 15c0 23.299 17.059 38.15 36.833 43.347v4.153c0 8.284 6.716 15 15 15s15-6.716 15-15v-3.69c7.127-1.696 13.651-4.69 19.072-8.837 10.786-8.251 16.797-20.672 16.925-34.974.134-14.831-5.913-26.806-17.972-35.59z"/><path d="m262.794 134.304c-1.69-6.649-7.677-11.304-14.537-11.304h-22.514c-6.86 0-12.847 4.655-14.537 11.304l-38.744 152.372c-2.042 8.029 2.812 16.192 10.841 18.233 8.027 2.042 16.192-2.812 18.233-10.841l12.477-49.068h45.974l12.477 49.068c1.726 6.789 7.828 11.308 14.526 11.307 1.223 0 2.468-.151 3.707-.466 8.029-2.041 12.883-10.205 10.841-18.233zm-41.153 80.696 15.359-60.402 15.359 60.402z"/></svg>