<?xml version="1.0" encoding="utf-8"?>
<!-- Generator: Adobe Illustrator 25.2.1, SVG Export Plug-In . SVG Version: 6.00 Build 0)  -->
<svg version="1.1" id="Layer_1" xmlns="http://www.w3.org/2000/svg" xmlns:xlink="http://www.w3.org/1999/xlink" x="0px" y="0px"
	 width="128px" height="128px" viewBox="0 0 128 128" style="enable-background:new 0 0 128 128;" xml:space="preserve">
<style type="text/css">
	.st0{fill:#EEF4F4;}
	.st1{fill:#E2B900;}
	.st2{fill:#004B95;}
	.st3{fill:#A4234B;}
	.st4{fill:#FFFFFF;}
	.st5{fill:#DB2F36;}
	.st6{fill:#FFDF00;}
</style>
<circle class="st0" cx="64" cy="64" r="63.5"/>
<g>
	<path d="M75.4,23.7c-3.8,2.6-7.4,3.8-11.4,3.8c-4,0-7.7-1.2-11.4-3.8l-1-0.7l-1,0.7c-4.3,2.8-7.7,3.3-13,3.3c-1.8,0-3.8-0.3-5.7-1
		l-1.3-0.4l-0.8,1.1c-0.4,0.6-0.7,0.9-1,1.3c-0.4,0.4-0.7,0.8-1.1,1.5l-0.6,1l0.7,1c3.2,4.3,4.4,8.7,4.4,12.9
		c0,7.7-4.2,14.6-7.6,18.1l-1.2,1.2l1.2,1.2c0.7,0.7,1.8,1.9,2.8,2.9l0,0.5l0,0.1c0,0.7-0.1,1.5-0.1,2.2c0,7.9,2.3,14.4,6.9,19.5
		c5.3,5.9,13.7,9.4,23.5,9.9c2.4,2.2,4.9,4.1,5,4.2l1.1,0.8l1.1-0.8c0.1-0.1,2.6-1.9,5-4.2c9.8-0.5,18.2-4,23.5-9.9
		c4.6-5.1,6.9-11.6,6.9-19.5c0-0.7,0-1.5-0.1-2.2l0,0l0-0.1c0,0,0-0.5,0-0.5c0.9-0.9,2.1-2.2,2.8-2.9l1.2-1.2l-1.2-1.2
		c-3.3-3.5-7.6-10.3-7.6-18.1c0-4.2,1.2-8.6,4.4-12.9l0.7-1l-0.6-1c-0.4-0.6-0.7-1.1-1.1-1.5c-0.3-0.4-0.6-0.7-1-1.3l-0.8-1.1
		l-1.3,0.4c-1.9,0.7-3.8,1-5.7,1c-5.3,0-8.7-0.5-13-3.3l-1-0.7L75.4,23.7z"/>
	<path class="st1" d="M64,102.7c0,0-2.8-2.1-5.4-4.5c-16.6-0.7-30.4-10-29.4-29.8c0.1-0.5,0-0.5,0.1-1.4c-1-1-2.5-2.7-3.4-3.5
		c6-6.2,12.9-20.4,3.3-33.2c0.6-1,1.1-1.4,2-2.7c1.9,0.7,4.1,1.1,6.2,1.1c5.5,0,9.3-0.6,14-3.6c3.7,2.6,7.7,4.2,12.4,4.2
		c4.8,0,8.8-1.6,12.4-4.2c4.7,3.1,8.4,3.6,14,3.6c2.2,0,4.3-0.4,6.2-1.1c0.9,1.3,1.4,1.7,2,2.7C89,43.3,96,57.4,102,63.6
		c-0.8,0.8-2.4,2.5-3.4,3.5c0.1,0.9,0,0.9,0.1,1.4C99.8,88.3,86,97.6,69.4,98.3C66.8,100.7,64,102.7,64,102.7L64,102.7z"/>
	<path d="M32.5,67.3h-0.2l-0.1,0.9L32,68.7c-0.4,7.6,1.5,13.8,5.6,18.3c4.7,5.2,12.4,8.2,22.2,8.6c0,0,0.2,0,0.2,0
		c2.9,0,5.7,0,8.1,0c9.8-0.4,17.5-3.4,22.2-8.6c4.1-4.5,6-10.7,5.6-18.3c0,0-0.1-0.6-0.1-0.6l-0.1-0.8l-0.2,0L32.5,67.3L32.5,67.3z"
		/>
	<path class="st2" d="M32.7,67.8l0,0.4c0,0-0.1,0.5-0.1,0.5c0,0.6,0,1.2,0,1.9c0,6.6,1.9,12,5.6,16c0.9,1,1.9,1.9,3,2.7V67.8H32.7z
		 M95.4,68.8l-0.1-0.5l0-0.4H87v21.5c1.1-0.8,2.1-1.7,3-2.7c3.7-4,5.6-9.4,5.6-16C95.5,70,95.5,69.4,95.4,68.8z"/>
	<path class="st3" d="M50.2,67.8H41v21.5c2.5,1.9,5.6,3.3,9.2,4.3V67.8z M77.8,67.8v25.8c3.6-1,6.6-2.4,9.2-4.3V67.8H77.8z"/>
	<path class="st2" d="M55.2,81.1c0-3.2,1.7-6,4.2-7.5v-5.7h-9.2v25.8c2.8,0.8,5.9,1.2,9.2,1.4v-6.4C56.9,87,55.2,84.3,55.2,81.1z
		 M68.6,67.8v5.7c2.5,1.5,4.2,4.3,4.2,7.5s-1.7,6-4.2,7.5V95c3.3-0.2,6.4-0.6,9.2-1.4V67.8H68.6z"/>
	<path class="st3" d="M68.6,73.6v-5.7h-9.2v5.7c1.3-0.8,2.9-1.3,4.6-1.3C65.7,72.3,67.3,72.7,68.6,73.6L68.6,73.6z M59.4,88.6V95
		c0.2,0,0.3,0,0.5,0l0.2,0c2.9,0,5.7,0,8,0c0.2,0,0.3,0,0.5,0v-6.4c-1.3,0.8-2.9,1.3-4.6,1.3C62.3,89.9,60.7,89.4,59.4,88.6z"/>
	<path class="st1" d="M59.5,82.7c-1.6-1.5-1.6-4.4-1.2-6.4c0.1-0.5,0.3-1.1,0.4-1.7c-1.9,1.5-3.1,3.8-3.1,6.5c0,1.1,0.2,2.1,0.6,3.1
		c0.1,0,0.3,0,0.4,0C58,84.2,59,83.6,59.5,82.7L59.5,82.7z M68.1,83.3c-0.3,1.4-1.8,2.4-3.2,3.3c-1.4,0.9-3.8,1.3-5.5,1.4
		c1.3,0.9,2.9,1.4,4.6,1.4c3.1,0,5.9-1.7,7.3-4.3C71,83,69.1,82.8,68.1,83.3L68.1,83.3z"/>
	<path class="st1" d="M58.7,87.5c1.7,0,4.4-0.4,5.9-1.3c2-1.2,3.5-2.4,2.8-4.2c-0.4-0.9-1.6-1.9-3.2-0.8c-0.1,1.3-1.7,2.4-2.9,2.3
		c-0.6-0.1-1.1-0.3-1.5-0.5c-0.6,1.1-1.8,1.7-3.2,1.7c-0.1,0-0.1,0-0.2,0C57,85.8,57.8,86.7,58.7,87.5L58.7,87.5z M64,75.9
		c1.4-0.6,3.3,0.2,4.7,1c1.4,0.8,2.8,2.2,3.6,3.7c-0.3-4.3-3.8-7.8-8.2-7.8C62.8,73.6,62.9,75.2,64,75.9z"/>
	<path class="st1" d="M63.7,81.2C62,80,62.2,78,62.9,76.8c0.2-0.3,0.4-0.5,0.6-0.7c-1-0.8-1.2-2.3-0.2-3.4c-1.4,0.1-2.7,0.6-3.9,1.4
		c-0.4,1.6-0.8,3-0.8,4.6c0,2.2,0.9,4,2.9,4.2C62.3,83.1,63.6,82.2,63.7,81.2L63.7,81.2z"/>
	<path class="st1" d="M72.3,81.8c-0.5-1.7-2.2-3.6-3.8-4.5c-2-1.1-4.2-1.7-5.2-0.2c-0.6,1-0.7,2.6,0.7,3.7c1.9-1.3,3.4,0,3.9,1
		c0.1,0.3,0.2,0.7,0.2,1c1.1-0.4,3-0.1,3.5,1.6C72,83.6,72.2,82.7,72.3,81.8L72.3,81.8z"/>
	<path d="M56.4,57.7h-5.8v8.2h1.8v-3.4h2.4v-1.7h-2.4v-1.3h4.1L56.4,57.7L56.4,57.7z M59.8,61.8c0,2.6,1.4,4.2,3.6,4.2
		c1.4,0,2.4-0.6,3-1.9l0-0.1L65,63.2l0,0.1c-0.4,0.7-0.8,1-1.5,1c-1.1,0-1.8-1-1.8-2.5c0-1.5,0.7-2.5,1.8-2.5c0.6,0,1.1,0.3,1.4,0.8
		l0,0.1l1.6-0.8l0-0.1c-0.6-1.2-1.6-1.8-3-1.8C61.3,57.6,59.8,59.3,59.8,61.8L59.8,61.8z M76.3,61.5c0.5-0.4,0.8-0.9,0.8-1.5
		c0-1.4-1-2.2-2.6-2.2h-3.8v8.2h3.7c1.8,0,2.9-1,2.9-2.7C77.4,62.5,77,61.8,76.3,61.5L76.3,61.5z M72.5,59.4h1.9
		c0.8,0,0.9,0.4,0.9,0.7c0,0.5-0.3,0.7-0.8,0.7h-2L72.5,59.4z M74.5,64.2h-2v-1.9h2c0.7,0,1.1,0.3,1.1,0.9
		C75.6,63.9,75.2,64.2,74.5,64.2z M76.4,28.5c-4,2.4-8,3.6-12.4,3.6c-4.4,0-8.4-1.2-12.4-3.6l-0.1-0.1l-0.1,0.1
		c-4.5,2.5-8.5,3-13.8,3c-1.3,0-2.6-0.1-3.9-0.4l-0.6-0.1l0.3,0.5C38.8,41,36.9,50,34.3,56l-0.2,0.4h59.7L93.7,56
		c-2.6-5.9-4.5-15,0.9-24.4l0.3-0.5l-0.6,0.1c-1.3,0.3-2.6,0.4-3.9,0.4c-5.3,0-9.3-0.5-13.8-3l-0.1-0.1L76.4,28.5L76.4,28.5z"/>
	<path class="st4" d="M45.7,31.3c-2.5,0.6-5.1,0.8-8.1,0.8c-1.1,0-2.3-0.1-3.5-0.3c1.4,2.5,2.3,5,2.8,7.4h8.8L45.7,31.3L45.7,31.3z
		 M63.7,39.2v-6.5c-3.2,0-6.2-0.7-9.1-1.9v8.5H63.7z M37.1,48.1c-0.4,2.9-1.2,5.5-2.2,7.7h10.7v-7.7L37.1,48.1L37.1,48.1z
		 M54.7,55.8h9.1v-7.7h-9.1V55.8L54.7,55.8z"/>
	<path class="st5" d="M54.7,39.2v-8.5c-1.1-0.5-2.1-1-3.1-1.6c-2,1.1-3.9,1.8-5.8,2.3v7.8h-8.8c0.4,1.7,0.5,3.4,0.5,5.1
		c0,1.3-0.1,2.6-0.3,3.8h8.6v7.7h9v-7.7h9.1v-9L54.7,39.2z"/>
	<path class="st6" d="M76.5,29.1L76.5,29.1l0,26.7h3.2V30.5C78.6,30.1,77.6,29.6,76.5,29.1L76.5,29.1z M70.2,31.8v24h3.2V30.7
		C72.3,31.1,71.3,31.5,70.2,31.8z M64.3,32.6v23.2H67V32.4C66.1,32.5,65.2,32.6,64.3,32.6z M82.8,31.4v24.4h3.2V31.9
		C84.9,31.8,83.8,31.7,82.8,31.4L82.8,31.4z M90.6,44.3c0-3.9,0.9-8.2,3.3-12.5c-1.2,0.2-2.4,0.3-3.5,0.3c-0.5,0-0.9,0-1.3,0v23.7h4
		C91.7,52.6,90.6,48.7,90.6,44.3L90.6,44.3z"/>
	<path class="st5" d="M85.9,31.9v23.9h3.2V32.1C88,32.1,86.9,32,85.9,31.9z M67,32.4v23.4h3.2v-24C69.1,32.1,68.1,32.3,67,32.4z
		 M73.3,30.7v25.1h3.2V29.1C75.4,29.7,74.4,30.2,73.3,30.7z M79.6,30.5v25.3h3.2V31.4C81.7,31.2,80.7,30.9,79.6,30.5z"/>
</g>
</svg>
