<?xml version="1.0" encoding="utf-8"?>
<!-- Generator: Adobe Illustrator 25.2.1, SVG Export Plug-In . SVG Version: 6.00 Build 0)  -->
<svg version="1.1" id="Layer_1" xmlns="http://www.w3.org/2000/svg" xmlns:xlink="http://www.w3.org/1999/xlink" x="0px" y="0px"
	 width="128px" height="128px" viewBox="0 0 128 128" style="enable-background:new 0 0 128 128;" xml:space="preserve">
<style type="text/css">
	.st0{fill:#F7931A;}
	.st1{fill:#FFFFFF;}
	.st2{fill:none;stroke:#FFFFFF;stroke-width:5;stroke-miterlimit:10;}
</style>
<g>
	<circle class="st0" cx="64" cy="64" r="63.5"/>
	<g id="Vector_1_" transform="translate(-218.105 -482.324)">
		<path id="path2_fill" class="st1" d="M302.9,525.3c-2.8-8.1-10.4-8.9-19.5-7.6l-2.8-11.4l-6.8,1.8l2.8,11.2
			c-1.8,0.5-3.6,1-5.4,1.5l-2.8-11.2l-6.8,1.8l2.8,11.4c-1.5,0.5-3.1,0.8-4.4,1.3l0,0l-9.4,2.3l1.8,7.3c0,0,5.1-1.3,4.9-1.3
			c2.8-0.8,4.1,0.8,4.6,2l3.3,13c0.3,0,0.5-0.3,0.8-0.3l-0.8,0.3l4.6,18.3c0,1,0,2.6-2,3.1c0.3,0-5.1,1.3-5.1,1.3l0.8,8.6l8.9-2.3
			c1.5-0.5,3.3-0.8,4.9-1.3l2.8,11.4l6.8-1.8l-2.8-11.4c2-0.5,3.8-1,5.6-1.3l2.8,11.4l6.8-1.8l-2.8-11.4
			c11.4-3.6,18.8-8.6,17.1-19.8c-1.3-9.1-6.3-11.9-13.5-11.9C303.4,535.4,304.9,531.1,302.9,525.3L302.9,525.3z M299.3,552.5
			c2,8.6-12.7,11.4-17.3,12.4l-3.8-15.3C282.9,548.4,297.1,543.3,299.3,552.5z M291,531.6c2,7.8-10.4,10.1-14.2,10.9l-3.6-14
			C277,527.6,288.9,523.2,291,531.6z"/>
	</g>
</g>
<circle class="st2" cx="64" cy="64" r="53.3"/>
</svg>
