<?xml version="1.0" encoding="utf-8"?>
<!-- Generator: Adobe Illustrator 25.2.0, SVG Export Plug-In . SVG Version: 6.00 Build 0)  -->
<svg version="1.1" id="Layer_1" xmlns="http://www.w3.org/2000/svg" xmlns:xlink="http://www.w3.org/1999/xlink" x="0px" y="0px"
	 width="128px" height="128px" viewBox="0 0 128 128" style="enable-background:new 0 0 128 128;" xml:space="preserve">
<style type="text/css">
	.st0{fill:#F5CD6F;}
	.st1{fill:#FFFFFF;}
	.st2{fill:#EFB957;}
</style>
<circle class="st0" cx="64" cy="64" r="63"/>
<g>
	<path class="st1" d="M107.8,54.8c0-19.1-15.5-34.5-34.5-34.5c-14.3,0-26.6,8.7-31.8,21.1c0,0,0,0,0,0c0,0,0,0,0,0
		C29,46.6,20.2,58.9,20.2,73.2c0,19.1,15.5,34.5,34.5,34.5c14.3,0,26.6-8.7,31.8-21.1C99,81.4,107.8,69.1,107.8,54.8z M79.4,79.4
		c-2,0.5-4,0.8-6.2,0.8c-14,0-25.3-11.3-25.3-25.3c0-2.1,0.3-4.2,0.8-6.2c2-0.5,4-0.8,6.2-0.8c14,0,25.3,11.3,25.3,25.3
		C80.1,75.3,79.9,77.4,79.4,79.4z M54.8,98.5c-14,0-25.3-11.3-25.3-25.3c0-7.9,3.6-14.9,9.2-19.6c0,0.4,0,0.8,0,1.1
		c0,19.1,15.5,34.5,34.5,34.5c0.4,0,0.8,0,1.1,0c0,0,0,0,0,0h0C69.7,94.9,62.7,98.5,54.8,98.5z M89.3,74.4c0-0.4,0-0.8,0-1.1
		c0-19.1-15.5-34.5-34.5-34.5c-0.4,0-0.8,0-1.1,0c0,0,0,0,0,0c0,0,0,0,0,0c4.6-5.6,11.7-9.2,19.6-9.2c14,0,25.3,11.3,25.3,25.3
		C98.5,62.7,94.9,69.7,89.3,74.4z"/>
	<path class="st2" d="M54.8,108.3c-19.3,0-35-15.7-35-35c0-14.1,8.3-26.7,21.2-32.2c5.5-12.9,18.2-21.2,32.2-21.2
		c19.3,0,35,15.7,35,35c0,14.1-8.3,26.7-21.2,32.2C81.5,99.9,68.8,108.3,54.8,108.3z M41.5,41.9c-12.6,5.4-20.7,17.6-20.7,31.3
		c0,18.8,15.3,34,34,34c13.7,0,26-8.2,31.4-20.8l0.1-0.2l0.2-0.1c12.6-5.3,20.8-17.7,20.8-31.4c0-18.8-15.3-34-34-34
		c-13.7,0-26,8.2-31.4,20.8l-0.1,0.3H41.5z M54.8,99C40.5,99,29,87.5,29,73.2c0-7.7,3.4-15,9.4-20l0.9-0.7l0,1.3c0,0.3,0,0.6,0,0.9
		c0,18.8,15.3,34,34,34c0.3,0,0.6,0,0.9,0l1.3,0l-0.6,0.8C69.8,95.6,62.5,99,54.8,99z M38.2,54.8C32.9,59.5,30,66.1,30,73.2
		C30,86.9,41.1,98,54.8,98c7.1,0,13.7-3,18.4-8.2c0,0,0,0,0,0C53.9,89.8,38.2,74.1,38.2,54.8C38.2,54.8,38.2,54.8,38.2,54.8z
		 M73.2,80.6C59,80.6,47.4,69,47.4,54.8c0-2.1,0.3-4.2,0.8-6.3l0.1-0.3l0.3-0.1c2.1-0.5,4.2-0.8,6.3-0.8C69,47.4,80.6,59,80.6,73.2
		c0,2.1-0.3,4.2-0.8,6.3l-0.1,0.3l-0.3,0.1C77.4,80.4,75.3,80.6,73.2,80.6z M49.1,49.1c-0.4,1.9-0.7,3.8-0.7,5.7
		c0,13.7,11.1,24.8,24.8,24.8c1.9,0,3.9-0.2,5.7-0.7c0.4-1.9,0.7-3.8,0.7-5.7c0-13.7-11.1-24.8-24.8-24.8
		C52.9,48.4,50.9,48.6,49.1,49.1z M88.8,75.4l0-1.3c0-0.3,0-0.6,0-0.9c0-18.8-15.3-34-34-34c-0.3,0-0.6,0-0.9,0l-1.2,0l0.6-0.8
		c5-6,12.2-9.5,20-9.5C87.5,29,99,40.5,99,54.8c0,7.7-3.4,15-9.4,19.9L88.8,75.4z M54.8,38.2c19.3,0,35,15.7,35,35c0,0,0,0,0,0
		c5.2-4.7,8.2-11.4,8.2-18.4C98,41.1,86.9,30,73.2,30C66.1,30,59.5,32.9,54.8,38.2C54.8,38.2,54.8,38.2,54.8,38.2z"/>
</g>
</svg>
