<svg xmlns="http://www.w3.org/2000/svg" viewBox="0 0 32 32"><circle cx="16" cy="16" r="16"/><linearGradient id="a" gradientUnits="userSpaceOnUse" x1="7.346" y1="18.197" x2="7.346" y2="13.803"><stop offset="0" stop-color="#f0cb3e"/><stop offset="1" stop-color="#f58f43"/></linearGradient><path d="M8.7 16c0 .9-.5 1.6-1.2 2-.3.1-.6.2-.9.2-.2 0-.5 0-.7-.1.6-.1 1.1-.5 1.4-1 .2-.3.3-.7.3-1.1s-.1-.7-.3-1.1c-.3-.5-.8-.9-1.4-1 .2-.1.5-.1.7-.1.3 0 .6.1.9.2.7.4 1.2 1.1 1.2 2z" fill="url(#a)"/><linearGradient id="b" gradientUnits="userSpaceOnUse" x1="4.222" y1="8.075" x2="24.488" y2="8.075"><stop offset="0" stop-color="#5672b4"/><stop offset="1" stop-color="#4fa1d6"/></linearGradient><path d="M24.5 8.4c-.7.8-1.7 1.4-2.9 1.4-.5 0-1.1-.1-1.5-.3-.3-.2-.6-.4-.8-.5-1.2-.6-2.5-1-3.9-1-.6 0-1.1.1-1.6.2C13.2 8 12.6 8 12 8c-3.3 0-6.2 1.6-7.7 4 1.6-4.6 6-7.8 11.2-7.8 1 0 2 .1 3 .4 2.3.6 4.4 1.9 6 3.8z" fill="url(#b)"/><linearGradient id="c" gradientUnits="userSpaceOnUse" x1="4.222" y1="23.925" x2="24.39" y2="23.925"><stop offset="0" stop-color="#4fa1d6"/><stop offset="1" stop-color="#5672b4"/></linearGradient><path d="M24.4 23.7c-1.6 1.8-3.7 3.2-6.1 3.8h-.1c-.9.2-1.9.3-2.8.3-5.1 0-9.5-3.3-11.2-7.8 1.5 2.4 4.4 4 7.7 4 .6 0 1.2-.1 1.8-.2.5.1 1.1.2 1.6.2 1.4 0 2.7-.3 3.8-1 .3-.1.5-.3.8-.5.5-.2 1-.3 1.5-.3 1.3.1 2.3.6 3 1.5z" fill="url(#c)"/><linearGradient id="d" gradientUnits="userSpaceOnUse" x1="3.943" y1="21.582" x2="13.756" y2="21.582"><stop offset="0" stop-color="#5672b4"/><stop offset="1" stop-color="#614e9c"/></linearGradient><path d="M13.8 23.9c-.6.1-1.2.1-1.8.1-3.3 0-6.2-1.6-7.7-4l-.3-.9h4c1 2.4 3.1 4.2 5.8 4.8z" fill="url(#d)"/><linearGradient id="e" gradientUnits="userSpaceOnUse" x1="3.943" y1="10.418" x2="13.756" y2="10.418"><stop offset="0" stop-color="#5672b4"/><stop offset="1" stop-color="#614e9c"/></linearGradient><path d="M13.8 8.1c-2.7.6-4.8 2.4-5.8 4.8H4c0-.3.1-.6.2-.9C5.8 9.6 8.7 8 12 8c.6 0 1.2 0 1.8.1z" fill="url(#e)"/><linearGradient id="f" gradientUnits="userSpaceOnUse" x1="3.512" y1="16" x2="7.406" y2="16"><stop offset="0" stop-color="#5672b4"/><stop offset="1" stop-color="#614e9c"/></linearGradient><path d="M7.4 16c0 .2 0 .3-.1.5-.2.7-.7 1.2-1.5 1.4h-.3-.1c-1 0-1.8-.7-1.9-1.7v-.3-.3c.1-.9.9-1.7 1.9-1.7h.4c.7.2 1.3.7 1.5 1.4.1.4.1.5.1.7z" fill="url(#f)"/></svg>