<svg xmlns="http://www.w3.org/2000/svg" id="Layer_1" x="0" y="0" version="1.1" viewBox="0 0 50 50" xml:space="preserve"><style>.st1{fill:#fff}</style><circle cx="25" cy="25" r="24" fill="#0a0909"/><path d="M24 45l-1-1-4-12v-1h1l4 12 6-7h1v1l-7 7v1zm7-26h-1L26 7 15 19h-1v-1L26 6V5l1 1 4 12v1z" class="st1"/><path d="M29 33h8v2h-8z" class="st1" transform="rotate(-48 33 34)"/><path d="M44 32H27l-5-13H7l5 12h8l-1 1h-8L6 19v-1h17l5 13h15l-5-12h-8l1-1h8l5 13v1z" class="st1"/><path d="M16 24h18v2H16z" class="st1" transform="rotate(-48 25 25)"/></svg>