<?xml version="1.0" encoding="utf-8"?>
<!-- Generator: Adobe Illustrator 25.1.0, SVG Export Plug-In . SVG Version: 6.00 Build 0)  -->
<svg version="1.1" id="Layer_1" xmlns="http://www.w3.org/2000/svg" xmlns:xlink="http://www.w3.org/1999/xlink" x="0px" y="0px"
	 width="128px" height="128px" viewBox="0 0 128 128" style="enable-background:new 0 0 128 128;" xml:space="preserve">
<style type="text/css">
	.st0{fill:#1C2951;}
	.st1{fill:url(#Path_6310-2_2_);}
	.st2{fill:#7FFFD4;}
</style>
<circle class="st0" cx="64" cy="64" r="62"/>
<g id="logo_1_" transform="translate(-64.228 -24.317)">
	<g id="icon_1_" transform="translate(-63 -46)">
		<g id="Group_6837_1_" transform="translate(136.911 77)">
			<g transform="matrix(1, 0, 0, 1, -9.68, -6.68)">
				
					<radialGradient id="Path_6310-2_2_" cx="-266.2359" cy="648.0873" r="1.0895" gradientTransform="matrix(18.0841 31.3226 31.9848 -18.4665 -15850.5508 20369.6562)" gradientUnits="userSpaceOnUse">
					<stop  offset="0" style="stop-color:#979797"/>
					<stop  offset="1" style="stop-color:#CCDAFF"/>
				</radialGradient>
				<path id="Path_6310-2_1_" class="st1" d="M47.4,50.3c-6.9,7.1-7.5,15.7-1.7,25.8c3.8,6.5,8.8,10.2,15.1,11l0,18.3
					c-13.2-1.1-23.4-7.9-30.7-20.6c-6.3-10.9-8.1-21.6-5.3-32c2.8-10.4,9.7-19.2,19.2-24.3c9.1-5.6,20.1-7.3,30.5-4.6
					c10.5,2.7,19.4,9.7,24.4,19.3c5.5,8.9,6.9,19.7,3.8,29.7c-3.1,10.2-10,18.7-19.4,23.8c-2.4,1.3-4.8,2.5-7.4,3.4L47.4,50.3z
					 M60.4,42.4l19.4,33.7c3.6-3,5.9-7.2,6.6-11.8c0.5-4.3-0.5-8.6-2.7-12.3c-2.2-4.2-5.7-7.5-10-9.3C69.4,41.1,64.7,41,60.4,42.4z"
					/>
			</g>
			<g transform="matrix(1, 0, 0, 1, -9.68, -6.68)">
				<path id="Path_6313-2_1_" class="st2" d="M47.4,50.3l-10-17.2c2.1-1.8,4.4-3.3,6.8-4.7c9.1-5.6,20.1-7.3,30.5-4.6
					c10.5,2.7,19.4,9.7,24.4,19.3c5.5,8.9,6.9,19.7,3.8,29.7c-3.1,10.2-10,18.7-19.4,23.8c-2.4,1.3-4.8,2.5-7.4,3.4L47.4,50.3z
					 M60.4,42.4l19.4,33.7c3.6-3,5.9-7.2,6.6-11.8c0.5-4.3-0.5-8.6-2.7-12.3c-2.2-4.2-5.7-7.5-10-9.3C69.4,41.1,64.7,41,60.4,42.4z"
					/>
			</g>
		</g>
	</g>
</g>
</svg>
