<svg id="Layer_1" xmlns="http://www.w3.org/2000/svg" viewBox="0 0 32 32"><style>.st1{fill:#584698}.st5{fill:#fff}</style><path d="M24.2 2.3L16 16 7.8 2.3C10.2.8 13 0 16 0c3 0 5.8.8 8.2 2.3z" fill="#503d93"/><path class="st1" d="M32 16H16l8.2-13.7C28.9 5 32 10.2 32 16z"/><path d="M32 16c0 5.8-3.1 11-7.8 13.7L16 16h16z" fill="#544196"/><path class="st1" d="M24.2 29.7C21.8 31.2 19 32 16 32c-3 0-5.8-.8-8.2-2.3L16 16l8.2 13.7z"/><path d="M16 16L7.8 29.7C3.1 27 0 21.8 0 16h16z" fill="#4b398e"/><path d="M16 16H0C0 10.2 3.1 5 7.8 2.3L16 16z" fill="#4e3b91"/><g><path class="st5" d="M26.1 15.8c.8.8 1.6 1.6 2.4 2.5h-.3c-.3 0-.5-.1-.7-.3-.6-.7-1.2-1.3-1.9-2l-.1-.1v2.2c0 .1 0 .2-.2.2-.4 0-.3 0-.3-.3v-4.1c0-.2 0-.2.2-.2.3 0 .3 0 .3.3v1.8c.1 0 .1-.1.1-.1.6-.6 1.3-1.2 1.9-1.8.1-.1.2-.1.3-.1h.5c-.6.6-1.4 1.3-2.2 2zM10.5 15.3v-1.5c0-.1 0-.2.1-.2.4 0 .3-.1.3.3v2.6c0 .2.1.5.2.7.2.4.5.6 1 .6.8 0 1.3-.5 1.3-1.2v-2.8c0-.3 0-.2.3-.2h.1c.1 0 .2 0 .2.2v2.7c0 .5-.1.9-.4 1.3-.3.3-.6.5-1.1.5h-.6c-.6-.1-1.2-.6-1.3-1.4-.2-.5-.1-1-.1-1.6-.1 0 0 0 0 0zM18 17.7c.1-.1.2-.2.4-.3 0 0 .1 0 .1.1.3.4.8.6 1.3.4.4-.1.7-.4.7-.9 0-.3-.2-.5-.5-.7-.3-.1-.5-.2-.8-.3-.2-.1-.5-.2-.7-.4-.5-.5-.5-1.4.1-1.8.6-.5 1.6-.4 2.2.1.1.1.1.1 0 .3-.1.1-.2.1-.2.2-.2-.2-.4-.4-.6-.4-.4-.1-.8 0-1.1.3-.2.3-.2.9.3 1.1.3.1.6.2.9.4.1 0 .2.1.3.1.5.3.8.7.7 1.3-.1.6-.4 1-1 1.1-.7.1-1.3 0-1.8-.5-.2 0-.3 0-.3-.1zM3.5 13.3c.7-.1 1.9.2 2.5 1.2.7 1.1.6 2.5-.3 3.4-.6.6-1.8 1-2.2.8 1.5-.3 2.4-1.1 2.4-2.7 0-1.5-.9-2.4-2.4-2.7z"/></g></svg>