<?xml version="1.0" encoding="utf-8"?>
<!-- Generator: Adobe Illustrator 25.2.0, SVG Export Plug-In . SVG Version: 6.00 Build 0)  -->
<svg version="1.1" id="Layer_1" xmlns="http://www.w3.org/2000/svg" xmlns:xlink="http://www.w3.org/1999/xlink" x="0px" y="0px"
	 width="128px" height="128px" viewBox="0 0 128 128" style="enable-background:new 0 0 128 128;" xml:space="preserve">
<style type="text/css">
	.st0{fill:#313131;}
	.st1{fill:#333C56;}
	.st2{fill:#363857;}
	.st3{fill:#DE8FDB;}
	.st4{fill:#383459;}
	.st5{fill:#3F2D5C;}
	.st6{fill:#3F7DDA;}
	.st7{fill:#DA78CF;}
	.st8{fill:#3C78D8;}
	.st9{fill:#353857;}
	.st10{fill:#3B305B;}
	.st11{fill:#45315B;}
	.st12{fill:#6662DA;}
	.st13{fill:#D673D1;}
	.st14{fill:#D26ED4;}
	.st15{fill:#CE6AD6;}
	.st16{fill:#393359;}
	.st17{fill:#CA65D9;}
	.st18{fill:#8459DE;}
	.st19{fill:#C660DB;}
	.st20{fill:#3874D6;}
	.st21{fill:#C25BDD;}
	.st22{fill:#BA52E2;}
	.st23{fill:#4A345A;}
	.st24{fill:#BE56E0;}
	.st25{fill:#B248E7;}
	.st26{fill:#B64DE5;}
	.st27{fill:#AD44E9;}
	.st28{fill:#882DF0;}
	.st29{fill:#A740EA;}
	.st30{fill:#9B39EC;}
	.st31{fill:#9032EE;}
	.st32{fill:#7F28F2;}
	.st33{fill:#7622F3;}
	.st34{fill:#A13DEB;}
	.st35{fill:#6C1DF5;}
	.st36{fill:#6D65DB;}
	.st37{fill:#9636ED;}
	.st38{fill:#553BE7;}
	.st39{fill:#6522F2;}
	.st40{fill:#4D47E2;}
	.st41{fill:#6129EF;}
	.st42{fill:#5B31EC;}
	.st43{fill:#4554DB;}
	.st44{fill:#3E60D4;}
	.st45{fill:#56AFE8;}
	.st46{fill:#57ABE8;}
	.st47{fill:#59A5E7;}
	.st48{fill:#D988DD;}
	.st49{fill:#51A1E5;}
	.st50{fill:#4E98E3;}
	.st51{fill:#509DE4;}
	.st52{fill:#B54CE5;}
	.st53{fill:#4281DC;}
	.st54{fill:#BB54E1;}
	.st55{fill:#B951E3;}
	.st56{fill:#B148E7;}
	.st57{fill:#C55FDB;}
	.st58{fill:#C862DA;}
	.st59{fill:#57B2E8;}
	.st60{fill:#396ED2;}
	.st61{fill:#4C93E1;}
	.st62{fill:#4A8FE0;}
	.st63{fill:#5D64D8;}
	.st64{fill:#765DDC;}
	.st65{fill:#6E5FDB;}
	.st66{fill:#5865D7;}
	.st67{fill:#5067D6;}
	.st68{fill:#486AD5;}
	.st69{fill:#406CD4;}
	.st70{fill:#CF6BD5;}
	.st71{fill:#8B57DF;}
	.st72{fill:#7D5BDD;}
	.st73{fill:#7466DD;}
	.st74{fill:#CD68D7;}
	.st75{fill:#CA65D8;}
	.st76{fill:#4688DE;}
	.st77{fill:#488BDF;}
	.st78{fill:#4484DD;}
	.st79{fill:#C35CDD;}
	.st80{fill:#C059DE;}
	.st81{fill:#BE57E0;}
	.st82{fill:#B14AE5;}
	.st83{fill:#AA4EE4;}
	.st84{fill:#A350E3;}
	.st85{fill:#9C52E1;}
	.st86{fill:#9554E1;}
	.st87{fill:#9055E0;}
	.st88{fill:#55ADE6;}
	.st89{fill:#53A7E6;}
	.st90{fill:#54AAE6;}
	.st91{fill:#52A4E5;}
	.st92{fill:#5666D7;}
	.st93{fill:#6761DA;}
	.st94{fill:#6262D9;}
	.st95{fill:#4F3858;}
	.st96{fill:#B14CE5;}
	.st97{fill:#AC4DE4;}
	.st98{fill:#755DDC;}
	.st99{fill:#7C5BDD;}
	.st100{fill:#46325B;}
	.st101{fill:#A051E2;}
	.st102{fill:#9953E1;}
	.st103{fill:#9255E0;}
	.st104{fill:#A74FE3;}
	.st105{fill:#4383DD;}
	.st106{fill:#4180DB;}
	.st107{fill:#4D3659;}
</style>
<circle class="st0" cx="64" cy="64" r="63"/>
<g>
	<path class="st1" d="M29.3,91.7c-0.5-0.2-0.9-0.7-1.3-1.1c-0.1-0.2-0.2-0.3-0.4-0.4c-0.5-0.5-0.9-1.1-1.3-1.7
		c-0.7-1-1.3-2.1-1.8-3.2c-0.3-0.6-0.5-1.3-0.7-1.9c-0.3-1-0.5-2.1-0.7-3.1c-0.1-0.3,0-0.7-0.1-1.1c0-0.3-0.1-0.6-0.1-1
		c0-1,0-1.9,0-2.9c0-0.7,0.1-1.4,0.2-2.1c0-0.5,0.2-0.9,0.2-1.4c0-0.4,0.1-0.7,0.2-1c0.4-1.7,0.9-3.3,1.5-4.9
		c0.3-0.9,0.7-1.9,1.2-2.8c0.4-0.7,0.8-1.5,1.1-2.3c0.3-0.7,0.7-1.4,1.2-2.1c0.1-0.2,0.2-0.4,0.3-0.6c0.1-0.1,0.2-0.2,0.3-0.3
		c0.6,0.1,0.5,0.6,0.5,1c0,2.3,0,4.6,0,6.9c0,0.3-0.1,0.7,0.2,0.9c0.2,0.4,0.1,0.8-0.1,1.3c-0.9,2.8-1.4,5.6-1.4,8.5
		c0,2.5,0.3,5,1.2,7.3c0.2,0.4,0.4,0.9,0.2,1.4c-0.1,0.2-0.2,0.4-0.2,0.6c0.1,1.5,0,3.1,0.1,4.6C29.7,91.1,29.7,91.5,29.3,91.7z"/>
	<path class="st2" d="M29.8,67.1c-0.3,0-0.4-0.2-0.5-0.5c0-0.2,0-0.5,0-0.7c0-2.2,0-4.4,0-6.7c0-0.2,0-0.5,0-0.7
		c0-0.1-0.1-0.3-0.2-0.4c0-0.1,0-0.1,0-0.2c0.3-0.5,0.6-1,0.9-1.4c0.4-0.6,0.8-1.1,1.2-1.6c0.5-0.6,0.9-1.3,1.5-1.9
		c0.3-0.5,0.8-0.9,1.1-1.4c0-0.1,0.1-0.1,0.2-0.1c0.4,0.3,0.3,0.7,0.3,1.1c0,1.6,0,3.2,0,4.8c0.3,0.5,0,0.9-0.2,1.3
		c-0.2,0.3-0.4,0.7-0.6,1c0,0.1-0.1,0.1-0.1,0.2c-0.1,0.1-0.1,0.2-0.2,0.2c0,0.1-0.1,0.1-0.1,0.2c0,0.1-0.1,0.2-0.1,0.2
		c0,0.1,0,0.1-0.1,0.2c-0.1,0.1-0.1,0.2-0.2,0.4c-0.8,1.5-1.5,3.1-2.2,4.7c-0.1,0.1-0.2,0.2-0.2,0.3c0,0.1,0,0.1-0.1,0.2
		c0,0.1-0.1,0.2-0.1,0.3c0,0.1,0,0.1-0.1,0.2C30.1,66.8,30,66.9,30,67C29.9,67.1,29.9,67.1,29.8,67.1z"/>
	<path class="st3" d="M101.2,38.9c0.1,0.1,0.3,0.3,0.4,0.4c0.8,1.1,1.4,2.3,1.9,3.5c0,0.1,0.1,0.2,0.1,0.3c0.3,1.3-0.4,2.3-0.8,3.3
		c0,0.1-0.1,0.1-0.1,0.2c0,0.1-0.1,0.2-0.1,0.3c0,0.1,0,0.1-0.1,0.2c-0.1,0.1-0.1,0.3-0.1,0.4c-0.3,0.7-0.4,1.5-1,2
		c-0.8-0.1-0.5-0.8-0.6-1.2c-0.3,1.6-0.6,3.2-1.1,4.9c-0.1,0.2-0.1,0.5-0.3,0.7c-0.2,0.3-0.5,0.4-0.6,0c0-0.1,0-0.3,0-0.4
		c0-0.3,0.1-0.5,0.1-0.8c0.2-1.5,0.5-2.9,0.6-4.4c0.2-2.8,0.4-5.5-0.3-8.2c-0.1-0.6-0.4-1.1-0.6-1.7c-0.1-0.3-0.3-0.6-0.2-0.9
		c0.3-0.4,0.7-0.2,1-0.1C99.9,37.7,100.5,38.3,101.2,38.9z"/>
	<path class="st4" d="M34.4,57.7c-0.2-0.1-0.3-0.3-0.4-0.5c0-0.2,0-0.4,0-0.7c0-1.7,0-3.4,0-5c0.1-0.1,0.2-0.3,0.3-0.4
		c0.2-0.2,0.4-0.4,0.6-0.7c0.1-0.1,0.2-0.3,0.3-0.4c1.2-1.2,2.4-2.4,3.6-3.6c0.1-0.1,0.2-0.2,0.3-0.3c0.1-0.1,0.2-0.1,0.3-0.1
		c0.4,0.3,0.3,0.7,0.3,1c0,1.1,0,2.2,0,3.3c0.2,0.5-0.1,0.8-0.3,1.1c-1.5,1.8-3,3.7-4.3,5.7C35,57.4,34.8,57.7,34.4,57.7z"/>
	<path class="st5" d="M45.3,41.3c0.1-0.1,0.2-0.2,0.3-0.3c0.9-0.6,1.9-1.3,2.8-1.9c0.8-0.5,1.5-0.9,2.3-1.4c0.8-0.5,1.6-0.8,2.4-1.3
		c0.5-0.3,0.9-0.6,1.5-0.7c0.3,0.3,0.3,0.6,0.2,0.9c-0.1,0.5,0,1,0,1.5c0,0.4-0.3,0.7-0.6,0.9c-1.2,0.7-2.3,1.5-3.4,2.3
		c-0.1,0-0.1,0.1-0.2,0.1c-0.1,0-0.1,0.1-0.2,0.1c0,0-0.1,0-0.1,0.1c0,0-0.1,0.1-0.2,0.1c-0.1,0-0.1,0.1-0.2,0.1
		c-0.1,0.1-0.2,0.2-0.3,0.2c-0.8,0.6-1.6,1.2-2.3,1.8c-0.6,0.4-1.1,0.9-1.7,1.2c-0.1,0-0.2,0-0.3,0c-0.1,0-0.2-0.1-0.2-0.1
		C44.6,44.1,44.7,42,45.3,41.3z"/>
	<path class="st6" d="M78.6,30.4c1.3,0,2.6,0,4,0c1,0,1.9,0.1,2.9,0.2c0.3,0,0.5,0.1,0.8,0.2c0.7,0.1,1,0.5,1,1.2c0,1,0,2.1,0,3.1
		c0,0.3,0,0.6-0.2,0.9c-0.2,0.3-0.5,0.4-0.9,0.5c-0.6,0-1.1,0.1-1.7,0.2c-0.8,0-1.6,0.3-2.4,0.3c-0.3,0-0.5,0-0.7-0.2
		c-0.3-0.3-0.2-0.7-0.3-1.1c0-1.2,0-2.5,0-3.7c0-0.8-0.1-0.9-1-0.9c-0.5,0-1.1,0.1-1.6-0.2C78.6,30.6,78.5,30.5,78.6,30.4z"/>
	<path class="st7" d="M102.4,46.6c0.1-0.4,0.3-0.8,0.4-1.1c0.1-0.4,0.3-0.7,0.5-1.1c0.2-0.4,0.3-0.8,0.3-1.2
		c0.1,0.1,0.1,0.2,0.2,0.3c0.6,1.6,1,3.2,1.2,4.8c0.2,1.7,0.2,3.4,0.1,5c-0.1,1.9-0.5,3.8-1,5.6c-0.2,0.6-0.4,1.2-0.6,1.9
		c0,0.1-0.1,0.2-0.2,0.4c-0.1,0.1-0.1,0.2-0.1,0.3l0,0c-0.6,0-0.7-0.5-0.7-0.9c0-0.9,0-1.7,0-2.6c0-3.1,0-6.3,0-9.4
		C102.3,47.8,102.6,47.2,102.4,46.6z"/>
	<path class="st8" d="M86.9,36c0-1.3,0-2.7,0-4c0-0.2,0-0.4,0-0.6c0-0.2-0.1-0.3-0.3-0.4c-0.1-0.1-0.2-0.1-0.4-0.2
		c0.5-0.1,0.9,0.2,1.4,0.2c1.7,0.4,3.4,0.8,5,1.5c0.3,0.1,0.7,0.2,0.9,0.5c0.3,0.3,0.4,0.7,0.5,1.1c0.1,0.8,0,1.6,0.2,2.4
		c-0.2,0.2-0.5,0.2-0.8,0.2c-0.5-0.1-1-0.2-1.6-0.1c-1.3-0.3-2.6-0.1-4-0.2C87.5,36.2,87.2,36.3,86.9,36z"/>
	<path class="st9" d="M29.3,91.7c0-1.8,0-3.5,0-5.3c0-0.2,0-0.5,0-0.7c0-0.2,0.1-0.3,0.3-0.4c0,0,0.1,0,0.1,0c0.1,0,0.1,0.1,0.1,0.1
		c0,0,0.1,0.1,0.1,0.1c0,0.1,0.1,0.2,0.1,0.2c0,0,0.1,0.1,0.1,0.1c0,0,0.1,0.1,0.1,0.1c0,0.1,0.1,0.1,0.1,0.2c0,0.1,0.1,0.1,0.1,0.2
		c0,0,0,0.1,0.1,0.1c0.4,0.6,0.7,1.3,1.2,1.9c0.1,0.2,0.3,0.4,0.4,0.6c0.7,1.1,1.7,1.9,2.6,2.8c0.3,0.3,0.6,0.5,0.6,0.9
		c-0.1,0.9,0.2,1.9-0.2,2.8c-0.2,0-0.4-0.1-0.6-0.2c-0.9-0.4-1.8-0.9-2.6-1.4c-0.5-0.3-1-0.7-1.5-1.1c-0.3-0.2-0.6-0.4-0.9-0.7
		C29.5,91.9,29.4,91.8,29.3,91.7z"/>
	<path class="st10" d="M45.3,41.3c-0.1,0.2-0.2,0.5-0.2,0.7c0,0.8,0,1.5,0,2.3c0,0.3,0.1,0.6,0.3,0.8c0.1,0.5-0.4,0.7-0.7,1
		c-1.3,1.2-2.6,2.4-3.8,3.7c0,0-0.1,0.1-0.2,0.1c0,0-0.1,0-0.1,0.1c0,0-0.1,0.1-0.1,0.1c0,0,0,0-0.1,0.1c0,0-0.1,0.1-0.1,0.1
		c0,0,0,0-0.1,0.1c0,0-0.1,0.1-0.1,0.1c0,0-0.1,0.1-0.1,0.1c0,0-0.1,0.1-0.1,0.1c0,0-0.1,0-0.1,0c0,0-0.1,0.1-0.1,0.1
		c0,0-0.1,0-0.1,0c-0.2-0.1-0.3-0.3-0.3-0.5c0-0.2,0-0.4,0-0.6c0-1.1,0-2.3,0-3.4c0,0,0,0,0,0c0.1,0,0.1-0.1,0.2-0.2l0,0
		c0.1-0.1,0.1-0.1,0.2-0.2c0.1-0.2,0.3-0.4,0.4-0.5c0.4-0.4,0.9-0.7,1.3-1.1c0.4-0.3,0.8-0.6,1.1-0.9c0.6-0.5,1.2-0.9,1.9-1.4
		c0.1-0.1,0.3-0.2,0.5-0.3C45,41.4,45.2,41.4,45.3,41.3z"/>
	<path class="st11" d="M54.6,38.5c-0.1-0.4-0.2-0.9-0.2-1.3c0-0.2,0-0.5,0.1-0.7c0.1-0.2,0.1-0.4,0.1-0.6c0.1,0,0.1,0,0.2,0
		c0.1-0.1,0.1-0.1,0.2-0.2c0.1,0,0.1,0,0.2,0c0.1-0.1,0.1-0.1,0.2-0.2c0.1,0,0.1,0,0.2,0c0.1-0.1,0.1-0.1,0.2-0.2c0.1,0,0.1,0,0.2,0
		c0.1-0.1,0.1-0.1,0.2-0.2c0.9-0.4,1.8-0.8,2.7-1.1c0.8-0.3,1.7-0.7,2.5-0.9c1.1-0.4,2.2-0.7,3.4-1c0.1,0,0.2,0,0.2,0
		c0.4,0.4,0.4,0.9,0.2,1.3c-0.1,0.5-0.6,0.7-1,0.9c-1.1,0.5-2.2,0.9-3.3,1.4c-1.7,0.8-3.4,1.7-5.1,2.6C55.3,38.5,55,38.7,54.6,38.5z
		"/>
	<path class="st12" d="M56.4,97.3c-0.3,0.1-0.6,0.1-1,0.2c-2,0.2-3.9,0.2-5.9,0.1c-0.3-0.2-0.8,0.1-1.1-0.2c0.2-0.7,0.3-0.8,1.5-0.7
		c0.9,0.3,1.8,0.1,2.6,0.2c0.5,0.1,0.6-0.4,0.6-0.8c0-0.4-0.1-0.8-0.6-0.8c-0.8,0-1.7-0.1-2.5-0.1c-0.8,0-1-0.2-1-1
		c0-0.9-0.3-1.8,0.3-2.6c0.2-0.2,0.5-0.3,0.8-0.4c0.5,0,1-0.2,1.5-0.2c0.4,0,0.7-0.1,1.1,0.2c0.3,0.3,0.4,0.7,0.4,1.2
		c0,0.4,0,0.8,0,1.2c0,0.7,0.2,0.9,0.9,0.9c0.6,0,1.3-0.1,1.9,0.1c0.1,0,0.2,0.1,0.3,0.1C56.9,95.5,56.9,96.4,56.4,97.3z"/>
	<path class="st13" d="M102.4,46.6c0.2,0,0.3,0.1,0.3,0.3c0,0.3,0,0.5,0,0.8c0,4.1,0,8.3,0,12.4c0,0.2,0,0.5,0,0.7
		c0,0.2,0.1,0.4,0.3,0.5c0,0.1,0,0.2,0,0.2c-0.3,0.9-0.7,1.7-1,2.6c0,0-0.1,0.1-0.1,0.1c-0.1,0.1,0,0.2-0.1,0.3l0,0
		c-0.5,0-0.6-0.3-0.6-0.7c0-0.3,0-0.5,0-0.8c0-3.8,0-7.6,0-11.4c0-0.5,0.2-1.1-0.1-1.6c-0.1-0.3,0-0.5,0.2-0.6
		c0.1-0.3,0.2-0.7,0.4-1c0.1-0.4,0.3-0.8,0.5-1.1c0.1-0.1,0.1-0.2,0.2-0.3c0-0.1,0-0.1,0-0.2c0.1,0,0.1-0.1,0.2-0.2
		C102.4,46.7,102.4,46.6,102.4,46.6z"/>
	<path class="st14" d="M101.1,50c0.2,0,0.3,0.1,0.3,0.3c0,0.3,0,0.5,0,0.8c0,4.1,0,8.2,0,12.3c0,0.2,0,0.5,0,0.7
		c0,0.2,0.1,0.4,0.3,0.5c0,0.1,0,0.2-0.1,0.2c-0.3,0.6-0.6,1.2-0.9,1.9c0,0.1-0.1,0.1-0.1,0.2c-0.1,0.1-0.1,0.2-0.2,0.3l0,0
		c-0.5,0-0.6-0.4-0.6-0.8c0-0.4,0-0.9,0-1.3c0-3.7,0-7.4,0-11.1c0-0.2,0-0.3-0.1-0.5c-0.3-0.7,0.1-1.2,0.3-1.8
		c0.1-0.3,0.3-0.6,0.4-1c0.1-0.1,0.1-0.3,0.2-0.4c0-0.1,0.1-0.1,0.1-0.2c0-0.1,0.1-0.2,0.2-0.2C101,50,101,50,101.1,50z"/>
	<path class="st15" d="M99.8,53.4c0.2,0.1,0.3,0.3,0.3,0.5c0,0.2,0,0.5,0,0.7c0,3.8,0,7.5,0,11.3c0,0.2,0,0.5,0,0.7
		c0,0.2,0.1,0.4,0.3,0.5c-0.1,0.3-0.3,0.6-0.5,0.9c-0.2,0.4-0.4,0.7-0.7,1.1c-0.1,0.1-0.1,0.1-0.1,0.2c0,0,0,0.1,0,0.1
		c-0.6-0.1-0.6-0.5-0.6-0.9c0-1,0-2,0-3c0-2.7-0.1-5.4,0.1-8.1c0-0.2-0.1-0.4-0.1-0.5c-0.2-0.9,0.4-1.6,0.6-2.4
		c0.1-0.2,0.2-0.5,0.3-0.7c0.1-0.2,0.2-0.3,0.3-0.4C99.7,53.4,99.7,53.4,99.8,53.4z"/>
	<path class="st16" d="M48.6,97.4c0.2,0,0.4,0,0.6,0c0.2,0,0.3,0,0.5,0.1c-0.2,0-0.4,0-0.6,0c-1.3,0-2.6,0-3.9,0c-0.4,0-0.7,0-1-0.1
		c-0.3-0.1-0.5-0.1-0.8-0.1c-0.3,0-0.7,0-1-0.1c-0.1,0-0.1,0-0.2,0c-1.4-0.1-2.7-0.5-4-0.8c-0.8-0.2-1.5-0.5-2.3-0.7
		c-0.2-0.1-0.4-0.2-0.6-0.3C35.1,95.2,35,95,35,94.8c0-0.5,0-1,0-1.5c0-0.2,0-0.5,0.2-0.7c0.3-0.2,0.5,0.1,0.8,0.2
		c0.9,0.7,1.8,1.2,2.8,1.8c1,0.4,1.9,0.9,2.9,1.3c1,0.3,1.9,0.6,2.9,0.8c1,0.1,1.9,0.3,2.9,0.5C47.9,97,48.3,97.1,48.6,97.4z"/>
	<path class="st17" d="M98.5,56.7c0.2,0.1,0.3,0.3,0.3,0.5c0,0.2,0,0.5,0,0.7c0,3.5,0,6.9,0,10.4c0,0.2,0,0.5,0,0.7
		c0,0.2,0.1,0.4,0.3,0.5c-0.3,0.7-0.8,1.4-1.3,2c-0.5,0.2-0.6-0.2-0.6-0.5c-0.1-0.3,0-0.6,0-1c0-2.9,0-5.8,0-8.8
		c0-0.2,0-0.4-0.1-0.6c-0.3-0.6,0-1.2,0.2-1.7c0.3-0.4,0.4-0.8,0.6-1.2c0-0.1,0.1-0.1,0.1-0.2c0-0.1,0.1-0.2,0.1-0.3
		c0,0,0-0.1,0-0.1c0,0,0-0.1,0-0.1c0.1-0.1,0.1-0.2,0.2-0.3C98.4,56.7,98.4,56.7,98.5,56.7z"/>
	<path class="st18" d="M59.8,96.7c-0.1,0-0.2,0-0.3,0c-0.1,0-0.1,0.1-0.2,0c-0.1-0.5,0.3-0.6,0.6-0.7c0.7-0.4,1.5-0.8,2.2-1.3
		c-1.4-0.2-1.5-0.3-1.5-1.7c0-1.4-0.1-2.7,0.1-4.1c0-0.1,0.1-0.2,0.1-0.3c0.6-0.5,1.4-0.6,2.1-0.9c0.3-0.1,0.6-0.1,0.8,0.2
		c0.2,0.3,0.2,0.7,0.2,1.1c0,1.8,0,3.6,0,5.4c-0.1,0.6-0.5,0.8-1,1c-0.1,0-0.1,0.1-0.2,0.1c-0.1,0.1-0.2,0.1-0.3,0.2
		C61.6,96.2,60.7,96.5,59.8,96.7z"/>
	<path class="st19" d="M97.2,60.4c0.2,0.2,0.3,0.4,0.3,0.7c0,0.2,0,0.4,0,0.6c0,2.9,0,5.8,0,8.7c0,0.2,0,0.5,0,0.7
		c0,0.2,0.1,0.3,0.3,0.3c-0.2,0.4-0.5,0.8-0.7,1.1c-0.2,0.2-0.3,0.5-0.5,0.7c-0.1,0-0.1,0.1-0.2,0.2l0,0c-0.7,0.1-0.7-0.4-0.7-0.8
		c0-1.2,0-2.4,0-3.7c0-1.7,0-3.5,0-5.2c-0.3-0.8,0.2-1.4,0.5-2c0-0.1,0.1-0.1,0.1-0.2c0-0.1,0.1-0.2,0.1-0.3c0-0.1,0.1-0.1,0.1-0.2
		c0-0.1,0.1-0.2,0.1-0.2c0-0.1,0-0.1,0.1-0.2c0-0.1,0.1-0.1,0.1-0.2c0-0.1,0.1-0.1,0.1-0.1C97,60.5,97,60.4,97.2,60.4
		C97.1,60.4,97.1,60.4,97.2,60.4z"/>
	<path class="st20" d="M94.2,36.3c-0.1-0.1-0.2-0.1-0.4-0.2c-0.2-0.1-0.3-0.2-0.2-0.4c0.2-0.7,0.2-1.5,0-2.2c0-0.2,0-0.4,0-0.6
		c0.2,0.1,0.3,0.1,0.5,0.2c2.3,1.1,4.3,2.5,6,4.4c0.4,0.5,0.9,0.9,1.2,1.5c-0.2-0.1-0.3-0.2-0.5-0.3c-0.7-0.4-1.4-0.8-2.1-1.1
		c-0.1,0-0.3-0.1-0.4-0.1c0,0-0.1,0-0.1,0c-0.1,0-0.3,0-0.4,0c-0.1,0-0.1,0-0.2-0.1c-0.3-0.1-0.6-0.2-0.9-0.3
		c-0.4-0.2-0.8-0.2-1.2-0.3c-0.3-0.1-0.5-0.2-0.8-0.2C94.4,36.6,94.3,36.5,94.2,36.3z"/>
	<path class="st21" d="M95.7,63.5c0.2,0,0.3,0.1,0.3,0.3c0,0.2,0,0.5,0,0.7c0,2.6,0,5.1,0,7.7c0,0.2,0,0.5,0,0.7
		c0,0.3,0.1,0.4,0.4,0.5c0,0.1-0.1,0.2-0.2,0.3c-0.4,0.4-0.7,0.9-1.1,1.3c-0.7,0.1-0.7-0.5-0.8-0.9c-0.1-0.7,0-1.4,0-2.1
		c0-1.8,0-3.7,0-5.5c-0.3-0.6,0.1-1.1,0.4-1.6c0-0.1,0.1-0.1,0.1-0.2c0-0.1,0.1-0.1,0.1-0.2c0-0.1,0.1-0.1,0.1-0.2
		c0-0.1,0.1-0.2,0.1-0.2c0-0.1,0.1-0.1,0.1-0.2c0-0.1,0.1-0.1,0.1-0.2c0,0,0,0,0-0.1c0.1-0.1,0.1-0.2,0.2-0.2
		C95.6,63.6,95.6,63.5,95.7,63.5z"/>
	<path class="st22" d="M93.9,76.6c-0.4,0.6-0.8,1-1.3,1.5c-0.1,0.1-0.1,0.1-0.2,0.2l0,0c-0.6-0.1-0.7-0.6-0.7-1c0-2-0.1-4,0-6
		c-0.1-0.5,0.1-0.9,0.3-1.3c0-0.1,0.1-0.1,0.1-0.2c0-0.1,0.1-0.1,0.1-0.2c0,0,0-0.1,0.1-0.1c0-0.1,0.1-0.1,0.1-0.2
		c0-0.1,0.1-0.1,0.1-0.2c0-0.1,0.1-0.1,0.1-0.2c0,0,0-0.1,0.1-0.1c0-0.1,0.1-0.1,0.1-0.2c0.1-0.1,0.1-0.1,0.2-0.1c0.1,0,0.2,0,0.3,0
		c0.1,0,0.2,0.1,0.2,0.2c0.3,0.4,0.3,0.8,0.3,1.2C93.9,72.1,93.9,74.3,93.9,76.6z"/>
	<path class="st23" d="M64.7,33.6c0-0.5,0-1,0-1.5c0,0,0,0,0,0c0.1-0.1,0.4,0,0.5-0.2c0.1,0,0.1,0,0.2,0c0.1-0.2,0.4,0,0.5-0.2
		c1-0.3,2-0.4,3-0.7c0.6-0.1,1.2-0.1,1.8-0.3c0.2-0.1,0.4,0,0.6,0c0.6-0.1,1.2-0.2,1.8-0.2c0.1,0,0.2,0,0.2,0
		c0.4-0.1,0.9-0.1,1.3-0.1c1.1,0,2.3,0,3.4,0c0.2,0,0.4,0,0.6,0c0,0,0,0.1-0.1,0.1c-0.2,0.3-0.6,0.4-0.9,0.3c-0.3,0-0.6,0-0.9,0.1
		c-1.3,0.2-2.6,0.3-3.9,0.6c-1.3,0.2-2.6,0.7-4,0.9c-0.1,0-0.1,0.1-0.2,0.1c-0.2,0.1-0.3,0.1-0.5,0.1c-1,0.3-1.9,0.7-2.9,0.9
		C65,33.7,64.9,33.7,64.7,33.6z"/>
	<path class="st24" d="M93.9,76.6c-0.2-0.1-0.3-0.2-0.3-0.4c0-0.2,0-0.5,0-0.7c0-1.8,0-3.7,0-5.5c0-0.2,0-0.4,0-0.6
		c0-0.3-0.1-0.5-0.3-0.7c-0.2-0.5,0.2-0.9,0.4-1.3c0-0.1,0.1-0.1,0.1-0.2c0-0.1,0.1-0.1,0.1-0.2c0,0,0,0,0.1-0.1
		c0.1-0.1,0.1-0.1,0.2-0.2c0-0.1,0.1-0.1,0.1-0.1c0,0,0.1-0.1,0.1-0.1c0,0,0.1-0.1,0.2-0.1c0.2,0,0.3,0.1,0.3,0.3c0,0.2,0,0.5,0,0.7
		c0,2.2,0,4.3,0,6.5c0,0.2,0,0.5,0,0.7c0,0.2,0.1,0.5,0.4,0.5C94.8,75.6,94.3,76.2,93.9,76.6z"/>
	<path class="st25" d="M91,79.7c-0.3,0.4-0.7,0.8-1.1,1.1c-0.7,0-0.7-0.5-0.7-1c0-1.6,0-3.2,0-4.8c-0.2-0.5,0.1-0.8,0.3-1.2
		c0-0.1,0.1-0.1,0.1-0.2c0-0.1,0.1-0.1,0.1-0.2c0,0,0,0,0.1-0.1c0-0.1,0.1-0.1,0.1-0.2c0-0.1,0.1-0.1,0.1-0.2
		c0.1-0.1,0.1-0.2,0.2-0.2c0.1-0.1,0.2-0.1,0.3-0.2c0.1,0,0.2,0,0.3,0c0.1,0,0.2,0.1,0.2,0.2c0.3,0.3,0.2,0.7,0.3,1.1
		c0,1.5,0,2.9,0,4.4C91.3,78.8,91.2,79.3,91,79.7z"/>
	<path class="st26" d="M91,79.7c0-0.9,0-1.7,0-2.6c0-1.1,0-2.1,0-3.2c0-0.2,0-0.4,0-0.6c0-0.2-0.1-0.4-0.3-0.5
		c-0.2-0.4,0.1-0.6,0.2-0.9c0-0.1,0.1-0.1,0.1-0.2c0-0.1,0.1-0.1,0.1-0.2c0,0,0,0,0.1-0.1c0-0.1,0.1-0.1,0.1-0.1
		c0,0,0.1-0.1,0.1-0.1c0,0,0.1-0.1,0.1-0.1c0,0,0,0,0.1-0.1c0,0,0.1-0.1,0.1-0.1c0,0,0,0,0.1,0c0.1,0,0.1,0,0.2-0.1c0,0,0.1,0,0.1,0
		c0.1,0.1,0.2,0.2,0.2,0.4c0,0.2,0,0.4,0,0.7c0,1.7,0,3.3,0,5c0,0.2,0,0.4,0,0.6c0,0.3,0.1,0.6,0.3,0.8C92,78.7,91.5,79.3,91,79.7z"
		/>
	<path class="st27" d="M89.2,74.8c0.2,0,0.3,0.1,0.3,0.3c0,0.2,0,0.4,0,0.6c0,1.3,0,2.6,0,3.9c0,0.2,0,0.4,0,0.6
		c0,0.2,0.1,0.4,0.3,0.5c-0.3,0.4-0.7,0.8-1.2,1.1c-0.8,0.1-0.8-0.4-0.8-0.9c-0.1-1.4,0-2.8,0-4.2c-0.2-0.7,0.3-1.1,0.7-1.6
		c0-0.1,0.1-0.1,0.1-0.2c0.1-0.1,0.1-0.2,0.2-0.2C89,74.8,89.1,74.7,89.2,74.8z"/>
	<path class="st28" d="M81.7,87.4c-0.6,0.5-1.4,1-1.9,1.3c-0.5-0.2-0.5-0.6-0.5-1c0-0.8,0.1-1.6-0.1-2.3c0.2-0.9,1.3-1.9,2.2-1.9
		c0.3,0.1,0.4,0.4,0.4,0.6C81.8,85.2,82,86.3,81.7,87.4z"/>
	<path class="st29" d="M87.9,76.6c0.2,0,0.3,0.1,0.3,0.3c0,0.2,0,0.4,0,0.6c0,1.1,0,2.2,0,3.2c0,0.2,0,0.4,0,0.6
		c0,0.3,0.2,0.5,0.4,0.5c-0.4,0.4-0.8,0.8-1.3,1.1c-0.8,0.1-0.8-0.4-0.8-0.9c0-1.4-0.1-2.7,0-4.1c-0.1-0.2,0-0.4,0.1-0.6
		c0-0.1,0.1-0.1,0.1-0.2c0-0.1,0.1-0.1,0.1-0.2c0,0,0-0.1,0.1-0.1c0-0.1,0.1-0.1,0.1-0.2c0,0,0-0.1,0.1-0.1c0-0.1,0.1-0.1,0.1-0.1
		C87.5,76.6,87.7,76.4,87.9,76.6z"/>
	<path class="st30" d="M85.9,84.2c-0.4,0.4-0.8,0.7-1.3,1c-0.7,0-0.7-0.5-0.7-1c0-1.1-0.1-2.2,0-3.2c-0.1-0.5,0.2-0.8,0.5-1.1
		c0-0.1,0.1-0.1,0.1-0.2c0-0.1,0.1-0.1,0.2-0.2c0.2-0.2,0.5-0.4,0.9-0.3c0.2,0.2,0.4,0.4,0.4,0.7C86.1,81.4,86.2,82.8,85.9,84.2z"/>
	<path class="st31" d="M81.7,87.4c-0.1-0.3-0.2-0.5-0.2-0.8c0-0.6,0-1.3,0-1.9c0-0.2,0-0.4,0-0.6c0-0.2-0.1-0.3-0.3-0.4
		c0-0.8,0.7-1,1.1-1.5c0.1-0.1,0.1-0.1,0.2-0.1c0.1,0,0.2,0,0.3-0.1c0.1,0,0.2,0,0.3,0.1c0.1,0.1,0.3,0.2,0.3,0.4
		c0.1,1.3,0.3,2.6-0.1,3.8c-0.4,0.4-0.8,0.7-1.3,0.9c0,0-0.1,0.1-0.2,0.1C81.8,87.3,81.7,87.3,81.7,87.4z"/>
	<path class="st32" d="M79.2,85.2c0.2,0,0.3,0.1,0.3,0.3c0,0.2,0,0.4,0,0.6c0,0.6,0,1.2,0,1.8c0,0.3,0,0.5,0.2,0.8c0,0,0,0,0,0
		c-0.1,0-0.1,0.1-0.2,0.1c-0.6,0.5-1.2,0.8-1.8,1.1c0,0-0.1,0-0.2,0c-0.4-0.3-0.3-0.7-0.3-1.1c0-0.6,0.1-1.2-0.1-1.8
		c-0.1-0.6,0.4-0.9,0.8-1.2c0.1,0,0.1-0.1,0.2-0.1c0.1-0.1,0.2-0.1,0.3-0.2c0.1-0.1,0.2-0.1,0.3-0.2c0.1,0,0.1-0.1,0.2-0.1
		c0,0,0.1,0,0.1,0C79,85.2,79.1,85.2,79.2,85.2C79.2,85.2,79.2,85.2,79.2,85.2z"/>
	<path class="st33" d="M77.3,86.8c0.2,0.1,0.3,0.2,0.3,0.4c0,0.4,0,0.8,0,1.1c0,0.4,0,0.9,0.1,1.3c0,0.1,0,0.2-0.1,0.3
		c-0.5,0.4-1.1,0.7-1.6,1c-0.1,0.1-0.3,0.1-0.4,0.2c-0.4-0.3-0.3-0.7-0.4-1.1c0-0.5,0-1,0-1.5c-0.1-0.3,0-0.5,0.2-0.7
		c0-0.1,0.1-0.1,0.2-0.2c0.1-0.1,0.2-0.1,0.3-0.2C76.3,87.2,76.6,86.5,77.3,86.8z"/>
	<path class="st34" d="M85.9,84.2c-0.1-0.1-0.2-0.2-0.2-0.4c0-0.2,0-0.4,0-0.6c0-1,0-1.9,0-2.9c0-0.2,0-0.4,0-0.6
		c0-0.2-0.1-0.4-0.3-0.5c0.1-0.7,0.6-1.3,1.3-1.5c0.1,0.1,0.1,0.2,0.2,0.4c0,0.2,0,0.4,0,0.6c0,1,0,2,0,3.1c0,0.2,0,0.4,0,0.6
		c0,0.3,0.2,0.4,0.4,0.5C86.9,83.5,86.5,83.9,85.9,84.2z"/>
	<path class="st35" d="M75.2,88.3c0.2,0,0.3,0.1,0.3,0.3c0,0.2,0,0.5,0,0.7c0,0.6,0,1.2,0,1.8c0,0,0,0,0,0c-0.1,0-0.1,0.1-0.2,0.1
		c-0.5,0.3-1.1,0.6-1.6,0.8c-0.1,0.1-0.2,0.1-0.3,0.2c-0.1,0-0.1,0.1-0.2,0.1c-0.5-0.4-0.3-0.9-0.3-1.4c0-0.3,0-0.6,0-0.9
		c0-0.1,0-0.2,0-0.3c0.4-0.8,1.2-1.1,1.9-1.4c0.1,0,0.2,0,0.2,0C75.1,88.3,75.1,88.3,75.2,88.3z"/>
	<path class="st36" d="M59.3,96.7c0.1,0,0.1,0,0.2,0c0,0-0.1,0.1-0.1,0.1c-0.6,0.1-1.2,0.3-1.8,0.2c-0.3,0.1-0.6,0-0.9,0.1
		c-0.1,0-0.2,0-0.3,0c0-0.4,0-0.7,0-1.1c0-0.5-0.1-1-0.3-1.4c0.4-0.5,0.9-0.3,1.4-0.3c0.5,0,0.9,0.1,1.4,0.2
		C59.6,95.2,59.3,96,59.3,96.7z"/>
	<path class="st37" d="M83.3,86.2c-0.2-0.5-0.2-0.9-0.2-1.4c0-0.6,0-1.2,0-1.8c0-0.2,0-0.4,0-0.6c0-0.2-0.1-0.3-0.3-0.4
		c-0.1-0.6,0.4-0.8,0.7-1.1c0.1,0,0.1-0.1,0.2-0.1c0,0,0.1,0,0.1,0c0.1,0,0.1,0,0.2,0c0,0,0.1,0,0.1,0c0.1,0.1,0.2,0.2,0.2,0.4
		c0,0.2,0,0.4,0,0.6c0,0.8,0,1.6,0,2.4c0,0.1,0,0.3,0,0.4c0,0.3,0.1,0.5,0.4,0.6C84.2,85.6,83.8,85.9,83.3,86.2z"/>
	<path class="st38" d="M67.5,94.6c-0.1,0-0.1,0-0.2,0.1c-0.4-0.3-0.3-0.8-0.4-1.2c0-0.5,0.4-0.6,0.8-0.9c0.1-0.1,0.1-0.1,0.2-0.1
		c0.1-0.1,0.2-0.1,0.3-0.2c0.3-0.1,0.7-0.3,1.1-0.1c0.3,0.5,0.2,1.1,0.4,1.6c-0.6,0.3-1.1,0.5-1.8,0.7
		C67.7,94.6,67.6,94.5,67.5,94.6z"/>
	<path class="st39" d="M73,89.7c0.1,0.1,0.2,0.2,0.2,0.4c0,0.2,0,0.4,0,0.6c0,0.5,0,1,0,1.5c-0.3,0.2-0.6,0.4-1,0.4
		c-0.5,0-0.6-0.4-0.6-0.7c-0.1-0.4,0-0.8,0-1.3c0-0.6,0.4-0.8,0.9-1c0.1-0.1,0.3-0.1,0.5,0C73,89.7,73,89.7,73,89.7z"/>
	<path class="st40" d="M67,93.3c0.2,0.1,0.3,0.3,0.3,0.5c0,0.3,0,0.6,0,0.9c-0.6,0.3-1.3,0.5-1.9,0.6c-0.6,0-0.7-0.4-0.8-0.8
		c0.1-0.7,0.8-0.7,1.2-1c0.1,0,0.1-0.1,0.2-0.1c0.1-0.1,0.2-0.1,0.3-0.1C66.6,93.2,66.8,93.1,67,93.3z"/>
	<path class="st41" d="M71.7,90.6c0.1,0.1,0.2,0.3,0.2,0.4c0,0.3,0,0.6,0,0.9c0,0.3,0.1,0.6,0.3,0.8c-0.5,0.3-0.6,0.4-1.1,0.5
		c-0.1,0-0.1,0.1-0.2,0.1c-0.1,0-0.1,0-0.2,0.1c-0.8-0.5-0.4-1.2-0.5-1.9c0-0.1,0-0.2,0-0.3C70.7,90.8,71.1,90.4,71.7,90.6z"/>
	<path class="st42" d="M70.4,91.4c0.1,0.1,0.2,0.3,0.2,0.4c0,0.3,0,0.5,0,0.8c0,0.3,0.1,0.5,0.2,0.8c-0.3,0.2-0.7,0.4-1.1,0.5
		c-0.1,0-0.1,0-0.2,0c-0.2,0-0.3-0.1-0.3-0.3c0-0.1,0-0.3,0-0.4c0-0.3,0-0.6,0-0.9c0-0.6,0.5-0.7,0.9-0.9c0.1,0,0.2,0,0.2,0
		C70.3,91.3,70.4,91.3,70.4,91.4z"/>
	<path class="st43" d="M64.7,94.5c0.2,0,0.3,0.1,0.3,0.3c0,0.3,0.2,0.4,0.4,0.5c-0.1,0.1-0.2,0.1-0.4,0.2c-0.6,0.2-1.3,0.4-1.9,0.5
		c-0.4,0-0.4-0.3-0.4-0.5c0.2-0.1,0.3-0.2,0.5-0.3c0.2-0.1,0.4-0.2,0.5-0.3c0-0.1,0.1-0.1,0.1-0.2c0.1-0.1,0.1-0.2,0.2-0.2
		C64.3,94.3,64.5,94.3,64.7,94.5z"/>
	<path class="st44" d="M62.7,95.4c0.1,0.1,0.1,0.2,0.2,0.2c0.1,0.1,0.1,0.2,0.2,0.3c-0.2,0.2-0.5,0.2-0.8,0.3
		c-0.7,0.2-1.5,0.3-2.2,0.5c-0.1,0-0.2,0-0.3,0c0.1-0.1,0.2-0.2,0.3-0.2c0.4-0.2,0.8-0.4,1.3-0.6c0.3-0.1,0.7-0.2,1-0.4
		c0.1,0,0.1-0.1,0.2-0.1C62.6,95.5,62.7,95.5,62.7,95.4z"/>
	<path class="st12" d="M56.7,97.2c0.1-0.1,0.2-0.1,0.4-0.1c0.2,0,0.3,0,0.5,0C57.3,97.3,57,97.3,56.7,97.2z"/>
	<path class="st11" d="M65.2,31.9c-0.1,0.2-0.3,0.2-0.5,0.2C64.8,31.9,65,31.9,65.2,31.9z"/>
	<path class="st11" d="M65.9,31.7c-0.1,0.2-0.3,0.2-0.5,0.2C65.5,31.7,65.7,31.7,65.9,31.7z"/>
	<path class="st13" d="M103.1,61.4c0-0.1,0-0.2,0.1-0.3C103.2,61.2,103.2,61.3,103.1,61.4z"/>
	<path class="st39" d="M73.4,92.2c0.1-0.1,0.2-0.1,0.3-0.2C73.6,92.1,73.5,92.2,73.4,92.2z"/>
	<path class="st14" d="M101.7,64.6c0-0.1,0-0.2,0.1-0.3C101.9,64.5,101.8,64.6,101.7,64.6z"/>
	<path class="st15" d="M100.4,67.2c0-0.1,0.1-0.2,0.2-0.3C100.6,67.1,100.5,67.2,100.4,67.2z"/>
	<path class="st40" d="M67.5,94.6c0.1-0.1,0.2-0.1,0.4-0.1C67.8,94.6,67.6,94.6,67.5,94.6z"/>
	<path class="st21" d="M96.4,73.5c0.1-0.1,0.1-0.1,0.2-0.2C96.5,73.4,96.5,73.5,96.4,73.5z"/>
	<path class="st26" d="M92.4,78.2c0.1-0.1,0.1-0.1,0.2-0.2C92.6,78.1,92.5,78.2,92.4,78.2z"/>
	<path class="st17" d="M99.1,69.5c0-0.1,0.1-0.2,0.1-0.2C99.3,69.3,99.2,69.4,99.1,69.5z"/>
	<path class="st28" d="M81.9,87.3c0.1,0,0.1-0.1,0.2-0.1C82,87.2,81.9,87.3,81.9,87.3z"/>
	<path class="st28" d="M79.6,88.8c0.1,0,0.1-0.1,0.2-0.1C79.7,88.7,79.6,88.8,79.6,88.8z"/>
	<path class="st33" d="M75.3,91.2c0.1,0,0.1-0.1,0.2-0.1C75.5,91.2,75.4,91.2,75.3,91.2z"/>
	<path class="st5" d="M55.9,35.2c-0.1,0.1-0.1,0.1-0.2,0.2C55.8,35.3,55.8,35.2,55.9,35.2z"/>
	<path class="st5" d="M55.6,35.3c-0.1,0.1-0.1,0.1-0.2,0.2C55.5,35.4,55.5,35.4,55.6,35.3z"/>
	<path class="st5" d="M55.3,35.5c-0.1,0.1-0.1,0.1-0.2,0.2C55.1,35.6,55.2,35.5,55.3,35.5z"/>
	<path class="st42" d="M70.9,93.3c0.1,0,0.1-0.1,0.2-0.1C71.1,93.3,71,93.3,70.9,93.3z"/>
	<path class="st5" d="M54.9,35.6c-0.1,0.1-0.1,0.1-0.2,0.2C54.8,35.7,54.9,35.7,54.9,35.6z"/>
	<path class="st4" d="M39.6,45.9c-0.1,0.1-0.1,0.1-0.2,0.2C39.5,46,39.5,46,39.6,45.9z"/>
	<path class="st4" d="M39.8,45.7c-0.1,0.1-0.1,0.1-0.2,0.2C39.7,45.9,39.7,45.8,39.8,45.7z"/>
	<path class="st45" d="M30.1,86.3c0-0.1,0-0.1-0.1-0.2c0-0.1-0.1-0.1-0.1-0.1l0,0c-0.1-0.1-0.1-0.2-0.2-0.3c0-0.1,0-0.1,0-0.2
		c0-0.1-0.1-0.1-0.1-0.2c0,0,0,0,0,0c0-0.2-0.1-0.3-0.1-0.5c-0.5-1.3-0.9-2.7-1.1-4.1c-0.1-0.7-0.2-1.3-0.2-2c0-0.3-0.1-0.6-0.1-1
		c0-0.5,0-1,0-1.5c0-0.5,0.1-1.1,0.1-1.6c0.1-0.9,0.2-1.9,0.4-2.8c0.3-1.4,0.6-2.9,1.1-4.3c0-0.2,0.1-0.3,0.1-0.5c0,0,0-0.1,0-0.1
		c0.1-0.1,0.1-0.3,0.1-0.4c0,0,0-0.1,0-0.1c0.1-0.1,0-0.3,0.1-0.4c0,0,0-0.1,0-0.1c0.1-0.1,0.1-0.2,0.2-0.2c0.4-0.1,0.5,0.3,0.5,0.5
		c0.1,0.3,0,0.5,0,0.8c0,6,0,12,0,18c0,0.3,0,0.6-0.1,0.9c-0.1,0.3-0.2,0.6-0.6,0.4l-0.1,0C30.2,86.4,30.2,86.4,30.1,86.3z"/>
	<path class="st46" d="M30.3,86.5c0.2,0,0.3-0.2,0.3-0.3c0-0.2,0-0.4,0-0.6c0-6.3,0-12.5,0-18.8c0-0.2,0-0.4,0-0.6
		c0-0.1-0.1-0.1-0.2-0.1c0,0-0.1,0-0.1,0c-0.1-0.1-0.1-0.2,0-0.3c0.2-0.2,0.2-0.4,0.3-0.6c0.5-1.3,1.1-2.6,1.8-3.9
		c0.1-0.2,0.2-0.3,0.3-0.5c0.1-0.1,0.1-0.2,0.2-0.3l0,0c0.1-0.1,0.1-0.2,0.2-0.3l0,0c0.1-0.1,0.1-0.2,0.2-0.3l0,0
		c0.7-0.1,0.8,0.4,0.8,0.9c0,1.6,0.1,3.3,0,4.9c0,0.4,0,0.9,0.1,1.3c0.2,0.8-0.2,1.4-0.3,2.1c-0.8,3.2-1.4,6.4-1.7,9.7
		c-0.2,2.2-0.3,4.4-0.3,6.6c0,0.8,0.2,1.5,0.2,2.3c0,0.4,0,0.7-0.3,1C31.1,88,30.6,87.3,30.3,86.5z"/>
	<path class="st47" d="M33.9,66.9c-0.1-0.1-0.1-0.2-0.2-0.4c0-0.2,0-0.4,0-0.6c0-1.6,0-3.2,0-4.8c0-0.2,0-0.4,0-0.6
		c0-0.1-0.1-0.3-0.1-0.4c-0.1-0.2-0.2-0.3-0.4-0.3c0.1-0.3,0.3-0.6,0.5-0.9c0.2-0.4,0.5-0.8,0.7-1.2c0.1-0.1,0.2-0.2,0.2-0.2
		c1.5-2.3,3.1-4.4,4.9-6.4c0.1-0.1,0.2-0.3,0.3-0.4c0,0,0,0,0,0c0-0.1,0.1-0.1,0.2-0.2l0,0c0-0.1,0.1-0.1,0.2-0.2l0,0
		c0.1-0.1,0.1-0.1,0.2-0.2l0,0c0.1,0,0.1-0.1,0.1-0.2l0,0c0.1,0,0.1-0.1,0.1-0.1l0,0c0.1,0,0.1-0.1,0.1-0.1c0.1-0.1,0.3-0.2,0.4-0.4
		c1.1-1.1,2.2-2.2,3.3-3.2c0.1-0.1,0.1-0.1,0.2-0.1c0.5,0.2,0.2,0.5,0,0.7c-0.7,0.8-1.3,1.8-1.9,2.6c-0.8,1.1-1.4,2.1-2.2,3.2
		c0,0.1-0.1,0.1-0.1,0.2c0,0.1-0.1,0.1-0.1,0.2c0,0.1-0.1,0.1-0.1,0.2c-0.1,0.1-0.1,0.2-0.2,0.3c-0.8,1.3-1.5,2.7-2.2,4.1
		c-1.2,2.6-2.3,5.2-3.2,7.9c0,0.1,0,0.1-0.1,0.2c0,0.1-0.1,0.2-0.1,0.3c0,0.2-0.1,0.4-0.2,0.6c-0.1,0.1-0.1,0.3-0.3,0.3
		C34,66.9,33.9,66.9,33.9,66.9z"/>
	<path class="st47" d="M32.9,60.4c0,0.1-0.1,0.3-0.2,0.3C32.7,60.6,32.8,60.5,32.9,60.4z"/>
	<path class="st47" d="M33.1,60.1c0,0.1-0.1,0.3-0.2,0.3C32.9,60.3,33,60.2,33.1,60.1z"/>
	<path class="st47" d="M33.2,59.8c0,0.1-0.1,0.2-0.2,0.3C33.1,60,33.1,59.9,33.2,59.8z"/>
	<path class="st1" d="M30.3,65.6c0,0.1,0,0.2,0,0.3c0,0-0.1,0-0.1,0.1C30.2,65.9,30.2,65.7,30.3,65.6z"/>
	<path class="st1" d="M30.1,66.1c0,0.1,0,0.3-0.1,0.4C30,66.3,30,66.2,30.1,66.1z"/>
	<path class="st1" d="M30,66.6c0,0.1,0,0.3-0.1,0.4C29.8,66.8,29.9,66.7,30,66.6z"/>
	<path class="st14" d="M98.1,57.6c-0.1,0.4-0.4,0.9-0.5,1.3c-0.3,0-0.4-0.3-0.4-0.5c-0.1-0.4-0.1-0.8-0.1-1.2c0-6.3,0-12.5,0-18.8
		c0-0.4-0.2-1,0.5-1.2l0,0c0.1,0.2,0.4,0,0.5,0.2c0,0,0,0,0,0c0,0.1,0.1,0.3,0.1,0.4c0.4,0.6,0.7,1.3,0.9,2c0.1,0.4,0.2,0.8,0.3,1.3
		c0.1,0.6,0.2,1.2,0.2,1.8c0,0.2,0,0.5,0.1,0.7c0.1,0.8,0.1,1.5,0,2.3c0,0.2-0.1,0.4-0.1,0.6c0,0.4,0,0.7,0,1.1c0,0.4,0,0.8-0.1,1.2
		c0,0.1,0,0.2,0,0.3c0,0.1,0,0.2,0,0.3c0,0.3-0.1,0.6-0.1,1c0,0.3,0,0.7-0.1,1c0,0.6-0.3,1.1-0.2,1.7c-0.2,0.2,0,0.5-0.2,0.7
		c0,0.1,0,0.2,0,0.3c0.2,1.1-0.4,2.1-0.6,3.2C98.2,57.3,98,57.4,98.1,57.6z"/>
	<path class="st48" d="M98.1,57.6C98,57.5,98,57.4,98,57.3c0.1-0.4,0.1-0.7,0.2-1.1c0.2-0.7,0.3-1.3,0.4-2c0-0.1,0.1-0.2,0.1-0.3
		c0,0,0,0.1,0.1,0.1c0.1,0,0.1,0,0.1-0.1c0.1-0.3,0.2-0.6,0.3-0.9c0.2-0.7,0.3-1.4,0.5-2c0.2-0.8,0.3-1.6,0.5-2.4
		c0.1-0.4,0.1-0.7,0.2-1.1c0-0.1,0.1-0.2,0.2-0.2c0.1,0,0.1,0.1,0.1,0.2c0.1,0.4,0.2,0.7,0.2,1.1c0,0.2,0,0.3,0,0.5
		c0,0.2,0.1,0.3,0.3,0.3c-0.1,0.2-0.1,0.3-0.2,0.5c0,0.1,0,0.1,0,0.2c-0.1,0-0.1,0.1-0.2,0.2c0,0.1,0,0.1,0,0.2
		c-0.1,0.1-0.1,0.2-0.2,0.3c-0.3,0.6-0.5,1.2-0.7,1.8c-0.1,0.2-0.2,0.5-0.2,0.8l0,0c-0.1,0.1-0.1,0.2-0.2,0.3
		c-0.4,0.9-0.7,1.8-1.1,2.7c0,0.1,0,0.2-0.1,0.2c0,0.1,0,0.1,0,0.2c-0.1,0.1-0.1,0.2-0.2,0.3l0,0c0,0-0.1,0.1-0.1,0.2
		c0,0.1,0,0.1-0.1,0.2C98.1,57.5,98.1,57.6,98.1,57.6z"/>
	<path class="st48" d="M98.8,53.6c0-0.2,0-0.5,0.2-0.7C99,53.1,99,53.4,98.8,53.6z"/>
	<path class="st7" d="M102.2,47c0,0.1-0.1,0.2-0.2,0.3C102.1,47.2,102.1,47.1,102.2,47z"/>
	<path class="st7" d="M102.4,46.7c-0.1,0.1-0.1,0.1-0.2,0.2C102.3,46.8,102.3,46.8,102.4,46.7z"/>
	<path class="st49" d="M44.5,46.6c0.1-0.1,0.1-0.2,0.2-0.3c0.1-0.1,0.1-0.2,0-0.3c0.1-0.2,0.3-0.3,0.4-0.4c0.1-0.1,0.3-0.3,0.4-0.4
		c0,0,0,0,0,0c0.1,0,0.1-0.1,0.2-0.2c0.4-0.3,0.7-0.6,1.1-0.9c0.1-0.1,0.3-0.2,0.5-0.3c0.5,0,0.6,0.3,0.7,0.7c0.1,0.3,0,0.7,0,1.1
		c0,3.9,0.1,7.9-0.1,11.8c0,0.2,0.1,0.3,0.1,0.5c0.1,0.6-0.2,1.1-0.4,1.6c-0.8,2.1-1.3,4.2-1.3,6.4c0,2.4,0.5,4.8,1.4,7.1
		c0.2,0.4,0.3,0.8,0.2,1.3c-0.2,0.5,0,0.9,0,1.4c0,5,0,10.1,0,15.1c0,0.5,0,0.9-0.3,1.3c-0.3,0.3-0.6,0.3-1,0.4
		c-0.5,0.1-1,0.1-1.5,0.1c-0.3-0.1-0.6-0.1-0.8-0.4c0.1-14.7,0-29.5,0-44.2C44.3,47.3,44.4,47,44.5,46.6z"/>
	<path class="st50" d="M54.6,38.5c0.3-0.1,0.5-0.3,0.8-0.4c0.4,0.1,0.5,0.4,0.5,0.7c0,3,0.1,6,0,9c0,0.1,0,0.2-0.1,0.3
		c0,0.1-0.1,0.3-0.2,0.4c-0.7,1-1.8,1.6-2.6,2.6c-0.6,0.6-1.1,1.3-1.7,1.9c-0.3,0.3-0.6,0.7-1,0.1c-0.2-0.4-0.1-0.9-0.1-1.3
		c0-3.2,0.1-6.5,0-9.7c0-0.2,0.1-0.4,0.1-0.6c0.2-0.2,0.4-0.3,0.6-0.5c1.1-0.7,2.2-1.4,3.3-2.1C54.4,38.6,54.5,38.6,54.6,38.5z"/>
	<path class="st51" d="M50.4,41.4c0.2,0.3,0.3,0.6,0.3,0.9c0,0.2,0,0.4,0,0.7c0,3.4,0,6.9,0,10.3c0.1,0.1,0.1,0.1,0.1,0.2
		c-0.4,1-1.2,1.8-1.7,2.7c-0.3,0.3-0.4,0.7-0.6,1c-0.2,0.3-0.2,0.8-0.8,0.8c-0.1-0.4-0.2-0.9-0.2-1.4c0-3.8,0-7.7,0-11.5
		c0-0.2,0-0.5,0-0.7c0-0.3-0.1-0.5-0.4-0.6c0.4-0.5,1-0.8,1.5-1.2c0.3-0.2,0.6-0.5,1-0.7c0.1-0.1,0.3-0.1,0.3-0.2l0,0
		c0.1,0,0.1-0.1,0.2-0.2l0,0C50.2,41.5,50.3,41.4,50.4,41.4L50.4,41.4z"/>
	<path class="st50" d="M50,41.6c-0.1,0.1-0.2,0.2-0.3,0.2C49.8,41.7,49.9,41.7,50,41.6z"/>
	<path class="st10" d="M45.6,44.9c0,0.1-0.1,0.1-0.2,0.2C45.5,45,45.6,45,45.6,44.9z"/>
	<path class="st50" d="M50.2,41.5c-0.1,0.1-0.1,0.1-0.2,0.2C50,41.6,50.1,41.5,50.2,41.5z"/>
	<path class="st50" d="M50.4,41.4c-0.1,0-0.1,0.1-0.2,0.1C50.2,41.4,50.3,41.4,50.4,41.4z"/>
	<path class="st52" d="M82.2,36.6c0.1,0,0.1-0.1,0.2-0.1c0.7-0.1,1.4-0.3,2.1-0.2c0.2,0.6,0,1.1,0,1.7c0,4,0,8,0,11.9
		c0,0.5,0,1.1-0.3,1.6c-0.7,0.4-1.9-0.2-2.4-1.2c-0.1-0.3-0.1-0.6-0.1-0.9c0-3.9,0-7.7,0-11.6C81.7,37.4,81.6,36.9,82.2,36.6z"/>
	<path class="st53" d="M76.6,30.7c0.1-0.1,0.3-0.1,0.4-0.1c0.5,0,1,0,1.5,0c0.8,0,1.5,0,2.3,0c0.6,0,0.7,0.1,0.7,0.7
		c0,1.8,0,3.6,0,5.3c-0.2,0.6-0.8,0.5-1.3,0.6c-0.7,0.2-1.4,0.4-2.2,0.5c-0.4,0.1-0.8,0.3-1.2-0.1c-0.2-1.3-0.1-2.6-0.1-3.9
		C76.7,32.7,76.9,31.7,76.6,30.7z"/>
	<path class="st54" d="M86.9,36c0.3,0,0.6,0,1,0c1.1,0,2.3,0,3.4,0c0.2,0,0.5,0,0.7,0.1c-0.3,0.4-0.7,0.3-1.1,0.3
		c-0.4,0-0.9,0.1-1.3,0c-0.4,0.1-0.8,0-1.2,0c-0.8,0-0.9,0.6-0.9,1.2c0,4.5,0,9.1,0,13.6c0,2,0,4.1,0,6.1c0,0.5,0,1-0.3,1.5
		c-0.3,0.3-0.5,0.1-0.6-0.1c-0.4-1.4-1-2.7-1.2-4.2c0.2-0.5,0-1,0-1.4c0-5.2,0-10.4,0-15.7c0-0.5,0-1.1,0.7-1.3
		C86.4,36.1,86.6,36,86.9,36z"/>
	<path class="st55" d="M86.1,36.1c-0.2,0.2-0.4,0.5-0.3,0.8c0,0.2,0,0.4,0,0.7c0,5.3,0,10.5,0,15.8c0,0.5,0,0.9-0.2,1.4
		c-0.4,0.1-0.5-0.3-0.6-0.5c-0.4-0.8-0.8-1.5-1.1-2.3c0-0.1,0-0.2,0.1-0.2c0-0.2,0-0.3,0-0.5c0.1-0.4,0.1-0.8,0.1-1.2
		c0-4.1,0-8.1,0-12.2c0-0.2,0-0.4,0-0.6c0-0.3,0.1-0.6,0.3-0.8c0.2-0.1,0.4-0.1,0.6-0.1C85.4,36.1,85.7,36.1,86.1,36.1z"/>
	<path class="st56" d="M80.2,37c0.2-0.1,0.4-0.2,0.7-0.2c0.2,0,0.4-0.1,0.6-0.2c0.2,0,0.4,0,0.7,0c-0.1,0.2-0.2,0.5-0.2,0.7
		c0,0.2,0,0.4,0,0.7c0,3.8,0,7.6,0,11.4c0,0.4,0,0.8,0,1.1c-0.8,0.3-1.4,0.1-2-0.6c-0.1-0.3-0.1-0.5-0.1-0.8c0-3.7,0-7.4,0-11.2
		C79.9,37.6,79.9,37.2,80.2,37z"/>
	<path class="st57" d="M90.8,36.1c0.4,0,0.8,0,1.2,0c0.3,0,0.7,0,1,0c0.2,0,0.3,0,0.4,0.1c-1,0.5-1,1.3-1,2.3c0,9.8,0,19.7,0,29.5
		c0,0.5-0.1,1.1,0,1.6c0,0.3-0.2,0.5-0.3,0.7c-0.1,0.1-0.2,0.3-0.2,0.4c0,0,0,0,0,0c-0.1,0.1-0.1,0.1-0.2,0.2l0,0
		c-0.1,0.1-0.1,0.1-0.2,0.2l0,0c-0.1,0.1-0.1,0.1-0.2,0.2c0,0.1,0,0.1,0,0.2c-0.1,0.1-0.1,0.1-0.2,0.2c-0.1,0.1-0.1,0.1-0.2,0.2l0,0
		c-0.5,0-0.6-0.4-0.6-0.8c0-0.3,0-0.6,0-1c0-10.8,0-21.6,0-32.4C90.5,37.1,90.3,36.6,90.8,36.1z"/>
	<path class="st58" d="M92.4,69.7c-0.2-0.1-0.3-0.3-0.3-0.5c0-0.2,0-0.4,0-0.7c0-10.3,0-20.7,0-31c0-0.3,0-0.5,0-0.8
		c0-0.2,0.2-0.4,0.4-0.4c0.3,0,0.6,0,0.9,0c0.3,0,0.5,0,0.8,0c0.1,0.1,0.2,0.1,0.3,0.2c-0.8,0.5-0.8,1.2-0.8,2c0,8.9,0,17.8,0,26.8
		c0,0.7-0.1,1.4,0.1,2c-0.2,0.4-0.4,0.9-0.7,1.3c0,0,0,0,0,0c-0.1,0-0.1,0.1-0.2,0.2c0,0.1,0,0.1,0,0.2C93,68.9,93,69,92.9,69.1l0,0
		c-0.1,0.1-0.1,0.1-0.2,0.2c0,0.1,0,0.1,0,0.2c-0.1,0.1-0.1,0.1-0.2,0.2C92.5,69.6,92.5,69.6,92.4,69.7L92.4,69.7z"/>
	<path class="st59" d="M34.1,66.6c0-0.3,0.1-0.5,0.2-0.8c0.1-0.1,0.1-0.1,0.2-0.2l0,0c0.5,0,0.6,0.4,0.6,0.7c0.1,0.3,0,0.5,0,0.8
		c0,7.2,0,14.3,0,21.5c0,0.6,0.1,1.3-0.5,1.7c-0.7,0.3-1.2-0.1-1.7-0.5c-0.3-0.3-0.6-0.5-0.9-0.8c-0.1-0.1-0.3-0.3-0.4-0.5
		c0-0.4,0-0.8,0-1.1c0-0.3,0-0.6-0.1-0.9c-0.1-0.2-0.1-0.4-0.1-0.6c0-1.2,0-2.4,0-3.6c0-0.2,0-0.4,0.1-0.6c0.1-0.3,0.1-0.7,0.1-1
		c0-0.3,0-0.6,0-0.9c0-0.4,0.1-0.7,0.2-1c0-0.3,0-0.7,0-1c0.1-0.4,0.1-0.7,0.1-1.1c0-0.1,0-0.3,0.1-0.4c0-0.1,0.1-0.2,0.1-0.3
		c0-0.9,0.3-1.8,0.4-2.7c0-0.1,0-0.1,0-0.2c0.2-0.6,0.3-1.3,0.4-2c0.1-0.5,0.2-1,0.3-1.4c0.1-0.4,0.3-0.8,0.3-1.2
		c0.1-0.4,0.2-0.8,0.3-1.2c0-0.1,0-0.3,0.1-0.4l0,0C34,66.9,34,66.7,34.1,66.6z"/>
	<path class="st60" d="M32,89.1c0.3,0.1,0.5,0.2,0.7,0.4c0.4,0.2,0.8,0.5,1.2,0.6c0.1,0.1,0.2,0.1,0.4,0.1c0.5,0.1,1,0,1.4,0.4
		c0.2,0.1,0.3,0.2,0.5,0.4c0,0.1,0.1,0.2,0.1,0.2c-0.1,0.6,0.2,1.2-0.4,1.6c-0.2-0.1-0.4-0.2-0.6-0.4c-0.1-0.1-0.1-0.1-0.2-0.2
		c-0.6-0.5-1.2-1.1-1.8-1.6c-0.5-0.5-0.8-1-1.2-1.5C32,89.2,32,89.1,32,89.1z"/>
	<path class="st1" d="M29.8,85.7c0.1,0.1,0.2,0.2,0.2,0.3C29.9,85.9,29.8,85.8,29.8,85.7z"/>
	<path class="st1" d="M29.7,85.3c0.1,0,0.1,0.1,0.1,0.2C29.7,85.4,29.7,85.4,29.7,85.3z"/>
	<path class="st1" d="M30,86c0,0,0.1,0.1,0.1,0.1C30,86.1,30,86.1,30,86z"/>
	<path class="st1" d="M30.1,86.3c0,0.1,0.1,0.1,0.1,0.2C30.2,86.4,30.2,86.4,30.1,86.3z"/>
	<path class="st4" d="M39.9,50.5c0,0.1-0.1,0.1-0.2,0.2C39.8,50.6,39.9,50.5,39.9,50.5z"/>
	<path class="st4" d="M40.1,50.3c0,0.1-0.1,0.1-0.2,0.2C40,50.4,40,50.4,40.1,50.3z"/>
	<path class="st4" d="M40.2,50.1c0,0.1-0.1,0.1-0.2,0.2C40.1,50.3,40.2,50.2,40.2,50.1z"/>
	<path class="st4" d="M40.4,50c0,0.1-0.1,0.1-0.1,0.2C40.3,50.1,40.3,50,40.4,50z"/>
	<path class="st4" d="M40.6,49.8c0,0-0.1,0.1-0.1,0.1C40.5,49.9,40.5,49.9,40.6,49.8z"/>
	<path class="st4" d="M40.7,49.7c0,0-0.1,0.1-0.1,0.1C40.6,49.7,40.7,49.7,40.7,49.7z"/>
	<path class="st61" d="M55.6,48.2c0-1,0-1.9,0-2.9c0-2.1,0-4.1,0-6.2c0-0.2,0-0.4,0-0.6c0-0.1-0.1-0.3-0.1-0.4
		c0.1-0.1,0.1-0.1,0.2-0.2c1.5-0.9,3-1.6,4.5-2.4c0.1,0,0.2-0.1,0.3-0.1c0.8-0.1,0.8,0.5,0.8,1c0,1.6,0,3.3,0,5c0,1,0.1,1.9-0.1,2.9
		c-0.5,1-1.5,1.3-2.3,2c-0.8,0.4-1.4,1-2.1,1.5c-0.3,0.2-0.5,0.5-0.9,0.6C55.8,48.3,55.7,48.3,55.6,48.2z"/>
	<path class="st62" d="M60.8,44.5c0.1-0.3,0.2-0.6,0.2-0.9c0-0.8,0-1.6,0-2.4c0-1.5,0-3,0-4.5c0-0.2,0-0.4,0-0.7
		c0-0.3-0.2-0.5-0.5-0.5c0.1-0.1,0.3-0.2,0.4-0.2c1.1-0.5,2.2-1,3.3-1.4c0.2-0.1,0.4-0.2,0.6-0.3c0.2,0,0.3,0,0.5-0.1
		c0.5,0,0.7,0.4,0.7,0.9c0,2.2,0,4.4,0,6.7c0,0.3-0.1,0.5-0.2,0.8c-0.3,0.8-1.1,0.9-1.7,1.4c-1,0.3-1.7,1.1-2.7,1.4
		C61,44.6,60.9,44.6,60.8,44.5z"/>
	<path class="st50" d="M52.6,91.2c-0.3,0-0.6,0-0.9,0.1c-0.5,0.1-1,0.3-1.6,0.2c0.3-4.3,0.1-8.7,0.1-13c0-0.4,0-0.8,0.1-1.2
		c0.3-0.4,0.7-0.3,1-0.2c1,0.3,2,0.6,3.1,0.8c0.3,0.1,0.6,0.2,0.8,0.3c0.4,0.2,0.6,0.5,0.6,1c0,3.6,0,7.2,0,10.8
		c0,0.1,0,0.2-0.1,0.3c-0.2,0.6-0.7,0.7-1.1,0.8c-0.4,0.1-0.8,0.2-1.2,0.3c-0.3,0-0.5,0-0.8-0.1C52.7,91.2,52.7,91.2,52.6,91.2z"/>
	<path class="st51" d="M50.5,77.2c0.1,0.2,0.2,0.5,0.2,0.7c0,0.2,0,0.3,0,0.5c0,4,0,7.9,0,11.9c0,0.1,0,0.2,0,0.3
		c0,0.6,0,0.6-0.5,0.9c-0.2,0-0.4,0.1-0.7,0.2c-0.7,0.4-1.4,0.8-2.1,0.2c0.1-0.2,0.2-0.4,0.2-0.6c0-0.2,0-0.4,0-0.7
		c0-5.1,0-10.2,0-15.3c0-0.2,0-0.4,0-0.7c0-0.3,0.1-0.5,0.2-0.7c0.4,0,0.5,0.3,0.7,0.6c0.3,0.4,0.4,1,0.8,1.4
		c0.3,0.3,0.6,0.5,0.9,0.7C50.3,76.7,50.6,76.8,50.5,77.2z"/>
	<path class="st63" d="M47.4,91.9c0.4,0,0.7,0,1.1-0.1c0.3-0.1,0.7,0,1-0.1c-0.1,0.2-0.2,0.4-0.2,0.6c0,0.7,0,1.4,0,2.1
		c0,0.1,0,0.1,0,0.2c0,0.2,0.2,0.3,0.4,0.3c0.1,0,0.3,0,0.4,0c0.7,0,1.4,0,2.1,0c0.2,0,0.4,0,0.6,0c0.4,0,0.5,0.1,0.7,0.5
		c0.1,0.2,0.1,0.5,0.1,0.7c-0.1,0.3-0.1,0.5,0,0.8c0,0.1-0.1,0.3-0.3,0.3c-0.4,0-0.7,0.1-1.1,0c-0.3-0.1-0.7-0.1-1-0.1
		c-0.3,0-0.5,0-0.8,0c-0.1,0-0.3-0.1-0.4-0.2c0-0.2,0.2-0.4,0.3-0.6c0.1-0.5-0.1-0.8-0.6-0.9c-0.7,0-1.5,0-2.2-0.1
		c-0.4,0.1-0.7,0-1-0.2c-0.6-1-0.6-2.4,0.1-3.2c0.1-0.1,0.3-0.1,0.4-0.1C47.2,91.9,47.3,91.9,47.4,91.9z"/>
	<path class="st64" d="M59,94.8c-1,0-2,0-2.9,0c-0.1,0-0.1,0-0.2,0c-0.4-0.3-0.5-0.7-0.5-1.2c0-0.6,0-1.3,0-1.9
		c0-0.6,0.1-1.1,0.6-1.4c0.8-0.4,1.6-0.9,2.6-0.6c0.3,0.3,0.2,0.6,0.2,0.9c-0.1,1,0,1.9,0,2.9c0,0.4,0.1,0.7,0.3,1
		C59.1,94.6,59.1,94.7,59,94.8z"/>
	<path class="st65" d="M56.2,90.4c-0.1,0.1-0.2,0.1-0.3,0.2c-0.2,0.1-0.2,0.2-0.2,0.4c0,0.1,0,0.3,0,0.4c0,0.3,0,0.7,0,1
		c0,0.4,0,0.8,0,1.2c0,0.4,0.2,0.8,0.2,1.2c-0.7,0-1.5,0-2.2,0c-0.2,0-0.4,0-0.6,0c-0.2,0-0.3-0.2-0.3-0.3c0-0.2,0-0.3,0-0.5
		c0-0.5,0-1,0-1.5c0-0.4,0-0.9-0.2-1.3c0,0,0,0,0,0c0.2-0.2,0.5,0,0.7-0.2c0.2-0.1,0.3-0.1,0.5-0.1c0.6-0.1,1.1-0.3,1.6-0.4
		c0.1,0,0.1-0.1,0.2-0.1C55.8,90.2,56,90.2,56.2,90.4z"/>
	<path class="st66" d="M47.6,95.1c0.8,0,1.6,0,2.4,0c0.6,0,0.7,0.2,0.7,0.7c0,0.3,0,0.5,0,0.8c0,0.1-0.1,0.2-0.2,0.2
		c-0.1,0-0.3,0-0.4,0c-0.3,0-0.7,0-1,0c-0.3,0-0.4,0.2-0.5,0.5c-0.3,0-0.5,0-0.8,0c-0.6-0.1-1.3-0.2-1.9-0.3c-0.3-0.1-0.7-0.1-1-0.2
		c-0.1,0-0.2-0.1-0.3-0.1c-0.2-0.7,0-1,0.6-1c0.3,0,0.6,0.1,0.9,0.1C47.1,96.1,47.1,96.1,47.6,95.1z"/>
	<path class="st13" d="M100.8,50.8c0-0.1,0.1-0.2,0.2-0.3C100.9,50.6,100.9,50.7,100.8,50.8z"/>
	<path class="st13" d="M100.9,50.3c0.1-0.1,0.1-0.1,0.2-0.2C101,50.2,101,50.3,100.9,50.3z"/>
	<path class="st14" d="M99.6,53.7c0-0.1,0.1-0.2,0.2-0.3C99.8,53.5,99.7,53.7,99.6,53.7z"/>
	<path class="st67" d="M47.6,95.1c0,0.2,0.1,0.3,0.1,0.5c0,0.1,0,0.3,0,0.4c0,0.2-0.2,0.4-0.4,0.4c-0.2,0-0.3,0-0.5,0
		c-0.6-0.1-1.3-0.2-1.9-0.4c-0.2,0-0.4,0.1-0.4,0.3c0,0.2,0,0.3,0,0.5c-0.1,0-0.2,0-0.2,0c-0.8-0.2-1.6-0.4-2.4-0.7
		c-0.1,0-0.2-0.1-0.3-0.1c0,0-0.1-0.1-0.1-0.1c-0.3-1.3-0.4-2.6,0.1-3.9c0.9-0.1,1.9-0.6,2.8,0.1c0.3,0,0.5,0,0.8,0
		c0,0.3-0.2,0.4-0.4,0.4c-0.3,0.1-0.4,0.4-0.4,0.7c0,1.6,0,1.7,1.4,1.6c0.3,0,0.6,0.1,0.9,0.3C46.9,95.1,47.3,95.1,47.6,95.1z"/>
	<path class="st68" d="M41.6,92c0,0.7,0,1.5,0,2.2c0,0.5,0,1-0.1,1.5c0,0.1,0,0.2,0.1,0.2c-0.1,0-0.2,0-0.3-0.1
		c-0.7-0.3-1.3-0.6-2-0.8c-0.2-0.1-0.5-0.2-0.6-0.4c-0.3-1-0.3-2,0.1-2.9c0.2-0.2,0.5-0.3,0.8-0.3c0.5,0.2,1.1,0.1,1.7,0.2
		C41.3,91.7,41.5,91.8,41.6,92z"/>
	<path class="st69" d="M38.8,91.7c0,0.5,0,1.1,0,1.6c0,0.5,0,0.9-0.2,1.3c-0.1,0-0.1,0-0.2,0c-0.8-0.4-1.6-0.9-2.3-1.4
		c-0.1-0.1-0.2-0.2-0.3-0.3c0-0.2,0-0.4,0-0.6c0-0.4,0-0.9,0.2-1.3c0.6-0.4,1.2,0,1.8,0.1C38.1,91.3,38.6,91.2,38.8,91.7z"/>
	<path class="st70" d="M97.7,37.3c-0.1,0.1-0.2,0.2-0.2,0.4c0,0.3,0,0.5,0,0.8c0,6.1,0,12.1,0,18.2c0,0.5-0.1,1,0.1,1.5
		c0.1,0.2,0,0.3-0.1,0.5c0,0.1,0,0.3,0.1,0.4c-0.3,0.4-0.4,0.9-0.5,1.5l0,0c-0.1,0-0.1,0.1-0.2,0.2c0,0.1,0,0.1,0,0.2
		c-0.1,0-0.1,0.1-0.2,0.2c0,0.1,0,0.1,0,0.2c-0.1,0-0.1,0.1-0.2,0.2c0,0.1,0,0.1,0,0.2c-0.1,0-0.1,0.1-0.2,0.2c0,0.1,0,0.1,0,0.2
		c-0.6,0.1-0.7-0.3-0.8-0.7c-0.1-0.4-0.1-0.8-0.1-1.1c0-7.1,0-14.2,0-21.3c0-0.3,0-0.6,0-0.9c0.1-0.6,0.3-0.9,1-0.7
		C97,37,97.4,37.1,97.7,37.3z"/>
	<path class="st15" d="M98.3,57.2c0-0.1,0.1-0.2,0.2-0.3C98.5,57,98.4,57.1,98.3,57.2z"/>
	<path class="st15" d="M98.2,57.5c0-0.1,0-0.1,0-0.2c0.1-0.1,0.1-0.1,0.2,0C98.3,57.4,98.2,57.4,98.2,57.5z"/>
	<path class="st14" d="M98.3,57.3c-0.1,0-0.1,0-0.2,0c0.1-0.1,0.1-0.1,0.2-0.2C98.3,57.2,98.3,57.3,98.3,57.3z"/>
	<path class="st61" d="M56.2,90.4c-0.2,0-0.4,0-0.6,0c0-3.5,0-6.9,0-10.4c0-0.2,0-0.5,0-0.7c0-0.6,0-0.6-0.5-0.9
		c0.2-0.3,0.5-0.2,0.7-0.3c1.4-0.1,2.7-0.2,4.1-0.5c0.4-0.1,0.7-0.1,1,0.1c0.3,0.3,0.4,0.6,0.4,1c0,3,0,6.1,0,9.1
		c0,0.4-0.1,0.7-0.3,1c0,0,0,0.1,0,0.1c-0.7,0.6-1.5,0.9-2.4,0.8c-0.4,0-0.8,0.2-1.2,0.3c-0.3,0.1-0.6,0.2-0.9,0.3
		C56.4,90.3,56.3,90.4,56.2,90.4z"/>
	<path class="st62" d="M61,88.8c0-1.4,0-2.9,0-4.3c0-1.9,0-3.7,0-5.6c0-0.2,0-0.5,0-0.7c0-0.1-0.1-0.3-0.2-0.4
		c0-0.4,0.4-0.5,0.6-0.5c1-0.3,2-0.6,3-1c0.3-0.1,0.7-0.2,1,0c0.3,0.2,0.4,0.5,0.4,0.9c0,3,0,6.1,0,9.1c0,0.2-0.1,0.3-0.1,0.5
		c-0.3,0.8-1.2,1.3-2.2,1.2c-0.3,0.1-0.7,0.2-1,0.3C62.1,88.5,61.5,88.7,61,88.8z"/>
	<path class="st71" d="M63.6,88c0.4-0.3,0.9-0.4,1.4-0.6c0.2-0.1,0.4-0.1,0.6-0.3c0.1-0.1,0.3-0.1,0.4,0c0.2,0.2,0.2,0.5,0.2,0.8
		c0,1.7,0,3.4,0,5c0,0.3-0.1,0.5-0.2,0.8c-0.2,0.2-0.5,0.3-0.7,0.4c-0.2,0.1-0.4,0.2-0.6,0.4c-0.2,0.1-0.4,0.1-0.6,0.2
		c-0.1,0-0.1,0.1-0.2,0.2c-0.1,0-0.1,0-0.2,0c-0.1-0.4-0.2-0.9-0.2-1.4C63.6,91.6,63.6,89.8,63.6,88z"/>
	<path class="st72" d="M58.5,89.7c0.5-0.3,1.9-0.7,2.4-0.8c0,1.5,0,3,0,4.4c0,0.2,0,0.5,0,0.7c0,0.1,0.2,0.3,0.3,0.3
		c0.2,0,0.3,0,0.5,0c0.4,0,0.8,0,1.1,0c0,0,0.1,0,0.1,0.1c0,0.1,0,0.1-0.1,0.2c0,0,0,0-0.1,0c-1,0.1-2,0.2-3,0.2
		c-0.4,0-0.7-0.1-1-0.3c-0.1,0-0.3,0-0.4,0c-0.1,0-0.2-0.1-0.2-0.2c0-0.1,0-0.2,0-0.3c0-1,0-2,0-3.1C58.4,90.6,58.5,90.2,58.5,89.7z
		"/>
	<path class="st73" d="M59,94.6c1,0,2,0,3.1,0c0.2,0,0.4,0,0.6,0c0.1,0,0.2,0.1,0.3,0.1c-0.4,0.2-0.8,0.4-1.2,0.6
		c-0.2,0.1-0.5,0.3-0.7,0.4c-0.3,0.2-0.7,0.3-1,0.5c-0.2,0.1-0.5,0.2-0.7,0.4c-0.1,0-0.2-0.1-0.2-0.1c-0.1-0.6-0.2-1.2-0.1-1.8
		C59,94.8,59,94.7,59,94.6z"/>
	<path class="st43" d="M62.6,95.5c-0.1,0-0.1,0.1-0.2,0.1C62.5,95.6,62.5,95.5,62.6,95.5z"/>
	<path class="st74" d="M96.7,36.9c-0.1,0-0.2,0-0.3,0c-0.2,0-0.3,0.2-0.3,0.3c0,0.1,0,0.2,0,0.3c0,0.2,0,0.4,0,0.7
		c0,7.2,0,14.5,0,21.7c0,0.2,0,0.5,0,0.7c0,0.3,0.1,0.5,0.2,0.8c0.1,0.1,0.2,0.1,0.3,0.2c-0.1,0.3-0.2,0.5-0.3,0.8
		c-0.2,0.3-0.3,0.7-0.5,1c0,0.1,0,0.1,0,0.2c-0.1,0.1-0.1,0.2-0.2,0.3l0,0c-0.1,0.1-0.1,0.1-0.2,0.2c0,0.1,0,0.1,0,0.2
		c-0.1,0-0.1,0.1-0.2,0.2c0,0.1,0,0.1,0,0.2c-0.1,0.1-0.1,0.1-0.2,0.2l0,0c-0.5,0-0.6-0.4-0.6-0.8c0-0.3,0-0.7,0-1.1
		c0-8.2,0-16.5,0-24.7c0-0.3,0-0.6,0-0.9c0.1-0.7,0.2-0.8,1-0.7C95.9,36.6,96.3,36.7,96.7,36.9z"/>
	<path class="st74" d="M96.5,61.6c0.1-0.1,0.1-0.1,0.2-0.2C96.6,61.4,96.6,61.5,96.5,61.6z"/>
	<path class="st74" d="M96.7,61.2c0.1-0.1,0.1-0.1,0.2-0.2C96.8,61.1,96.7,61.2,96.7,61.2z"/>
	<path class="st17" d="M96.8,60.9c0.1-0.1,0.1-0.1,0.2-0.2C97,60.8,96.9,60.9,96.8,60.9z"/>
	<path class="st17" d="M97,60.6c0.1-0.1,0.1-0.1,0.2-0.2C97.1,60.5,97.1,60.5,97,60.6z"/>
	<path class="st75" d="M95.4,36.6c-0.1,0-0.2,0-0.3,0c-0.2,0-0.3,0.1-0.3,0.3c0,0.1,0,0.2,0,0.3c0,0.2,0,0.4,0,0.7
		c0,8.5,0,16.9,0,25.4c0,0.3,0,0.5,0,0.8c0,0.3,0.1,0.5,0.3,0.7c-0.1,0.2-0.1,0.4-0.2,0.5c-0.1,0.3-0.3,0.6-0.5,0.9
		c0,0.1,0,0.1,0,0.2c-0.1,0-0.1,0.1-0.2,0.2l0,0c-0.1,0.1-0.1,0.2-0.2,0.3C94,67,94,67,93.9,67.1c0,0.1,0,0.1,0,0.2
		c-0.1,0-0.2-0.1-0.3-0.2c-0.1-0.2-0.2-0.5-0.2-0.8c0-0.2,0-0.3,0-0.5c0-9.4,0-18.7,0-28.1c0-0.2,0-0.4,0-0.6c0-0.1,0-0.3,0.1-0.4
		c0.1-0.2,0.2-0.3,0.4-0.3c0.2,0,0.4,0,0.7,0C94.9,36.4,95.1,36.4,95.4,36.6z"/>
	<path class="st70" d="M98.1,37.4c-0.2,0-0.4,0-0.5-0.2C97.8,37.3,98,37.3,98.1,37.4z"/>
	<path class="st19" d="M95.5,64c0-0.1,0.1-0.2,0.2-0.3C95.7,63.8,95.6,63.9,95.5,64z"/>
	<path class="st75" d="M95,64.8c0.1-0.1,0.1-0.1,0.2-0.2C95.2,64.7,95.1,64.8,95,64.8z"/>
	<path class="st75" d="M95.2,64.5c0.1-0.1,0.1-0.1,0.2-0.2C95.3,64.4,95.3,64.4,95.2,64.5z"/>
	<path class="st75" d="M95.4,64.2c0.1-0.1,0.1-0.1,0.2-0.2C95.5,64.1,95.4,64.1,95.4,64.2z"/>
	<path class="st57" d="M92.4,69.7c0.1-0.1,0.1-0.1,0.2-0.2C92.5,69.6,92.5,69.7,92.4,69.7z"/>
	<path class="st57" d="M92.6,69.5c0.1-0.1,0.1-0.1,0.2-0.2C92.7,69.4,92.7,69.5,92.6,69.5z"/>
	<path class="st57" d="M92.8,69.2c0.1-0.1,0.1-0.1,0.2-0.2C92.9,69.1,92.8,69.2,92.8,69.2z"/>
	<path class="st24" d="M92.9,69.1c0.1-0.1,0.1-0.1,0.2-0.2C93,68.9,93,69,92.9,69.1z"/>
	<path class="st24" d="M93.1,68.7c0.1-0.1,0.1-0.1,0.2-0.2C93.2,68.6,93.1,68.7,93.1,68.7z"/>
	<path class="st76" d="M68.6,32.4c0.1,0,0.2-0.1,0.3-0.1c1-0.3,2.1-0.5,3.1-0.8c0.2-0.1,0.4,0,0.6-0.1c0.5-0.2,0.8,0.1,0.8,0.5
		c0,2.2,0.2,4.4-0.1,6.6c-0.4,1-1.4,0.9-2.1,1.2c-0.6,0.2-1.1,0.5-1.6,0.6c-0.4,0.1-0.7,0.3-1-0.2c-0.2-2.5,0-5-0.1-7.5
		C68.6,32.6,68.6,32.5,68.6,32.4z"/>
	<path class="st77" d="M68.6,32.4c0.2,0,0.3,0.1,0.3,0.3c0,0.2,0,0.3,0,0.5c0,2.1,0,4.2,0,6.2c0,0.3,0,0.6-0.2,0.9c0,0,0,0.1,0,0.1
		c-0.1,0.1-0.1,0.2-0.2,0.3c-0.7,0.4-1.5,0.8-2.3,1.1c-0.3,0-0.6,0.3-0.9,0.1c0,0,0-0.1,0-0.1c0.2-0.6,0.2-1.2,0.2-1.8
		c0-1.7,0-3.5,0-5.2c0-0.2,0-0.4,0-0.6c0-0.3-0.1-0.5-0.3-0.7c0.1,0,0.1-0.1,0.2-0.1c0.8-0.3,1.6-0.5,2.4-0.8c0.1,0,0.2,0,0.3,0
		c0.1-0.1,0.2-0.1,0.3-0.1C68.5,32.4,68.6,32.4,68.6,32.4z"/>
	<path class="st78" d="M73.2,38.7c0-2.1,0-4.2,0-6.3c0-0.2,0-0.3,0-0.5c0-0.4-0.1-0.5-0.5-0.5c0.1,0,0.2-0.1,0.3-0.1
		c0.9-0.2,1.8-0.3,2.8-0.5c0.3,0,0.6,0,0.9,0c0.1,0,0.2,0,0.3,0.1c0.1,0,0.1,0.1,0.2,0.2c0,0.1,0,0.3,0,0.4c0,1.8,0,3.6,0,5.4
		c0,0.3,0,0.5-0.2,0.8c0,0,0,0.1,0,0.1c-0.1,0.1-0.2,0.2-0.3,0.3c-0.1,0-0.1,0.1-0.2,0.1c-0.1,0-0.1,0.1-0.2,0.1
		c-0.7,0.2-1.4,0.5-2.1,0.6C73.7,38.8,73.4,39,73.2,38.7z"/>
	<path class="st76" d="M68.5,32.4c-0.1,0.1-0.2,0.1-0.3,0.1C68.2,32.4,68.3,32.4,68.5,32.4z"/>
	<path class="st58" d="M94.1,66.9c0-0.1,0.1-0.2,0.2-0.3C94.2,66.7,94.2,66.9,94.1,66.9z"/>
	<path class="st58" d="M93.9,67.1C94,67,94,67,94.1,66.9C94,67,94,67,93.9,67.1z"/>
	<path class="st21" d="M94.2,66.6c0.1-0.1,0.1-0.1,0.2-0.2C94.3,66.5,94.3,66.6,94.2,66.6z"/>
	<path class="st79" d="M90.8,36.1c0,11.4,0,22.9,0,34.3c0,0.2,0,0.4,0,0.7c0,0.3,0.1,0.5,0.3,0.7c0,0.1-0.1,0.2-0.1,0.4
		c-0.1,0.2-0.2,0.4-0.4,0.6c-0.1,0-0.1,0.1-0.2,0.2c-0.1,0.1-0.1,0.1-0.2,0.2c-0.1,0.1-0.1,0.1-0.2,0.2c0,0.1,0,0.1,0,0.2
		c-0.1,0.1-0.1,0.1-0.2,0.2l0,0c-0.1,0.1-0.1,0.1-0.2,0.2l0,0c-0.5,0-0.6-0.3-0.6-0.7c-0.1-0.3,0-0.7,0-1.1c0-11.4,0-22.9,0-34.3
		c0-0.6-0.2-1.2,0.3-1.6C89.9,36.1,90.4,36.1,90.8,36.1z"/>
	<path class="st80" d="M89.5,36.1c0,12.1,0,24.2,0,36.3c0,0.3,0,0.5,0,0.8c0,0.2,0.1,0.4,0.3,0.5c-0.1,0.3-0.3,0.5-0.5,0.7
		c-0.1,0.1-0.1,0.2-0.2,0.3c-0.1,0.1-0.1,0.1-0.2,0.2C89,75,88.9,75,88.9,75.1c0,0.1,0,0.1,0,0.2c-0.5,0.2-0.7-0.2-0.8-0.6
		c-0.1-0.3,0-0.6-0.1-0.9c0-12.1,0-24.2,0-36.3c0-0.5-0.1-1,0.3-1.4C88.7,36.1,89.1,36.1,89.5,36.1z"/>
	<path class="st80" d="M90,73.6c0.1-0.1,0.1-0.1,0.2-0.2C90.1,73.5,90,73.6,90,73.6z"/>
	<path class="st80" d="M89.8,73.8c0.1-0.1,0.1-0.1,0.2-0.2C89.9,73.7,89.9,73.7,89.8,73.8z"/>
	<path class="st80" d="M90.2,73.3c0.1-0.1,0.1-0.1,0.2-0.2C90.3,73.2,90.2,73.2,90.2,73.3z"/>
	<path class="st26" d="M90.5,73c0.1-0.1,0.1-0.1,0.2-0.2C90.6,72.9,90.5,72.9,90.5,73z"/>
	<path class="st79" d="M91.1,71.8c0.1-0.1,0.1-0.1,0.2-0.2C91.2,71.7,91.2,71.8,91.1,71.8z"/>
	<path class="st79" d="M91.3,71.7c0.1-0.1,0.1-0.1,0.2-0.2C91.4,71.6,91.4,71.6,91.3,71.7z"/>
	<path class="st79" d="M91.5,71.3c0.1-0.1,0.1-0.1,0.2-0.2C91.6,71.2,91.5,71.3,91.5,71.3z"/>
	<path class="st22" d="M91.6,71.2c0.1-0.1,0.1-0.1,0.2-0.2C91.7,71.1,91.7,71.1,91.6,71.2z"/>
	<path class="st22" d="M91.8,71c0.1-0.1,0.1-0.1,0.2-0.2C91.9,70.9,91.8,71,91.8,71z"/>
	<path class="st81" d="M88.4,36.1c0,12.6,0,25.3,0,37.9c0,0.2,0,0.4,0,0.7c0,0.3,0.2,0.5,0.5,0.6c0,0.1-0.1,0.1-0.1,0.2
		c-0.3,0.3-0.6,0.7-0.8,1.1c-0.1,0.1-0.3,0.2-0.3,0.3c-0.1,0.1-0.1,0.1-0.2,0.2l0,0c-0.1,0.1-0.1,0.1-0.2,0.2l0,0
		c-0.1,0.1-0.1,0.1-0.2,0.2v0c-0.5,0-0.6-0.5-0.6-0.9c0-2.8-0.1-5.5,0-8.3c0-0.5,0-0.9-0.1-1.4c-0.1-0.9,0.2-1.8,0.3-2.6
		c0.1-1.4,0.2-2.7,0-4.1c0-0.4-0.1-0.8,0.3-1.1c0-0.2,0-0.4,0.1-0.6c0.1-0.5,0.1-0.9,0.1-1.4c0-6.5,0-13.1,0-19.6c0-0.3,0-0.6,0-0.9
		c0-0.2,0.2-0.3,0.3-0.3C87.7,36.1,88,36.1,88.4,36.1z"/>
	<path class="st81" d="M88.9,75.1C88.9,75,89,75,89,74.9C89,75,88.9,75,88.9,75.1z"/>
	<path class="st82" d="M78.9,85.5c-0.2,0.1-0.3,0.1-0.5,0.2c-0.1,0-0.1,0.1-0.2,0.2l0,0c-0.7,0-0.7-0.6-0.7-1c0-1.7,0-3.5,0-5.2
		c0.2-0.7,0.8-1.1,1.3-1.6c0.9-0.7,1.6-1.7,2.4-2.5c0.2-0.2,0.4-0.6,0.8-0.5c0.1,0.1,0.1,0.1,0.2,0.2c0.2,0.4,0.2,0.8,0.2,1.2
		c0,1.9,0,3.9,0,5.8c-0.4,0.3-0.7,0.7-1.1,1c-0.1,0.1-0.2,0.2-0.2,0.3c-0.4,0.3-0.8,0.6-1.2,0.9c-0.1,0.2-0.3,0.3-0.5,0.4
		c-0.1,0.1-0.2,0.2-0.3,0.3c0,0,0,0,0,0c-0.1,0-0.1,0.1-0.2,0.2l0,0C79,85.4,79,85.5,78.9,85.5z"/>
	<path class="st22" d="M86.6,66.7c0.1,0.4,0.2,0.9,0.2,1.4c0,2.6,0,5.3,0,7.9c0,0.2,0,0.4,0,0.7c0,0.3,0.1,0.5,0.3,0.7
		c-0.1,0.2-0.2,0.3-0.3,0.5c-0.3,0.3-0.6,0.7-1,1c-0.1,0.1-0.2,0.3-0.3,0.4c-0.1,0.1-0.2,0.2-0.3,0.3c-0.1,0.1-0.1,0.2-0.2,0.2
		c-0.1,0.1-0.1,0.1-0.2,0.2l0,0c-0.7,0.2-0.8-0.3-0.8-0.8c-0.1-0.8,0-1.6,0-2.4c0-1.4,0-2.8,0-4.2c-0.1-0.4,0.1-0.7,0.2-1.1
		c0.7-1.4,1.4-2.7,1.8-4.2C86.1,67,86.2,66.8,86.6,66.7z"/>
	<path class="st22" d="M87.4,77c0.1-0.1,0.1-0.1,0.2-0.2C87.5,76.9,87.4,77,87.4,77z"/>
	<path class="st22" d="M87.2,77.2c0.1-0.1,0.1-0.1,0.2-0.2C87.3,77.1,87.3,77.1,87.2,77.2z"/>
	<path class="st22" d="M87.1,77.4c0.1-0.1,0.1-0.1,0.2-0.2C87.2,77.3,87.1,77.3,87.1,77.4z"/>
	<path class="st52" d="M84.1,72.3c0.1,0.2,0.2,0.5,0.2,0.7c0,0.4,0,0.8,0,1.1c0,1.5,0,3.1,0,4.6c0,0.2,0,0.4,0,0.6
		c0,0.3,0.2,0.5,0.5,0.5c-0.1,0.1-0.2,0.3-0.3,0.4c-0.1,0.1-0.2,0.3-0.4,0.4c0,0,0,0,0,0C84.1,80.8,84,80.9,84,81l0,0
		c-0.1,0.1-0.1,0.1-0.2,0.2c-0.4,0.3-0.7,0.6-1,1c-0.1,0-0.1,0-0.2,0c-0.1,0.1-0.1,0.1-0.2,0.2c0,0,0,0,0,0
		c-0.2-0.1-0.3-0.3-0.3-0.5c0-0.2,0-0.4,0-0.6c0-1.5,0-3,0-4.5c0-0.3,0-0.6,0-1c0-0.2,0-0.4,0-0.6C82.5,73.9,83,72.9,84.1,72.3z"/>
	<path class="st52" d="M84.8,80c0.1-0.1,0.1-0.1,0.2-0.2C84.9,79.9,84.8,79.9,84.8,80z"/>
	<path class="st82" d="M82.5,82.3c0.1-0.1,0.1-0.1,0.2-0.2C82.6,82.1,82.5,82.2,82.5,82.3z"/>
	<path class="st83" d="M77.9,79.4c0,0.1-0.1,0.2,0,0.3c0.1,0.4,0.1,0.9,0.1,1.3c0,1.2,0,2.4,0,3.6c0,0.2,0,0.4,0,0.6
		c0,0.2,0.1,0.4,0.3,0.5c-0.1,0.1-0.2,0.2-0.3,0.3c-0.3,0.2-0.5,0.4-0.7,0.6c-0.2,0-0.3,0.1-0.4,0.2c-0.2,0.2-0.5,0.3-0.7,0.5
		c-0.1,0.1-0.2,0.1-0.3,0.1c-0.1,0-0.1,0.1-0.2,0.2l0,0C75.2,88,75,87.6,75,87.3c0-1.9-0.2-3.8,0.1-5.7c0.5-1,1.5-1.6,2.4-2.2
		C77.6,79.3,77.8,79.4,77.9,79.4z"/>
	<path class="st28" d="M79.1,85.4c0.1-0.1,0.1-0.1,0.2-0.2C79.2,85.2,79.1,85.3,79.1,85.4z"/>
	<path class="st28" d="M78.9,85.5c0.1-0.1,0.1-0.1,0.2-0.2C79,85.4,78.9,85.5,78.9,85.5z"/>
	<path class="st83" d="M78.3,85.8c0.1-0.1,0.1-0.1,0.2-0.2C78.4,85.7,78.3,85.8,78.3,85.8z"/>
	<path class="st84" d="M75.5,81.4c-0.1,0.3-0.2,0.5-0.2,0.8c0,1.7,0,3.4,0,5c0,0.1,0,0.2,0,0.2c0,0.2,0.1,0.3,0.3,0.3
		c-0.1,0.1-0.2,0.2-0.3,0.3c-0.1,0.1-0.2,0.1-0.2,0.2c0,0,0,0,0,0c-0.1,0.1-0.1,0.1-0.2,0.2c-0.1,0.1-0.3,0.1-0.4,0.2
		c-0.5,0.4-1,0.7-1.6,1c-0.1,0.1-0.2,0.2-0.3,0.2c-0.1,0-0.2-0.1-0.2-0.2c-0.1-0.2-0.2-0.4-0.2-0.6c0-1.8-0.1-3.6,0.1-5.4
		c0.1-0.6,0.6-0.9,1.1-1.2c0.5-0.2,0.8-0.6,1.2-0.8C74.8,81.5,75.1,81.2,75.5,81.4z"/>
	<path class="st84" d="M75.6,87.8c0.1-0.1,0.1-0.1,0.2-0.2C75.8,87.7,75.7,87.7,75.6,87.8z"/>
	<path class="st33" d="M75,88.4c0.1-0.1,0.1-0.1,0.2-0.2C75.1,88.3,75,88.4,75,88.4z"/>
	<path class="st85" d="M72.9,89.7c0.1,0,0.1-0.1,0.2-0.1c0,0.1,0,0.1,0,0.2c0,0,0,0,0,0C73,89.8,72.9,89.8,72.9,89.7z"/>
	<path class="st30" d="M84,81c0.1-0.1,0.1-0.1,0.2-0.2C84.1,80.8,84,80.9,84,81z"/>
	<path class="st30" d="M83.8,81.1c0.1-0.1,0.1-0.1,0.2-0.2C83.9,81,83.8,81.1,83.8,81.1z"/>
	<path class="st86" d="M70.1,91.4c-0.1,0.2-0.3,0.3-0.5,0.4c-0.2,0.1-0.4,0.2-0.5,0.4c-0.2,0.1-0.3,0.1-0.5,0.2
		c-0.1,0.1-0.3,0.1-0.4,0.2c-0.1,0-0.1,0.1-0.2,0.2c0,0-0.1,0-0.1,0c-0.4,0-0.5-0.3-0.5-0.6c0-1.9-0.1-3.8,0.1-5.7
		c0.1-0.8,0.8-0.9,1.3-1.3c0.1,0,0.2-0.1,0.2-0.1c0.1,0,0.2-0.1,0.2-0.1c0.4-0.2,0.8-0.5,1.1,0.1c0.1,1.9,0,3.7,0,5.6
		C70.3,90.9,70.2,91.2,70.1,91.4z"/>
	<path class="st87" d="M67.6,86.1c0,1.8,0,3.7,0,5.5c0,0.2,0,0.5,0,0.7c0,0.1,0.1,0.3,0.2,0.4c-0.1,0.2-0.2,0.2-0.4,0.3
		c-0.2,0.1-0.3,0.2-0.4,0.3c-0.2,0.1-0.4,0.1-0.6,0.2c-0.1,0.1-0.1,0.1-0.2,0.2c-0.1,0-0.1,0-0.2,0c-0.1-0.1-0.2-0.2-0.2-0.4
		c0-0.2,0-0.4,0-0.6c0-1.4,0-2.9,0-4.3c0-0.3,0-0.6-0.1-1c-0.1-0.2,0-0.3,0.1-0.5C66.1,86.3,66.8,86,67.6,86.1z"/>
	<path class="st87" d="M68,92.7c0.1-0.1,0.1-0.1,0.2-0.2C68.1,92.6,68,92.6,68,92.7z"/>
	<path class="st85" d="M70.1,91.4c-0.1-0.2-0.2-0.4-0.2-0.7c0-0.3,0-0.6,0-0.9c0-1.3,0-2.7,0-4c0-0.3,0-0.6,0.2-0.9
		c-0.1-0.2,0-0.3,0.2-0.4c0.7-0.4,1.3-1.2,2.3-1c0,1.7,0,3.4,0,5c0,0.5,0,0.9,0.2,1.4c0.1,0,0.1,0.1,0.1,0.1c0,0,0,0-0.1,0
		c-0.4,0.2-0.7,0.4-1,0.6c-0.3,0.2-0.6,0.3-0.9,0.5c-0.1,0.1-0.2,0.1-0.4,0.2c-0.1,0.1-0.1,0.1-0.2,0.1
		C70.2,91.4,70.2,91.4,70.1,91.4z"/>
	<path class="st35" d="M72.7,89.9c0,0,0-0.1,0-0.1c0.1,0,0.1,0,0.2,0c0.1,0,0.1,0,0.2,0C73,89.9,72.8,89.9,72.7,89.9z"/>
	<path class="st71" d="M66.2,93.7c0.1-0.1,0.1-0.1,0.2-0.2C66.3,93.6,66.2,93.6,66.2,93.7z"/>
	<path class="st86" d="M70.3,91.4c0.1,0,0.1-0.1,0.2-0.1c0,0.1,0,0.1,0,0.2C70.4,91.4,70.3,91.4,70.3,91.4z"/>
	<path class="st18" d="M63.9,94.8c0.1-0.1,0.1-0.1,0.2-0.2C64,94.7,64,94.7,63.9,94.8z"/>
	<path class="st88" d="M37.8,91.4c-0.4,0-0.8-0.2-1.2-0.2c-0.2,0-0.4-0.1-0.5-0.1c0,0,0,0,0,0c-0.1-0.2-0.4,0-0.5-0.2
		c-0.2-0.2-0.5-0.2-0.7-0.3c-0.2-0.1-0.4-0.2-0.6-0.3c0.1,0,0.3-0.1,0.3-0.2c0.1-0.3,0.2-0.5,0.2-0.8c0-0.2,0-0.4,0-0.6
		c0-7.2,0-14.4,0-21.7c0-0.2,0-0.4,0-0.7c0-0.3-0.1-0.5-0.3-0.7c0-0.3,0-0.5,0.1-0.8c0.1-0.2,0.2-0.5,0.3-0.8
		c0.4-1.3,0.9-2.6,1.5-3.8c0.4-1,0.8-2,1.4-2.9c0.5,0,0.6,0.4,0.6,0.8c0,0.3,0,0.7,0,1c0,10.3,0,20.5,0,30.8c0,0.3,0,0.6,0,0.9
		C38.2,91.1,38.2,91.4,37.8,91.4z"/>
	<path class="st89" d="M41.2,91.9c-0.4,0-0.8,0-1.2,0c-0.2,0-0.3,0-0.4-0.2c0.4-0.5,0.5-1.2,0.5-1.8c0-11.2,0-22.4,0-33.6
		c0-1.2-0.1-2.4,0.2-3.6c0-0.3,0.2-0.4,0.3-0.6c0.3-0.4,0.5-0.8,0.8-1.1c0.4-0.6,0.8-1.1,1.2-1.6c0.4,0.1,0.5,0.5,0.5,0.9
		c0,0.4,0,0.8,0,1.1c0,12.9,0,25.9,0,38.8c0,0.1,0,0.3,0,0.4C43,92,42.9,92.1,41.2,91.9z"/>
	<path class="st90" d="M40.3,52.6c0.1,0.1,0.1,0.2,0.2,0.4c0,0.2,0,0.4,0,0.6c0,12.4,0,24.8,0,37.2c0,0.2,0,0.5,0,0.7
		c0,0.1-0.1,0.2-0.2,0.2c-0.2,0-0.4,0-0.6,0c-0.3,0-0.5,0-0.8,0c-0.2-0.1-0.4-0.2-0.6-0.2c-0.1,0-0.3-0.1-0.4-0.1
		c0.1-0.1,0.2-0.2,0.2-0.4c0-0.2,0-0.4,0-0.6c0-10.6,0-21.3,0-31.9c0-0.2,0-0.3,0-0.5c0-0.3-0.1-0.5-0.3-0.7
		c0.2-0.5,0.5-0.9,0.7-1.4c0.4-0.8,0.9-1.6,1.3-2.4c0.1-0.2,0.2-0.3,0.3-0.5c0.1,0,0.1-0.1,0.2-0.2c0-0.1,0-0.1,0-0.2
		C40.1,52.7,40.2,52.7,40.3,52.6L40.3,52.6z"/>
	<path class="st91" d="M41.2,91.9c0.4,0,0.8,0,1.1,0c0.2,0,0.3-0.2,0.3-0.3c0-0.1,0-0.2,0-0.3c0-0.2,0-0.4,0-0.7c0-13.3,0-26.7,0-40
		c0-0.2,0-0.5,0-0.7c0-0.2-0.1-0.4-0.2-0.6c0.1-0.4,0.5-0.7,0.7-1.1c0.3-0.4,0.5-0.7,0.8-1.1c0.1-0.2,0.3-0.3,0.5-0.4
		c0.1,0.1,0.2,0.2,0.2,0.4c0,0.2,0,0.4,0,0.6c0,14.5,0,28.9,0,43.4c0,0.1,0,0.3,0,0.4c0,0.3-0.1,0.5-0.3,0.7c-0.9,0-1.9,0-2.8,0
		C41.4,92,41.3,92,41.2,91.9z"/>
	<path class="st46" d="M34.1,66.6c0,0.1-0.1,0.2-0.2,0.3C33.9,66.8,33.9,66.7,34.1,66.6z"/>
	<path class="st89" d="M40.1,52.9C40,53,40,53,39.9,53.1C40,53,40,53,40.1,52.9z"/>
	<path class="st89" d="M40.3,52.6c-0.1,0.1-0.1,0.1-0.2,0.2C40.1,52.7,40.2,52.6,40.3,52.6z"/>
	<path class="st88" d="M34.4,65.6c-0.1,0.1-0.1,0.1-0.2,0.2C34.3,65.7,34.3,65.7,34.4,65.6z"/>
	<path class="st63" d="M49,76.1c-0.2-0.1-0.3-0.3-0.4-0.4c-0.2-0.4-0.4-0.8-0.6-1.2c-0.1-0.2-0.2-0.3-0.3-0.5c0-0.2,0-0.4-0.1-0.5
		c-0.4-0.8-0.6-1.7-0.9-2.6c-0.3-0.9-0.4-1.7-0.6-2.6c0-0.1,0-0.3,0-0.4c0-0.3-0.1-0.6-0.1-1c-0.1-0.6-0.1-1.3,0-1.9
		c0-0.2,0.1-0.4,0.1-0.6c0-1.1,0.3-2.1,0.5-3.1c0.3-1,0.6-2,1.1-3c0-0.1,0-0.2,0.1-0.2c0.2-0.1,0.2-0.3,0.3-0.5
		c0.2-0.4,0.4-0.7,0.6-1.1c0.1-0.1,0.2-0.3,0.3-0.4c0.4,0.3,0.3,0.7,0.3,1c0,5.2,0.1,10.3-0.1,15.5c0,0.4,0.2,0.6,0.3,0.9
		C49.7,74.4,49.8,75.3,49,76.1z"/>
	<path class="st92" d="M46.6,95.1c-0.5,0-1.1,0-1.6,0c-0.2,0-0.3,0-0.5,0c-0.2,0-0.3-0.1-0.4-0.3c0-0.1-0.1-0.2-0.1-0.3
		c0-0.7,0-1.4,0-2c0-0.1,0.1-0.3,0.3-0.3c0.2,0,0.4,0,0.6-0.1c0.1,0,0.2-0.1,0.3-0.1c0.5,0,1,0,1.5,0c0,0.1,0,0.2,0,0.2
		c-0.2,0.5-0.1,1-0.1,1.4c0,0.4,0,0.8,0.1,1.1C46.6,94.9,46.6,95,46.6,95.1z"/>
	<path class="st93" d="M50.7,53.4c0-0.1,0-0.1,0-0.2c0.2-0.1,0.3-0.2,0.4-0.4c0.3-0.5,0.8-0.9,1.2-1.4c0.2-0.3,0.4-0.5,0.7-0.6
		c0.5,0.3,0.5,0.9,0.5,1.4c0,3.5,0,7.1,0,10.6c0,0.2,0,0.3,0,0.5c0.2,0.3,0.1,0.6,0,0.9c-0.7,1.2-1.3,2.5-2.1,3.7
		c-0.1,0.1-0.3,0.3-0.5,0.3c-0.1,0-0.2-0.1-0.3-0.1c-0.3-0.3-0.3-0.7-0.3-1.1c0-4,0-8.1,0-12.1C50.3,54.3,50.5,53.9,50.7,53.4z"/>
	<path class="st65" d="M53.5,63.5c-0.2-0.1-0.3-0.2-0.4-0.4c0-0.2,0-0.5,0-0.7c0-3.3,0-6.6,0-9.8c0-0.5,0-1.1-0.2-1.6
		c0,0,0-0.1,0-0.2c0.4-0.5,1-1.1,1.5-1.5c0.4-0.3,0.7-0.6,1-1c0-0.1,0.1-0.1,0.2-0.2c0,0,0,0,0,0c0.1,0,0.2,0,0.3,0
		c0.3,0.4,0.2,0.8,0.2,1.2c0,3.6,0,7.1,0,10.7c0.1,0.3,0.1,0.5-0.1,0.8c-0.6,0.8-1.3,1.7-1.9,2.5C53.9,63.4,53.7,63.6,53.5,63.5z"/>
	<path class="st61" d="M55.6,48.2c-0.1,0.1-0.1,0.1-0.2,0.2C55.5,48.3,55.5,48.3,55.6,48.2z"/>
	<path class="st94" d="M50.7,53.4c0,4.5,0,9,0,13.5c0,0.2,0,0.4,0,0.6c0,0.2,0.1,0.4,0.3,0.5c0.2,0.2,0.1,0.5,0.1,0.7
		c-0.3,0.8-0.5,1.7-0.9,2.5c-0.1,0.2-0.2,0.3-0.2,0.5c0,0.1,0,0.1-0.1,0.2c0,0.2-0.1,0.3-0.1,0.5c0,0.1,0,0.1,0,0.2
		c-0.1,0.2-0.1,0.4-0.2,0.6c0,0.1-0.1,0.1-0.2,0.1c-0.1,0-0.1,0.1-0.2,0.1c0,0-0.1,0-0.1,0c-0.1-0.3-0.2-0.6-0.2-0.9
		c0-0.1,0-0.3,0-0.4c0-5.4,0-10.8,0-16.2c0.2-0.3,0.3-0.6,0.5-0.8C49.8,54.6,50.2,53.9,50.7,53.4z"/>
	<path class="st95" d="M80.2,50c0.6,0.2,1.2,0.4,1.8,0.6c0.7,0.4,1.3,0.7,2,1.1c0,0.1,0.1,0.1,0.1,0.2c0.5,1.4,0,2.7-0.3,4
		c-0.4,1.8-1,3.6-1.9,5.2c0,0.1-0.1,0.1-0.1,0.2c0,0.1-0.1,0.2-0.2,0.3c0,0.1-0.1,0.1-0.1,0.2c-0.1,0.1-0.1,0.3-0.2,0.4
		c-0.8,1.4-1.6,2.8-2.6,4c-0.4,0.5-0.6,1.2-1.5,1c-0.4-0.3-0.4-0.7-0.4-1.2c0.1-1.7-0.2-3.4,0.2-5c0.1-0.2-0.1-0.4-0.1-0.6
		c-0.1-0.4,0-0.8,0.2-1.2c0.7-1.8,1.2-3.8,1.5-5.7c0.2-1.4,0-1.8-1.3-2.4c-0.9-0.4-1.8-0.8-2.8-0.8c-0.3,0-0.6,0-0.8-0.3
		c0-0.2,0.2-0.3,0.4-0.4c1.2-0.4,2.4-0.1,3.6-0.2c0.1,0,0.3,0,0.4,0C78.8,49.4,79.6,49.4,80.2,50z"/>
	<path class="st96" d="M80.2,50c-0.5-0.1-0.9-0.1-1.4-0.2c-0.2,0-0.5-0.1-0.7-0.1c-0.3-0.3-0.3-0.7-0.3-1c0-3.4,0-6.8,0-10.1
		c0-0.4,0-0.8,0.3-1c0.2-0.2,0.5-0.2,0.8-0.2c0.4-0.1,0.9-0.2,1.3-0.3C80.2,41.3,80.2,45.6,80.2,50z"/>
	<path class="st97" d="M78.1,37.4c0,4.1,0,8.1,0,12.2c-0.1,0-0.2,0-0.3,0c-0.1,0-0.2-0.1-0.2-0.1c-1.5,0.1-1.6,0.1-1.6-1.7
		c0-2.9,0-5.9,0-8.8c0-0.4,0-0.9,0.3-1.2l0,0c0.1-0.1,0.3-0.1,0.4-0.2c0.1,0,0.2-0.1,0.2-0.1c0,0,0,0,0,0c0.2,0,0.4-0.1,0.6-0.1
		C77.7,37.5,77.9,37.5,78.1,37.4z"/>
	<path class="st6" d="M81.5,61.2c0-0.3,0.2-0.5,0.3-0.7c0.7-1.5,1.2-3,1.6-4.6c0.2-0.9,0.4-1.9,0.5-2.9c0-0.2,0-0.4,0-0.6
		c0-0.2,0.1-0.4,0.1-0.6c0.1,0.2,0.2,0.3,0.3,0.5c0.4,0.7,0.7,1.4,1,2.1c0.1,0.1,0.1,0.2,0.2,0.3c0.1,0.3,0.1,0.5,0.2,0.8
		c0.4,1,0.7,2.1,0.9,3.1c0,0.1,0.1,0.3,0.1,0.4c0,0.3,0,0.6,0.1,1c0.1,0.4,0.1,0.8,0.1,1.2c0,0.4,0,0.9,0,1.3c0,1.2-0.2,2.5-0.4,3.7
		c0,0.2-0.1,0.4-0.1,0.6c0,0.1-0.1,0.1-0.1,0.2c-0.4,1.5-1,2.9-1.8,4.3c-0.2,0.4-0.4,0.7-0.6,1.1c0,0,0,0-0.1,0.1
		c-0.6,0.9-1.3,1.8-1.9,2.7c-0.1,0-0.1,0-0.2,0c-0.4-0.3-0.3-0.7-0.3-1.1c0-4,0-7.9,0-11.9C81.7,61.8,81.7,61.5,81.5,61.2z"/>
	<path class="st69" d="M35.5,90.9c0.2,0,0.4,0,0.5,0.2C35.8,91.1,35.6,91.1,35.5,90.9z"/>
	<path class="st98" d="M56,60.2c-0.2-0.1-0.3-0.3-0.3-0.5c0-0.2,0-0.5,0-0.7c0-3.1,0-6.2,0-9.2c0-0.3,0-0.6,0-0.8
		c-0.1-0.3,0.1-0.5,0.2-0.8c0.1-0.1,0.2-0.2,0.3-0.3c0.7-0.6,1.4-1.2,2.2-1.7c0.1-0.1,0.2-0.1,0.3-0.1c0.2,0.6,0,1.2,0,1.8
		c0,3.2,0,6.4,0,9.5c0.1,0.5-0.1,0.8-0.4,1.1c-0.5,0.5-1,1.1-1.6,1.6c-0.1,0.1-0.1,0.1-0.2,0.1c0,0-0.1,0-0.1,0.1
		c-0.1,0-0.1,0-0.2,0.1C56.1,60.3,56.1,60.3,56,60.2z"/>
	<path class="st99" d="M58.5,57.7c-0.1-0.3-0.2-0.6-0.2-0.9c0-0.4,0-0.9,0-1.3c0-2.7,0-5.3,0-8c0-0.1,0-0.3,0-0.4
		c0-0.4,0.1-0.8,0.3-1.1c0.1-0.1,0.2-0.2,0.4-0.3c0.5-0.3,0.9-0.6,1.4-0.9c0.1-0.1,0.3-0.2,0.4-0.3c0.1,0,0.2,0,0.3,0
		c0.3,0.3,0.2,0.7,0.2,1.1c0,2.8,0,5.5,0,8.3c0,0.4,0,0.9,0.1,1.3c0.2,0.4,0,0.7-0.3,0.9c-0.7,0.5-1.3,1.1-2,1.6
		c-0.1,0.1-0.2,0.1-0.3,0.1C58.7,57.8,58.6,57.7,58.5,57.7z"/>
	<path class="st18" d="M61.4,55.4c-0.1,0-0.1,0-0.2,0c-0.1,0-0.2-0.1-0.3-0.3c0-0.2,0-0.3,0-0.5c0-3.1,0-6.1,0-9.2
		c0-0.3,0-0.7,0.2-1c0.8-0.6,1.7-1.1,2.6-1.5c0.3,0.3,0.2,0.7,0.2,1.1c0,3.2-0.1,6.3,0.1,9.5C63.7,54.4,62.3,55.4,61.4,55.4z"/>
	<path class="st71" d="M63.8,53.8c-0.2-0.5-0.2-1-0.2-1.4c0-2.8,0-5.6,0-8.4c0-0.4,0-0.7,0.2-1c0.3-0.3,0.6-0.4,0.9-0.6
		c0.2-0.1,0.5-0.2,0.7-0.4c0.3-0.1,0.5-0.3,0.8-0.3c0.3,0.3,0.2,0.7,0.2,1.1c0,2.6,0,5.3,0,7.9c0,0.5,0,0.9,0.2,1.3
		c0,0.1,0.1,0.3,0,0.4C65.7,53.1,64.9,53.8,63.8,53.8z"/>
	<path class="st0" d="M63.8,53.8c0.1,0,0.2-0.1,0.3-0.1c0.7-0.4,1.5-0.8,2.2-1.2c0.1-0.1,0.2-0.1,0.3-0.2c0.3-0.6,0.9-0.7,1.4-0.9
		c0.4-0.2,0.8-0.2,1.1-0.4c0.8-0.3,1.7-0.5,2.5-0.8c0.7-0.1,1.4-0.6,2.1-0.1c0.2,0,0.4,0,0.6,0c0.5,0,1,0,1.4,0.2
		c1,0.3,1.9,0.6,2.7,1.2c0.5,0.3,0.5,0.4,0.5,0.9c0,0.6,0,1.1-0.1,1.7c-0.1,0.4-0.1,0.7-0.2,1.1c-0.1,0.7-0.3,1.5-0.5,2.2
		c-0.2,0.8-0.5,1.6-0.9,2.4c-0.1,0.1-0.1,0.3-0.1,0.5c-0.1,0.7-0.4,1.4-0.8,2c-1.3,2.6-3.1,4.9-5.1,6.9c-1.6,1.7-3.4,3.1-5.2,4.4
		c-0.2,0.1-0.4,0.2-0.6,0.3c-0.1,0.1-0.1,0.1-0.2,0.1c-0.1,0-0.1,0.1-0.2,0.1c-0.1,0-0.1,0.1-0.2,0.1c-2.6,1.6-5.4,2.9-8.4,3.7
		c-0.7,0.2-1.4,0.2-2.1,0.2c-0.6,0-1.1-0.1-1.7-0.2c-0.6-0.1-1.1-0.3-1.7-0.6c-0.2-0.1-0.4-0.1-0.5-0.2c-0.2-0.1-0.4-0.2-0.5-0.3
		c-0.2-0.2-0.5-0.3-0.7-0.5c-0.1-0.1-0.2-0.2-0.2-0.3c0,0,0,0,0-0.1c0.1-0.8,0.2-1.7,0.3-2.5c0,0,0-0.1,0-0.1c0.2-0.2,0-0.5,0.1-0.7
		c0,0,0-0.1,0-0.1c0.1-0.2,0-0.4,0.1-0.5c0,0,0-0.1,0-0.1c0.1-0.1,0-0.4,0.1-0.5c0-0.1,0.1-0.2,0.1-0.3c0.3-0.9,0.6-1.8,1-2.7
		c0-0.1,0-0.2,0-0.2c0,0,0,0,0,0c0.1-0.1,0.1-0.2,0.1-0.3c0.1-0.1,0.1-0.2,0.2-0.3c0.6-1.2,1.2-2.4,2-3.5c0.1-0.1,0.1-0.2,0.2-0.4
		c0.1-0.1,0.2-0.1,0.2-0.2c0.7-1,1.4-1.9,2.2-2.8c0.1-0.1,0.1-0.1,0.1-0.2c0,0,0,0,0,0c0.1,0,0.1-0.1,0.1-0.1l0,0
		c0.1,0,0.1,0,0.1-0.1c0.7-0.7,1.5-1.5,2.2-2.2c0.1,0,0.1-0.1,0.2-0.1c0.1,0,0.1,0,0.1-0.1c0,0,0.1,0,0.1,0c0.8-0.7,1.7-1.3,2.5-2
		c0,0,0,0,0-0.1c0.1-0.1,0.2-0.1,0.3-0.2c0.6-0.4,1.1-0.7,1.7-1.1C63.5,54,63.6,53.9,63.8,53.8z"/>
	<path class="st100" d="M54.4,78.2c0.1,0,0.2-0.1,0.3-0.1c0.4-0.1,0.9-0.2,1.3-0.3c1.2-0.3,2.4-0.7,3.6-1.2c1.3-0.5,2.5-1.2,3.8-1.8
		c0.4-0.2,0.8-0.5,1.2-0.7c0.1-0.1,0.2-0.1,0.4-0.1c0.3,0.1,0.4,0.4,0.4,0.6c-0.1,0.5,0,1.1-0.1,1.6c0,0.1-0.1,0.1-0.2,0.2
		c-0.2,0.1-0.4,0.1-0.6,0.2c-1.1,0.5-2.3,0.8-3.5,1.1c-0.1,0-0.2,0.1-0.3,0.1c-0.5,0-0.9,0.1-1.3,0.2c-1.2,0.2-2.3,0.3-3.5,0.3
		c-0.3,0-0.5,0-0.8,0C54.9,78.3,54.7,78.2,54.4,78.2z"/>
	<path class="st12" d="M53.3,91.1c-0.2,0.2-0.4,0.2-0.7,0.2C52.8,91,53.1,91.1,53.3,91.1z"/>
	<path class="st77" d="M65.2,76.4c0,0,0-0.1,0-0.1c0.7-0.8,1.8-1,2.7-1.5c0.1-0.1,0.3-0.1,0.4-0.2c0.1,0,0.2-0.1,0.2-0.1
		c0.1,0,0.2,0,0.3,0c0.1,0,0.2,0.1,0.3,0.1c0.3,0.3,0.3,0.6,0.3,1c0,2.8,0,5.7,0,8.5c0,0.4-0.1,0.7-0.3,1.1l0,0
		c-0.1,0-0.1,0.1-0.2,0.2c-0.3,0.2-0.6,0.3-0.8,0.5c-0.2,0.1-0.3,0.2-0.5,0.3c-0.5,0.2-1,0.4-1.5,0.7c-0.1,0-0.2,0.1-0.3,0.2
		c-0.1,0-0.2,0-0.3,0c0-3.1,0-6.2,0-9.3c0-0.2,0-0.5,0-0.7C65.5,76.7,65.4,76.5,65.2,76.4z"/>
	<path class="st101" d="M73.7,50c-0.5,0-0.9,0.2-1.4,0.3c-0.2,0-0.4,0.1-0.6,0.1c-0.6,0.1-0.6-0.3-0.7-0.6c-0.1-0.5,0-1,0-1.5
		c0-2.5,0-4.9,0-7.4c0-0.4,0-0.9,0.3-1.2c0.2-0.2,0.5-0.2,0.8-0.3c0.4-0.1,0.8-0.3,1.2-0.5c0.1,0,0.2-0.1,0.4-0.1
		c0.1,0,0.3-0.1,0.4-0.1c0.3,0.3,0.3,0.7,0.3,1.1c0,3,0,6,0,9.1c0,0.4,0,0.8-0.3,1C73.9,49.9,73.8,49.9,73.7,50z"/>
	<path class="st102" d="M71.2,39.5c0,3.2,0,6.4,0,9.6c0,0.2,0,0.5,0,0.7c0,0.3,0.1,0.4,0.4,0.5c-0.3,0.1-2.1,0.7-2.5,0.8
		c-0.7,0.1-0.8-0.3-0.8-0.8c-0.1-0.6,0-1.1,0-1.7c0-2.3,0-4.5,0-6.8c0-0.4,0-0.9,0.3-1.2c0.1-0.1,0.1-0.2,0.2-0.2c0,0,0,0,0,0
		c0.6-0.1,1.2-0.5,1.8-0.7C70.8,39.6,71,39.5,71.2,39.5z"/>
	<path class="st103" d="M68.8,40.5c-0.1,0.3-0.2,0.5-0.2,0.8c0,0.5,0,1.1,0,1.6c0,2.3,0,4.7,0,7c0,0.2,0,0.5,0,0.7
		c0,0.2,0.1,0.4,0.3,0.4c0.1,0,0.1,0,0.2,0c0,0-0.1,0.1-0.1,0.1c-0.8,0.3-1.6,0.7-2.3,1c0,0-0.1,0-0.2,0c-0.3,0-0.5-0.2-0.5-0.5
		c0-0.1,0-0.3,0-0.4c0-2.9,0-5.8,0-8.7c0-0.3,0-0.7,0.2-0.9c0.1,0,0.1-0.1,0.2-0.1c0.7-0.3,1.3-0.6,2-0.9c0,0,0.1-0.1,0.1-0.1
		C68.6,40.4,68.7,40.4,68.8,40.5z"/>
	<path class="st76" d="M68.8,40.5c-0.1,0-0.2,0-0.3,0c0.1-0.1,0.2-0.2,0.3-0.2C68.8,40.4,68.8,40.5,68.8,40.5z"/>
	<path class="st104" d="M74,49.8c0-3.3,0-6.7,0-10c0-0.3,0-0.6-0.1-0.9c0-0.1,0-0.2,0.1-0.3c0.7-0.3,1.5-0.6,2.3-0.7
		c0,2.6,0,5.3,0,7.9c0,0.9,0,1.8,0,2.7c0,0.2,0,0.4,0,0.6c0,0.2,0.2,0.3,0.3,0.3c0.2,0,0.5,0,0.7,0c0.1,0,0.3,0,0.4,0.1
		c-0.3,0-0.5,0-0.8,0c-0.7,0-1.4,0-2,0.1C74.6,49.8,74.3,49.8,74,49.8z"/>
	<path class="st53" d="M77,37.6c-0.1,0.1-0.1,0.1-0.2,0.2c-0.1,0.1-0.2,0.1-0.3,0C76.6,37.6,76.8,37.6,77,37.6z"/>
	<path class="st104" d="M76.5,37.8c0.1,0,0.2,0,0.3,0c-0.1,0.2-0.3,0.2-0.5,0.2C76.3,37.9,76.4,37.8,76.5,37.8z"/>
	<path class="st105" d="M77.5,67.1c0.3-0.2,0.5-0.5,0.7-0.8c0.1-0.1,0.2-0.2,0.3-0.3c0.7,0.1,0.7,0.6,0.7,1.1c0,2.5,0,5,0,7.5
		c0,1.2,0.2,2.5-0.2,3.7c-0.2,0.2-0.4,0.4-0.6,0.6c-0.2,0.2-0.4,0.4-0.6,0.6c-0.1,0-0.2,0.1-0.3,0.1c-0.7,0.5-1.3,1.1-2,1.6
		c-0.1,0.1-0.1,0.1-0.2,0.2c-0.4,0.1-0.7,0.4-1,0.6c-0.3,0.2-0.6,0.5-0.9,0.6c-0.3-0.3-0.2-0.7-0.2-1.1c0-3.3,0-6.6,0-9.9
		c-0.2-0.4,0.1-0.7,0.4-1c0.9-0.9,1.8-1.8,2.7-2.6c0-0.1,0.1-0.1,0.2-0.1c0,0,0.1,0,0.1-0.1c0,0,0.1-0.1,0.1-0.1c0,0,0,0,0.1-0.1
		c0,0,0.1-0.1,0.1-0.1c0,0,0,0,0.1-0.1c0,0,0.1-0.1,0.1-0.1c0,0,0,0,0.1-0.1c0,0,0.1-0.1,0.2-0.1C77.4,67.2,77.4,67.1,77.5,67.1z"/>
	<path class="st106" d="M79.1,78.2c-0.1-0.2-0.2-0.5-0.2-0.8c0-0.2,0-0.4,0-0.6c0-3.2,0-6.5,0-9.7c0-0.2,0-0.5,0-0.7
		c0-0.2-0.1-0.4-0.3-0.5c0.1-0.2,0.2-0.3,0.3-0.5c0.8-1,1.5-2.1,2.1-3.3c0.1-0.1,0.2-0.2,0.2-0.3c0.1-0.1,0.1-0.2,0.2-0.3l0,0
		c0.1-0.1,0.1-0.2,0.2-0.3c0,0,0,0,0,0c0.1,0,0.1,0,0.2,0c0.1,0,0.3,0.1,0.3,0.2c0,0.1,0,0.2,0,0.2c0,0.2,0,0.5,0,0.7
		c0,4.2,0,8.5,0,12.7c-0.1,0.2-0.3,0.4-0.4,0.6c-0.6,0.7-1.2,1.4-1.9,2C79.5,77.9,79.3,78.1,79.1,78.2z"/>
	<path class="st76" d="M73.4,71.3c0.2,0.1,0.3,0.3,0.3,0.5c0,0.2,0,0.4,0,0.6c0,3,0,6,0,9.1c0,0.4,0,0.8-0.2,1.1
		c-0.1,0.1-0.2,0.2-0.4,0.3c-0.2,0.2-0.4,0.3-0.6,0.5c-0.1,0-0.2,0-0.2,0.1c-0.6,0.4-1.2,0.7-1.8,1.1c-0.2,0.1-0.3,0.2-0.4,0.3
		c-0.2,0.1-0.3,0.1-0.5,0.2c-0.1,0.1-0.3,0.1-0.4,0.2c-0.1-0.1-0.1-0.3-0.1-0.4c0-0.3,0.1-0.5,0.1-0.8c0-2.8,0-5.6,0-8.4
		c0-0.2,0-0.3,0-0.5c0-0.3-0.1-0.5-0.4-0.6c0-0.4,0.3-0.6,0.5-0.7c0.6-0.4,1.2-0.8,1.8-1.2c0.7-0.4,1.2-1,1.9-1.3c0.1,0,0.1,0,0.2,0
		C73.3,71.3,73.3,71.3,73.4,71.3z"/>
	<path class="st76" d="M69,85.3c0.1-0.1,0.1-0.1,0.2-0.2C69.1,85.2,69,85.3,69,85.3z"/>
	<path class="st94" d="M51.2,67.8c0,0.1,0,0.2-0.1,0.3C51,67.9,51.1,67.8,51.2,67.8z"/>
	<path class="st63" d="M49.5,72.6c0,0.2,0,0.5-0.1,0.7C49.4,73.1,49.3,72.8,49.5,72.6z"/>
	<path class="st63" d="M49.7,72c0,0.2,0,0.4-0.1,0.5C49.5,72.3,49.5,72.1,49.7,72z"/>
	<path class="st63" d="M49.9,71.3c0,0.2,0,0.4-0.1,0.5C49.7,71.7,49.7,71.5,49.9,71.3z"/>
	<path class="st107" d="M73.2,71.5c-0.5,0.4-1,0.7-1.4,1.1c-0.2,0.1-0.3,0.2-0.5,0.3c-0.2-0.1-0.3-0.4-0.3-0.6
		c0-1.1-0.2-2.1,0.2-3.2c0.1-0.1,0.2-0.3,0.3-0.4c0.3-0.3,0.6-0.6,0.8-0.9c0,0,0.1-0.1,0.1-0.1c0.6-0.6,1.1-1.3,1.6-1.9
		c0.7-0.8,1.2-1.7,1.8-2.6c0.3-0.4,0.5-0.9,0.7-1.4c0.2-0.3,0.3-0.7,0.5-1c0.1-0.1,0.2-0.3,0.3-0.4c0,0.1,0,0.2,0.1,0.3
		c0.1,0.3,0.1,0.5,0,0.8c-0.1,0.2-0.1,0.4-0.1,0.6c0,1.4,0,2.8,0,4.2c0,0.1,0,0.2,0,0.2c0,0.3,0.1,0.5,0.4,0.7
		c0,0.1-0.1,0.1-0.1,0.2c0,0.1-0.1,0.1-0.1,0.1l0,0c0,0.1-0.1,0.1-0.1,0.2l0,0c0,0.1-0.1,0.1-0.2,0.2l0,0c-0.1,0.1-0.1,0.1-0.2,0.2
		l0,0c-0.1,0.1-0.1,0.1-0.2,0.2c-0.1,0.1-0.2,0.3-0.4,0.4c-0.9,0.9-1.8,1.8-2.8,2.6c-0.1,0-0.1,0.1-0.2,0.2c0,0,0,0,0,0
		C73.3,71.4,73.2,71.4,73.2,71.5z"/>
	<path class="st6" d="M81.3,61.6c0,0.1-0.1,0.3-0.2,0.3C81.2,61.7,81.2,61.6,81.3,61.6z"/>
	<path class="st6" d="M81.5,61.2c0,0.1-0.1,0.2-0.2,0.3C81.4,61.4,81.4,61.3,81.5,61.2z"/>
	<path class="st65" d="M56.2,60.1c0,0-0.1,0.1-0.1,0.1C56.1,60.2,56.2,60.1,56.2,60.1z"/>
	<path class="st65" d="M56.3,59.9C56.3,60,56.3,60,56.3,59.9C56.3,60,56.3,60,56.3,59.9z"/>
	<path class="st98" d="M58.8,57.5c0,0-0.1,0.1-0.1,0.1C58.7,57.5,58.8,57.5,58.8,57.5z"/>
	<path class="st23" d="M71.1,69c0.1,0.2,0.2,0.5,0.2,0.8c0,0.7,0,1.4,0,2c0,0.3,0,0.6,0,1c-0.1,0.1-0.2,0.2-0.3,0.3
		c-0.6,0.4-1.2,0.8-1.8,1.1c-0.2,0.1-0.3,0.2-0.5,0.3c0,0-0.1,0-0.1,0.1c-0.1,0-0.1,0.1-0.2,0.1l0,0c-0.1,0.1-0.2,0.1-0.3,0.2
		C68,75,67.8,75,67.7,75.1c-0.7,0.4-1.4,0.7-2.1,1c-0.1,0.1-0.3,0.1-0.4,0.1c0-0.1,0-0.2-0.1-0.3c-0.1-0.4-0.1-0.8,0-1.2
		c0.1-0.3,0.1-0.6-0.1-0.8c0,0,0,0,0,0c0.1,0,0.1-0.1,0.2-0.2l0,0c0.2-0.1,0.5-0.1,0.6-0.3c0.1-0.2,0.3-0.3,0.5-0.4
		c0.8-0.5,1.5-1.1,2.2-1.6c0.1-0.1,0.2-0.2,0.3-0.3c0.1-0.1,0.2-0.2,0.3-0.3c0.6-0.4,1.1-1,1.6-1.5C70.9,69.2,71,69.1,71.1,69z"/>
	<path class="st100" d="M65.9,73.4c0,0.2-0.1,0.3-0.3,0.3c-0.1,0-0.2,0-0.3,0C65.4,73.6,65.6,73.5,65.9,73.4z"/>
	<path class="st100" d="M65.2,73.8c-0.1,0.1-0.1,0.1-0.2,0.2C65.1,73.9,65.1,73.8,65.2,73.8z"/>
	<path class="st76" d="M68.1,74.9c0.1-0.1,0.2-0.2,0.3-0.2C68.4,74.9,68.3,74.9,68.1,74.9z"/>
	<path class="st76" d="M68.5,74.8c0.1,0,0.1-0.1,0.2-0.1C68.6,74.7,68.5,74.7,68.5,74.8z"/>
	<path class="st95" d="M76.6,68.1c0.1-0.1,0.1-0.1,0.2-0.2C76.7,68,76.7,68,76.6,68.1z"/>
	<path class="st95" d="M76.8,67.9c0.1-0.1,0.1-0.1,0.2-0.2C76.9,67.8,76.8,67.9,76.8,67.9z"/>
	<path class="st95" d="M76.9,67.8c0.1-0.1,0.1-0.1,0.2-0.2C77,67.6,77,67.7,76.9,67.8z"/>
	<path class="st95" d="M77.1,67.6c0-0.1,0.1-0.1,0.1-0.2C77.2,67.5,77.2,67.5,77.1,67.6z"/>
	<path class="st95" d="M77.3,67.4c0,0,0.1-0.1,0.1-0.1C77.3,67.3,77.3,67.4,77.3,67.4z"/>
	<path class="st105" d="M73.2,71.5c0.1-0.1,0.1-0.1,0.2-0.2C73.3,71.4,73.2,71.4,73.2,71.5z"/>
</g>
</svg>
