<?xml version="1.0" encoding="utf-8"?>
<!-- Generator: Adobe Illustrator 25.2.0, SVG Export Plug-In . SVG Version: 6.00 Build 0)  -->
<svg version="1.1" id="Layer_1" xmlns="http://www.w3.org/2000/svg" xmlns:xlink="http://www.w3.org/1999/xlink" x="0px" y="0px"
	 width="128px" height="128px" viewBox="0 0 128 128" style="enable-background:new 0 0 128 128;" xml:space="preserve">
<style type="text/css">
	.st0{fill:#23292F;}
	.st1{fill:#00F3AB;}
</style>
<g>
	<circle class="st0" cx="64" cy="64" r="62.3"/>
	<g>
		<path class="st1" d="M101.8,26.9c-0.4,2-0.8,3.9-1.2,5.8c-1.3,6.4-2.7,12.8-4,19.2c-1.2,5.9-2.4,11.8-3.7,17.7
			c-0.7,3.3-1.4,6.5-2,9.8c0,0.1-0.1,0.3-0.1,0.4c0,0.3-0.2,0.3-0.5,0.3c-3.2-0.3-6.2-1.1-9.3-2.1c-0.6-0.2-0.6-0.3-0.5-1
			c0.4-2.1,0.7-4.2,1.1-6.3c0.7-3.9,1.4-7.8,2-11.6c0.7-3.8,1.3-7.7,2-11.5c0.7-4.1,1.4-8.3,2.2-12.4c0.5-2.8,1-5.7,1.5-8.6
			c0.1-0.4,0.2-0.5,0.6-0.5c2.4,0.1,4.9,0.2,7.3,0.4c1.3,0.1,2.6,0.1,3.9,0.2C101.4,26.8,101.5,26.8,101.8,26.9z"/>
		<path class="st1" d="M26.2,26.3c0.3-0.1,0.5-0.1,0.7-0.1c3.1,0,6.2,0,9.2,0c0.7,0,0.7,0,0.9,0.7c2.5,11.6,5,23.1,7.5,34.7
			c1.1,5.1,2.2,10.2,3.3,15.3c0.1,0.6,0.1,0.6-0.4,0.9c-1.1,0.6-2.3,1.1-3.5,1.4c-2.1,0.6-4.2,1-6.3,1c-0.6,0-0.6,0-0.7-0.6
			c-1.8-9-3.6-18.1-5.4-27.1c-1.2-6.1-2.5-12.2-3.7-18.3c-0.5-2.5-1-5.1-1.5-7.6C26.2,26.5,26.2,26.4,26.2,26.3z"/>
		<path class="st1" d="M74.1,74.8c-1-0.2-1.8-0.4-2.6-0.6c-1.9-0.4-3.7-0.6-5.6-0.7c-0.6,0-0.6,0-0.7-0.6c-0.6-2.1-1.1-4.1-1.7-6.2
			c-0.3,0-0.2,0.2-0.3,0.4c-0.5,1.9-1,3.8-1.5,5.7c-0.2,0.8-0.2,0.8-1,0.8c-2.1,0.2-4.2,0.5-6.2,1.1c-0.2,0.1-0.5,0.1-0.7,0.2
			c-0.1-0.2,0-0.4,0-0.6c2.1-7.3,4.3-14.5,6.4-21.8c0.2-0.8,0.2-0.7,0.9-0.7c1.7,0,3.4,0,5,0c0.7,0,0.7,0,0.9,0.7
			c1.8,5.8,3.7,11.6,5.5,17.3c0.5,1.5,1,3,1.4,4.5C74,74.5,74.1,74.6,74.1,74.8z"/>
		<path class="st1" d="M68.8,84.8c1.2,0.1,2.2,0.2,3.3,0.3c1.7,0.2,3.4,0.5,5.1,0.9c0.4,0.1,0.6,0.3,0.8,0.7
			c0.4,1.4,0.9,2.8,1.3,4.2c0,0.1,0,0.3,0.3,0.4c0-1.6,0-3.1,0-4.6c0.6,0,1,0.2,1.4,0.3c2.1,0.8,4.2,1.4,6.4,1.8
			c0.4,0.1,0.9,0,1.4,0.3c-0.2,0.9-0.4,1.8-0.5,2.7c-0.6,3.1-1.3,6.2-1.9,9.3c-0.1,0.6-0.1,0.6-0.8,0.6c-3.6,0-7.3,0-10.9,0
			c-0.4,0-0.6,0-0.8-0.5c-1.7-5.4-3.4-10.7-5.1-16.1C68.9,85.2,68.9,85.1,68.8,84.8z"/>
		<path class="st1" d="M48.5,86.7c0.1,1.5,0.2,3,0.3,4.7c0.3-0.3,0.3-0.6,0.3-0.8c0.3-1.2,0.7-2.5,1-3.8c0.1-0.5,0.3-0.7,0.9-0.8
			c2.1-0.4,4.1-0.7,6.2-1c0.2,0,0.4-0.1,0.7,0c-0.1,0.5-0.3,1-0.4,1.5c-1.5,4.8-2.9,9.7-4.4,14.5c-0.2,0.7-0.2,0.7-1,0.7
			c-3.4,0-6.8,0-10.2,0c-0.1,0-0.2,0-0.3,0c-0.4,0-0.5-0.1-0.5-0.5c-0.3-1.4-0.6-2.8-0.9-4.3c-0.5-2.4-0.9-4.8-1.4-7.2
			c-0.2-0.8-0.1-0.7,0.6-0.8c2.6-0.2,5.1-0.9,7.4-2c0.4-0.2,0.8-0.3,1.2-0.4C48.2,86.6,48.4,86.6,48.5,86.7z"/>
	</g>
</g>
</svg>
