<?xml version="1.0" encoding="utf-8"?>
<!-- Generator: Adobe Illustrator 24.3.0, SVG Export Plug-In . SVG Version: 6.00 Build 0)  -->
<svg version="1.1" id="Layer_1" xmlns="http://www.w3.org/2000/svg" xmlns:xlink="http://www.w3.org/1999/xlink" x="0px" y="0px"
	 width="200px" height="200px" viewBox="0 0 200 200" style="enable-background:new 0 0 200 200;" xml:space="preserve">
<style type="text/css">
	.st0{fill:url(#SVGID_1_);}
	.st1{fill:url(#SVGID_2_);}
	.st2{fill:url(#SVGID_3_);}
	.st3{clip-path:url(#SVGID_5_);}
	.st4{fill:url(#SVGID_8_);}
	.st5{fill:#FFFFFF;}
</style>
<g>
	<linearGradient id="SVGID_1_" gradientUnits="userSpaceOnUse" x1="56.9871" y1="101.6418" x2="127.2386" y2="65.4035">
		<stop  offset="0" style="stop-color:#7A01BB"/>
		<stop  offset="0.7398" style="stop-color:#140EAF"/>
		<stop  offset="1" style="stop-color:#68E6F4"/>
	</linearGradient>
	<path class="st0" d="M65.1,102.5c-0.1-0.8-0.1-1.7-0.1-2.5c0-19.3,15.7-35,35-35c13.9,0,25.9,8.1,31.5,19.8h5.5
		C131,70.3,116.7,60,100,60c-22.1,0-40,17.9-40,40c0,0.8,0,1.7,0.1,2.5H65.1z"/>
	<linearGradient id="SVGID_2_" gradientUnits="userSpaceOnUse" x1="73.729" y1="134.0975" x2="143.9805" y2="97.8592">
		<stop  offset="0" style="stop-color:#7A01BB"/>
		<stop  offset="0.6786" style="stop-color:#153092"/>
	</linearGradient>
	<path class="st1" d="M139.9,97.5h-5c0.1,0.8,0.1,1.7,0.1,2.5c0,19.3-15.7,35-35,35c-13.9,0-25.9-8.1-31.5-19.8H63
		c6,14.6,20.3,24.8,37,24.8c22.1,0,40-17.9,40-40C140,99.2,140,98.3,139.9,97.5z"/>
	<g>
		<linearGradient id="SVGID_3_" gradientUnits="userSpaceOnUse" x1="0" y1="100" x2="200" y2="100">
			<stop  offset="0" style="stop-color:#3A99D8"/>
			<stop  offset="0.5" style="stop-color:#2C0CB1"/>
			<stop  offset="0.9981" style="stop-color:#56D7EF"/>
		</linearGradient>
		<rect y="97.5" class="st2" width="200" height="5"/>
	</g>
	<g>
		<g>
			<defs>
				<circle id="SVGID_4_" cx="100.2" cy="99.8" r="20"/>
			</defs>
			<clipPath id="SVGID_5_">
				<use xlink:href="#SVGID_4_"  style="overflow:visible;"/>
			</clipPath>
			<g class="st3">
				<g>
					<defs>
						<rect id="SVGID_6_" x="75.2" y="74.8" width="50" height="50"/>
					</defs>
					<clipPath id="SVGID_7_">
						<use xlink:href="#SVGID_6_"  style="overflow:visible;"/>
					</clipPath>
					<g style="clip-path:url(#SVGID_7_);">
						
							<image style="overflow:visible;" width="105" height="105" xlink:href="55954F5E88938D90.jpg"  transform="matrix(0.48 0 0 0.48 74.88 74.6)">
						</image>
					</g>
				</g>
			</g>
		</g>
	</g>
	<g>
		<linearGradient id="SVGID_8_" gradientUnits="userSpaceOnUse" x1="41.0352" y1="142.0769" x2="172.6742" y2="48.1096">
			<stop  offset="0" style="stop-color:#7A01BB"/>
			<stop  offset="0.7398" style="stop-color:#140EAF"/>
			<stop  offset="1" style="stop-color:#68E6F4"/>
		</linearGradient>
		<path class="st4" d="M100,182.5c-45.5,0-82.5-37-82.5-82.5c0-45.5,37-82.5,82.5-82.5c14.8,0,29.2,3.9,41.9,11.4
			c2.6-1.6,5.5-2.4,8.5-2.4c9.1,0,16.5,7.4,16.5,16.5s-7.4,16.5-16.5,16.5s-16.5-7.4-16.5-16.5c0-2.2,0.4-4.3,1.3-6.3
			c-10.7-6-22.9-9.2-35.2-9.2C60,27.5,27.5,60,27.5,100S60,172.5,100,172.5c32.1,0,60.7-21.5,69.6-52.3l0.6-2.1l2.1,0.3
			c1.6,0.2,3.2,0.4,4.8,0.4l3.1,0.1l-0.8,3C169.7,157.6,137,182.5,100,182.5z M150.4,36.5c-3.6,0-6.5,2.9-6.5,6.5s2.9,6.5,6.5,6.5
			c3.6,0,6.5-2.9,6.5-6.5S154,36.5,150.4,36.5z"/>
		<path class="st5" d="M100,20c15.4,0,29.7,4.3,41.9,11.9c2.4-1.8,5.3-2.9,8.5-2.9c7.7,0,14,6.3,14,14s-6.3,14-14,14
			c-7.7,0-14-6.3-14-14c0-2.7,0.8-5.2,2.1-7.3C127.2,28.9,114.1,25,100,25c-41.4,0-75,33.6-75,75s33.6,75,75,75
			c34.1,0,63-22.9,72-54.1c1.7,0.2,3.4,0.4,5.1,0.5c-9.3,33.8-40.3,58.7-77.1,58.7c-44.2,0-80-35.8-80-80S55.8,20,100,20 M150.4,52
			c5,0,9-4,9-9c0-5-4-9-9-9c-5,0-9,4-9,9C141.4,47.9,145.4,52,150.4,52 M100,15c-46.9,0-85,38.1-85,85s38.1,85,85,85
			c19,0,36.9-6.1,51.9-17.7c14.5-11.2,25.2-27.1,30-44.6l1.7-6.1l-6.3-0.3c-1.5-0.1-3.1-0.2-4.6-0.4l-4.3-0.6l-1.2,4.2
			c-4.1,14.3-13,27.1-24.9,36.2C130.1,165,115.4,170,100,170c-38.6,0-70-31.4-70-70s31.4-70,70-70c11.2,0,22.2,2.7,32.1,7.8
			c-0.5,1.7-0.7,3.4-0.7,5.1c0,10.5,8.5,19,19,19c10.5,0,19-8.5,19-19s-8.5-19-19-19c-3,0-5.9,0.7-8.5,2C129.1,18.8,114.7,15,100,15
			L100,15z M150.4,47c-2.2,0-4-1.8-4-4c0-2.2,1.8-4,4-4c2.2,0,4,1.8,4,4C154.4,45.2,152.6,47,150.4,47L150.4,47z"/>
	</g>
</g>
</svg>
