<?xml version="1.0" encoding="utf-8"?>
<!-- Generator: Adobe Illustrator 25.2.0, SVG Export Plug-In . SVG Version: 6.00 Build 0)  -->
<svg version="1.1" id="Layer_1" xmlns="http://www.w3.org/2000/svg" xmlns:xlink="http://www.w3.org/1999/xlink" x="0px" y="0px"
	 width="128px" height="128px" viewBox="0 0 128 128" style="enable-background:new 0 0 128 128;" xml:space="preserve">
<style type="text/css">
	.st0{fill:#FFFFFF;}
</style>
<g>
	<path d="M64,127.5c-35.1,0-63.5-28.4-63.5-63.6C0.5,28.9,28.9,0.5,64,0.5c35.1,0,63.6,28.5,63.5,63.5C127.5,99.1,99,127.5,64,127.5
		z M104.6,93.6c-0.5-0.3-1-0.6-1.3-0.9c-3.4-3.2-6.7-6.5-10.1-9.6c-0.7-0.7-0.8-1.1-0.3-2c6.5-11.5,6.6-23,0.2-34.6
		c-0.4-0.8-0.4-1.3,0.2-2c3.3-3.4,6.5-6.8,9.8-10.2c0.7-0.7,0.7-1.1,0-1.8c-2.9-2.7-5.8-5.5-8.7-8.3c-0.2-0.2-0.5-0.4-1-0.8
		c-0.3,0.4-0.5,0.9-0.9,1.2c-3.1,3.2-6.1,6.4-9.2,9.6c-0.5,0.6-0.9,0.7-1.7,0.3c-11.7-6.8-23.5-6.9-35.3-0.3
		c-0.8,0.5-1.3,0.3-1.8-0.3c-3.3-3.1-6.5-6.3-9.8-9.4c-0.3-0.3-0.7-0.6-1.1-1c-3.3,3.4-6.5,6.8-9.8,10.3c3.9,3.7,7.7,7.3,11.4,10.9
		c-0.2,0.3-0.3,0.6-0.4,0.8C28.1,57.3,28,69,34.4,80.7c0.4,0.7,0.3,1.2-0.2,1.7c-3.5,3.6-6.9,7.2-10.3,10.8c-0.3,0.3-0.6,0.7-1,1.1
		c3.5,3.3,6.8,6.5,10.4,10c0.4-0.5,0.6-0.9,0.9-1.3c3.3-3.4,6.6-6.9,9.8-10.3c0.6-0.7,1.1-0.7,1.9-0.2c11.6,6.7,23.3,6.8,35,0.3
		c0.9-0.5,1.4-0.4,2.1,0.3c3.4,3.3,6.9,6.6,10.4,10c0.3,0.3,0.7,0.6,1.2,1C97.9,100.6,101.1,97.2,104.6,93.6z"/>
	<path class="st0" d="M104.6,93.6c-3.5,3.7-6.7,7-10,10.5c-0.5-0.4-0.8-0.7-1.2-1c-3.5-3.3-6.9-6.6-10.4-10
		c-0.7-0.7-1.2-0.7-2.1-0.3c-11.7,6.5-23.4,6.4-35-0.3c-0.8-0.5-1.3-0.5-1.9,0.2c-3.2,3.5-6.5,6.9-9.8,10.3
		c-0.3,0.3-0.5,0.7-0.9,1.3c-3.6-3.4-7-6.6-10.4-10c0.4-0.4,0.7-0.8,1-1.1c3.4-3.6,6.9-7.2,10.3-10.8c0.6-0.6,0.6-1,0.2-1.7
		C28,69,28.1,57.3,34.8,45.7c0.1-0.2,0.2-0.5,0.4-0.8c-3.7-3.6-7.5-7.2-11.4-10.9c3.3-3.4,6.5-6.8,9.8-10.3c0.4,0.4,0.8,0.7,1.1,1
		c3.3,3.1,6.6,6.2,9.8,9.4c0.6,0.6,1,0.7,1.8,0.3c11.8-6.6,23.6-6.5,35.3,0.3c0.8,0.4,1.2,0.3,1.7-0.3c3-3.2,6.1-6.4,9.2-9.6
		c0.3-0.4,0.6-0.8,0.9-1.2c0.5,0.4,0.8,0.5,1,0.8c2.9,2.8,5.8,5.5,8.7,8.3c0.7,0.7,0.7,1.1,0,1.8c-3.3,3.4-6.5,6.8-9.8,10.2
		c-0.7,0.7-0.7,1.1-0.2,2C99.3,58,99.3,69.5,92.8,81c-0.5,0.9-0.4,1.4,0.3,2c3.4,3.2,6.7,6.4,10.1,9.6C103.6,93,104,93.2,104.6,93.6
		z M43.2,63.5c0,11.3,9,20.5,20.3,20.5c11.3,0.1,20.5-9.1,20.6-20.3c0.1-11.4-9-20.6-20.3-20.7C52.4,43,43.3,52.1,43.2,63.5z"/>
	<path d="M43.2,63.5c0-11.4,9.2-20.5,20.6-20.4c11.3,0,20.4,9.3,20.3,20.7C84.1,75,74.8,84.1,63.6,84C52.3,83.9,43.2,74.8,43.2,63.5
		z"/>
</g>
</svg>
