<?xml version="1.0" encoding="utf-8"?>
<!-- Generator: Adobe Illustrator 25.0.1, SVG Export Plug-In . SVG Version: 6.00 Build 0)  -->
<svg version="1.1" id="Layer_1" xmlns="http://www.w3.org/2000/svg" xmlns:xlink="http://www.w3.org/1999/xlink" x="0px" y="0px"
	 viewBox="0 0 128 128" style="enable-background:new 0 0 128 128;" xml:space="preserve">
<style type="text/css">
	.st0{fill:#EEF4F4;}
	.st1{fill:#181EA9;}
</style>
<circle class="st0" cx="64" cy="64" r="59.5"/>
<g>
	<path class="st1" d="M80.8,21.4l-8.9,8.9c-3-2.1-6.7-3.4-10.7-3.4c-10.2,0-18.4,8.3-18.4,18.4c0,9.1,6.6,16.7,15.3,18.2v6.7
		c-8.7,1.5-15.3,9-15.3,18.2c0,10.2,8.3,18.4,18.4,18.4s18.4-8.3,18.4-18.4c0-9.1-6.6-16.7-15.3-18.2v-6.7c8.7-1.5,15.3-9,15.3-18.2
		c0-4-1.3-7.7-3.4-10.7l8.9-8.9L80.8,21.4z M73.5,88.2c0,6.8-5.5,12.3-12.3,12.3C54.5,100.5,49,95,49,88.2c0-6.8,5.5-12.3,12.3-12.3
		C68,75.9,73.5,81.4,73.5,88.2 M61.3,57.5C54.5,57.5,49,52,49,45.2C49,38.5,54.5,33,61.3,33c6.8,0,12.3,5.5,12.3,12.3
		C73.5,52,68,57.5,61.3,57.5"/>
</g>
</svg>
