<?xml version="1.0" encoding="utf-8"?>
<!-- Generator: Adobe Illustrator 24.3.0, SVG Export Plug-In . SVG Version: 6.00 Build 0)  -->
<svg version="1.1" id="Layer_1" xmlns="http://www.w3.org/2000/svg" xmlns:xlink="http://www.w3.org/1999/xlink" x="0px" y="0px"
	 viewBox="0 0 50 50" style="enable-background:new 0 0 50 50;" xml:space="preserve">
<style type="text/css">
	.st0{fill:#1B8CFE;}
	.st1{fill:#FEFEFE;}
</style>
<g>
	<circle class="st0" cx="25" cy="25" r="24"/>
	<g>
		<path class="st1" d="M24.9,14.4c1.1,0,2.2,0.1,3.2,0.5c0.3,0.1,0.5,0.1,0.6-0.3c0.7-2.4,2.9-4,5.4-3.9c2.3,0.1,4.4,1.8,5,4.2
			c0.7,2.8-1,5.6-3.8,6.4c-0.3,0.1-0.5,0.1-0.3,0.5c2,6.7-2.3,13.1-9.3,13.8c-1.3,0.1-2.6-0.1-3.9-0.5c-0.3-0.1-0.5-0.1-0.6,0.3
			c-0.7,2.5-3,4.1-5.6,3.9c-2.5-0.1-4.5-2-5-4.6c-0.5-2.6,1.3-5.3,3.9-6c0.4-0.1,0.4-0.2,0.3-0.6C12.8,21.6,17.2,15,24,14.4
			C24.3,14.4,24.6,14.4,24.9,14.4z"/>
		<path class="st0" d="M16.4,30.3c0.4,0,0.8,0.1,1.1,0c1.1-0.3,1.5-1.5,1.1-2.6c-0.8-1.8-0.8-3.6-0.1-5.4c1.4-3.5,5.4-5.1,9-3.7
			c0.4,0.2,0.8,0.3,1.2,0.3c1-0.1,1.7-0.9,1.6-2c0-0.6-0.1-1.1,0.1-1.7c0.5-1.8,2.1-2.9,4.1-2.6c1.7,0.2,3,1.8,3,3.6
			c0,1.8-1.4,3.3-3.2,3.5c-0.3,0-0.6,0-1,0c-1.7-0.1-2.6,1.2-1.9,2.7c1.6,3.9-0.4,8.2-4.4,9.4c-1.6,0.5-3.1,0.4-4.6-0.3
			c-1.3-0.6-3,0.3-2.8,2c0.3,2.1-1.2,3.9-3.2,4c-2.1,0.2-3.9-1.4-3.9-3.5C12.4,31.9,14.1,30.1,16.4,30.3z"/>
		<path class="st1" d="M29,25c0,2.2-1.8,4-3.9,3.9c-2.2,0-3.9-1.8-4-3.9c0-2.2,1.8-4,4-4C27.2,21,29,22.8,29,25z"/>
	</g>
</g>
</svg>
