<?xml version="1.0" encoding="utf-8"?>
<!-- Generator: Adobe Illustrator 25.2.0, SVG Export Plug-In . SVG Version: 6.00 Build 0)  -->
<svg version="1.1" id="Layer_1" xmlns="http://www.w3.org/2000/svg" xmlns:xlink="http://www.w3.org/1999/xlink" x="0px" y="0px"
	 width="128px" height="128px" viewBox="0 0 128 128" style="enable-background:new 0 0 128 128;" xml:space="preserve">
<style type="text/css">
	.st0{fill:#EEF4F4;}
	.st1{fill:url(#SVGID_1_);}
	.st2{fill:url(#SVGID_2_);}
</style>
<circle class="st0" cx="64" cy="64" r="63.5"/>
<g>
	
		<linearGradient id="SVGID_1_" gradientUnits="userSpaceOnUse" x1="33.7127" y1="27.7019" x2="69.0596" y2="88.9287" gradientTransform="matrix(1 0 0 -1 0 130)">
		<stop  offset="0" style="stop-color:#174E5B"/>
		<stop  offset="7.000000e-02" style="stop-color:#195A6C"/>
		<stop  offset="0.21" style="stop-color:#1E779A"/>
		<stop  offset="0.4" style="stop-color:#27A7E3"/>
		<stop  offset="0.47" style="stop-color:#2ABAFF"/>
		<stop  offset="0.7" style="stop-color:#1DDAF0"/>
		<stop  offset="1" style="stop-color:#0EFFE0"/>
	</linearGradient>
	<path class="st1" d="M76.7,108.6c-0.2-0.2-0.4-0.4-0.7-0.4c-5.5-1.2-10.8-3.2-15.7-6c-10-5.8-16.4-14.7-16.7-24.7
		c-0.1-3.8,0.7-7.6,2.3-11.1c1-2.3,6.5-10.4,7.4-11.9c3.7-5.8,2.5-5.5-2.7-12.8l-7.5-11.2L38,23.2c-2.9,2-5.7,4.2-8.3,6.6
		c-5.3,5.3-9.3,11.7-11.6,18.8c-2.4,7.1-3.1,14.6-2,22.1c1,7.4,3.8,14.5,8,20.6c4.2,6.2,9.8,11.3,16.4,14.9
		C23.7,93.9,16,75.4,22.4,56.8c1.8-5,4.3-9.7,7.6-13.8l5.5,8.1c0.3,0.5,0.5,1,0.5,1.6c0,0.6-0.2,1.1-0.6,1.6
		c-2.6,3.2-4.7,6.9-6.1,10.9c-7.1,20.5,12,41.8,32.2,45.2c3.9,0.7,10.9,1.4,14.6,0.5c0.2-0.1,0.4-0.2,0.6-0.3
		c0.2-0.2,0.3-0.3,0.3-0.6c0.1-0.2,0.1-0.4,0-0.7C77,109,76.9,108.8,76.7,108.6z"/>
	
		<linearGradient id="SVGID_2_" gradientUnits="userSpaceOnUse" x1="94.2937" y1="104.2962" x2="58.9442" y2="43.0739" gradientTransform="matrix(1 0 0 -1 0 130)">
		<stop  offset="0" style="stop-color:#174E5B"/>
		<stop  offset="7.000000e-02" style="stop-color:#195A6C"/>
		<stop  offset="0.21" style="stop-color:#1E779A"/>
		<stop  offset="0.4" style="stop-color:#27A7E3"/>
		<stop  offset="0.47" style="stop-color:#2ABAFF"/>
		<stop  offset="0.7" style="stop-color:#1DDAF0"/>
		<stop  offset="1" style="stop-color:#0EFFE0"/>
	</linearGradient>
	<path class="st2" d="M51.3,19.4c0.2,0.2,0.4,0.4,0.7,0.4c5.5,1.2,10.8,3.2,15.7,6c10,5.8,16.4,14.7,16.7,24.7
		c0.1,3.8-0.7,7.6-2.3,11.1c-1,2.3-6.5,10.4-7.4,11.9c-3.7,5.8-2.5,5.5,2.7,12.8l7.5,11.2l5.1,7.4c2.9-2,5.7-4.2,8.3-6.6
		c5.3-5.3,9.3-11.7,11.6-18.8c2.4-7.1,3.1-14.6,2-22.1c-1-7.4-3.8-14.5-8-20.6c-4.2-6.2-9.8-11.3-16.4-14.9
		c16.8,12.3,24.5,30.8,18.1,49.4c-1.8,5-4.3,9.7-7.6,13.8l-5.5-8.1c-0.3-0.5-0.5-1-0.5-1.6c0-0.6,0.2-1.1,0.6-1.6
		c2.6-3.2,4.7-6.9,6.1-10.9c7.1-20.5-12-41.8-32.2-45.2c-3.9-0.7-10.9-1.4-14.6-0.5c-0.2,0.1-0.4,0.2-0.6,0.3
		c-0.2,0.2-0.3,0.3-0.3,0.6c-0.1,0.2-0.1,0.4,0,0.7C51,19,51.1,19.2,51.3,19.4z"/>
</g>
</svg>
