<?xml version="1.0" encoding="utf-8"?>
<!-- Generator: Adobe Illustrator 25.2.3, SVG Export Plug-In . SVG Version: 6.00 Build 0)  -->
<svg version="1.1" id="Layer_1" xmlns="http://www.w3.org/2000/svg" xmlns:xlink="http://www.w3.org/1999/xlink" x="0px" y="0px"
	 width="128px" height="128px" viewBox="0 0 128 128" style="enable-background:new 0 0 128 128;" xml:space="preserve">
<style type="text/css">
	.st0{fill:#1C2951;}
	.st1{fill:#63A7D5;}
	.st2{fill:#FEFEFE;}
</style>
<circle class="st0" cx="64" cy="64" r="63.5"/>
<g>
	<path class="st1" d="M66,38c2-2.2,4.2-4.3,6.6-6.1c1.5-1.1,8.4-3.2,9-3.2c4.1-0.5,8.5,0.4,12.1,2.5l0,0c4.5,2.3,7.6,6.5,9.4,11.1
		c1.4,4,0.8,8.2,0.9,12.4c0,11.2-0.1,22.4-0.2,33.5c0.3,4.6-2.9,8.5-6.9,10.4c-1.6,0-3.3,1.1-4.8,0.4C92,82.1,92.4,65,92.4,48
		c0-0.4,0-0.7-0.3-0.9c-0.1-0.5-0.2-1-0.3-1.5c-1.8-5-9-7.4-13.1-3.8l0,0c-1.2,1-2.4,2-3.4,3.2c-0.8,0.8-1.3,0.9-2,0
		c-2.2-2.3-4.7-4.3-7.1-6.4C66,38.5,65.8,38.3,66,38z"/>
	<path class="st2" d="M51.8,83.9c-1.6-1.3-3-2.8-4.2-4.6c0-0.3-0.2-0.3-0.3-0.5c-0.7-1.9-2-3.5-2.2-5.5c-1.1-4.7-1-9.8,0.8-14.3
		c1-0.7,1.3-1.9,2.1-2.8c1-0.7,1.6-1.7,2.5-2.4c0.3-0.2,0.7-0.4,0.7-0.8c0.3-0.3,0.6-0.4,0.8-0.8c0,0,0,0,0,0
		c0.4-0.2,0.7-0.6,1.1-0.2l0,0c2.3,2.1,4.7,4.1,7,6.2c1.9,1.8-0.6,2.1-1.4,3.6l0,0c-0.9,0.5-1.6,1.2-2.1,2.1l0,0
		c-2.3,2.8-0.9,8.6,2.1,10.5c0.9,1.3,2.3,1.7,3.8,2.1c2.3,0.9,4.4,0,6.6-0.9c2.2-1.5,4.2-3.8,4.2-6.6c-0.1-1.7,0.4-3.6-0.8-5
		c-0.2-1-1.2-1.3-1.8-2c-0.6-1.2-1.8-1.8-2.7-2.7c-0.8-0.7-1.6-1.7-2.5-2.2c-1.8-1.4-3.3-3.1-5-4.4c-2.4-2.1-4.8-4.3-7-6.5
		c-1-0.7-1.6-2-2.8-2.5c-1.4-1.5-3-3.2-5.2-3.4c-0.8-0.3-1.7-0.6-2.6-0.3c-1,0.3-2.2,0.2-3.2,0.9c-0.5,0.3-0.8,0.9-1.4,1
		c-2.1,1.7-3.4,3.9-2.9,6.6c-0.4,1.3-0.2,2.6-0.1,3.9c0.1,15.1,0.2,30.2,0.2,45.3c0.5,3.1-2.4,1.1-4.1,1.1c-0.8,0-1.4-0.4-2-0.8
		c-1.5-0.8-2.6-2.1-3.6-3.3l0,0c-0.1-0.5-0.6-0.9-0.7-1.5c0-0.2,0-0.5-0.2-0.7c-0.7-1.3-0.7-2.7-0.7-4c0-14.1,0-28.1,0-42.2
		c1.3-10.9,11.5-18.5,22.3-17.5c0.8,0.5,1.7,0.6,2.6,0.8c2.1,0.5,3.8,1.6,5.6,2.6c5.2,4.3,9.7,9.1,14.6,13.6c3.2,2.7,5.9,6,9.3,8.5
		c1.7,1.7,3.8,3.1,4.5,5.5c0.5,1.2,0.5,2.4,1.2,3.6c0,2.1-0.1,4.2,0,6.2c-0.1,2.4-1.1,4.6-1.8,6.9c-0.9,1.7-1.8,3.3-3.2,4.7
		c-0.2,0.2-0.4,0.5-0.4,0.8c-2.4,2.3-5.1,4.2-8.2,5.4c-1.1-0.2-2,0.6-3,0.6c-2.5,0.2-5,0.1-7.5-0.2c-0.6-0.3-1.3-0.4-1.9-0.5
		C55.9,86.6,53.7,85.4,51.8,83.9z"/>
</g>
</svg>
