<?xml version="1.0" encoding="utf-8"?>
<!-- Generator: Adobe Illustrator 24.3.0, SVG Export Plug-In . SVG Version: 6.00 Build 0)  -->
<svg version="1.1" id="Layer_1" xmlns="http://www.w3.org/2000/svg" xmlns:xlink="http://www.w3.org/1999/xlink" x="0px" y="0px"
	 viewBox="0 0 50 50" style="enable-background:new 0 0 50 50;" xml:space="preserve">
<style type="text/css">
	.st0{fill:#303030;}
	.st1{fill:#6E6E6E;}
	.st2{fill:#5C5C5C;}
	.st3{fill:#6B6B6B;}
	.st4{fill:#4A4A4A;}
	.st5{fill:#434343;}
	.st6{fill:#7C7C7C;}
	.st7{fill:#A4A4A4;}
	.st8{fill:#666666;}
	.st9{fill:#8C8C8C;}
	.st10{fill:#FEDA00;}
	.st11{fill:#C4AF00;}
	.st12{fill:#F8D400;}
	.st13{fill:#FEDB05;}
	.st14{fill:#EECD00;}
	.st15{fill:#E8C700;}
	.st16{fill:#FEDE22;}
	.st17{fill:#FEDC0A;}
	.st18{fill:#FEDF2A;}
	.st19{fill:#FEDE29;}
	.st20{fill:#FEDD1B;}
	.st21{fill:#FEDF30;}
	.st22{fill:#FEDD0E;}
	.st23{fill:#FEE137;}
	.st24{fill:#FCDD2B;}
	.st25{fill:#FDDE2C;}
	.st26{fill:#FEDE17;}
	.st27{fill:#FEE243;}
	.st28{fill:#FEDE12;}
	.st29{fill:#E2C000;}
	.st30{fill:#FEE13E;}
	.st31{fill:#FEE034;}
	.st32{fill:#ECC800;}
	.st33{fill:#FEE34E;}
	.st34{fill:#FEE138;}
	.st35{fill:#E8C400;}
	.st36{fill:#E9C700;}
	.st37{fill:#FEE348;}
	.st38{fill:#F4D100;}
	.st39{fill:#FAD501;}
	.st40{fill:#39382F;}
	.st41{fill:#F0CD00;}
	.st42{fill:#FBDA0D;}
	.st43{fill:#F8D600;}
	.st44{fill:#F1D000;}
	.st45{fill:#FBD800;}
	.st46{fill:#FEE240;}
	.st47{fill:#FEDE2B;}
	.st48{fill:#FEE139;}
	.st49{fill:#FEE349;}
	.st50{fill:#FDD802;}
	.st51{fill:#FEE454;}
	.st52{fill:#FDDC0D;}
	.st53{fill:#FDEC93;}
	.st54{fill:#DCB900;}
	.st55{fill:#FEE244;}
	.st56{fill:#FEE55A;}
	.st57{fill:#FEEA87;}
	.st58{fill:#FEE55C;}
	.st59{fill:#FCE00D;}
	.st60{fill:#FDDF33;}
	.st61{fill:#FEE76C;}
	.st62{fill:#FBE66F;}
	.st63{fill:#FDE24D;}
	.st64{fill:#FDD90F;}
	.st65{fill:#FDE665;}
	.st66{fill:#FEE664;}
	.st67{fill:#48442A;}
	.st68{fill:#FDE879;}
	.st69{fill:#F9DD0D;}
	.st70{fill:#DEBC00;}
	.st71{fill:#FCE66D;}
	.st72{fill:#FDE880;}
	.st73{fill:#FDE870;}
	.st74{fill:#FCEA8E;}
	.st75{fill:#FAE571;}
	.st76{fill:#FADF43;}
	.st77{fill:#FDE55F;}
	.st78{fill:#FDDC28;}
	.st79{fill:#FADC3B;}
	.st80{fill:#FCE566;}
	.st81{fill:#FCE670;}
	.st82{fill:#FCE254;}
	.st83{fill:#FDE66B;}
	.st84{fill:#FCE772;}
	.st85{fill:#BBAE6E;}
	.st86{fill:#FDE875;}
	.st87{fill:#FDE76C;}
	.st88{fill:#E8CE38;}
	.st89{fill:#FDD917;}
	.st90{fill:#FDDB20;}
	.st91{fill:#F9DC3C;}
	.st92{fill:#F8D501;}
	.st93{fill:#FAE572;}
	.st94{fill:#FDE565;}
	.st95{fill:#E5CA21;}
	.st96{fill:#F8E687;}
	.st97{fill:#F0D50E;}
	.st98{fill:#F3DB5A;}
	.st99{fill:#F8E896;}
	.st100{fill:#FEDB01;}
	.st101{fill:#F1D001;}
	.st102{fill:#F0CF00;}
	.st103{fill:#EECB00;}
	.st104{fill:#FEDF2F;}
	.st105{fill:#FDE354;}
	.st106{fill:#FDE348;}
	.st107{fill:#FDE45A;}
	.st108{fill:#FDE45F;}
	.st109{fill:#FDE564;}
	.st110{fill:#FEE55F;}
	.st111{fill:#FCE569;}
	.st112{fill:#FEE032;}
	.st113{fill:#FEE769;}
	.st114{fill:#FDE86E;}
	.st115{fill:#ECCA00;}
	.st116{fill:#F8D500;}
	.st117{fill:#EECD02;}
	.st118{fill:#FEE453;}
	.st119{fill:#FDE770;}
	.st120{fill:#FDE76B;}
	.st121{fill:#FEDF22;}
	.st122{fill:#FEDD0F;}
	.st123{fill:#FEDE16;}
	.st124{fill:#FEDE2A;}
	.st125{fill:#FEE13F;}
	.st126{fill:#FDE769;}
	.st127{fill:#FEE030;}
	.st128{fill:#FEE34D;}
	.st129{fill:#FEE55E;}
	.st130{fill:#FEE768;}
	.st131{fill:#FEE663;}
	.st132{fill:#FCE87F;}
	.st133{fill:#F0D433;}
	.st134{fill:#EDCD11;}
	.st135{fill:#EDCD13;}
	.st136{fill:#F7D71C;}
	.st137{fill:#FEDF2B;}
	.st138{fill:#FEE241;}
	.st139{fill:#FEE03C;}
	.st140{fill:#FDE771;}
	.st141{fill:#FEE76A;}
</style>
<g>
	<path class="st0" d="M49,23.7c-0.1,0.2-0.1,0.4,0,0.6v0.2c-0.1,0.2-0.1,0.3,0,0.5v0.8c-0.1,0.2-0.1,0.3,0,0.5v0.6
		c-0.1,0.5-0.1,1.1-0.1,1.6c0,0.1,0,0.2-0.1,0.3c0,0,0,0-0.1,0c0,0,0,0,0,0c-0.4,0-0.8,0-1.2,0c-0.3,0-0.6-0.1-0.8-0.3
		c-1.5-1.5-3-3-4.5-4.5c-0.2-0.2-0.5-0.5-0.7-0.7c0,0-0.1,0-0.1,0c0,0,0,0,0-0.1c0.3-0.5,0.8-0.9,1.2-1.3c0.4-0.4,0.9-0.9,1.3-1.3
		c0.2-0.2,0.4-0.4,0.6-0.6c0.3-0.3,0.6-0.6,0.9-0.9c0.2-0.2,0.4-0.4,0.6-0.6c0.2-0.3,0.6-0.4,0.7-0.8c0-0.1,0.1-0.3,0.1-0.4
		c0-0.6-0.1-0.7-0.7-0.7c-0.9,0-1.8-0.1-2.7,0c-0.3,0-0.6,0-0.9,0.1c-1.1,0-2.2-0.1-3.3-0.1c-0.5,0-0.9,0-1.4,0c-0.6,0-1.3,0-1.9,0
		c-0.2,0-0.5,0-0.7,0.1c-0.1,0-0.2,0.1-0.3,0.2c-0.2,0.2-0.4,0.4-0.6,0.6c-0.1,0.1-0.2,0.2-0.4,0.3c-0.1,0.1-0.2,0.2-0.3,0.3
		c-0.1,0.1-0.1,0.1-0.2,0.2c-0.1,0.1-0.2,0.2-0.3,0.3c-0.1,0.1-0.3,0.3-0.4,0.4c-0.1,0.1-0.2,0.2-0.4,0.3c-0.1,0.1-0.3,0.3-0.4,0.4
		c-0.1,0.1-0.2,0.2-0.3,0.4c-0.1,0.1-0.1,0.1-0.2,0.2c-0.1,0.1-0.3,0.2-0.4,0c0.1-0.5,0.2-1,0.1-1.5c0-0.1,0-0.1-0.1-0.2
		c-0.1-0.2-0.3-0.4-0.4-0.5c-1.2-0.9-2.6-1.5-4.1-1.8c-0.2,0-0.4,0-0.6,0.2c0,0,0,0,0,0h-1.2c0,0,0,0-0.1,0
		c-0.2-0.1-0.3-0.2-0.6-0.2c-1.7,0.2-3.3,0.9-4.6,2c0,0.6-0.1,1.2,0.4,1.7c0.3,0.3,0.6,0.6,0.9,1c0,0.1,0.1,0.3-0.1,0.4
		c-0.2,0-0.3-0.1-0.4-0.2c0,0-0.1-0.1-0.1-0.1c-0.1-0.2-0.4-0.3-0.6-0.5c-0.1-0.1-0.1-0.2-0.2-0.3C19.1,20.1,19,20,19,19.9
		c-0.1-0.1-0.1-0.2-0.2-0.2c0,0-0.1,0-0.1-0.1c-0.1-0.1-0.2-0.1-0.2-0.2c-0.1-0.2-0.3-0.1-0.4,0c-0.4,0.5-0.8,0.9-1.3,1.3
		c-0.4,0.3-0.7,0.7-1.1,1.1c-0.3,0.2-0.5,0.5-0.8,0.7c-0.3,0.3-0.5,0.6-0.8,0.8c-0.3,0.3-0.6,0.7-1,1c-0.1,0.1-0.1,0.2-0.1,0.3
		c0,0.3,0.1,0.7-0.1,1c0,0-0.1,0.1-0.1,0.1c0,0-0.1,0-0.1,0c-0.4,0-0.7,0-1,0.1c-0.2,0-0.3,0.1-0.5,0.3c-0.3,0.3-0.7,0.7-1,1
		c-1.1,1.1-2.2,2.2-3.3,3.3c-0.1,0.1-0.2,0.3-0.4,0.3c0,0.1-0.1,0.2-0.1,0.2c-0.9,0.8-1.6,1.8-2.4,2.6c-0.4,0.4-0.4,0.7-0.4,1.2
		c0,0.3,0.2,0.4,0.5,0.5c0.1,0,0.2,0,0.4,0c3.5,0,6.9,0,10.4,0c0.2,0,0.4,0,0.7-0.1c0.2,0,0.3-0.3,0.5-0.4c0.9-0.9,1.7-1.7,2.6-2.6
		c0.2-0.2,0.3-0.4,0.6-0.3c0.2,0.2,0.1,0.5,0.2,0.7c0,0.1,0.1,0.1,0.1,0.2c0.1,0.2,0,0.5,0.2,0.7c0.2,0.2,0.4,0.3,0.7,0.5
		c0.2,0.1,0.3,0.3,0.5,0.3c0.1,0.1,0.2,0.1,0.3,0.2c0.4,0.2,0.7,0.4,1.2,0.5c0.2,0,0.3,0.1,0.5,0.2c0.1,0.1,0.2,0.1,0.4,0.1
		c0,0,0.1,0,0.1,0c0.1,0.1,0.3,0.1,0.4,0.1c0,0,0.1,0,0.1,0c0.1,0,0.2,0.1,0.4,0c0.1,0,0.2,0,0.3-0.1c0.1-0.2,0.1-0.4,0.1-0.6
		c0-2.1,0-4.1,0-6.2c0-0.2,0-0.4-0.1-0.5c-0.3-0.4-0.5-0.4-0.9-0.1c-0.1,0.1-0.2,0.2-0.4,0.2c-0.2-0.1-0.2-0.2-0.3-0.4
		c-0.1-0.2-0.1-0.5-0.1-0.8c0-0.1,0-0.3-0.1-0.4c-0.1-0.2-0.2-0.5-0.2-0.7c0-0.1,0-0.2,0.1-0.2c0-0.2,0.1-0.3,0.2-0.5
		c0-0.1,0.1-0.1,0.1-0.1c0.1-0.3,0-0.6,0-1c0-0.2,0-0.3,0.1-0.5c0.3-0.1,0.4,0.1,0.6,0.2c0.1,0.1,0.2,0.2,0.4,0.1
		c0.5-0.2,0.6-0.2,0.5-0.8c0-0.2,0-0.5,0-0.7c0-0.3,0.1-0.6,0-0.9c0-0.4,0-0.7,0-1.1c0-0.3,0-0.6,0-0.9c0-0.3,0-0.7,0-1
		c0-0.3,0-0.5,0-0.8c0-0.3-0.1-0.6,0-0.8c0.1-0.2-0.1-0.5,0.1-0.6c0,0,0,0,0.1,0.1c0.4,0.1,0.7,0.1,1.1,0c0,0,0-0.1,0.1-0.1
		c0.2,0.1,0.1,0.3,0.1,0.5c0,1.5,0,3.1,0,4.6c0,0.3,0,0.6,0.1,0.9c0,0,0,0.1,0,0.1c0,0.2,0.1,0.5,0,0.7c0,0.3,0.1,0.6,0.4,0.7
		c0.2,0.2,0.3,0,0.5-0.1c0.2-0.1,0.3-0.4,0.6-0.2c0.1,0.1,0,0.3,0,0.5c-0.1,0.4,0.1,0.9,0.1,1.3c0,0.1,0,0.3,0,0.4
		c0,0.2-0.1,0.4-0.1,0.6c-0.1,0.6-0.2,1.2,0.2,1.6c1.3,1.4,2.7,2.7,4.1,4.1c0.1,0.1,0.1,0.1,0.2,0.1c0.2-0.1,0.2-0.2,0.4-0.3
		c0.4-0.4,0.8-0.8,1.1-1.1c0.3-0.2,0.5-0.5,0.7-0.7c0.2-0.1,0.3-0.3,0.5-0.5c0.1-0.1,0.2-0.2,0.3-0.3c0.2-0.2,0.4-0.5,0.7-0.7
		c0.3-0.3,0.5-0.5,0.8-0.8c0.3-0.3,0.5-0.7,0.4-1.1c-0.1-0.2,0-0.4,0-0.6c0-0.1,0.1-0.1,0.1-0.1c0.4-0.2,0.9,0,1.3-0.1
		c0.4-0.1,0.5-0.5,0.8-0.7c0.2-0.2,0.4-0.5,0.7-0.7c0.3-0.3,0.6-0.6,0.9-1c0.1-0.1,0.2-0.2,0.4-0.2c0,0,0,0,0,0.1
		c0.1,0.2,0.3,0.4,0.4,0.6c1.5,1.5,3.1,3,4.5,4.6c0.5,0.6,1.6,0.6,2.4,0.4c0.1,0.1,0.1,0.3,0,0.5c-0.4,2.1-1,4.1-1.9,6
		c-1.2,2.5-2.7,4.7-4.7,6.7c-2.7,2.7-5.8,4.7-9.5,5.9c-1.3,0.4-2.6,0.8-3.9,1c-0.6,0.1-1.2,0.1-1.9,0.1c-0.1,0-0.3,0-0.4,0h-0.2
		c-0.1-0.1-0.1,0-0.2,0H26c-0.1,0-0.2,0-0.2,0h-1.5c-0.1-0.1-0.2,0-0.2,0h-0.2c-0.1,0-0.1,0-0.2,0h-0.3c-0.7-0.1-1.4,0-2.1-0.2
		C19,48.5,17,47.9,15,47c-2.1-1-4.1-2.2-5.8-3.7c-2.2-2-4.1-4.2-5.5-6.9c-1.2-2.2-2-4.6-2.5-7.1c-0.1-0.4-0.1-0.9-0.1-1.3
		c0-0.1,0-0.2,0.1-0.2c0,0,0,0,0,0c-0.1-0.3,0-0.6-0.1-0.9v-0.3c0.1-0.1,0-0.1,0-0.2V26c0-0.1,0-0.1,0-0.2v-1.7
		c0.1-0.2,0.1-0.3,0-0.5v-0.5c0.1-0.5,0.1-1,0.1-1.4c0.2-2.1,0.8-4.1,1.6-6c0.8-2,1.9-4,3.3-5.7c2.1-2.6,4.6-4.8,7.6-6.4
		c2-1.1,4.1-1.8,6.3-2.3c1-0.2,2-0.3,3-0.3c0.1,0,0.2,0,0.3,0h0.4c0.2,0.1,0.4,0,0.6,0c0.2,0,0.3,0,0.5,0h0.5c0.2,0.1,0.3,0,0.5,0
		c0.2,0,0.4,0,0.6,0h0.3c0.5,0.1,1,0.1,1.5,0.1c1.9,0.1,3.7,0.7,5.4,1.3c3,1.1,5.7,2.8,8,5c3.9,3.8,6.4,8.3,7.2,13.7
		c0.1,0.7,0.1,1.4,0.2,2.1V23.7z"/>
	<path class="st0" d="M25.8,16.3C25.8,16.3,25.8,16.3,25.8,16.3c0,0,0,0.1-0.1,0.1c-0.4,0.1-0.7,0.1-1.1,0c0,0,0,0-0.1-0.1
		c0,0,0,0,0.1,0H25.8z"/>
	<path class="st0" d="M48.7,28.8c-0.8,0.2-1.8,0.2-2.4-0.4c-1.5-1.6-3-3.1-4.5-4.6c-0.2-0.2-0.4-0.3-0.4-0.6c0,0,0,0,0-0.1
		c0,0,0.1,0,0.1,0c0.2,0.2,0.4,0.5,0.7,0.7c1.5,1.5,3,3,4.5,4.5c0.2,0.2,0.5,0.3,0.8,0.3C47.9,28.7,48.3,28.7,48.7,28.8
		C48.7,28.7,48.7,28.8,48.7,28.8z"/>
	<path class="st0" d="M25.8,16.3C25.8,16.3,25.8,16.3,25.8,16.3c0,0,0,0.1-0.1,0.1c-0.4,0.1-0.7,0.1-1.1,0c0,0,0,0-0.1-0.1
		c0,0,0,0,0.1,0H25.8z"/>
	<path class="st0" d="M48.7,28.8c-0.8,0.2-1.8,0.2-2.4-0.4c-1.5-1.6-3-3.1-4.5-4.6c-0.2-0.2-0.4-0.3-0.4-0.6c0,0,0,0,0-0.1
		c0,0,0.1,0,0.1,0c0.2,0.2,0.4,0.5,0.7,0.7c1.5,1.5,3,3,4.5,4.5c0.2,0.2,0.5,0.3,0.8,0.3C47.9,28.7,48.3,28.7,48.7,28.8
		C48.7,28.7,48.7,28.8,48.7,28.8z"/>
	<path class="st1" d="M49,24.3c-0.1-0.2-0.1-0.4,0-0.6C49,23.9,49,24.1,49,24.3z"/>
	<path class="st2" d="M24.3,1.1c-0.2,0-0.4,0.1-0.6-0.1C23.9,1,24.1,1,24.3,1.1C24.3,1,24.3,1.1,24.3,1.1z"/>
	<path class="st2" d="M26.3,1c-0.2,0.2-0.4,0.1-0.6,0.1c-0.1,0-0.1,0,0-0.1C25.9,1,26.1,1,26.3,1z"/>
	<path class="st3" d="M49,26.2c-0.1-0.2-0.1-0.3,0-0.5C49,25.9,49,26.1,49,26.2z"/>
	<path class="st4" d="M25.7,1C25.7,1,25.7,1.1,25.7,1c-0.2,0.1-0.3,0.1-0.5,0C25.4,1,25.6,1,25.7,1z"/>
	<path class="st4" d="M24.3,1.1C24.3,1,24.3,1,24.3,1.1C24.4,1,24.6,1,24.8,1C24.6,1.1,24.4,1.1,24.3,1.1z"/>
	<path class="st5" d="M49,24.9c-0.1-0.2-0.1-0.3,0-0.5C49,24.6,49,24.8,49,24.9z"/>
	<path class="st3" d="M1,23.7c0.1,0.2,0.1,0.3,0,0.5C1,24,1,23.8,1,23.7z"/>
	<path class="st6" d="M1.1,26c0,0.1,0,0.2,0,0.3c0,0-0.1,0-0.1,0C1,26.2,1,26.1,1.1,26C1,25.9,1.1,25.9,1.1,26z"/>
	<path class="st6" d="M24,48.9c0.1,0,0.2,0,0.3,0.1C24.2,49,24.1,49,24,48.9C24,49,24,49,24,48.9C24,48.9,24,48.9,24,48.9z"/>
	<path class="st6" d="M25.7,49c0.1-0.1,0.2-0.1,0.3-0.1c0,0,0,0,0,0c0,0,0,0,0,0C25.9,49,25.8,49,25.7,49z"/>
	<path class="st7" d="M1,26.3C1,26.3,1,26.3,1,26.3c0.1,0.1,0.1,0.1,0,0.2C1,26.4,1,26.4,1,26.3z"/>
	<path class="st8" d="M1.1,26C1,26,1,26,1.1,26C1,25.9,1,25.9,1,25.8C1.1,25.9,1.1,25.9,1.1,26z"/>
	<path class="st7" d="M23.7,49c0-0.1,0.1-0.1,0.2-0.1c0.1,0,0.1,0,0,0.1C23.8,49,23.7,49,23.7,49z"/>
	<path class="st9" d="M23.8,49C23.8,49,23.8,49,23.8,49c0.1-0.1,0.1-0.1,0.2-0.1c0,0,0,0,0,0.1C24,49,23.9,49,23.8,49z"/>
	<path class="st9" d="M26,49C26,49,26,49,26,49c0.1-0.1,0.1-0.1,0.2-0.1c0,0,0,0,0,0c0,0,0,0,0,0C26.1,49,26,49,26,49z"/>
	<path class="st7" d="M26.2,49C26.2,49,26.2,49,26.2,49c0.1-0.1,0.1-0.1,0.2,0C26.3,49,26.2,49,26.2,49z"/>
	<path class="st10" d="M11.6,25.8c0.4-0.1,0.8,0,1.2,0c0,0,0,0,0,0c-0.4,0.4-0.3,0.9-0.2,1.3c0.4,2.2,1.3,4.1,2.6,5.8
		c0.2,0.2,0.4,0.5,0.8,0.5c0.1,0.2-0.1,0.3-0.2,0.5c-0.1,0-0.1,0.1-0.2,0.1c-0.1,0-0.2,0.1-0.2,0c-0.2-0.1-0.5,0-0.7,0
		c0,0-0.1,0-0.1,0c-0.2,0-0.5,0-0.7,0c-0.1,0-0.3,0-0.4,0c-0.6-0.5-0.9-1.1-1.3-1.8c-0.8-1.4-1.3-2.9-1.6-4.5c0-0.2-0.1-0.3-0.1-0.5
		c0-0.2,0.2-0.3,0.3-0.4C10.9,26.4,11.3,26.1,11.6,25.8z"/>
	<path class="st10" d="M34.8,16.5c0.1-0.1,0.1-0.2,0.2-0.2c0.2-0.1,0.5,0,0.8,0c0.4,0,0.8,0,1.3,0c0.2,0,0.2,0.2,0.3,0.3
		c1.3,1.9,2.1,3.9,2.5,6.1c0,0.2,0,0.4,0,0.7c-0.3,0.5-0.7,1-1.2,1.3c-0.2,0.1-0.5,0.1-0.7,0c-0.2-0.2-0.1-0.5-0.2-0.7
		c-0.2-2.5-1.2-4.7-2.7-6.7C34.8,17,34.6,16.8,34.8,16.5z"/>
	<path class="st11" d="M12.9,25.7c0-0.4,0-0.8,0-1.2c0.3-0.3,0.7-0.2,1-0.2c0.2,0,0.3,0.1,0.5,0c0,0,0.1,0,0.1,0c0.1,0,0.3,0,0.4,0
		c0,0,0.1,0,0.1,0c0,0,0,0,0.1,0c0.2,0.1,0.5,0,0.7,0c0,0,0.1,0,0.1,0c0,0,0,0,0.1,0c0.2,0.1,0.4,0.1,0.6,0.1c1.8,0,3.5,0,5.3,0
		c0.2,0,0.4,0,0.6,0.1c0.1,0.4,0.2,0.9-0.2,1.3c-0.6,0-1.2,0-1.8,0c-2.1,0-4.2,0-6.3,0c-0.3,0-0.7,0.1-1,0c-0.1,0-0.1,0-0.2,0
		C13,25.9,12.9,25.8,12.9,25.7z"/>
	<path class="st12" d="M37.1,16.3c-0.4,0-0.9,0-1.3,0c-0.1,0-0.1-0.1,0-0.1c0.7,0,1.3,0,2,0c0.5,0.1,0.9,0,1.4,0c0.1,0,0.2,0,0.3,0
		c0.2,0.1,0.3,0.3,0.4,0.4c0.7,1.3,1.3,2.7,1.7,4.2c0,0.2,0.1,0.4,0.1,0.6c-0.2,0.5-0.7,0.9-1.1,1.3c-0.1,0.1-0.2,0.2-0.4,0.1
		c-0.2-0.2-0.2-0.5-0.3-0.8c-0.3-1.6-0.9-3.1-1.7-4.5C37.9,17,37.6,16.5,37.1,16.3z"/>
	<path class="st13" d="M13.1,25.8C13.1,25.8,13.1,25.8,13.1,25.8c0.3,0.1,0.3,0.2,0.3,0.4c0.2,2.5,1.2,4.6,2.8,6.5
		c0.1,0.1,0.2,0.2,0.3,0.3c0,0.3-0.2,0.5-0.5,0.5c-0.3,0.1-0.4,0.1-0.7-0.2c-1.6-1.9-2.6-4.2-3-6.6c0,0,0-0.1,0-0.1
		c0-0.4-0.1-0.7,0.4-0.8c0,0,0.1,0,0.1,0C12.9,25.8,13,25.8,13.1,25.8z"/>
	<path class="st13" d="M34.8,16.5c0.4,0.5,0.7,1,1.1,1.6c1.1,1.7,1.8,3.6,2,5.7c0,0.2,0.2,0.5,0,0.7c-0.2,0.2-0.5,0.2-0.7,0.1
		c-0.2-0.2-0.3-0.5-0.3-0.7c0-0.7-0.2-1.4-0.3-2c-0.2-0.8-0.6-1.6-1-2.4c-0.4-0.6-0.7-1.2-1.2-1.8c-0.1-0.1-0.2-0.3-0.1-0.5
		C34.3,17,34.5,16.7,34.8,16.5z"/>
	<path class="st11" d="M27.6,23.6c-0.3,0-0.4,0.3-0.6,0.5c-0.2,0.2-0.3,0.2-0.5,0c0-0.4,0.1-0.9,0.2-1.3c0.1-0.2,0.3-0.4,0.4-0.5
		c0.3-0.2,0.5-0.5,0.8-0.8c0.1-0.1,0.2-0.2,0.3-0.2c0.2-0.1,0.4-0.3,0.6-0.5c0.2-0.1,0.3-0.3,0.5-0.5c0.1-0.1,0.1-0.1,0.2-0.2
		c0.1-0.1,0.2-0.2,0.3-0.3c0.1-0.1,0.2-0.2,0.3-0.3c0.1,0,0.1-0.1,0.2-0.2c0.1-0.1,0.2-0.2,0.3-0.3c0.1-0.1,0.2-0.2,0.3-0.3
		c0.2-0.1,0.2-0.4,0.5-0.3c0,0.2,0,0.4,0.1,0.6c0.1,0.4,0.1,0.9-0.2,1.3c0,0,0,0.1,0,0.1c0,0.2-0.2,0.2-0.3,0.4
		c-0.1,0.1-0.2,0.2-0.3,0.3c-0.1,0.1-0.2,0.2-0.3,0.3c-0.1,0.1-0.2,0.2-0.3,0.3c-0.1,0.1-0.3,0.3-0.4,0.4c-0.1,0.1-0.2,0.2-0.3,0.3
		c-0.1,0.1-0.2,0.2-0.3,0.3c-0.1,0.1-0.3,0.3-0.4,0.4c-0.1,0.1-0.2,0.2-0.3,0.4C28,23.4,27.9,23.6,27.6,23.6z"/>
	<path class="st11" d="M23.9,24.1c-0.1,0.2-0.2,0-0.3,0c-0.2-0.2-0.3-0.3-0.5-0.5c-0.2,0-0.3-0.1-0.4-0.3c-0.6-0.6-1.2-1.3-1.8-1.9
		c-0.2-0.1-0.2-0.4-0.3-0.5c-0.1-0.2-0.3-0.4-0.4-0.5c-0.8-0.6-1-1.4-1-2.3c0,0,0-0.1,0.1-0.1c0.2,0,0.3,0.1,0.4,0.3
		c0.1,0.2,0.3,0.3,0.5,0.5c0.1,0.1,0.3,0.3,0.4,0.4c0.1,0,0.1,0.1,0.2,0.2c0.1,0.1,0.2,0.3,0.4,0.4c0.1,0.1,0.1,0.1,0.2,0.2
		c0.1,0.1,0.2,0.3,0.3,0.4c0.2,0.1,0.3,0.3,0.5,0.5c0.1,0.2,0.3,0.3,0.4,0.5c0.1,0.1,0.3,0.3,0.4,0.4c0.1,0.1,0.2,0.2,0.3,0.3
		c0.1,0.1,0.2,0.2,0.3,0.3c0.2,0.2,0.3,0.3,0.4,0.6C23.9,23.2,24,23.7,23.9,24.1z"/>
	<path class="st14" d="M39.5,16.3c-0.1,0-0.2,0-0.3,0c-0.1,0-0.1-0.1,0-0.1c1.1,0,2.3,0,3.4,0c0.2,0.1,0.4,0,0.6,0.1
		c0,0,0.1,0,0.1,0.1c0.4,0.8,0.9,1.6,0.9,2.6c-0.2,0.5-0.6,0.8-1,1.1c-0.1,0.1-0.2,0.3-0.5,0.2c-0.2-0.1-0.2-0.3-0.3-0.5
		c-0.3-1-0.7-1.9-1.1-2.8c-0.1-0.3-0.3-0.4-0.6-0.4C40.3,16.5,39.8,16.6,39.5,16.3z"/>
	<path class="st15" d="M15.5,33.9c0.1,0,0.1-0.1,0.2-0.1c0.3,0.5,0.2,1,0,1.5c-0.1,0.1-0.2,0.1-0.3,0.1c-3.8,0-7.6,0-11.4,0
		c-0.4,0-0.4-0.1-0.5-0.5c-0.1-0.7,0.1-1.2,0.7-1.7c0.9-0.8,1.6-1.6,2.4-2.4c1.1-1.1,2.2-2.2,3.3-3.3c0.1-0.1,0.2-0.2,0.4-0.3
		c0,0,0,0.1,0,0.1c0,0.1-0.1,0.2-0.2,0.3c-0.4,0.4-0.9,0.9-1.3,1.3c-0.4,0.4-0.9,0.9-1.3,1.3c-0.4,0.5-0.9,0.9-1.3,1.3
		c-0.3,0.3-0.6,0.7-1,1c-0.3,0.3-0.1,0.6,0,0.9c0.1,0.3,0.3,0.3,0.6,0.3c0.5,0,0.9,0,1.4,0c0.6,0,1.3,0,1.9,0c0.4,0,0.7,0,1.1,0
		c0.2,0,0.4,0.1,0.2,0.4c-0.2,0.1-0.4,0.1-0.7,0.1c-1.8,0-3.6,0-5.4,0c-0.6,0-0.7,0.2-0.5,0.8c0.1,0.3,0.4,0.2,0.6,0.2
		c0.2,0,0.3,0,0.5,0c0.9,0,1.9,0,2.8,0c0.2,0,0.4,0,0.5,0c0.3,0,0.6,0,0.9,0c0.2,0,0.4,0,0.5,0c0.9,0,1.9,0,2.8,0c0.2,0,0.3,0,0.5,0
		c0.6,0,1.2,0,1.9,0c0.3,0,0.5-0.1,0.5-0.5C15.4,34.5,15.4,34.2,15.5,33.9z"/>
	<path class="st16" d="M32.3,19c0.1-0.1,0.2-0.2,0.3-0.3c0.3-0.1,0.4,0.1,0.6,0.3c0.9,1.2,1.5,2.6,1.8,4.1c0.1,0.3,0.1,0.7,0.1,1
		c0,0.2,0,0.3-0.1,0.5c-0.2,0.1-0.4,0.1-0.6,0c-0.2-0.1-0.2-0.3-0.2-0.4c-0.2-1.6-0.7-3.1-1.7-4.5C32.4,19.5,32.2,19.3,32.3,19z"/>
	<path class="st17" d="M34.1,17.2c0,0.2,0.3,0.4,0.4,0.5c0.7,1,1.3,2,1.7,3c0.3,0.7,0.5,1.5,0.6,2.3c0.1,0.4-0.1,0.9,0.3,1.3
		c0,0-0.1,0.1-0.1,0.2c0,0.1-0.1,0.1-0.2,0.1c-0.4-0.1-0.5-0.3-0.5-0.7c-0.2-1.7-0.7-3.3-1.6-4.8c-0.3-0.4-0.5-0.8-0.8-1.2
		c-0.1-0.1-0.1-0.3-0.1-0.4C33.8,17.4,34,17.3,34.1,17.2z"/>
	<path class="st18" d="M32.3,19c0.5,0.7,1,1.4,1.3,2.2c0.5,1,0.8,2.1,0.8,3.3c-0.2,0.2-0.4,0.2-0.7,0.1c0,0-0.1-0.1-0.1-0.1
		c0.2-0.8-0.1-1.5-0.3-2.2c-0.3-0.8-0.7-1.6-1.2-2.3c-0.1-0.2-0.3-0.3-0.3-0.6C32,19.3,32.1,19.1,32.3,19z"/>
	<path class="st19" d="M16.7,20.7c0.4-0.5,1-1,1.4-1.5c0.2-0.3,0.3,0.1,0.4,0.2c-0.4,0.6-0.9,1.2-1.2,1.8c-0.4,0.8-0.7,1.7-0.8,2.6
		c-0.1,0.3,0.2,0.5,0,0.7c-0.2,0-0.4,0-0.5,0l0,0c-0.3-0.1-0.3-0.3-0.3-0.5c0.1-1.1,0.3-2.1,1-3.1C16.7,20.8,16.7,20.8,16.7,20.7z"
		/>
	<path class="st20" d="M35,24.5c-0.1-2.1-0.8-4-2.1-5.6c-0.1-0.1-0.2-0.2-0.3-0.2c0.1-0.2,0.3-0.3,0.4-0.4c0.4,0.3,0.7,0.7,0.9,1.1
		c0.9,1.4,1.4,2.8,1.6,4.4c0,0.2,0.2,0.5-0.1,0.7C35.3,24.7,35.1,24.7,35,24.5z"/>
	<path class="st21" d="M16.6,24.5c-0.2-0.1-0.3-0.3-0.2-0.5c0.2-1.6,0.8-3.1,1.9-4.4c0.1-0.1,0.2-0.2,0.3-0.2c0.1,0,0.2,0.1,0.3,0.2
		c-0.1,0.4-0.3,0.7-0.5,1c-0.5,0.6-0.7,1.2-0.9,1.9c-0.1,0.3-0.2,0.7-0.3,1c-0.1,0.3-0.2,0.6,0,0.9c0,0.1,0.1,0.2-0.1,0.2
		C16.9,24.5,16.7,24.6,16.6,24.5z"/>
	<path class="st22" d="M33.8,17.5c0.4,0.4,0.7,0.9,1,1.4c0.4,0.6,0.7,1.3,1,2c0.3,0.7,0.4,1.4,0.6,2.1c0.1,0.3,0.2,0.5,0.1,0.8
		c-0.1,0.3,0.2,0.4,0.4,0.6c-0.3,0.3-0.6,0.2-0.9,0.1c0,0-0.1-0.1-0.1-0.1c0.2-0.4,0.1-0.8,0-1.2c-0.3-1.8-0.9-3.5-2.1-4.9
		c-0.1-0.2-0.3-0.3-0.3-0.5C33.5,17.7,33.6,17.6,33.8,17.5z"/>
	<path class="st23" d="M17.1,24.5c-0.3-0.2-0.4-0.4-0.3-0.7c0.2-0.7,0.3-1.4,0.6-2c0.2-0.3,0.2-0.7,0.6-1c0.3-0.2,0.5-0.6,0.6-0.9
		c0-0.1,0.1-0.1,0.2-0.2c0,0,0,0,0,0c0.1,0.1,0.1,0.2,0.3,0.2c0.1,0.1,0.1,0.1,0.2,0.2c0,0.2-0.1,0.3-0.2,0.5
		c-0.7,0.9-1.1,2-1.4,3.1c-0.1,0.3-0.1,0.6,0.1,0.8c0,0,0,0.1-0.1,0.1C17.5,24.5,17.3,24.6,17.1,24.5z"/>
	<path class="st24" d="M31.2,18.3c-0.2,0.1-0.2,0.3-0.4,0.4c-0.3-0.5-0.8-0.8-1.2-1c-1-0.6-2-1-3.2-1.2c-0.3-0.1-0.4,0-0.3,0.3
		c0,0.1,0,0.2,0,0.3c0,0.1,0,0.3,0,0.4c0,0.3,0,0.6,0,0.9c0,0.3,0,0.5,0,0.8c0,0.2-0.1,0.5,0,0.7c0,0.1,0,0.1,0,0.2
		c0,0.2,0,0.5,0,0.7c0,0.2,0,0.4,0,0.6c0,0.3,0.2,0.7-0.1,1c-0.1-0.1,0-0.3,0-0.4c0-1.8,0-3.5,0-5.3c0-0.2,0-0.3,0-0.5
		c0-0.3,0.1-0.4,0.4-0.3c1.8,0.3,3.5,1,4.9,2.2C31.2,18.2,31.2,18.3,31.2,18.3z"/>
	<path class="st25" d="M19.4,18.4c-0.1-0.1-0.2-0.2-0.2-0.3c1.5-1.2,3.1-1.9,5-2.1c0.3,0,0.4,0.1,0.4,0.4c0,0.2,0,0.4,0,0.7
		c0,0-0.1,0-0.1,0c-0.1-0.4-0.4-0.4-0.8-0.3c-1.3,0.2-2.6,0.7-3.7,1.5C19.9,18.3,19.7,18.5,19.4,18.4z"/>
	<path class="st26" d="M35.8,24.4C35.8,24.4,35.8,24.5,35.8,24.4c-0.1,0.2-0.2,0.2-0.3,0.1c-0.1-0.8-0.2-1.6-0.5-2.4
		c-0.4-1.2-0.9-2.3-1.7-3.3c-0.1-0.2-0.3-0.3-0.3-0.5c0.1-0.1,0.1-0.2,0.2-0.3c0.2,0,0.3,0.1,0.4,0.2c1.3,1.7,2.1,3.6,2.3,5.7
		C35.9,24.1,36,24.3,35.8,24.4z"/>
	<path class="st27" d="M19.4,20.3c0.2,0.2,0.5,0.3,0.6,0.6c-0.7,0.5-1,1.2-1.2,1.9c-0.2,0.5-0.4,1.1-0.3,1.7c0,0,0,0.1-0.1,0.1
		c-0.2,0-0.3,0-0.5,0c-0.3-0.1-0.4-0.3-0.3-0.5c0.2-1.3,0.7-2.6,1.5-3.6C19.3,20.3,19.3,20.3,19.4,20.3z"/>
	<path class="st28" d="M35.8,24.4c-0.1-0.8-0.2-1.6-0.4-2.4c-0.4-1.4-1.1-2.7-2-3.8c0-0.1-0.1-0.1-0.1-0.2c0-0.1,0.1-0.1,0.2-0.2
		c0.3,0.1,0.4,0.4,0.6,0.7c0.7,0.9,1.2,1.9,1.5,3c0.2,0.7,0.5,1.4,0.4,2.1c0,0.1,0.1,0.2,0.1,0.3C36.2,24.1,36.2,24.4,35.8,24.4z"/>
	<path class="st29" d="M42.8,20.2c0.1-0.1,0.2-0.2,0.3-0.2c0.2,0.1,0.1,0.2,0,0.3c-0.1,0.2-0.3,0.3-0.4,0.5c-0.3,0.3-0.6,0.7-1,1
		c-0.1,0.1-0.2,0.3-0.2,0.5c0,0.3,0,0.6-0.1,0.9c0,0,0,0.1,0,0.1c-0.4,0.4-0.9,0.8-1.3,1.2c-0.2,0-0.2-0.1-0.2-0.2
		c0-0.5-0.2-1.1,0.4-1.4c0,0,0.1-0.1,0.1-0.1c0.4-0.4,0.7-0.8,1.1-1.2C41.8,21,42.2,20.5,42.8,20.2z"/>
	<path class="st16" d="M16.7,20.7c0.2,0.1,0,0.3,0,0.4c-0.5,0.9-0.7,1.9-0.8,2.9c0,0.2,0,0.4,0.2,0.6c0,0,0,0,0,0l0,0
		c-0.3,0.1-0.5,0-0.8,0l0,0c-0.3-0.3-0.1-0.7,0-1.1c0.1-0.6,0.2-1.2,0.5-1.7C16,21.4,16.3,21,16.7,20.7z"/>
	<path class="st30" d="M19.4,20.3c-0.8,1.1-1.4,2.2-1.6,3.6c0,0.2-0.1,0.5,0.1,0.6c-0.1,0.1-0.2,0.1-0.2,0c-0.4,0-0.4-0.3-0.3-0.6
		c0.2-1.3,0.7-2.6,1.6-3.7c0.1-0.1,0.2-0.1,0.2-0.2C19.3,20.1,19.4,20.2,19.4,20.3z"/>
	<path class="st31" d="M31.4,19.9c0-0.1,0.1-0.1,0.2-0.1c0.3-0.1,0.5,0.1,0.6,0.3c0.7,1,1.1,2.1,1.4,3.3c0.1,0.2,0.1,0.5,0.1,0.7
		c0,0.4-0.1,0.5-0.5,0.4c-0.2-0.1-0.2-0.3-0.2-0.5c-0.2-1.3-0.6-2.4-1.3-3.4C31.4,20.4,31.2,20.2,31.4,19.9z"/>
	<path class="st21" d="M33.1,24.4c0.3,0,0.4-0.1,0.4-0.4c-0.2-1.4-0.7-2.7-1.5-3.8c-0.1-0.2-0.2-0.3-0.5-0.4
		c0.1-0.1,0.2-0.2,0.3-0.3c1.1,1.3,1.8,2.9,2,4.6c0,0.2-0.1,0.4-0.2,0.5c-0.2,0.2-0.3,0.2-0.5,0.1C33,24.5,33,24.4,33.1,24.4z"/>
	<path class="st32" d="M42.6,20.6c0.1-0.3,0.5-0.3,0.5-0.7c0.3-0.3,0.6-0.7,0.9-1c0.1-0.1,0.1-0.3,0.3-0.2c0.1,0.1,0,0.2-0.1,0.3
		c-0.3,0.3-0.3,0.6-0.3,1c0,0.1-0.1,0.3,0,0.4c-0.4,0.5-0.8,0.9-1.3,1.3c-0.3-0.2-0.3-0.5-0.2-0.9C42.5,20.8,42.6,20.7,42.6,20.6z"
		/>
	<path class="st33" d="M20.1,20.9c0.1,0.1,0.2,0.2,0.3,0.3c0.1,0.1,0.2,0.1,0.2,0.3c-0.8,0.8-1.2,1.8-1.2,2.9c0,0,0,0.1,0,0.1
		c-0.1,0-0.2,0-0.3,0c-0.5-0.1-0.6-0.2-0.5-0.7c0.2-0.9,0.5-1.8,1.1-2.6C19.8,21.1,19.9,20.9,20.1,20.9z"/>
	<path class="st34" d="M33.1,24.4C33.1,24.4,33.1,24.5,33.1,24.4c-0.2,0.2-0.3,0.2-0.5,0.1c-0.2-0.2-0.1-0.5-0.2-0.8
		c-0.2-1.1-0.6-2.2-1.3-3.1c-0.1-0.1-0.2-0.3-0.1-0.4c0,0,0-0.1,0-0.1c0.1,0,0.2-0.1,0.3-0.2c0.1,0.4,0.4,0.6,0.6,1
		C32.6,22,33,23.2,33.1,24.4z"/>
	<path class="st35" d="M42.6,20.6c0,0.4-0.1,0.8,0.1,1.2c-0.4,0.4-0.8,0.9-1.2,1.2c-0.1-0.6-0.3-1.2,0.3-1.7
		C42.1,21.2,42.3,20.9,42.6,20.6z"/>
	<path class="st36" d="M43.1,16.3c-0.2,0-0.4,0.1-0.6-0.1c1.4,0,2.8,0,4.1,0c0.1,0,0.1,0,0.1,0.1c0,0.5,0.2,1,0,1.4
		c-0.3-0.3-0.1-0.7-0.3-1c-0.2,0.2-0.4,0.4-0.6,0.6c-0.1,0.1-0.3,0.3-0.5,0.2c-0.3-0.1-0.3-0.4-0.4-0.6c-0.1-0.4-0.3-0.5-0.7-0.5
		c-0.3,0-0.5,0-0.8,0C43.4,16.5,43.3,16.4,43.1,16.3z"/>
	<path class="st37" d="M20.1,20.9c-0.7,0.9-1.1,1.8-1.4,2.9c-0.1,0.4,0,0.6,0.4,0.6c-0.2,0.1-0.4,0.1-0.6,0
		c-0.3-0.1-0.2-0.4-0.2-0.6c0.2-1,0.6-1.9,1.2-2.8C19.7,20.8,19.8,20.8,20.1,20.9C20.1,20.9,20.1,20.9,20.1,20.9z"/>
	<path class="st38" d="M45.5,19c-0.3,0.3-0.6,0.6-0.9,0.9c-0.3-0.1-0.2-0.3-0.2-0.5c0-0.2,0-0.5,0.1-0.7c0-0.4,0.5-1,0.9-1.1
		c0.1,0,0.2,0,0.2,0.1C45.7,18.2,45.6,18.6,45.5,19z"/>
	<path class="st39" d="M45.9,17.2c0.2-0.3,0.5-0.6,0.8-0.9c0,0.5,0.1,1,0.1,1.4c-0.2,0.3-0.5,0.5-0.8,0.7c-0.3,0.1-0.3-0.1-0.3-0.3
		C45.7,17.8,45.7,17.5,45.9,17.2z"/>
	<path class="st26" d="M14.1,23.3c0.2-0.3,0.5-0.6,0.8-0.8c0.2,0,0.3,0.2,0.2,0.3c-0.2,0.5,0,1.2-0.3,1.7c-0.1,0.1-0.1,0.1-0.2,0
		l0,0c-0.7,0-0.8-0.2-0.6-0.8C14,23.5,14,23.4,14.1,23.3z"/>
	<path class="st40" d="M20.6,21.4c-0.1-0.1-0.1-0.2-0.2-0.2c0.2,0,0.1-0.2,0.1-0.3c0.6,0.5,1,1,1.5,1.5c0.4,0.4,0.7,0.7,1,1.1
		c-0.2,0.2-0.1,0.5-0.1,0.7c0,0.3,0.1,0.6-0.1,0.8c-0.2-0.1-0.1-0.4-0.1-0.5c0-0.3,0-0.5-0.1-0.8c-0.1-0.2-0.2-0.3-0.4-0.5
		c-0.1-0.2-0.3-0.3-0.4-0.4c-0.1-0.2-0.3-0.3-0.5-0.5c-0.1-0.1-0.2-0.2-0.3-0.3c-0.1-0.1-0.2-0.2-0.3-0.3
		C20.8,21.7,20.6,21.6,20.6,21.4z"/>
	<path class="st20" d="M14.7,24.4c0.1-0.5,0-1,0.2-1.5c0.1-0.2,0-0.3-0.1-0.4c0.2-0.3,0.5-0.5,0.8-0.8c-0.1,0.6-0.2,1.1-0.4,1.7
		c-0.1,0.4-0.1,0.7-0.1,1.1c0,0,0,0,0,0l0,0C15,24.5,14.8,24.5,14.7,24.4z"/>
	<path class="st41" d="M44.5,18.7c0,0.4-0.1,0.8,0.1,1.2c-0.1,0.3-0.4,0.4-0.6,0.6c-0.3-0.4-0.2-1.1,0.1-1.4
		c0.1-0.1,0.2-0.2,0.3-0.3C44.4,18.7,44.4,18.7,44.5,18.7z"/>
	<path class="st42" d="M14.1,23.3c0.1,0.1,0.1,0.3,0.1,0.4c-0.2,0.6-0.2,0.6,0.4,0.8c-0.5,0.2-0.9,0-1.4,0c-0.1,0-0.2,0-0.3,0
		c-0.1-0.1,0-0.2,0-0.2C13.3,24,13.7,23.7,14.1,23.3z"/>
	<path class="st43" d="M45.9,17.2c0,0.3,0,0.6,0,0.9c0,0.1,0,0.3,0.2,0.3c-0.1,0.2-0.3,0.4-0.6,0.6c-0.2-0.4,0-0.9-0.1-1.3
		c-0.1-0.2,0.1-0.2,0.2-0.2C45.7,17.4,45.8,17.3,45.9,17.2z"/>
	<path class="st44" d="M10.2,27.2C10.2,27.2,10.2,27.2,10.2,27.2c0.4-0.5,0.9-1,1.4-1.4c-0.3,0.5-0.9,0.8-1.2,1.3
		C10.3,27.2,10.3,27.3,10.2,27.2z"/>
	<path class="st44" d="M39.2,16.2C39.2,16.3,39.2,16.3,39.2,16.2c-0.5,0-0.9,0.2-1.4,0C38.2,16.2,38.7,16.2,39.2,16.2z"/>
	<path class="st45" d="M35.8,16.2C35.8,16.3,35.8,16.3,35.8,16.2c-0.3,0.1-0.5,0.1-0.8,0.1C35.2,16.1,35.5,16.2,35.8,16.2z"/>
	<path class="st21" d="M19,19.9c-0.2,0-0.2-0.1-0.3-0.2C18.9,19.7,19,19.8,19,19.9z"/>
	<path class="st10" d="M13.1,25.8c-0.1,0-0.2,0.1-0.3,0c0,0,0,0,0.1-0.1C13,25.8,13,25.8,13.1,25.8z"/>
	<path class="st11" d="M32.6,24.5c0.1,0,0.3,0,0.4,0c0.2,0,0.4,0,0.6,0c0.2,0,0.5,0,0.7,0c0.2,0,0.4,0,0.7,0c0.2,0,0.3,0,0.5,0
		c0.1,0,0.2,0,0.3,0c0.3,0,0.7,0,1,0c0.1,0,0.1,0,0.2,0c0.3,0,0.6,0,0.8,0c0.2,0,0.5,0,0.7,0c0.3,0.4,0.2,0.9,0.2,1.3
		c-0.5,0.2-1,0.1-1.5,0.1c-0.5,0-1-0.1-1.6-0.1c-2.5,0-4.9,0-7.4,0c-0.5,0-0.6-0.1-0.6-0.6c0-0.6,0-0.7,0.5-0.9c0.1,0,0.3,0,0.4,0
		c0.1,0,0.3,0,0.4,0c0.1,0,0.2,0,0.3,0c0.1,0,0.2,0,0.3,0c0.2,0,0.4,0,0.6,0c0.2,0.1,0.3,0,0.5,0c0.2,0.1,0.4,0,0.6,0
		c0.1,0,0.1,0,0.2,0c0.2,0.1,0.4,0,0.6,0C32.3,24.4,32.5,24.4,32.6,24.5z"/>
	<path class="st11" d="M15.7,35.4c0-0.5,0-1,0-1.5c0.1-0.1,0.2-0.2,0.3-0.3c0.2-0.1,0.4-0.3,0.5-0.5c0-0.2,0.2-0.3,0.3-0.4
		c0.1-0.1,0.3-0.3,0.4-0.4c0.1-0.1,0.3-0.3,0.4-0.4c0.1-0.1,0.2-0.2,0.3-0.3c0.1-0.1,0.3-0.3,0.4-0.4c0.1-0.1,0.3-0.2,0.4-0.4
		c0.1-0.1,0.2-0.2,0.2-0.3c0-0.1,0.1-0.1,0.1-0.2c0.2-0.1,0.4-0.3,0.5-0.5c0.1-0.1,0.1-0.1,0.2-0.2c0.1-0.1,0.3-0.3,0.4-0.4
		c0.1-0.1,0.2-0.2,0.3-0.3c0.1-0.1,0.2-0.2,0.3-0.3c0.1-0.1,0.2-0.2,0.3-0.3c0.1-0.1,0.2-0.2,0.3-0.3c0.1-0.1,0.2-0.2,0.3-0.3
		c0.1-0.1,0.2-0.2,0.2-0.3c0.2-0.2,0.4-0.3,0.6-0.6c0.1-0.1,0.1-0.2,0.2-0.1c0,0.4,0.1,0.8,0.1,1.2c0.1,0.2,0,0.4-0.2,0.6
		c-1.1,1.1-2.3,2.3-3.4,3.4C19.3,31.9,19.2,32,19,32c-1,1-2,2-3,3C15.9,35.2,15.8,35.2,15.7,35.4z"/>
	<path class="st11" d="M32.3,32.3c-0.2,0.3-0.3,0-0.4-0.1c-1.1-1-2.1-2.1-3.2-3.1c-0.2-0.2-0.4-0.5-0.6-0.6
		c-0.8-0.5-0.7-1.3-0.6-2.1c0.3,0.1,0.5,0.4,0.7,0.6c0.1,0.1,0.2,0.2,0.3,0.3c0,0,0.1,0.1,0.1,0.1c0.1,0.2,0.3,0.3,0.5,0.5
		c0.1,0.1,0.3,0.3,0.4,0.4c0.1,0.1,0.2,0.2,0.3,0.3c0.1,0.1,0.3,0.2,0.4,0.4c0.1,0.1,0.1,0.1,0.2,0.2c0.1,0.2,0.3,0.2,0.4,0.4
		c0.1,0.1,0.2,0.2,0.3,0.3c0.1,0.1,0.2,0.2,0.3,0.3c0.1,0.1,0.1,0.1,0.2,0.2c0.1,0.1,0.2,0.2,0.3,0.3c0.1,0.2,0.3,0.3,0.5,0.5
		C32.5,31.4,32.4,31.9,32.3,32.3z"/>
	<path class="st46" d="M29.4,30.2c0.2,0.1,0.3,0.2,0.4,0.4c0.2,0.3,0,0.5-0.2,0.6c-0.8,0.6-1.8,1-2.8,1.3c-0.2,0-0.4,0.1-0.6,0.1
		c-0.2,0.1-0.3,0-0.4-0.2c0-0.3,0-0.5,0-0.8c0,0,0-0.1,0.1-0.1c1.1,0,2.1-0.5,3-1.1C29.1,30.3,29.2,30.2,29.4,30.2z"/>
	<path class="st34" d="M24.5,17C24.5,17,24.6,17,24.5,17c0.1,0.3,0.1,0.6,0.1,0.8c0,0-0.1,0-0.1,0c-0.2-0.1-0.4-0.1-0.7-0.1
		c-0.9,0.2-1.7,0.5-2.5,0.9c-0.3,0.2-0.6,0.5-0.9,0.7c-0.2-0.1-0.3-0.3-0.4-0.5c-0.1-0.2,0.1-0.3,0.2-0.4c1.2-0.9,2.5-1.4,3.9-1.6
		C24.2,16.9,24.4,16.9,24.5,17z"/>
	<path class="st47" d="M30.8,31.6c0.1,0.1,0.4,0.2,0.3,0.5c-0.2,0.4-0.5,0.5-0.9,0.8c-0.2,0.2-0.4,0.3-0.7,0.4
		c-0.1,0.1-0.2,0.1-0.3,0.2c-0.1,0-0.2,0.1-0.3,0.1c0,0-0.1,0-0.1,0c-0.1,0-0.3,0.1-0.4,0.2c-0.2,0-0.4,0.2-0.6,0.2
		c-0.1,0-0.2,0.1-0.3,0.1c-0.2,0-0.5,0.1-0.7,0.1c0,0-0.1,0-0.1,0c-0.1,0-0.3,0-0.4,0.1c-0.1,0-0.1,0-0.2,0c-0.4,0-0.3-0.3-0.3-0.5
		c0.1-0.2,0.2-0.2,0.4-0.2c1.6-0.3,3-0.8,4.2-1.8C30.6,31.7,30.7,31.6,30.8,31.6z"/>
	<path class="st48" d="M25.9,32.5c0.3,0,0.7-0.1,1-0.2c1-0.2,1.9-0.7,2.7-1.3c0.2-0.1,0.2-0.2,0.2-0.4c0.2,0.1,0.4,0.3,0.5,0.5
		c0,0.2-0.1,0.3-0.2,0.4c-1.1,0.8-2.2,1.3-3.5,1.6c-0.2,0-0.5,0.1-0.6-0.2C25.9,32.8,25.8,32.6,25.9,32.5z"/>
	<path class="st31" d="M25.9,32.9c0.3,0.2,0.5,0.1,0.8,0c1.4-0.3,2.6-0.9,3.6-1.8c0,0,0.1,0.1,0.1,0.1c0.3,0.3,0.1,0.5-0.1,0.7
		c-0.5,0.4-1.1,0.8-1.8,1c-0.6,0.3-1.3,0.5-2,0.6c-0.3,0-0.5,0.1-0.6-0.3C25.9,33.2,25.8,33,25.9,32.9z"/>
	<path class="st49" d="M29.4,30.2c-0.3,0.5-0.8,0.7-1.2,0.9c-0.6,0.3-1.2,0.5-1.9,0.6c-0.1,0-0.2,0.1-0.3-0.1
		c-0.2-0.3,0-0.5,0.2-0.6c0.9-0.2,1.7-0.6,2.6-1.1c0.1-0.1,0.2-0.1,0.3,0C29.3,30,29.3,30.1,29.4,30.2z"/>
	<path class="st50" d="M33.8,30.8c-0.4,0.4-0.7,0.8-1.2,1.2c-0.2,0-0.2-0.2-0.2-0.4c0-0.3,0-0.6,0-0.9c0-0.2,0.1-0.3,0.2-0.4
		c0.1-0.1,0.2-0.2,0.2-0.3c0.1-0.1,0.2-0.2,0.3-0.3c0.2-0.1,0.3-0.5,0.7-0.3C34,29.9,34,30.4,33.8,30.8z"/>
	<path class="st21" d="M25.9,33.3c0.1,0.2,0.3,0.2,0.5,0.1c1.3-0.3,2.6-0.7,3.7-1.6c0.2-0.2,0.4-0.3,0.3-0.6
		c0.2,0.1,0.3,0.2,0.4,0.4c-0.3,0.4-0.7,0.7-1.1,0.9c-1.2,0.7-2.4,1.2-3.7,1.2C25.8,33.6,25.8,33.4,25.9,33.3z"/>
	<path class="st51" d="M21.9,20.9c-0.2-0.1-0.3-0.3-0.5-0.4c-0.1-0.3,0.2-0.4,0.4-0.5c0.6-0.4,1.3-0.7,2-0.8
		c0.6-0.1,0.6-0.1,0.7,0.5c0,0.3,0,0.6,0,0.9c-0.1,0-0.1,0-0.2-0.1c-0.2-0.6-0.2-0.6-0.8-0.4C23,20.2,22.4,20.4,21.9,20.9z"/>
	<path class="st33" d="M24.6,19.5c-0.1-0.4-0.3-0.4-0.6-0.3c-0.9,0.2-1.8,0.5-2.5,1.2c-0.1-0.1-0.3-0.2-0.3-0.4
		c-0.1-0.3,0.2-0.4,0.3-0.5c0.8-0.5,1.7-0.8,2.6-1c0.2,0,0.3-0.1,0.5-0.1c0,0,0.1,0,0.1,0C24.6,18.9,24.6,19.2,24.6,19.5z"/>
	<path class="st51" d="M28.5,29.3c0.2,0,0.2,0.2,0.3,0.3c0,0.2-0.1,0.3-0.2,0.4c-0.7,0.4-1.4,0.8-2.1,1c-0.2,0-0.4,0.1-0.6-0.2
		c0-0.2,0-0.4,0-0.6c0,0,0-0.1,0-0.1c0.8,0.2,1.4-0.3,2.1-0.6C28.1,29.4,28.3,29.3,28.5,29.3z"/>
	<path class="st52" d="M28.3,25.7c2.8,0,5.7,0,8.5,0c0.2,0,0.4-0.1,0.4,0.2c0,0,0,0-0.1,0.1c-0.1,0.2-0.2,0.4-0.4,0.5
		c-0.2,0.1-0.3,0.5-0.7,0.5c-0.2-0.1-0.3-0.3-0.3-0.5C36,26,35.8,26,35.4,26c-0.2,0.1-0.4,0-0.6,0c-0.2,0-0.3,0-0.5,0
		c-0.2,0-0.4,0-0.6,0c-0.2,0-0.4-0.1-0.6,0c-0.1,0-0.2,0-0.3,0c-0.1,0-0.2,0-0.3,0c-0.1,0-0.2,0-0.3,0c-0.2,0.1-0.4,0-0.5,0
		c-0.1,0-0.2,0-0.3,0c-0.2,0-0.3,0-0.5,0c-0.2,0-0.4,0-0.6,0c-0.2,0.1-0.4,0-0.6,0c-0.1,0-0.2,0-0.3,0c-0.1,0-0.2,0-0.3,0
		c-0.2,0-0.4,0-0.6,0c-0.1,0-0.2,0-0.3-0.1C28.3,25.8,28.3,25.8,28.3,25.7z"/>
	<path class="st53" d="M24.5,35.6c-0.1,0-0.3,0.1-0.4,0c-0.1-0.1-0.3,0-0.4-0.1l0,0c-0.2-0.1-0.3,0-0.5-0.1l0,0
		c-0.1-0.1-0.3-0.1-0.4-0.1c-0.2,0-0.3-0.1-0.5-0.2c-0.1-0.1-0.3-0.1-0.4-0.2c-0.1,0-0.1,0-0.1-0.1c0-0.1,0.1-0.1,0.1-0.1
		c0.1,0,0.2,0,0.2,0c0.7,0,1.4,0,2.1,0c0.2,0,0.4,0,0.4,0.3C24.6,35.2,24.7,35.4,24.5,35.6z"/>
	<path class="st54" d="M38.7,25.8c-0.2-0.4-0.2-0.9-0.2-1.3c0.4-0.4,0.7-0.8,1.1-1.1c0.1-0.1,0.1-0.2,0.3-0.2c0.1,0.2,0,0.3-0.1,0.4
		c-0.2,0.2-0.3,0.5-0.3,0.8c0,0.2,0,0.5-0.1,0.7C39.3,25.4,39,25.6,38.7,25.8z"/>
	<path class="st55" d="M24.6,18.5C24.6,18.5,24.5,18.5,24.6,18.5c-0.3-0.1-0.5-0.1-0.8,0c-1.1,0.2-2,0.7-2.9,1.4
		c-0.2-0.1-0.3-0.2-0.4-0.4c0.7-0.7,1.6-1.1,2.5-1.4c0.5-0.2,1-0.2,1.4-0.3c0,0,0.1,0,0.1,0C24.6,18,24.6,18.3,24.6,18.5z"/>
	<path class="st56" d="M28.5,29.3c-0.7,0.5-1.5,0.8-2.3,1.1c-0.1,0.1-0.1,0-0.3-0.3c-0.1,0-0.1-0.1-0.1-0.2c0.1-0.2,0.3-0.2,0.5-0.2
		c0.6-0.2,1.2-0.4,1.6-0.8C28.2,28.9,28.3,29.1,28.5,29.3z"/>
	<path class="st33" d="M25.9,30.8c0.5,0.2,0.9-0.1,1.3-0.2c0.6-0.2,1.1-0.5,1.6-0.9c0.1,0.1,0.3,0.2,0.3,0.3
		c-0.4,0.2-0.8,0.4-1.1,0.6c-0.5,0.3-1.1,0.5-1.7,0.6c-0.3,0-0.3,0.2-0.3,0.4c0,0,0,0-0.1,0C25.8,31.3,25.8,31.1,25.9,30.8z"/>
	<path class="st57" d="M21,34.7c-0.1,0-0.2-0.1-0.3-0.2c-0.2-0.2-0.1-0.3,0.1-0.4c0,0,0.1,0,0.1,0c1.1,0,2.2-0.1,3.4,0.1
		c0.2,0,0.4,0.1,0.3,0.4c-0.1,0.1-0.3,0.1-0.5,0.1c-0.8,0-1.7,0-2.5,0C21.4,34.8,21.2,34.7,21,34.7z"/>
	<path class="st58" d="M27.6,33.9c0.1,0,0.2-0.1,0.2-0.1c0.3,0.1,0.6,0,1,0c0.4,0,0.8,0,1.2,0c0.1,0,0.3,0,0.4,0.1
		c-0.1,0.1-0.3,0.3-0.5,0.3c-0.2,0.1-0.4,0.1-0.6,0.1c-0.9,0-1.8,0-2.8,0c-0.1,0-0.3,0-0.4-0.1c-0.1-0.2,0.1-0.1,0.2-0.2
		c0.1,0,0.1,0,0.2,0c0.1-0.1,0.3,0,0.4-0.1l0,0C27.1,34,27.3,34,27.6,33.9z"/>
	<path class="st59" d="M23.9,24.1c-0.3-0.4-0.2-0.9-0.3-1.3c0.3-0.2,0.5-0.4,0.9-0.2c0,0.2,0,0.4,0,0.6
		C24.6,23.8,24.6,23.8,23.9,24.1z"/>
	<path class="st60" d="M36.2,26.9c0.2-0.2,0.4-0.3,0.6-0.5c0.2,0.5,0.1,0.9,0,1.4c-0.2,0.3-0.5,0.5-0.7,0.7c-0.2,0-0.2-0.2-0.3-0.4
		c0-0.3,0-0.6,0-0.9C35.8,27.1,36,27,36.2,26.9z"/>
	<path class="st61" d="M23.2,28.1c0.1-0.1,0.2-0.2,0.3-0.3c0.4-0.1,0.7,0.1,1,0.3c0.2,0.1,0.1,0.3,0.1,0.5c0.1,0.6-0.1,0.7-0.7,0.5
		c-0.4-0.1-0.8-0.2-1-0.6C22.8,28.2,23,28.1,23.2,28.1z"/>
	<path class="st62" d="M28.6,24.5c-0.1,0-0.2,0-0.3,0c0,0-0.1,0-0.2,0c-0.5,0-0.5,0-0.6-0.5c-0.1-0.2,0.1-0.3,0.1-0.4
		c0.2-0.1,0.3-0.3,0.5-0.4c0.1-0.1,0.2,0,0.3,0C28.7,23.4,28.9,24.1,28.6,24.5z"/>
	<path class="st63" d="M29.6,34.5c-0.1,0.1-0.3,0.2-0.4,0.2C28.7,35,28.2,35,27.7,35c-0.6,0-1.1,0.1-1.7,0c-0.1,0-0.1-0.1-0.1-0.1
		c0,0,0,0,0-0.1c0-0.1,0-0.1,0-0.2c0.1-0.1,0.2-0.2,0.3-0.2c1.1,0,2.1,0,3.2,0C29.5,34.4,29.5,34.5,29.6,34.5z"/>
	<path class="st64" d="M33.8,30.8c0-0.4,0.1-0.9-0.1-1.3c0-0.4,0.4-0.8,0.8-0.9c0,0,0.1,0.1,0.1,0.1c0.1,0.5,0.1,0.9-0.1,1.3
		C34.3,30.3,34.1,30.6,33.8,30.8z"/>
	<path class="st65" d="M27.4,28.2c0.2,0.1,0.3,0.2,0.4,0.4c0,0.2-0.1,0.3-0.3,0.4c-0.3,0.2-0.6,0.4-1,0.5c-0.5,0.2-0.6,0.1-0.7-0.4
		c0-0.2,0-0.3,0-0.5c0,0,0-0.1,0.1-0.1c0.2,0.2,0.4,0.2,0.6,0.1C26.9,28.5,27.1,28.3,27.4,28.2z"/>
	<path class="st66" d="M24.5,20.4C24.5,20.4,24.6,20.4,24.5,20.4c0.1,0.4,0.1,0.8,0.1,1.2c0,0-0.1,0-0.1,0c0,0-0.1-0.1-0.1-0.2
		c0-0.2-0.2-0.3-0.4-0.2c-0.4,0.1-0.8,0.4-1.2,0.6c-0.2-0.1-0.3-0.2-0.4-0.4c0-0.1,0-0.2,0.1-0.3C23.1,20.6,23.7,20.4,24.5,20.4z"/>
	<path class="st67" d="M23.2,28.1c-0.1,0.1-0.2,0.2-0.3,0.3c0,0.2-0.1,0.3-0.3,0.4c-0.2,0.2-0.4,0.4-0.6,0.6
		c-0.1,0.1-0.2,0.2-0.3,0.3c-0.1,0.1-0.2,0.2-0.3,0.3c-0.1,0.1-0.3,0.3-0.4,0.4c-0.1,0.1-0.2,0.2-0.3,0.3c-0.1,0.1-0.2,0.2-0.3,0.3
		c-0.1,0.1-0.1,0.1-0.2,0.2c-0.1,0.1-0.3,0.3-0.4,0.4c-0.1,0.1-0.3,0.3-0.3,0.5c0,0.2,0.1,0.4-0.1,0.5c-0.2-0.2,0-0.5-0.2-0.8
		c1.2-1.2,2.5-2.5,3.7-3.7c0.2-0.2,0.3-0.3,0.3-0.6C23.1,27.8,23.1,28,23.2,28.1z"/>
	<path class="st68" d="M20.2,34.2c-0.3-0.1-0.5-0.3-0.7-0.5c0,0,0-0.1,0-0.1c0.1-0.1,0.3-0.1,0.5-0.1c0.6,0,1.3,0,1.9,0.2
		c0.2,0,0.4,0.1,0.5,0.2c0.1,0.1,0.3,0.1,0.2,0.3c-0.1,0.1-0.3,0.1-0.4,0.1C21.6,34.2,20.9,34.1,20.2,34.2z"/>
	<path class="st69" d="M26.7,22.8c0,0.4,0,0.8-0.1,1.2c0,0.2-0.1,0.1-0.2,0.1c-0.4-0.1-0.6-0.3-0.6-0.8c0-0.2,0-0.5,0-0.7
		C26.3,22.5,26.5,22.6,26.7,22.8z"/>
	<path class="st70" d="M39.5,25.1c-0.1-0.6-0.3-1.2,0.3-1.7c0.1-0.1,0.2-0.1,0.1-0.2c0-0.2,0.1-0.3,0.3-0.3c0.1-0.1,0.2-0.1,0.2-0.2
		c-0.3,0.4-0.4,0.9-0.3,1.4c0,0.1,0,0.2,0.1,0.3C40,24.7,39.7,24.9,39.5,25.1z"/>
	<path class="st71" d="M28.3,25.8c0.1,0,0.2,0,0.3,0c0.2,0.5-0.1,1.1-0.6,1.2c-0.2-0.2-0.5-0.4-0.6-0.7c0.1-0.2,0.2-0.4,0.2-0.6
		C27.9,25.7,28.1,25.8,28.3,25.8z"/>
	<path class="st72" d="M20.2,34.2c0.1-0.2,0.2-0.2,0.4-0.2c0.7,0,1.4,0,2.1,0c0.1-0.1,0.1-0.1,0.2-0.1c0.6,0.1,1.2,0,1.7,0.3
		c0.1,0.1,0,0.3,0,0.4c-0.1,0.1-0.1,0-0.1,0c0-0.2-0.1-0.2-0.3-0.3c-1.1-0.1-2.3-0.1-3.4-0.1c-0.2,0-0.3,0.1-0.2,0.3
		C20.5,34.5,20.3,34.3,20.2,34.2z"/>
	<path class="st73" d="M26.7,22.8c-0.3,0.1-0.5-0.2-0.8-0.2c0,0,0-0.1,0-0.1c0-0.3,0-0.7,0-1c0,0,0.1,0,0.1,0
		c0.4,0.2,0.9,0.3,1.2,0.7c0,0.1,0,0.1-0.1,0.2C27,22.5,26.9,22.6,26.7,22.8z"/>
	<path class="st74" d="M24.5,34.6C24.5,34.6,24.5,34.7,24.5,34.6c0.2,0.2,0.2,0.3,0.1,0.4c-0.1-0.1-0.2-0.2-0.3-0.2
		c-0.8,0-1.6,0-2.5,0c0.2,0.2,0.5,0.1,0.5,0.3c-0.5-0.1-0.9-0.3-1.2-0.5c0.1-0.1,0.3-0.1,0.5-0.1C22.5,34.6,23.5,34.6,24.5,34.6z"/>
	<path class="st75" d="M22.9,26.5c0,0.1,0,0.2-0.1,0.2c-0.6,0.5-0.7,0.5-1-0.3c-0.1-0.2-0.3-0.5,0.1-0.7c0.2,0,0.4,0,0.5,0
		c0.1,0,0.2,0,0.2,0.1C22.7,26.1,22.7,26.3,22.9,26.5z"/>
	<path class="st76" d="M26,34.9c0.6-0.1,1.3,0,1.9,0c0.4,0,0.8,0,1.2-0.1c-0.3,0.2-0.6,0.3-1,0.4c-0.6,0.2-1.2,0.2-1.8,0.3
		C26,35.5,25.9,35.4,26,34.9z"/>
	<path class="st42" d="M18.5,24.5c0.2,0,0.4,0,0.6,0c0.1,0,0.2,0,0.2,0c0.2-0.2,0.4-0.1,0.6-0.1c0.2,0,0.4,0,0.6,0
		c0.1,0,0.2,0,0.3,0c0.2,0,0.4,0.1,0.6,0c0.2,0,0.4,0.1,0.5,0c0.3,0,0.6-0.1,0.7-0.4c0-0.1,0.2-0.3,0.3-0.1c0,0.4,0.1,0.9,0,1.3
		c-0.1,0.1-0.2,0.3-0.2,0.4c-0.2,0-0.1-0.2-0.1-0.2c0-0.3,0.1-0.6-0.1-0.8c-2,0-4,0-6.1,0c-0.2,0-0.3,0-0.5-0.1c0.2,0,0.4,0,0.6,0
		c0.2,0,0.4,0,0.6,0c0.2,0,0.4,0,0.6,0c0.1,0,0.2,0,0.2,0C18.2,24.5,18.4,24.5,18.5,24.5z"/>
	<path class="st77" d="M25.9,29.1c0,0.3,0.2,0.4,0.5,0.3c0.5-0.2,1-0.4,1.4-0.8c0.1,0,0.1,0.1,0.2,0.2c0.1,0.2,0,0.3-0.1,0.3
		c-0.6,0.4-1.2,0.6-1.9,0.7C25.8,29.6,25.8,29.4,25.9,29.1z"/>
	<path class="st78" d="M35.9,27.2c0,0.4-0.1,0.9,0.1,1.3c-0.2,0.3-0.4,0.5-0.7,0.7c-0.3-0.2-0.1-0.5-0.2-0.8c0-0.1,0-0.3,0-0.4
		c0-0.1,0-0.1,0-0.2C35.4,27.5,35.5,27.2,35.9,27.2z"/>
	<path class="st79" d="M36.8,27.8c-0.1-0.5,0-0.9,0-1.4c0.1-0.2,0.2-0.3,0.4-0.4c0,0.2,0,0.4,0.1,0.6C37.5,27.2,37.2,27.5,36.8,27.8
		z"/>
	<path class="st80" d="M19.5,33.6c0,0,0,0.1,0,0.1c-0.4-0.1-0.3-0.5-0.3-0.7c0-0.2,0-0.5,0-0.7c0,0,0,0,0,0c0.6,0.2,1.2,0.5,1.6,1
		c-0.2,0.3-0.5,0.1-0.7,0.1C19.9,33.4,19.7,33.3,19.5,33.6z"/>
	<path class="st81" d="M26,28.6C26,28.6,26,28.6,26,28.6c-0.2-0.3-0.1-0.6-0.1-0.9c0.6-0.4,0.7-0.4,1.2,0.2c0,0.3-0.2,0.3-0.4,0.4
		C26.4,28.4,26.2,28.5,26,28.6z"/>
	<path class="st82" d="M29.6,34.5c-1.1,0-2.1,0-3.2,0c-0.1,0-0.3,0-0.4,0.1c-0.1-0.2-0.2-0.3,0.1-0.3c0.1,0.1,0.3,0.1,0.5,0.1
		c1.1,0,2.2,0,3.3,0C29.8,34.5,29.7,34.5,29.6,34.5z"/>
	<path class="st83" d="M26,28.6c0.1-0.3,0.4-0.2,0.6-0.4c0.1-0.1,0.3-0.2,0.5-0.3c0.2,0.1,0.2,0.2,0.3,0.3c-0.3,0.4-0.8,0.5-1.2,0.7
		C25.9,29,26,28.7,26,28.6z"/>
	<path class="st84" d="M24.5,21.5C24.5,21.5,24.6,21.5,24.5,21.5c0.1,0.3,0.1,0.7,0.1,1c-0.3,0-0.6,0.2-0.9,0.2
		c-0.1-0.2-0.2-0.3-0.4-0.5c0.1-0.2,0.3-0.3,0.5-0.3C24.1,21.8,24.3,21.7,24.5,21.5z"/>
	<path class="st85" d="M24.6,35c0-0.1,0-0.2,0-0.3c0-0.1,0-0.3,0-0.4c-0.1-0.1-0.2-0.3-0.1-0.4c0.1-0.2,0-0.5,0-0.7
		c0-0.3,0-0.5,0-0.8c0-0.3,0.1-0.6,0-0.8c0-0.3,0-0.6,0-0.9c0.1-0.3,0-0.6,0-0.9c-0.1-0.4,0.2-0.7,0.1-1.1c0.1-0.3-0.2-0.6,0-0.8
		c0.1,0.1,0.1,0.3,0.1,0.4c0,2.4,0,4.8,0,7.2c0,0.1,0.1,0.3-0.2,0.3C24.6,35.4,24.6,35.2,24.6,35z"/>
	<path class="st86" d="M29.2,33.4c0.1-0.1,0.2-0.1,0.3-0.2c0.5-0.1,1-0.1,1.5-0.1c0,0,0.1,0,0.1,0.1c0,0.1,0,0.2,0,0.2
		c-0.3,0.2-0.6,0.3-1,0.3c-0.3,0-0.6,0-0.9,0c-0.1,0-0.3,0-0.3-0.2l0,0C29,33.5,29.1,33.5,29.2,33.4z"/>
	<path class="st87" d="M28.9,33.5c0.8,0.1,1.5,0.2,2.2-0.1c-0.1,0.2-0.2,0.3-0.4,0.3c-0.2,0.1-0.3,0.2-0.5,0.2c-0.5,0-1.1,0-1.6,0
		c-0.1,0-0.2,0-0.2-0.1c0-0.1,0.1-0.1,0.2-0.1C28.6,33.6,28.7,33.5,28.9,33.5z"/>
	<path class="st88" d="M26.1,34.3c-0.2,0-0.2,0.2-0.1,0.3c0,0.1,0,0.1,0,0.2c-0.1-0.3,0-0.6,0-0.9c0-1.9,0-3.8,0-5.7
		c0-0.1,0-0.3,0-0.4c0,0.3,0,0.6,0,0.9c0,0.2,0,0.4,0,0.6c0,0.2,0,0.5,0,0.7c0,0.1,0,0.1,0,0.2c0,0.2,0,0.5,0,0.7c0,0.3,0,0.6,0,0.8
		c0,0.3,0,0.6,0,0.9c0,0.1,0,0.3,0,0.4c0,0.1,0,0.2,0,0.3c0,0.2,0,0.3,0,0.5c0,0.3,0,0.4,0.3,0.4C26.2,34.2,26.1,34.2,26.1,34.3z"/>
	<path class="st89" d="M34.5,30.1c0-0.5,0-0.9,0-1.4c0.1-0.2,0.2-0.5,0.5-0.3c0.2,0.4,0.1,0.8,0,1.2C34.9,29.8,34.7,29.9,34.5,30.1z
		"/>
	<path class="st90" d="M35,29.6c-0.2-0.4,0-0.8-0.1-1.2c0-0.3,0.1-0.4,0.4-0.4c0,0.4,0,0.9,0,1.3C35.3,29.4,35.2,29.5,35,29.6z"/>
	<path class="st91" d="M26,34.9c0,0.3,0.1,0.4,0.4,0.4c0.6-0.1,1.2-0.1,1.7-0.1c-0.6,0.3-1.3,0.4-1.9,0.4c-0.2,0-0.3-0.1-0.3-0.3
		C25.9,35.2,25.9,35,26,34.9C25.9,34.9,26,34.9,26,34.9z"/>
	<path class="st92" d="M32.5,30.6c0,0.4-0.1,0.9,0.1,1.3c-0.1,0.1-0.2,0.2-0.3,0.3c-0.2-0.2-0.1-0.4-0.1-0.7c0-0.2,0-0.4-0.2-0.6
		c0-0.2,0.2-0.4,0.4-0.4C32.5,30.6,32.5,30.6,32.5,30.6z"/>
	<path class="st93" d="M24.6,27.7c0,0.3,0,0.5,0,0.8c0,0,0,0-0.1,0c0-0.3,0-0.4-0.3-0.5c-0.2-0.1-0.5-0.2-0.7-0.3
		C23.9,27.4,23.7,27.3,24.6,27.7z"/>
	<path class="st94" d="M28.5,33.7c0,0.1-0.1,0.2,0.1,0.2c0.7,0,1.5,0.1,2.2-0.1c-0.1,0.1-0.2,0.2-0.3,0.2c-0.7,0-1.5,0-2.2,0
		c-0.1,0-0.3,0.1-0.4-0.2C28,33.8,28.3,33.7,28.5,33.7z"/>
	<path class="st95" d="M28.3,25.8c-0.2,0-0.4,0-0.6,0c-0.1-0.6-0.2-1.2-0.2-1.8c0.1,0.4,0.4,0.5,0.8,0.5c-0.1,0.1-0.4,0-0.5,0.2
		c-0.1,0.3-0.1,0.6,0,0.9C27.9,25.8,28.1,25.7,28.3,25.8C28.3,25.8,28.3,25.8,28.3,25.8z"/>
	<path class="st96" d="M31.2,33.2C31.2,33.2,31.1,33.2,31.2,33.2c-0.2-0.1-0.4-0.2-0.6-0.2c-0.1,0-0.3,0-0.3-0.2
		c0.3-0.2,0.6-0.5,0.9-0.7C31.2,32.5,31.2,32.8,31.2,33.2z"/>
	<path class="st97" d="M22.8,25.2c0-0.5,0-0.9,0-1.4c0-0.1,0-0.1,0-0.1C23,24.2,22.9,24.7,22.8,25.2C22.9,25.2,22.9,25.2,22.8,25.2z
		"/>
	<path class="st97" d="M22.5,24.6c0.2,0.2,0.1,0.4,0.1,0.6c0,0.1,0,0.3,0.1,0.4c0,0.1,0,0.1-0.1,0.2c-0.1,0-0.2,0-0.2,0
		c0,0,0,0,0-0.1c0.2,0,0.2-0.2,0.2-0.3C22.5,25.2,22.5,24.9,22.5,24.6z"/>
	<path class="st98" d="M19.4,32.3c-0.1,0.2,0,0.5-0.1,0.7c0-0.1,0-0.1-0.1-0.2c0-0.2,0-0.4,0-0.6C19.4,32.1,19.4,32.2,19.4,32.3z"/>
	<path class="st99" d="M22.8,35.4c0.2-0.1,0.3,0,0.4,0.1C23,35.4,22.9,35.5,22.8,35.4z"/>
	<path class="st99" d="M23.2,35.4c0.2,0,0.4-0.1,0.5,0.1C23.5,35.5,23.3,35.6,23.2,35.4z"/>
	<path class="st99" d="M23.7,35.5c0.1,0,0.3,0,0.4,0.1C23.9,35.6,23.8,35.6,23.7,35.5z"/>
	<path class="st100" d="M15.5,33.9c0.2,0.4,0.1,0.8,0.1,1.1c0,0.2-0.2,0.3-0.4,0.3c-0.7,0-1.4,0-2.1,0c-0.2,0-0.3,0-0.5,0
		c-1,0-1.9,0-2.9,0c-0.2,0-0.3,0-0.5,0c-0.3,0-0.6,0-0.9,0c-0.2,0-0.3,0-0.5,0c-1,0-1.9,0-2.9,0c-0.2,0-0.3,0-0.5,0
		c-0.9,0-0.9,0-0.9-0.9c0-0.3,0.1-0.4,0.4-0.4c2.1,0,4.3,0,6.4,0c0.1-0.1,0.2-0.1,0.3-0.1c0.8,0,1.7,0,2.5,0
		c0.2,0.1,0.3,0.1,0.5,0.1c0.3,0,0.6,0.1,0.8,0c0,0,0.1,0,0.1,0c0.2,0.1,0.5,0,0.7,0.1C15.4,34,15.4,34,15.5,33.9z"/>
	<path class="st45" d="M10.2,27.2c0.1,0,0.1-0.1,0.2-0.1c0.2,0.1,0.2,0.3,0.2,0.5c0.4,2.3,1.4,4.4,2.7,6.3c0,0-0.1,0-0.1,0
		c-0.2-0.1-0.4,0.1-0.6-0.1c-0.5-0.5-0.8-1.2-1.2-1.8c-0.7-1.3-1.1-2.7-1.4-4.1c0-0.2,0-0.4,0-0.5C10.1,27.4,10.1,27.3,10.2,27.2z"
		/>
	<path class="st101" d="M14.5,33.9C14.3,34.1,14,34,13.7,34c-0.1,0-0.1-0.1,0-0.1C14,33.9,14.2,33.9,14.5,33.9z"/>
	<path class="st102" d="M15.3,34c-0.2-0.1-0.5,0.1-0.7-0.1C14.8,33.9,15.1,33.8,15.3,34z"/>
	<path class="st103" d="M13.7,33.9C13.7,34,13.7,34,13.7,33.9C13.6,34,13.4,34,13.2,34c-0.1,0-0.1-0.1,0-0.1c0,0,0.1,0,0.1,0
		C13.5,33.9,13.6,33.9,13.7,33.9z"/>
	<path class="st45" d="M40.1,22.9c-0.1,0.1-0.2,0.2-0.3,0.3c-0.1,0.1-0.2,0.1-0.2,0.2c0-1.4-0.5-2.7-1-3.9c-0.4-0.9-0.9-1.8-1.4-2.6
		c-0.1-0.2-0.2-0.3-0.2-0.5c0.4-0.1,0.6,0.1,0.8,0.4C39.1,18.6,39.8,20.6,40.1,22.9z"/>
	<path class="st17" d="M22.3,25.7C22.4,25.8,22.4,25.8,22.3,25.7c-0.2,0.1-0.4,0.1-0.6,0.1C21.6,26,21.4,26,21.2,26
		c-0.1,0-0.1,0-0.2,0c-0.1,0-0.2,0-0.3,0c-0.1,0-0.2,0-0.3,0c-0.2-0.1-0.4,0-0.6,0c-0.2,0-0.4,0-0.6,0c-0.2,0.1-0.4,0-0.6,0
		c-0.1,0-0.2,0-0.3,0c-0.2,0-0.4,0-0.5,0c-0.1,0-0.2,0-0.3,0c-0.1,0-0.2,0-0.3,0c-0.2,0-0.3,0-0.5,0c-0.1,0-0.2,0-0.3,0
		c-0.2,0-0.5,0-0.7,0c-0.1,0-0.2,0-0.3,0c-0.2,0-0.4,0-0.5,0c-0.2,0-0.3,0-0.5,0c-0.4,0.1-0.4,0.1-0.4,0.5c0.3,2.2,1.2,4.2,2.7,5.9
		c0.1,0.1,0.1,0.1,0.2,0.2c-0.1,0.1-0.2,0.3-0.3,0.3c-0.1,0-0.3,0-0.4-0.1c-0.9-1.2-1.8-2.5-2.3-4c-0.3-0.9-0.5-1.8-0.6-2.8
		c0-0.1-0.1-0.2-0.1-0.3c0.2-0.1,0.4-0.1,0.6-0.1C16.7,25.7,19.5,25.7,22.3,25.7z"/>
	<path class="st42" d="M15.1,24.5c0.3-0.1,0.5,0,0.8,0C15.7,24.6,15.4,24.6,15.1,24.5z"/>
	<path class="st42" d="M14.7,24.4c0.1,0,0.2,0,0.3,0.1c-0.2,0.1-0.3,0.1-0.5,0C14.6,24.5,14.7,24.4,14.7,24.4z"/>
	<path class="st44" d="M42.8,20.2c-0.4,0.5-0.8,0.9-1.3,1.3c-0.1-1-0.5-2-0.9-3c-0.3-0.8-0.8-1.5-1.1-2.3c0.5,0,0.9,0,1.4,0
		c0.2,0,0.4,0.1,0.5,0.3C42,17.8,42.4,19,42.8,20.2z"/>
	<path class="st34" d="M25.9,17.6c0-0.1,0-0.3,0-0.4c0.1-0.2,0.3-0.2,0.5-0.2c1.4,0.2,2.7,0.8,3.8,1.7c0.3,0.2,0.2,0.4,0,0.7
		c0,0.1-0.1,0.1-0.2,0.2c-0.2,0-0.3-0.1-0.4-0.2c-0.9-0.7-1.9-1.1-3-1.4C26.4,17.8,26.2,17.7,25.9,17.6C26,17.6,26,17.6,25.9,17.6z"
		/>
	<path class="st27" d="M32.2,24.5c-0.2,0-0.4,0-0.6,0c0.1-1-0.3-1.8-0.7-2.6c-0.1-0.2-0.3-0.4-0.4-0.7c-0.1-0.1-0.2-0.3-0.1-0.4
		c0.1-0.1,0.1-0.2,0.2-0.3c0.2-0.1,0.4,0,0.5,0.2c0.7,1,1.1,2.1,1.3,3.3C32.5,24.2,32.5,24.4,32.2,24.5z"/>
	<path class="st31" d="M30.2,19.3c0.1-0.2,0.1-0.4-0.1-0.6c-1.1-0.8-2.2-1.4-3.6-1.6c-0.2,0-0.4-0.1-0.6,0c0-0.1,0-0.2,0-0.3
		c0.1-0.3,0.3-0.3,0.5-0.3c1.3,0.2,2.5,0.7,3.6,1.5c0.1,0.1,0.2,0.1,0.3,0.2c0.4,0.3,0.4,0.4,0.1,0.8C30.4,19.1,30.3,19.2,30.2,19.3
		z"/>
	<path class="st46" d="M26,17.6c0.5,0,1,0.2,1.5,0.4c0.9,0.3,1.7,0.7,2.5,1.4c0,0,0.1,0.1,0.1,0.2c-0.1,0.1-0.2,0.3-0.3,0.3
		c-0.6-0.3-1.1-0.8-1.7-1c-0.5-0.2-1-0.4-1.6-0.5C25.9,18.1,25.9,18.1,26,17.6z"/>
	<path class="st33" d="M31.5,24.5c-0.2,0-0.4,0-0.7,0c-0.1-1-0.4-1.8-0.9-2.6c-0.1-0.1-0.2-0.3-0.1-0.4c0.1-0.2,0.2-0.3,0.3-0.3
		c0.2,0,0.3,0.1,0.4,0.3c0.5,0.8,0.8,1.6,1,2.5C31.6,24.2,31.6,24.3,31.5,24.5z"/>
	<path class="st49" d="M29.4,20.1c-0.1,0.1-0.1,0.1-0.2,0.2c-0.9-0.6-1.9-1-3-1.3c-0.3-0.1-0.3-0.3-0.3-0.5c0-0.3,0.2-0.3,0.4-0.2
		c0.9,0.1,1.6,0.5,2.4,1c0.2,0.1,0.4,0.2,0.6,0.4C29.6,19.7,29.6,19.9,29.4,20.1z"/>
	<path class="st104" d="M30.5,19c0.2-0.3,0.1-0.5-0.2-0.7c-1.1-0.9-2.4-1.4-3.8-1.7c-0.2,0-0.4-0.1-0.6,0.1c0-0.5,0-0.5,0.5-0.4
		c1.6,0.3,2.9,0.9,4.2,1.8c0.2,0.2,0.3,0.3,0.2,0.5C30.7,18.8,30.6,19,30.5,19z"/>
	<path class="st51" d="M25.9,20c0-0.2,0-0.5,0-0.7c0.1-0.2,0.3-0.2,0.5-0.2c0.8,0.2,1.6,0.5,2.3,1c0.3,0.2,0.3,0.4,0,0.6
		c-0.2,0.2-0.3,0.4-0.6,0.6c0,0-0.1-0.1-0.1-0.2c0.2-0.3,0.1-0.5-0.2-0.6c-0.5-0.3-1-0.5-1.6-0.6C26.1,19.9,26.1,20.1,25.9,20z"/>
	<path class="st33" d="M28.7,20.8c0.1-0.2,0.1-0.4-0.1-0.5c-0.7-0.5-1.4-0.8-2.2-1c-0.2,0-0.3,0-0.4,0c0-0.3,0-0.5,0-0.8
		c0,0,0,0,0.1,0c0,0.3,0.1,0.4,0.4,0.4c0.9,0.2,1.8,0.5,2.5,1c0.1,0.1,0.3,0.2,0.3,0.4C29.1,20.5,28.9,20.6,28.7,20.8z"/>
	<path class="st30" d="M32.2,24.5c0.2-0.1,0.2-0.3,0.2-0.5c-0.2-1.1-0.6-2.2-1.2-3.1c-0.1-0.1-0.2-0.3-0.4-0.3
		c0.1-0.1,0.2-0.2,0.3-0.3c0.8,1.1,1.4,2.3,1.6,3.6c0,0.2,0.1,0.4,0,0.6C32.5,24.5,32.3,24.5,32.2,24.5z"/>
	<path class="st105" d="M29.8,21.5c0.6,0.8,0.9,1.7,1.1,2.6c0,0.2,0,0.3-0.1,0.4c-0.2,0-0.3,0-0.5,0c0.1-0.9-0.3-1.6-0.7-2.3
		c-0.1-0.1-0.2-0.2-0.2-0.4C29.5,21.7,29.6,21.6,29.8,21.5z"/>
	<path class="st106" d="M31.5,24.5c-0.1-1.3-0.5-2.4-1.3-3.4c0.1-0.1,0.2-0.3,0.3-0.3c0.4,0.7,0.8,1.3,1.1,2.1
		c0.1,0.4,0.3,0.9,0.3,1.3c0,0.2-0.1,0.2-0.2,0.3C31.6,24.5,31.5,24.5,31.5,24.5z"/>
	<path class="st107" d="M29.4,21.9c0.4,0.2,0.4,0.6,0.6,0.9c0.2,0.4,0.4,0.9,0.4,1.4c0,0.2,0,0.2-0.2,0.3c-0.2,0-0.4,0-0.7,0
		c0.2-0.3,0.2-0.5,0.1-0.8c-0.1-0.4-0.3-0.8-0.5-1.1c-0.1-0.1-0.2-0.2-0.1-0.3C29.1,22.1,29.2,21.9,29.4,21.9z"/>
	<path class="st55" d="M26,18.5C26,18.5,25.9,18.5,26,18.5c-0.1-0.3-0.1-0.6-0.1-0.9c0,0,0,0,0.1,0c0,0.3,0.1,0.5,0.4,0.5
		c1.2,0.2,2.2,0.7,3.1,1.4c0.1,0.1,0.2,0.1,0.2,0.3c-0.1,0.1-0.2,0.3-0.3,0.3c0.1-0.2,0.1-0.3-0.1-0.4c-0.9-0.7-1.9-1.2-3-1.4
		C26.1,18.3,26,18.3,26,18.5z"/>
	<path class="st66" d="M27.1,22.3c0,0,0-0.1,0-0.1c0.1-0.3,0-0.5-0.3-0.6c-0.3-0.1-0.5-0.4-0.9-0.1c0,0,0,0-0.1,0c0-0.2,0-0.4,0-0.6
		c0.1-0.5,0.1-0.6,0.6-0.4c0.4,0.1,0.8,0.3,1.1,0.6c0.2,0.1,0.3,0.2,0.3,0.5C27.7,21.9,27.4,22.1,27.1,22.3z"/>
	<path class="st108" d="M29.1,22.2c0.6,0.5,0.8,1.3,0.9,2c0,0.3-0.3,0.1-0.3,0.3c-0.1,0-0.2,0-0.3,0c0.1-0.5-0.1-0.9-0.3-1.4
		c-0.1-0.2-0.3-0.4-0.2-0.7C28.9,22.3,28.9,22.3,29.1,22.2z"/>
	<path class="st109" d="M28.8,22.5c0.3,0.5,0.6,1,0.7,1.5c0.1,0.2,0,0.4-0.2,0.5c-0.1,0-0.2,0-0.3,0c-0.1-0.1-0.1-0.2-0.2-0.3
		c-0.1-0.5-0.3-0.9-0.5-1.3C28.5,22.7,28.6,22.6,28.8,22.5z"/>
	<path class="st110" d="M27.9,21.5c-0.4-0.5-1.1-0.7-1.7-0.9c-0.3-0.1-0.2,0.2-0.3,0.3c0-0.2,0-0.5,0-0.7c0.1-0.1,0.3-0.1,0.4-0.1
		c0.6,0.1,1.1,0.4,1.6,0.7c0.1,0.1,0.2,0.2,0.2,0.4c0,0,0,0.1,0,0.1C28.1,21.4,28,21.5,27.9,21.5z"/>
	<path class="st111" d="M28.4,22.9c0.5,0.4,0.6,1,0.6,1.6c-0.1,0-0.3,0-0.4,0c0-0.5,0-1-0.6-1.3C28.2,23,28.3,22.9,28.4,22.9z"/>
	<path class="st112" d="M24.5,17c-1.6,0.2-3.1,0.7-4.4,1.7c-0.1,0.1-0.1,0.1-0.2,0.2c-0.2-0.1-0.4-0.3-0.5-0.5
		c0.7-0.4,1.3-0.9,2-1.2c0.9-0.4,1.9-0.7,2.8-0.8C24.7,16.4,24.4,16.8,24.5,17z"/>
	<path class="st58" d="M24.5,20.4c-0.2,0.2-0.4,0.2-0.7,0.2c-0.6,0.1-1.1,0.4-1.5,0.7c-0.2-0.1-0.3-0.3-0.4-0.5
		c-0.1-0.2,0-0.3,0.2-0.4c0.5-0.3,1-0.5,1.5-0.7c0.1,0,0.3-0.2,0.4-0.2C24.6,19.7,24.5,20.1,24.5,20.4z"/>
	<path class="st46" d="M24.5,17.8C24.4,18,24.2,18,24.1,18c-1.2,0.2-2.2,0.7-3.2,1.3c-0.1,0.1-0.2,0.2-0.3,0.1c0,0-0.1-0.1-0.1-0.1
		c0-0.2,0.1-0.3,0.2-0.4c0.9-0.6,1.8-1.1,2.9-1.3c0.3-0.1,0.5-0.3,0.8-0.2C24.4,17.6,24.5,17.6,24.5,17.8z"/>
	<path class="st49" d="M20.9,19.9c0-0.1,0-0.3,0.1-0.3c0.9-0.6,1.9-1.1,2.9-1.2c0.2,0,0.5-0.1,0.5,0.2c0,0.2-0.1,0.2-0.3,0.2
		c-1.1,0.1-2.2,0.5-3.1,1.3C21,20,21,20,20.9,19.9z"/>
	<path class="st113" d="M22.8,21.8c0.2-0.4,1.2-0.9,1.6-0.8c0.3,0,0.1,0.3,0.2,0.4c0,0.1-0.1,0.2-0.2,0.2C23.9,21.7,23.5,22,23,22
		C22.9,21.9,22.9,21.8,22.8,21.8z"/>
	<path class="st114" d="M23,22c0.4-0.4,1-0.5,1.5-0.7c0,0.1,0,0.1,0,0.2c0.1,0.3-0.1,0.4-0.4,0.5c-0.3,0-0.5,0.3-0.8,0.3
		C23.2,22.2,23.1,22.1,23,22z"/>
	<path class="st115" d="M45.6,17.5c-0.1,0.1-0.1,0.2-0.2,0.2c-0.3,0.3-0.7,0.6-0.9,1c-0.1,0-0.1,0.1-0.2,0.1c-0.1,0-0.2,0.1-0.3,0.2
		c0-0.5-0.2-0.9-0.4-1.4c-0.2-0.4-0.3-0.9-0.5-1.3c0.5,0,1,0,1.5,0c0.4,0,0.5,0.1,0.7,0.5C45.3,17,45.4,17.3,45.6,17.5z"/>
	<path class="st116" d="M10,27.5c0.2,0.7,0.3,1.4,0.6,2.1c0.5,1.5,1.2,2.9,2.1,4.2C12.5,34,12.3,34,12.2,34c-0.2,0-0.5-0.1-0.7,0
		c-0.7,0.1-1-0.3-1.3-0.8c-0.6-1.1-1-2.3-1.4-3.5c-0.1-0.3-0.2-0.5-0.1-0.8C9.1,28.3,9.5,27.9,10,27.5z"/>
	<path class="st44" d="M8.7,28.8c0.4,1.4,0.9,2.8,1.6,4.1c0.3,0.6,0.6,1.1,1.4,0.9c0.3-0.1,0.7,0.1,1.1,0c0.2,0,0.4,0.1,0.6,0.1
		c0,0,0,0.1,0,0.1c-1,0-1.9,0-2.9,0c-0.1-0.3-0.4-0.1-0.6-0.1c-0.3,0-0.5,0-0.8,0c-0.1-0.1-0.2-0.2-0.3-0.3c-0.5-1-0.9-2-1.2-3
		c0-0.1-0.1-0.3,0-0.4C7.8,29.7,8.2,29.2,8.7,28.8z"/>
	<path class="st14" d="M7.4,30.1c0.3,0.5,0.4,1.1,0.6,1.6c0.3,0.7,0.6,1.4,0.9,2.1c-0.6,0.1-1.3,0.1-1.9,0c-0.1-0.1-0.2-0.2-0.2-0.3
		c-0.3-0.6-0.5-1.2-0.7-1.8c0-0.1,0-0.2,0-0.3C6.5,31,6.9,30.5,7.4,30.1z"/>
	<path class="st115" d="M6,31.5c0.3,0.2,0.3,0.6,0.4,0.9c0.2,0.5,0.5,1,0.6,1.5c-0.3,0-0.7,0-1,0c-0.9,0-0.9,0-1.2-0.8
		c-0.1-0.2-0.1-0.4,0.1-0.5C5.3,32.2,5.7,31.8,6,31.5z"/>
	<path class="st117" d="M4.4,35.3c0.2-0.1,0.3-0.1,0.5,0C4.7,35.3,4.6,35.3,4.4,35.3z"/>
	<path class="st117" d="M7.8,35.3c0.2-0.1,0.3-0.1,0.5,0C8.1,35.3,8,35.3,7.8,35.3z"/>
	<path class="st117" d="M9.2,35.3c0.2-0.1,0.3-0.1,0.5,0C9.5,35.3,9.4,35.3,9.2,35.3z"/>
	<path class="st117" d="M12.6,35.3c0.2-0.1,0.3-0.1,0.5,0C12.9,35.3,12.8,35.3,12.6,35.3z"/>
	<path class="st56" d="M28.1,21.2c-0.6-0.6-1.4-0.9-2.2-1c0-0.1,0-0.1,0-0.2c0.1-0.3,0.2-0.3,0.5-0.2c0.6,0.2,1.2,0.4,1.7,0.7
		C28.6,20.8,28.6,20.9,28.1,21.2z"/>
	<path class="st118" d="M19.9,24.5c-0.2,0-0.4,0-0.6,0c-0.1-0.1-0.2-0.2-0.1-0.4c0.2-0.9,0.5-1.7,1-2.4c0.1-0.2,0.2-0.3,0.4-0.3
		c0.1,0.1,0.3,0.2,0.3,0.3c-0.4,0.6-0.8,1.2-1,1.8C19.9,23.9,19.8,24.2,19.9,24.5z"/>
	<path class="st56" d="M19.9,24.5c-0.3,0-0.3-0.2-0.2-0.5c0.2-0.8,0.5-1.5,1-2.2c0.1-0.1,0.2-0.1,0.3-0.1c0.1,0,0.2,0.1,0.3,0.2
		c0,0.2-0.1,0.3-0.2,0.5c-0.3,0.4-0.4,0.9-0.6,1.3c-0.1,0.2-0.1,0.5,0.1,0.6C20.3,24.5,20.1,24.5,19.9,24.5z"/>
	<path class="st66" d="M21.4,24.5c-0.2,0-0.4,0-0.6,0c-0.2,0-0.3-0.2-0.3-0.4c0.1-0.6,0.3-1.1,0.7-1.6c0.1-0.1,0.2-0.2,0.3-0.1
		c0.2,0.1,0.4,0.3,0.5,0.5C21.5,23.3,21.3,23.8,21.4,24.5z"/>
	<path class="st119" d="M22.9,23.7c0,0,0,0.1,0,0.1c0,0.1-0.1,0.1-0.1,0.2c-0.1,0.4-0.4,0.5-0.8,0.4c-0.4-0.1-0.5-0.1-0.3-0.5
		c0.1-0.2,0.1-0.4,0.2-0.6c0.2-0.4,0.3-0.4,0.6-0.1C22.6,23.4,22.8,23.5,22.9,23.7z"/>
	<path class="st110" d="M21.5,22.4c-0.6,0.5-0.8,1.2-0.9,1.9c0,0.1,0.1,0.2,0.2,0.3c-0.1,0-0.2,0-0.2,0c-0.4,0-0.4-0.3-0.3-0.5
		c0.2-0.7,0.4-1.4,1-1.9C21.3,22.1,21.4,22.2,21.5,22.4z"/>
	<path class="st120" d="M22.4,23.3c-0.2-0.1-0.4-0.1-0.5,0.2c-0.1,0.2-0.2,0.4-0.2,0.6c-0.1,0.2-0.1,0.4,0.2,0.4c-0.2,0-0.4,0-0.6,0
		c-0.2-0.1-0.3-0.2-0.2-0.4c0.1-0.3,0.2-0.7,0.4-1c0.1-0.2,0.2-0.3,0.4-0.2C22.2,23,22.3,23.1,22.4,23.3z"/>
	<path class="st121" d="M15.3,25.8c0.1,0,0.2,0,0.3,0c0.3,0.1,0.3,0.4,0.4,0.6c0.2,1,0.5,2,1,3c0.2,0.4,0.5,0.9,0.8,1.3
		c0.1,0.2,0.4,0.3,0.5,0.4c-0.1,0.2-0.2,0.3-0.4,0.4c-0.3,0.3-0.5,0.2-0.7-0.1c-1.2-1.5-1.9-3.1-2.2-5C15.1,26.2,15,25.9,15.3,25.8z
		"/>
	<path class="st122" d="M16.8,32.7c-0.5-0.2-0.7-0.6-1-1c-0.7-0.9-1.2-1.9-1.5-3c-0.3-0.8-0.4-1.5-0.5-2.3c-0.1-0.4,0.1-0.5,0.5-0.4
		c0.2,0.2,0.2,0.4,0.2,0.7c0.3,1.9,1,3.7,2.3,5.2c0.1,0.2,0.3,0.3,0.5,0.5C17.1,32.5,17,32.6,16.8,32.7z"/>
	<path class="st123" d="M17.2,32.3c-0.2,0.1-0.3,0-0.4-0.1c-1.3-1.6-2.2-3.5-2.5-5.6c0-0.2-0.1-0.5-0.1-0.7c0.2-0.1,0.3-0.1,0.5-0.1
		c0.1,0.1,0.2,0.3,0.2,0.4c0.1,1.2,0.5,2.3,1,3.3c0.4,0.9,1,1.6,1.7,2.3C17.5,32,17.4,32.2,17.2,32.3z"/>
	<path class="st124" d="M18.4,31.1c-0.2,0.1-0.4,0-0.5-0.2c-1-1.3-1.7-2.8-2-4.5c0-0.2,0-0.5-0.2-0.6c0.2,0,0.5,0,0.7,0
		c0.2,0.4,0.2,0.9,0.3,1.4c0.3,1.1,0.8,2,1.4,2.9c0.2,0.3,0.4,0.5,0.7,0.6C18.7,30.9,18.5,31,18.4,31.1z"/>
	<path class="st20" d="M17.6,31.9c-0.3,0-0.5-0.1-0.6-0.3c-0.7-0.9-1.4-1.9-1.7-3.1c-0.2-0.6-0.4-1.2-0.5-1.9
		c-0.1-0.3,0-0.5-0.1-0.8c0.2,0,0.4,0,0.6,0c-0.2,0.2-0.1,0.5-0.1,0.7c0.3,1.8,1,3.5,2.2,4.9c0.2,0.2,0.3,0.2,0.5,0.1
		C17.9,31.7,17.8,31.8,17.6,31.9z"/>
	<path class="st21" d="M18.8,30.7c-0.2,0.1-0.4,0.1-0.6-0.1c-1-1.3-1.6-2.7-1.9-4.3c0-0.1,0-0.3,0-0.4c0.1,0,0.2,0,0.3,0
		c0.2,0.3,0.2,0.6,0.3,1c0.2,1.1,0.7,2.1,1.4,3.1c0.2,0.2,0.4,0.5,0.7,0.6C19,30.6,18.9,30.7,18.8,30.7z"/>
	<path class="st27" d="M17.8,25.8c0.2,0,0.4,0,0.6,0c0.2,0.3,0.2,0.6,0.3,0.9c0.2,0.8,0.6,1.6,1.1,2.3c0.2,0.2,0.4,0.1,0.6,0.2
		c-0.1,0.2-0.2,0.3-0.4,0.4c-0.3,0.2-0.5,0.2-0.7-0.1c-0.8-1-1.3-2.1-1.5-3.4C17.7,26.1,17.7,25.9,17.8,25.8z"/>
	<path class="st31" d="M19,30.5c-0.2,0.1-0.3,0.1-0.4-0.1c-0.9-1-1.4-2.1-1.7-3.4c-0.1-0.4-0.3-0.7-0.2-1.1c0.2,0,0.3,0,0.5,0
		c0.1,0.2,0.1,0.4,0.1,0.6c0.2,1.3,0.7,2.4,1.5,3.4c0.1,0.1,0.3,0.3,0.3,0.4C19.1,30.4,19.1,30.4,19,30.5z"/>
	<path class="st34" d="M19.1,30.3c-0.5-0.2-0.7-0.7-0.9-1.1c-0.6-0.8-0.9-1.8-1-2.8c0-0.2,0-0.4,0.1-0.6c0.1,0,0.2,0,0.3,0
		c0.1,0.2,0.1,0.3,0.1,0.5c0.2,1.1,0.6,2,1.2,2.9c0.2,0.3,0.4,0.5,0.8,0.5C19.5,30,19.4,30.2,19.1,30.3z"/>
	<path class="st33" d="M18.6,25.8c0.2,0,0.4,0,0.6,0c0.2,0.1,0.2,0.3,0.3,0.5c0.1,0.6,0.3,1.1,0.6,1.6c0.2,0.4,0.4,0.7,0.9,0.7
		c-0.1,0.1-0.2,0.2-0.3,0.3c-0.5,0.4-0.6,0.4-1-0.1c-0.5-0.8-0.9-1.6-1-2.5C18.6,26.1,18.5,26,18.6,25.8z"/>
	<path class="st125" d="M19.7,29.8c-0.4,0.3-0.6,0.1-0.8-0.2c-0.8-1-1.2-2.2-1.4-3.4c0-0.1,0-0.2,0.1-0.4c0.1,0,0.2,0,0.2,0
		c0.2,1.3,0.6,2.4,1.4,3.5c0.2,0.2,0.3,0.5,0.7,0.3C19.8,29.7,19.8,29.7,19.7,29.8z"/>
	<path class="st37" d="M18.6,25.8c0.2,0.7,0.4,1.5,0.7,2.2c0.1,0.2,0.2,0.4,0.4,0.6c0.3,0.5,0.3,0.5,0.9,0.3
		c-0.1,0.1-0.2,0.2-0.3,0.3c-0.4,0.3-0.5,0.1-0.7-0.2c-0.6-0.8-1-1.8-1.2-2.7c0-0.2,0-0.3,0-0.4C18.5,25.8,18.5,25.8,18.6,25.8z"/>
	<path class="st51" d="M20.9,28.6c-0.4,0.4-0.6,0.1-0.8-0.2c-0.5-0.8-0.8-1.6-0.9-2.5c0.2,0,0.4,0,0.6,0c0.2,0.6,0.3,1.2,0.7,1.8
		c0.2,0.3,0.3,0.7,0.8,0.6C21.2,28.4,21.1,28.5,20.9,28.6z"/>
	<path class="st56" d="M21.3,28.2c-0.4,0.3-0.6,0.1-0.8-0.2c-0.3-0.6-0.6-1.2-0.8-1.8c0-0.1,0-0.3,0-0.4c0.2,0,0.4,0,0.6,0
		c0.1,0.5,0.2,1,0.4,1.4c0.2,0.3,0.3,0.7,0.8,0.6C21.5,28,21.4,28.1,21.3,28.2z"/>
	<path class="st110" d="M21.6,27.9c-0.3,0.3-0.5,0.1-0.7-0.2c-0.3-0.5-0.5-1-0.6-1.5c0-0.2,0-0.3,0.1-0.4c0.1,0,0.2,0,0.3,0
		c0.2,0.5,0.3,1,0.6,1.5c0.1,0.1,0.1,0.4,0.4,0.2c0,0,0.1,0,0.1,0c0,0,0.1,0,0.1,0.1C21.8,27.7,21.7,27.8,21.6,27.9z"/>
	<path class="st126" d="M21.1,25.8c0.2,0,0.4,0,0.7,0c-0.1,0.5,0.2,0.8,0.4,1.2c0.1,0.1,0.2,0,0.2,0c0.1-0.1,0.2-0.2,0.3-0.2
		c-0.1,0.3-0.4,0.4-0.6,0.6c-0.1,0.1-0.2,0.2-0.4,0.2C21.3,27,21.1,26.5,21.1,25.8z"/>
	<path class="st66" d="M21.9,27.5c0.1-0.1,0.2-0.1,0.3-0.2C22.1,27.4,22,27.5,21.9,27.5C21.9,27.6,21.9,27.6,21.9,27.5
		C21.8,27.5,21.8,27.5,21.9,27.5C21.8,27.5,21.8,27.5,21.9,27.5z"/>
	<path class="st124" d="M32.4,30.6c-0.1,0.2-0.2,0.3-0.4,0.4c-0.2-0.1-0.3-0.2-0.4-0.4c1.1-1.2,1.7-2.6,2-4.2c0-0.2,0-0.4,0.2-0.6
		c0.2,0,0.4,0,0.6,0c0.2,0.2,0.1,0.4,0.1,0.6c-0.2,1.2-0.6,2.4-1.3,3.5C33.1,30,33,30,32.9,30.1c-0.1,0.1-0.1,0.2-0.2,0.3
		C32.6,30.5,32.5,30.6,32.4,30.6z"/>
	<path class="st27" d="M31.8,25.8c0.2,0,0.4,0,0.6,0c0.1,0.1,0.1,0.3,0.1,0.5c-0.2,1.1-0.6,2.1-1.3,3.1c-0.1,0.2-0.3,0.5-0.6,0.3
		c-0.2-0.1-0.3-0.2-0.4-0.4c0.7-0.8,1.1-1.6,1.3-2.6C31.6,26.3,31.6,26.1,31.8,25.8z"/>
	<path class="st127" d="M33.8,25.8c0.2,0.3,0,0.5,0,0.8c-0.3,1.4-0.8,2.7-1.7,3.8c-0.1,0.1-0.2,0.2-0.4,0.2
		c-0.1-0.1-0.2-0.1-0.3-0.2c0.9-1,1.5-2.1,1.7-3.4c0.1-0.4,0.2-0.7,0.1-1.1C33.4,25.8,33.6,25.8,33.8,25.8z"/>
	<path class="st31" d="M33.2,25.8c0.2,0.1,0.3,0.2,0.2,0.4c-0.3,1.4-0.7,2.7-1.6,3.9c-0.1,0.1-0.2,0.3-0.4,0.3
		c-0.1-0.1-0.1-0.1-0.2-0.2c0-0.2,0.1-0.3,0.2-0.4c0.8-1.1,1.4-2.4,1.5-3.8c0-0.1,0-0.1,0.1-0.1C33,25.8,33.1,25.8,33.2,25.8z"/>
	<path class="st128" d="M31,25.8c0.2,0,0.3,0,0.5,0c0.1,0.1,0.1,0.3,0.1,0.5c-0.2,0.9-0.5,1.7-1.1,2.5c-0.1,0.1-0.2,0.3-0.4,0.2
		c-0.2-0.1-0.3-0.2-0.4-0.4c0.1-0.3,0.3-0.4,0.4-0.6c0.3-0.5,0.5-1.1,0.7-1.7C30.7,26.1,30.8,25.9,31,25.8z"/>
	<path class="st34" d="M32.9,25.8c0.2,0.3,0.1,0.6,0,0.9c-0.3,1.3-0.8,2.5-1.7,3.5C31.1,30.2,31,30.1,31,30c0-0.2,0-0.3,0.1-0.4
		c0.8-1,1.2-2.2,1.4-3.5c0-0.1,0-0.2,0.1-0.2C32.7,25.8,32.8,25.8,32.9,25.8z"/>
	<path class="st30" d="M32.6,25.8c0.2,0.3,0,0.5,0,0.8C32.3,27.9,31.8,29,31,30c-0.1-0.1-0.2-0.2-0.3-0.3c0.1,0,0.2-0.1,0.3-0.2
		c0.8-1.1,1.3-2.3,1.4-3.6C32.4,25.8,32.5,25.8,32.6,25.8z"/>
	<path class="st37" d="M30.1,29c0.7-0.7,1.1-1.7,1.3-2.6c0-0.2,0.1-0.4,0.1-0.6c0.1,0,0.2,0,0.3,0c0.1,0.6-0.2,1.2-0.4,1.7
		c-0.2,0.5-0.5,1-0.8,1.4c-0.1,0.2-0.2,0.2-0.4,0.2C30.1,29.2,30.1,29.1,30.1,29z"/>
	<path class="st118" d="M31,25.8c-0.2,0.9-0.5,1.7-1,2.5c-0.1,0.1-0.2,0.3-0.4,0.3c-0.1-0.1-0.2-0.1-0.2-0.3c0-0.1,0-0.2,0-0.3
		c0.5-0.7,0.7-1.4,0.9-2.2C30.6,25.8,30.8,25.8,31,25.8z"/>
	<path class="st56" d="M30.4,25.8c0.2,0.5-0.1,0.9-0.3,1.4c-0.2,0.4-0.4,0.8-0.7,1.2c-0.2-0.1-0.3-0.2-0.4-0.4
		c0.1-0.3,0.3-0.5,0.4-0.8c0.2-0.4,0.3-0.9,0.4-1.3C30,25.8,30.2,25.8,30.4,25.8z"/>
	<path class="st129" d="M29.8,25.8c0,0.1,0.1,0.1,0.1,0.2c-0.2,0.7-0.3,1.4-1,2c-0.2-0.1-0.4-0.3-0.5-0.5c0.3-0.1,0.4-0.2,0.5-0.5
		c0.2-0.4,0.3-0.8,0.5-1.2C29.6,25.8,29.7,25.8,29.8,25.8z"/>
	<path class="st130" d="M28.1,27.1c0.4-0.3,0.5-0.8,0.6-1.2c0.2,0,0.4,0,0.6,0c0.2,0.5-0.1,0.9-0.3,1.4c-0.1,0.2-0.3,0.3-0.5,0.2
		C28.2,27.3,28.2,27.2,28.1,27.1z"/>
	<path class="st131" d="M28.4,27.4c0.3,0,0.4-0.3,0.5-0.5c0.2-0.3,0.3-0.7,0.3-1c0.1,0,0.2,0,0.3,0c0.1,0.7-0.3,1.2-0.6,1.7
		c-0.1,0.2-0.3,0-0.4,0C28.5,27.5,28.4,27.4,28.4,27.4z"/>
	<path class="st132" d="M30.2,32.8c0.2,0.1,0.4,0.1,0.6,0.1c0.2,0,0.4,0.1,0.3,0.3c-0.5,0.1-1.1,0.1-1.6,0
		C29.8,33,30,32.9,30.2,32.8z"/>
	<path class="st133" d="M27.6,33.9c-0.2,0.1-0.5,0.2-0.7,0.2C27.1,34,27.3,33.9,27.6,33.9z"/>
	<path class="st87" d="M29.2,33.4c-0.1,0.1-0.2,0.2-0.3,0.2C29,33.4,29.1,33.4,29.2,33.4z"/>
	<path class="st88" d="M26.8,34.1c-0.1,0.1-0.3,0.1-0.4,0.1C26.5,34.1,26.7,34.1,26.8,34.1z"/>
	<path class="st16" d="M33.2,29.9c-0.1-0.3,0.1-0.5,0.2-0.7c0.5-1.1,0.9-2.2,0.9-3.4c0.2,0,0.3,0,0.5,0c0.3,0.1,0.3,0.3,0.2,0.5
		c-0.1,0.8-0.2,1.5-0.6,2.2c0,0-0.1,0.1-0.1,0.1c-0.2,0.3-0.5,0.6-0.7,0.8C33.5,29.6,33.4,29.7,33.2,29.9z"/>
	<path class="st134" d="M32.4,30.6c0.1-0.1,0.1-0.2,0.2-0.3c0,0,0.1,0,0.1,0C32.7,30.5,32.6,30.6,32.4,30.6
		C32.5,30.6,32.5,30.6,32.4,30.6z"/>
	<path class="st135" d="M32.8,30.4C32.8,30.4,32.7,30.4,32.8,30.4c0-0.1,0.1-0.2,0.2-0.2C32.9,30.2,32.9,30.3,32.8,30.4z"/>
	<path class="st123" d="M35.9,27.2c-0.2,0.2-0.4,0.3-0.6,0.5c-0.1,0.1-0.1,0.3-0.3,0.1c0-0.1,0,0,0,0c0-0.7,0.1-1.4,0.4-2
		c0.1,0,0.2,0,0.3,0c0.3,0,0.5,0.1,0.3,0.5c-0.1,0.2,0,0.4,0.1,0.6C36.1,27,36,27.1,35.9,27.2z"/>
	<path class="st20" d="M35.4,25.8c0,0.7-0.2,1.4-0.3,2.1c-0.1,0.3-0.3,0.5-0.7,0.7c0.2-0.6,0.3-1.3,0.5-1.9c0.1-0.3,0.1-0.6,0-0.8
		C35,25.8,35.2,25.8,35.4,25.8z"/>
	<path class="st66" d="M24.5,28.6C24.5,28.6,24.5,28.6,24.5,28.6c0.1,0.4,0.1,0.7,0.1,1.1c0,0-0.1,0.1-0.1,0.1
		c-0.6,0-1.2-0.3-1.7-0.6c-0.1-0.1-0.2-0.2-0.1-0.4c0.1-0.1,0.2-0.2,0.3-0.3c0.3,0.3,0.7,0.4,1.1,0.5C24.5,29.1,24.5,29.1,24.5,28.6
		z"/>
	<path class="st136" d="M34.4,28.6c0.3-0.2,0.5-0.4,0.7-0.7c0.1-0.1,0.2-0.1,0.2-0.2c0,0.1,0,0.1,0,0.2c-0.2,0.1-0.3,0.2-0.4,0.4
		C34.8,28.4,34.7,28.5,34.4,28.6C34.5,28.6,34.5,28.6,34.4,28.6C34.4,28.6,34.4,28.6,34.4,28.6z"/>
	<path class="st137" d="M19.4,32.3c0-0.1-0.1-0.1-0.1-0.2c0.1-0.2,0.2-0.3,0.4-0.4c0.2,0,0.3,0.1,0.5,0.2c1.2,0.8,2.5,1.3,3.9,1.5
		c0.2,0,0.5,0,0.6,0.4c0,0.1,0,0.3,0,0.4c-0.6-0.1-1.2-0.2-1.9-0.3c-0.2-0.1-0.5-0.2-0.8-0.2c-0.3-0.1-0.5-0.2-0.8-0.3
		c-0.1,0-0.3-0.1-0.3-0.2c-0.4-0.2-0.8-0.5-1.2-0.7C19.6,32.5,19.4,32.4,19.4,32.3z"/>
	<path class="st112" d="M24.6,33.8c-0.3-0.3-0.8-0.2-1.2-0.3c-1.3-0.3-2.4-0.8-3.5-1.5c-0.1-0.1-0.2-0.2-0.3-0.3
		c0.1-0.2,0.2-0.3,0.4-0.4c0.2,0,0.3,0.1,0.4,0.2c1.1,0.8,2.3,1.3,3.6,1.4c0.2,0,0.3,0.1,0.4,0.1c0,0,0.1,0.1,0.1,0.1
		C24.6,33.4,24.6,33.6,24.6,33.8z"/>
	<path class="st138" d="M24.6,31.5c0,0.3,0,0.6,0,0.8c-0.1,0.2-0.3,0.2-0.5,0.2c-1.2-0.2-2.3-0.6-3.3-1.3c-0.1-0.1-0.3-0.2-0.2-0.4
		c0.1-0.1,0.2-0.2,0.3-0.3c0.3-0.1,0.5,0.1,0.7,0.2c0.7,0.5,1.5,0.8,2.4,0.9c0.2,0,0.4,0,0.5-0.1C24.5,31.4,24.5,31.4,24.6,31.5z"/>
	<path class="st58" d="M22.6,28.7c0.2,0.4,0.7,0.5,1,0.7c0.3,0.1,0.6,0.2,0.9,0.3c0,0,0,0,0,0c0.1,0.8,0,1.1-0.9,0.7
		c-0.5-0.2-0.9-0.3-1.3-0.5c-0.2-0.1-0.4-0.2-0.3-0.5C22.1,29.1,22.3,28.9,22.6,28.7z"/>
	<path class="st139" d="M20.5,30.8c1,0.9,2.2,1.3,3.6,1.6c0.2,0,0.3,0,0.5-0.1c0,0.3,0,0.5,0,0.8c0,0,0,0-0.1,0
		c-0.1-0.2-0.3-0.2-0.5-0.3c-1.2-0.2-2.4-0.6-3.4-1.3c-0.2-0.1-0.3-0.2-0.4-0.4C20.3,31,20.4,30.9,20.5,30.8z"/>
	<path class="st49" d="M24.5,31.5c0,0.4-0.2,0.4-0.5,0.3c-0.9-0.2-1.8-0.5-2.6-1c-0.2-0.1-0.4-0.2-0.6-0.3c0.1-0.2,0.3-0.3,0.4-0.4
		c0.4,0.1,0.7,0.3,1,0.5c0.6,0.3,1.2,0.4,1.9,0.6C24.3,31.1,24.6,31.1,24.5,31.5z"/>
	<path class="st51" d="M21.9,29.4c0.3,0.4,0.7,0.5,1.1,0.7c0.3,0.1,0.6,0.2,0.9,0.3c0.2,0.1,0.5-0.1,0.5-0.3c0-0.1,0-0.3,0-0.4
		c0,0,0,0,0.1,0c0,0.3,0,0.6,0,0.9c0,0.5-0.1,0.6-0.6,0.5c-0.8-0.1-1.5-0.4-2.1-0.8c-0.2-0.1-0.4-0.2-0.2-0.5
		C21.7,29.6,21.8,29.5,21.9,29.4z"/>
	<path class="st34" d="M20.2,31.1c0.8,0.5,1.6,1,2.5,1.3c0.4,0.1,0.9,0.2,1.4,0.3c0.2,0,0.5,0,0.5,0.4c-1.7-0.2-3.2-0.7-4.5-1.8
		C20.1,31.2,20.1,31.2,20.2,31.1z"/>
	<path class="st33" d="M21.6,29.7c0,0.2,0.2,0.3,0.3,0.4c0.7,0.4,1.5,0.7,2.3,0.9c0.4,0.1,0.3-0.2,0.4-0.4c0,0.3,0,0.6,0,0.9
		c0,0,0,0-0.1,0c-0.1-0.3-0.4-0.2-0.6-0.2c-0.9-0.2-1.7-0.5-2.4-0.9c-0.1-0.1-0.2-0.1-0.2-0.3C21.4,29.9,21.5,29.8,21.6,29.7z"/>
	<path class="st140" d="M20.9,33.3c0.4,0.1,0.7,0.3,1.1,0.5c-0.8-0.3-1.6-0.1-2.4-0.2c-0.1-0.1-0.2-0.1-0.1-0.2
		c0-0.1,0.2-0.1,0.3-0.1C20.1,33.2,20.5,33.3,20.9,33.3z"/>
	<path class="st141" d="M26,21.5c0-0.3,0-0.4,0.4-0.3c0.3,0.1,0.5,0.2,0.8,0.4c0.4,0.2,0.4,0.3,0,0.6c-0.3-0.1-0.6-0.3-0.9-0.4
		C26.1,21.7,26,21.7,26,21.5z"/>
	<path class="st66" d="M21.8,27.6c-0.2,0.3-0.3,0.3-0.5,0c-0.3-0.6-0.7-1.1-0.6-1.7c0.1,0,0.2,0,0.2,0c0.1,0.1,0.1,0.1,0.1,0.2
		C21.2,26.6,21.5,27.1,21.8,27.6z"/>
	<path class="st130" d="M21.8,27.6c-0.5-0.5-0.7-1.1-0.8-1.7c0.1,0,0.1,0,0.2,0C21.3,26.4,21.5,27,21.8,27.6
		C21.9,27.5,21.9,27.5,21.8,27.6C21.8,27.6,21.8,27.6,21.8,27.6z"/>
</g>
</svg>
