<?xml version="1.0" encoding="utf-8"?>
<!-- Generator: Adobe Illustrator 25.2.0, SVG Export Plug-In . SVG Version: 6.00 Build 0)  -->
<svg version="1.1" id="Layer_1" xmlns="http://www.w3.org/2000/svg" xmlns:xlink="http://www.w3.org/1999/xlink" x="0px" y="0px"
	 width="128px" height="128px" viewBox="0 0 128 128" style="enable-background:new 0 0 128 128;" xml:space="preserve">
<style type="text/css">
	.st0{fill:#ED1B6C;}
	.st1{fill:#FFFFFF;}
	.st2{fill:#EB1A6B;}
</style>
<g>
	<path class="st0" d="M127,64c0,34.8-28.2,63-63,63S1,98.8,1,64S29.2,1,64,1S127,29.2,127,64z"/>
	<path class="st1" d="M124.5,64c0,33.4-27.1,60.5-60.5,60.5S3.5,97.4,3.5,64S30.6,3.5,64,3.5S124.5,30.6,124.5,64z"/>
	<g>
		<path d="M78.7,75.4c1.9,1.2,2.8,1.9,3.9,2.5c6.4,3.8,13.3,4.1,17.8,0.4c4.8-4.1,5.2-9.3,2.9-14.6c-2.4-6-8-9.7-14.8-8.7
			c-3.1,0.5-6.7,2.5-8.4,4.7C75.9,65,74.4,72,67.4,75.6c-0.9,0.5-0.7,3.2-0.7,4.8c0.1,11.8-9.6,20.9-23.6,22.1
			c-11.1,0.9-27.6-7-27.4-18c5.9,2.4,11.4,5.7,17.7,6.8c5.2,1.1,11.4,0.6,16.6-0.9c6.8-2,10-7.8,9.2-13c-0.8-4.5-2.8-5.7-13-7.2
			c-0.7-2.6-1.3-5.4-2-8.6c1.1-0.1,1.9-0.4,2.7-0.4c4.7-0.4,9.7-0.5,10.1-6.3c0.4-4.6-4.5-10-10.3-9.6c-5.6,0.5-10.8,3.1-17.2,5.1
			c-1.2-1.7-3.2-4.4-5.1-7.1c8.1-8.5,21.4-10.2,31.2-3.9c8.9,5.7,9.7,14.8,1.9,25.4c2.3,1.9,4.5,3.8,7.7,6.5
			c1.1-2.8,1.6-4.8,2.4-6.7c1.1-2.7,1.9-5.7,3.6-8.1c4.3-6.5,10.1-11,19.3-10c8.9,0.9,13.5,5.6,16.9,13c3.7,8.6,2.2,15.1,0,20
			c-2.2,4.9-10.4,9.9-16.2,9.1C83.5,87.5,79.1,83.2,78.7,75.4z"/>
		<path d="M53,30.1c12.2,7.6,23,6.5,33.9-0.1c2,2.8,3.7,5.2,5.5,7.6C79.5,46.6,58.4,42,53,30.1z"/>
	</g>
	<g>
		<path class="st2" d="M61.8,23.9c2.2-2.7,3.9-4.6,6-7.1c2.4,2.6,4,4.3,6,6.5c-1.8,2.1-3.5,3.9-5.7,6.2C65.9,27.7,64.1,26,61.8,23.9
			z"/>
	</g>
</g>
</svg>
