<svg xmlns="http://www.w3.org/2000/svg" viewBox="0 0 32 32"><circle cx="16" cy="16" r="16" fill="#231f20"/><linearGradient id="a" gradientUnits="userSpaceOnUse" x1="5" y1="16" x2="27" y2="16" gradientTransform="translate(0 1)"><stop offset="0" stop-color="#ea0000"/><stop offset=".6" stop-color="#ef5f00"/></linearGradient><path d="M27 9.1l-.5 1.3-.2.7a1 1 0 0 1-.5.6l-6.4 3.5-1.6.9c.2-.4.3-.8.7-1.1l6.4-4.4 1.9-1.3.2-.2z" fill="url(#a)"/><linearGradient id="b" gradientUnits="userSpaceOnUse" x1="5" y1="16" x2="27" y2="16" gradientTransform="translate(0 1)"><stop offset="0" stop-color="#ea0000"/><stop offset=".6" stop-color="#ef5f00"/></linearGradient><path d="M5 9.1l1.7 1.2 5.4 3.8 1.4 1c.1.1.3.2.3.4l.4.7H14l-8.1-4.5-.2-.2c-.1-.8-.4-1.5-.7-2.2v-.2z" fill="url(#b)"/><linearGradient id="c" gradientUnits="userSpaceOnUse" x1="5" y1="16" x2="27" y2="16" gradientTransform="translate(0 1)"><stop offset="0" stop-color="#ea0000"/><stop offset=".6" stop-color="#ef5f00"/></linearGradient><path d="M16.9 24.1l-.2-1.6-.4-2.6-.1-.9v-.2-.1c.2-.6.7-.9 1.3-1.2l7.2-3 .2-.1-.3.9-.4.5-4.1 1.6-3.4 1.3c-.2.1-.2.1-.2.3l1 4.2-.1.3-.5.6z" fill="url(#c)"/><linearGradient id="d" gradientUnits="userSpaceOnUse" x1="5" y1="16" x2="27" y2="16" gradientTransform="translate(0 1)"><stop offset="0" stop-color="#ea0000"/><stop offset=".6" stop-color="#ef5f00"/></linearGradient><path d="M17 17.5l.5-.8.2-.1 6.6-3.5 1.5-.8.2-.1v.2l-.5 1.5-.2.2-4.1 1.8-2.1.9-2.1.7z" fill="url(#d)"/><linearGradient id="e" gradientUnits="userSpaceOnUse" x1="5" y1="16" x2="27" y2="16" gradientTransform="translate(0 1)"><stop offset="0" stop-color="#ea0000"/><stop offset=".6" stop-color="#ef5f00"/></linearGradient><path d="M13.4 16.9l-1.6-.7-4.9-2.1c-.1-.1-.2-.1-.2-.3l-.6-1.6.2.1 5.2 2.8 2.3 1.3c-.2 0-.2.3-.4.5z" fill="url(#e)"/><linearGradient id="f" gradientUnits="userSpaceOnUse" x1="5" y1="16" x2="27" y2="16" gradientTransform="translate(0 1)"><stop offset="0" stop-color="#ea0000"/><stop offset=".6" stop-color="#ef5f00"/></linearGradient><path d="M12.9 17.9l-2.1-.8-3.2-1.2a.2.2 0 0 1-.2-.2l-.4-1c0-.1.1 0 .1 0l6 2.5-.1.2-.1.5z" fill="url(#f)"/><linearGradient id="g" gradientUnits="userSpaceOnUse" x1="5" y1="16" x2="27" y2="16" gradientTransform="translate(0 1)"><stop offset="0" stop-color="#ea0000"/><stop offset=".6" stop-color="#ef5f00"/></linearGradient><path d="M12.9 17.9l.2-.5.1-.2 2 .8.2.1.1.2c.4.4.4.9.3 1.5l-.6 4.1v.3l-.6-.5c-.1-.1 0-.2 0-.2l.9-4.2c0-.2 0-.3-.2-.4l-2.4-1z" fill="url(#g)"/><linearGradient id="h" gradientUnits="userSpaceOnUse" x1="5" y1="16" x2="27" y2="16" gradientTransform="translate(0 1)"><stop offset="0" stop-color="#ea0000"/><stop offset=".6" stop-color="#ef5f00"/></linearGradient><path d="M16.4 24.3c0 .2-.3.5-.4.6h-.1c-.2-.2-.4-.3-.4-.7l.2-2 .2-2.1v-.2l.1-.1c.1 0 0 .1 0 .1l.2 2.7.2 1.7z" fill="url(#h)"/><linearGradient id="i" gradientUnits="userSpaceOnUse" x1="5" y1="16" x2="27" y2="16" gradientTransform="translate(0 1)"><stop offset="0" stop-color="#ea0000"/><stop offset=".6" stop-color="#ef5f00"/></linearGradient><path d="M16 17.1l.5-1.1.4.5v.1l-.9 1.9-.9-1.9v-.1c.1-.1.2-.4.4-.4l.2.4.3.6z" fill="url(#i)"/><linearGradient id="j" gradientUnits="userSpaceOnUse" x1="5" y1="16" x2="27" y2="16" gradientTransform="translate(0 1)"><stop offset="0" stop-color="#ea0000"/><stop offset=".6" stop-color="#ef5f00"/></linearGradient><path d="M13.4 16.9l.4-.6.1.1c.6.1.8.7 1.1 1.2l-1.6-.7z" fill="url(#j)"/><linearGradient id="k" gradientUnits="userSpaceOnUse" x1="5" y1="16" x2="27" y2="16" gradientTransform="translate(0 1)"><stop offset="0" stop-color="#ea0000"/><stop offset=".6" stop-color="#ef5f00"/></linearGradient><path d="M16 16.2l-.4-.8v-.2l.3-.3s.1-.1.1 0c.4.3.4.3.1.8.1.3 0 .4-.1.5z" fill="url(#k)"/><linearGradient id="l" gradientUnits="userSpaceOnUse" x1="5" y1="16" x2="27" y2="16" gradientTransform="translate(0 1)"><stop offset="0" stop-color="#ea0000"/><stop offset=".6" stop-color="#ef5f00"/></linearGradient><path d="M5 9.1z" fill="url(#l)"/></svg>