<?xml version="1.0" encoding="utf-8"?>
<!-- Generator: Adobe Illustrator 25.2.3, SVG Export Plug-In . SVG Version: 6.00 Build 0)  -->
<svg version="1.1" id="Layer_1" xmlns="http://www.w3.org/2000/svg" xmlns:xlink="http://www.w3.org/1999/xlink" x="0px" y="0px"
	 width="128px" height="128px" viewBox="0 0 128 128" style="enable-background:new 0 0 128 128;" xml:space="preserve">
<style type="text/css">
	.st0{fill:#FF3465;}
	.st1{fill:#FFFFFF;}
</style>
<circle class="st0" cx="64" cy="64" r="63.5"/>
<g>
	<path class="st1" d="M61.9,28.2c4.6,0,9.2,0,13.9,0c3.3,0,6.6,0.2,9.8,1.4c8.6,3.1,13.9,9.1,16.1,18c0.6,2.6,0.8,5.3,0.7,8
		c-0.2,4.6-1.3,8.9-3.8,12.8c-3.8,5.9-9,9.6-15.9,11.1c-1.9,0.4-3.9,0.6-5.9,0.6c-4.5,0-8.9,0-13.4,0c-0.6,0-0.6,0-0.6,0.6
		c0,6.2,0,12.5,0,18.7c0,0.6,0,0.6-0.5,0.6c-5.2,0-10.3,0-15.5,0c-0.6,0-0.6,0-0.6-0.5c0-3.3,0-6.6,0-9.9c0-0.3,0.1-0.5,0.4-0.6
		c5.9-2.2,9.6-6.4,10.7-12.6c1-5.3-0.5-10-4.2-14c-1.8-2-4-3.4-6.6-4.3c-0.4-0.1-0.4-0.3-0.4-0.7c0-8.3,0-16.7,0-25
		c0-1.1,0-2.2,0-3.3c0-0.5,0-0.5,0.6-0.5C51.8,28.2,56.8,28.2,61.9,28.2z M62.8,41.8c0,0.2,0,0.4,0,0.5c0,7.9,0,15.7,0,23.6
		c0,0.4,0.1,0.5,0.5,0.5c3.6,0,7.1,0,10.7,0c0.7,0,1.4,0,2-0.1c4.2-0.7,7-3.2,8.6-7.1c1.1-2.7,1.1-5.5,0.5-8.3c-1-4.8-5-9-11-9
		c-3.6,0-7.2,0-10.7,0C63.2,41.8,63,41.8,62.8,41.8z"/>
	<path class="st1" d="M49.7,73.4c0,6.6-5.4,12-12,12c-6.6,0-12-5.4-12-12c0-6.8,5.6-12.1,12.1-12C44.2,61.4,49.8,66.7,49.7,73.4z"/>
</g>
</svg>
