<?xml version="1.0" encoding="utf-8"?>
<!-- Generator: Adobe Illustrator 25.4.1, SVG Export Plug-In . SVG Version: 6.00 Build 0)  -->
<svg version="1.1" id="Layer_1" xmlns="http://www.w3.org/2000/svg" xmlns:xlink="http://www.w3.org/1999/xlink" x="0px" y="0px"
	 width="128px" height="128px" viewBox="0 0 128 128" style="enable-background:new 0 0 128 128;" xml:space="preserve">
<style type="text/css">
	.st0{display:none;}
	.st1{display:inline;}
	.st2{fill:#FFFFFF;}
	.st3{fill:#262F61;}
	.st4{fill:none;}
	.st5{fill:#CE3524;}
	.st6{fill:#005596;}
	.st7{opacity:0.8;}
	.st8{fill:url(#SVGID_1_);}
	.st9{fill:#EF3E42;}
	.st10{opacity:0.8;fill:none;stroke:#FFFFFF;stroke-width:6.356100e-02;stroke-miterlimit:10;enable-background:new    ;}
	.st11{fill:#D0B15E;}
	.st12{opacity:0.7;fill:url(#SVGID_00000005963019285152764680000008765888936110633899_);enable-background:new    ;}
	.st13{opacity:0.7;fill:#897439;enable-background:new    ;}
	.st14{fill:url(#SVGID_00000018232378079371105580000003842887634241002894_);}
	.st15{fill:url(#SVGID_00000112613848004746596160000014129950481482396550_);}
	.st16{fill:url(#SVGID_00000012447612473562770410000010940877599654901646_);}
	.st17{fill:url(#SVGID_00000081609893494093613940000015867951558598973584_);}
	.st18{fill:url(#SVGID_00000134243081788093453990000007980671754716715921_);}
	.st19{opacity:0.7;fill:url(#SVGID_00000004526035853384707360000011327958908962388368_);enable-background:new    ;}
	.st20{opacity:0.3;}
	.st21{fill:#040000;}
	.st22{opacity:0.3;fill:#040000;enable-background:new    ;}
	.st23{fill:#ADBBD0;}
	.st24{fill:#D1D3D4;}
</style>
<g id="Layer_10">
	<g class="st0">
		<g class="st1">
			<circle class="st2" cx="64" cy="64" r="63"/>
			<g>
				<path class="st3" d="M64,124.9c-8.2,0-16.2-1.6-23.7-4.8c-7.2-3.1-13.8-7.5-19.3-13c-5.6-5.6-10-12.1-13-19.3
					C4.7,80.2,3.1,72.2,3.1,64s1.6-16.2,4.8-23.7C11,33,15.4,26.5,21,21c5.6-5.6,12.1-10,19.3-13C47.8,4.7,55.8,3.1,64,3.1
					c8.2,0,16.2,1.6,23.7,4.8c7.2,3.1,13.8,7.5,19.3,13c5.6,5.6,10,12.1,13,19.3c3.2,7.5,4.8,15.5,4.8,23.7c0,8.2-1.6,16.2-4.8,23.7
					c-3.1,7.2-7.5,13.8-13,19.3c-5.6,5.6-12.1,10-19.3,13C80.2,123.3,72.2,124.9,64,124.9z M64,6c-15.5,0-30.1,6-41,17
					C12,33.9,6,48.5,6,64s6,30.1,17,41c11,11,25.5,17,41,17s30.1-6,41-17c11-11,17-25.5,17-41s-6-30.1-17-41S79.5,6,64,6z"/>
			</g>
		</g>
		<g class="st1">
			<g>
				<circle class="st4" cx="64" cy="64" r="63"/>
			</g>
			<g id="layer1_9_" transform="translate(267.66758,51.185776)">
				<path id="path260_18_" class="st2" d="M-171.5-19.6c0-3.4-2.3-4.4-5.5-5.2c-4.7-1.2-14.5-3.3-26.6-3.3
					c-12.1,0-21.9,2.1-26.6,3.3c-3.2,0.8-5.5,1.9-5.5,5.2v47v0v0c0,3.9,1.9,7.6,5,9.9l25.2,19.1l1.9,1.5l1.9-1.5l25.2-19.1
					c3.1-2.3,5-6.1,5-10L-171.5-19.6z"/>
				<path id="path260_17_" class="st2" d="M-171.5-19.6c0-3.4-2.3-4.4-5.5-5.2c-4.7-1.2-14.5-3.3-26.6-3.3
					c-12.1,0-21.9,2.1-26.6,3.3c-3.2,0.8-5.5,1.9-5.5,5.2v47v0v0c0,3.9,1.9,7.6,5,9.9l25.2,19.1l1.9,1.5l1.9-1.5l25.2-19.1
					c3.1-2.3,5-6.1,5-10L-171.5-19.6z"/>
				<path id="path280_9_" class="st3" d="M-203.7-28.2c-12.1,0-21.9,2.1-26.6,3.3c-3.2,0.8-5.5,1.9-5.5,5.2v47v0v0
					c0,3.9,1.9,7.6,5,9.9l25.2,19.1l1.9,1.5l1.9-1.5l25.2-19.1c3.1-2.3,5-6.1,5-10v-47c0-3.4-2.3-4.4-5.5-5.2
					C-181.8-26.1-191.6-28.2-203.7-28.2z M-204.4-25.7l0.8,2.4h2.5l-2,1.5l0.8,2.4l-2-1.4l-2,1.5l0.8-2.4l-2-1.5h2.5L-204.4-25.7z
					 M-231.1-22.3l0.8,2.4h2.5l-2,1.5l0.8,2.4l-2-1.5l-2,1.5l0.8-2.4l-2-1.5h2.5L-231.1-22.3z M-178.2-22.3l0.8,2.4h2.5l-2,1.5
					l0.8,2.4l-2-1.5l-2,1.5l0.8-2.4l-2-1.5h2.5L-178.2-22.3z M-189.9-18.3c0.2,0,0.5,0.1,0.7,0.1c0.7,0.1,1.4,0.2,2,0.3
					c0.6,0.1,1.3,0.2,1.9,0.3l-16.9,12.8v-8.8c2.7,1.6,4.5,1.4,5.6,0.7c0.7-0.4,1.1-1,1.4-1.6C-192.3-13.7-189.1-15.4-189.9-18.3z
					 M-220.8-17.8c0,0.2,0.1,0.5,0.1,0.7c0,0,0,0,0,0c0,0,0,0,0,0c0.7,2.2,3.7,3.4,6.5,2.6c0.5,1,1.8,2,3.5,2.2
					c1.2,0.2,2.5,0,4.1-0.6v11.4l-10.6,8c0-0.3,0.1-0.5,0.1-0.8V5.6V5.5V5.4c1.2-0.7,2.2-2.1,2.7-3.9c0.2-0.8,0.3-1.6,0.3-2.3
					c-0.2,0.1-0.4,0.2-0.6,0.2c-0.6,0.1-1,0.1-1,0.1c0.9-0.1,1.6-0.4,2-0.7c0.1-0.1,0.3-0.2,0.4-0.4c0.9-0.9,1.5-2,1.9-3.3l1.7-6.1
					c-0.9-0.1-1.8,0.3-2.3,1.1l-0.8,1.3l-0.8,1.3c-0.2,0.3-0.5,0.6-0.9,0.8c-0.6-0.5-1-0.8-1.4-1.1c-0.1,0-0.1-0.1-0.2-0.1l-0.5-2.3
					l0.8-1.4c0.2-0.4,0.3-0.9,0.2-1.3c-0.1-0.3-0.2-0.5-0.3-0.8c-0.1-0.2-0.4-0.2-0.6-0.1l-2,1.3c-0.1-0.1-0.1-0.1-0.2-0.1
					c-0.1-0.1-0.3-0.1-0.4-0.1c-0.2,0-0.4,0.2-0.7,0.3l-0.5,0.4l-0.8,0.6l-0.6,0l-0.4,0c-0.4,0-0.6,0.7-0.2,1.2
					c0.3,0.4,0.5,1,0.7,1.7c0,0,0,0,0,0c0,0.1,0,0.1,0,0.2c0,0,0,0.1,0,0.1c0.1,0.6,0.2,1.4,0.2,2.2c0,1.8-1,5.6-2.2,8.1
					c-0.1,0.1-0.1,0.2-0.2,0.3l-0.9,1.6c-0.2,0.2-0.1,0.6,0.1,0.8c0.1,0.2,0.3,0.3,0.6,0.3c0,0,0.8,0.9,1,2.8c0.1,0.8,0.1,1.8-0.1,3
					l-1.8,1.4l-1.9,1.4v-30.5c0.9-0.2,1.9-0.4,3.1-0.7C-222.7-17.5-221.8-17.7-220.8-17.8z M-175.5-12.8l-0.8,0.6l-1.7,1.3
					L-175.5-12.8z M-181.7-8.1v46l-8.8,6.7V-1.3l0,0L-181.7-8.1L-181.7-8.1z M-195.2-6.9l0.8,2.4h2.5l-2,1.5l0.8,2.4l-2-1.5l-2,1.5
					l0.8-2.4l-2-1.5h2.5L-195.2-6.9z M-231.1-2.2l0.8,2.4h2.5l-2,1.5l0.8,2.4l-2-1.5l-2,1.4l0.8-2.4l-2-1.5h2.5L-231.1-2.2z
					 M-211.1,48.9l-18.2-13.8l0,0l3.7,2.8V25.6l8.8-6.7l8.8-6.7l8.8-6.7v45.9l-4.4,3.3l-4.4-3.3V12.1l-8.8,6.7v25.7 M-212.5,5.6
					l0.8,2.4h2.5l-2,1.5l0.8,2.4l-2-1.5l-2,1.5l0.8-2.4l-2-1.5h2.5L-212.5,5.6z M-231.1,18.9l0.8,2.4h2.5l-2,1.5l0.8,2.4l-2-1.5
					l-2,1.5l0.8-2.4l-2-1.5h2.5L-231.1,18.9z"/>
				<path id="path276_9_" class="st5" d="M-174.3,22.5v-36.2l-2,1.5l-5.4,4.1v46l3.7-2.8l0,0c0.6-0.5,1.2-1,1.7-1.7
					c1.3-1.6,2-3.7,2-5.8L-174.3,22.5L-174.3,22.5z M-190.5-1.4L-190.5-1.4l-8.8,6.7v45.9l8.8-6.7V-1.4z M-216.9,18.9L-216.9,18.9
					v25.7l8.8,6.7V12.1L-216.9,18.9z M-225.7,25.6l-3.3,2.5l-3.5,2.7c0.6,1.7,1.7,3.2,3.1,4.3l0,0l3.7,2.8V25.6z"/>
			</g>
		</g>
	</g>
	<g>
		<path class="st6" d="M64,1C29.3,1,1,29.3,1,64s28.3,63,63,63c34.7,0,63-28.3,63-63C127,29.3,98.7,1,64,1z"/>
		<g>
			<path class="st6" d="M64,1C29.3,1,1,29.3,1,64s28.3,63,63,63c34.7,0,63-28.3,63-63C127,29.3,98.7,1,64,1z M64,126.6
				C29.5,126.6,1.5,98.5,1.5,64C1.5,29.5,29.5,1.5,64,1.5c34.5,0,62.5,28.1,62.5,62.5C126.5,98.5,98.5,126.6,64,126.6z"/>
		</g>
		<g class="st7">
			
				<linearGradient id="SVGID_1_" gradientUnits="userSpaceOnUse" x1="95.4933" y1="-1610.9386" x2="32.5108" y2="-1501.8496" gradientTransform="matrix(1 0 0 -1 0 -1492.3954)">
				<stop  offset="0" style="stop-color:#231F20"/>
				<stop  offset="1" style="stop-color:#231F20;stop-opacity:0"/>
			</linearGradient>
			<path class="st8" d="M64,1C29.3,1,1,29.3,1,64s28.3,63,63,63c34.7,0,63-28.3,63-63C127,29.3,98.7,1,64,1z M64,126.6
				C29.5,126.6,1.5,98.5,1.5,64S29.5,1.5,64,1.5c34.5,0,62.5,28.1,62.5,62.5S98.5,126.6,64,126.6z"/>
		</g>
		<path class="st2" d="M64,30.1c-18.9,0-34.2,15.3-34.2,34.2c0,18.9,15.4,34.2,34.2,34.2s34.2-15.3,34.2-34.2
			C98.3,45.4,82.9,30.1,64,30.1z M35.5,78.6c-2.2-4.3-3.4-9.2-3.4-14.3c0-16.1,11.9-29.4,27.4-31.6C58.1,53.2,49.6,68,35.5,78.6z
			 M75.5,94c-3.6,1.4-7.4,2.1-11.5,2.1c-4,0-7.9-0.8-11.5-2.1c-1.3-2-2-4.3-2-6.8c0-7.1,6.1-12.8,13.5-12.8
			c7.5,0,13.5,5.7,13.5,12.8C77.6,89.7,76.8,92.1,75.5,94z M92.6,78.6C78.5,68,70,53.2,68.6,32.7C84.1,34.9,96,48.2,96,64.3
			C96,69.4,94.8,74.3,92.6,78.6z M105.1,23.1c-11-10.9-25.5-17-41-17c-15.5,0-30.1,6-41,17C12,34,6,48.6,6,64.1c0,15.5,6,30,17,41
			c11,11,25.5,17,41,17c15.5,0,30.1-6,41-17c11-11,17-25.5,17-41C122.1,48.6,116,34,105.1,23.1z M64,119.8
			c-30.8,0-55.7-25-55.7-55.8c0-30.8,25-55.8,55.7-55.8s55.8,25,55.8,55.8C119.8,94.8,94.8,119.8,64,119.8z"/>
		<path class="st9" d="M90.9,81.9c-2.6,3.9-6,7.2-10,9.7c0.2-0.8,0.2-1.7,0.2-2.6c0-8.9-7.7-16.1-17.2-16.1
			c-9.5,0-17.2,7.2-17.2,16.1c0,0.9,0.1,1.8,0.2,2.6c-4-2.5-7.4-5.8-10-9.7c6-4.8,11.1-10.5,15-17h23.8
			C79.8,71.4,84.9,77.1,90.9,81.9z M66.9,32.2c-1-0.1-1.9-0.1-2.9-0.1c-1,0-2,0.1-2.9,0.1c-0.2,12.2-3.2,22.6-8.2,31.4h22.3
			C70.1,54.8,67.1,44.4,66.9,32.2z"/>
		<path class="st10" d="M90.9,81.9c-2.6,3.9-6,7.2-10,9.7"/>
		<path class="st11" d="M65.1,91.2c-0.4-0.2-0.7-0.6-0.8-1c0-0.2-0.2-0.3-0.4-0.3c-0.2,0-0.3,0.1-0.4,0.3c-0.1,0.4-0.4,0.8-0.8,1
			c-0.1,0-0.1,0.1-0.1,0.1c0.2,0.5,0.6,1,1.1,1.4c0.1,0.1,0.1,0.1,0.1,0.1c0,0,0,0,0.1-0.1c0.5-0.4,0.9-0.9,1.1-1.4
			C65.2,91.3,65.2,91.3,65.1,91.2z"/>
		<path class="st11" d="M66.2,84c0-1.3-1.7-5.4-2.2-5.4c0,0-0.1,0-0.1,0.1c-0.6,0.5-2.1,4.1-2.1,5.4c0,1,2,3.6,2,5l0,0l0,0
			c0,0.1,0.1,0.3,0.3,0.3c0.1,0,0.3-0.1,0.3-0.3c0,0,0,0,0,0C64.2,87.6,66.2,85,66.2,84z"/>
		<path class="st11" d="M62.8,88.9c-0.9-2.5-2.5-3.8-4.2-3.8c-1.3,0-2.3,1-2.3,2.3s1,2.3,2.3,2.3c0.4,0,0.8-0.2,1-0.4
			c0.3-0.4,0.3-0.7,0.2-0.8c0-0.1-0.1-0.1-0.2-0.1c0,0-0.1,0-0.1,0c-0.4,0-0.8-0.3-0.8-0.8c0-0.4,0.3-0.8,0.8-0.8
			c0.7,0,2.1,0.7,2.8,2.3v0c0,0,0,0,0,0l0,0c0.1,0.1,0.2,0.2,0.3,0.2c0.2,0,0.3-0.1,0.3-0.3C62.9,88.9,62.9,88.9,62.8,88.9z"/>
		<path class="st11" d="M69.2,85.1c-1.7,0-3.3,1.3-4.2,3.8c0,0,0,0.1,0,0.1c0,0.2,0.1,0.3,0.3,0.3c0.1,0,0.2-0.1,0.3-0.2l0,0
			c0,0,0,0,0,0v0c0.7-1.5,2-2.3,2.8-2.3c0.4,0,0.8,0.3,0.8,0.8c0,0.4-0.3,0.8-0.8,0.8c0,0-0.1,0-0.1,0c0,0-0.1,0-0.2,0.1
			c0,0.1-0.1,0.4,0.2,0.8c0.2,0.2,0.6,0.4,1,0.4c1.3,0,2.3-1,2.3-2.3C71.5,86.1,70.5,85.1,69.2,85.1z"/>
		
			<linearGradient id="SVGID_00000053543142874519692700000002065722815431862946_" gradientUnits="userSpaceOnUse" x1="61.1578" y1="-1571.9985" x2="65.3953" y2="-1583.6411" gradientTransform="matrix(1 0 0 -1 0 -1492.3954)">
			<stop  offset="0.15" style="stop-color:#FFE293"/>
			<stop  offset="0.3028" style="stop-color:#FFDF8E"/>
			<stop  offset="0.4612" style="stop-color:#FED782"/>
			<stop  offset="0.6221" style="stop-color:#FDC96D"/>
			<stop  offset="0.7848" style="stop-color:#FBB650"/>
			<stop  offset="0.9473" style="stop-color:#F89D2B"/>
			<stop  offset="1" style="stop-color:#F7941D"/>
		</linearGradient>
		<path style="opacity:0.7;fill:url(#SVGID_00000053543142874519692700000002065722815431862946_);enable-background:new    ;" d="
			M59.8,88.4C59.8,88.4,59.8,88.5,59.8,88.4c0,0.1,0,0.2,0,0.2c0-0.1-0.1-0.1-0.2-0.1c0,0-0.1,0-0.1,0c-0.4,0-0.8-0.3-0.8-0.8
			c0,0,0-0.1,0-0.1c0.1,0.4,0.4,0.7,0.8,0.7c0,0,0.1,0,0.1,0C59.7,88.3,59.8,88.3,59.8,88.4z M69.2,85.1c-1.7,0-3.3,1.3-4.2,3.8
			c0,0,0,0,0,0c0,0,0,0.1,0,0.1c0,0,0,0.1,0,0.1c0,0,0,0,0,0c0,0,0-0.1,0.1-0.1l0,0c0.9-2.4,2.5-3.7,4.2-3.7c1.2,0,2.2,0.9,2.3,2.1
			c0,0,0-0.1,0-0.1c0,0,0,0.1,0,0.1C71.5,86.1,70.5,85.1,69.2,85.1z M68.3,88.4c0,0-0.1,0-0.1,0c0,0-0.1,0-0.2,0.1c0,0,0,0.1,0,0.1
			l0,0l0,0c0,0,0,0,0,0.1s0,0,0,0c0,0,0,0,0,0c0,0,0,0.1,0,0.1c0,0,0,0,0,0c0,0,0-0.1,0-0.1c0,0,0,0,0,0c0-0.1,0.1-0.1,0.2-0.1
			c0,0,0.1,0,0.1,0c0.4,0,0.8-0.3,0.8-0.8c0,0,0-0.1,0-0.1C69,88.1,68.7,88.4,68.3,88.4z M61.7,83.9c0,0.1,0,0.1,0,0.1
			c0,0,0,0,0,0.1C61.7,84,61.7,84,61.7,83.9L61.7,83.9c0.2-1.3,1.5-4.5,2.1-5c0.1,0,0.1-0.1,0.1-0.1c0.5,0,2,3.6,2.2,5.1
			c0,0,0-0.1,0-0.1c-0.1-1.4-1.7-5.3-2.2-5.3c0,0-0.1,0-0.1,0.1c-0.6,0.5-2.1,4.1-2.1,5.4C61.7,84,61.7,83.9,61.7,83.9L61.7,83.9z
			 M62.8,88.9c-0.9-2.5-2.5-3.8-4.2-3.8c-1.3,0-2.3,1-2.3,2.3c0,0,0-0.1,0-0.1l0,0c0,0,0,0.1,0,0.1c0,0,0,0.1,0,0.1c0,0,0-0.1,0-0.1
			l0,0c0.1-1.2,1.1-2.1,2.3-2.1C60.3,85.3,61.9,86.6,62.8,88.9C62.8,88.9,62.8,88.9,62.8,88.9z M65.2,91.3
			C65.2,91.3,65.2,91.3,65.2,91.3L65.2,91.3C65.1,91.3,65.1,91.3,65.2,91.3C65.1,91.2,65.1,91.2,65.2,91.3c-0.4-0.3-0.7-0.7-0.8-1.1
			c0-0.2-0.2-0.3-0.4-0.3c-0.2,0-0.3,0.1-0.4,0.3c-0.1,0.4-0.4,0.8-0.8,1c0,0,0,0,0,0c0,0,0,0,0,0l0,0c0,0,0,0,0,0v0c0,0,0,0,0,0
			l0.2,0.1c0.3-0.2,0.6-0.6,0.7-1c0-0.2,0.2-0.3,0.4-0.3c0.2,0,0.3,0.1,0.4,0.3c0.1,0.4,0.4,0.7,0.7,1l0,0l0,0l0,0l0,0L65.2,91.3
			C65.2,91.3,65.2,91.3,65.2,91.3L65.2,91.3z"/>
		<path class="st13" d="M68.3,86.8c-0.7,0-2.1,0.7-2.8,2.3v0c0,0,0,0,0,0l0,0c-0.1,0.1-0.1,0.2-0.3,0.2c-0.1,0-0.2-0.1-0.3-0.2l0,0
			C65,89,65,89,65,89c0.1,0.1,0.1,0.1,0.2,0.1c0.1,0,0.2-0.1,0.3-0.2l0,0c0,0,0,0,0,0c0,0,0,0,0,0c0.7-1.5,2-2.3,2.8-2.3
			c0.4,0,0.8,0.3,0.8,0.8c0,0,0,0.1,0,0.1C69,87.1,68.7,86.8,68.3,86.8z M59.9,88.5c0,0,0,0.1,0,0.1l0,0c0,0.1-0.1,0.3-0.2,0.4
			c-0.2,0.2-0.6,0.4-1,0.4c-1.2,0-2.2-0.9-2.3-2.1c0,0,0,0.1,0,0.1c0,0,0-0.1,0-0.1c0,1.3,1,2.3,2.3,2.3c0.4,0,0.8-0.2,1-0.4
			c0.2-0.2,0.2-0.4,0.3-0.5v0c0,0,0-0.1,0-0.1C59.9,88.6,59.9,88.6,59.9,88.5C59.9,88.6,59.9,88.6,59.9,88.5
			C59.9,88.5,59.9,88.5,59.9,88.5z M71.5,87.2c0,0,0,0.1,0,0.1l0,0c-0.1,1.2-1.1,2.1-2.3,2.1c-0.4,0-0.8-0.2-1-0.4
			c-0.1-0.2-0.2-0.3-0.2-0.4c0,0,0,0,0,0c0,0,0,0,0,0.1c0,0.2,0.1,0.3,0.3,0.5c0.2,0.2,0.6,0.4,1,0.4c1.3,0,2.3-1,2.3-2.3V87.2
			C71.5,87.3,71.5,87.3,71.5,87.2z M63.7,89c0,0.1,0.1,0.3,0.3,0.3c0.1,0,0.3-0.1,0.3-0.3c0,0,0,0,0,0c0-1.4,1.9-3.9,2-4.9
			c0,0,0,0,0-0.1c0-0.1,0-0.1,0-0.2c0,0,0,0.1,0,0.1l0,0c-0.1,1.1-1.9,3.5-2,4.8c0,0,0,0,0,0c0,0.1-0.1,0.3-0.3,0.3
			c-0.2,0-0.3-0.1-0.3-0.3v0c0-1.3-1.8-3.7-2-4.8c0,0,0,0.1,0,0.1c0,0,0-0.1,0-0.1C61.7,85,63.7,87.6,63.7,89L63.7,89z M65,91.4
			c-0.2,0.4-0.6,0.9-0.9,1.2C64,92.6,64,92.6,64,92.6c0,0-0.1,0-0.1-0.1c-0.4-0.3-0.7-0.8-1-1.2l-0.2-0.1c0,0,0,0,0,0
			c0,0,0,0.1,0.1,0.1c0.2,0.4,0.6,0.9,1,1.3c0.1,0.1,0.1,0.1,0.1,0.1c0,0,0,0,0.1-0.1C64.5,92.4,64.9,91.9,65,91.4L65,91.4
			c0.1,0,0.1,0,0.1,0c0,0,0,0,0,0L65,91.4L65,91.4z M62.9,89.1L62.9,89.1L62.9,89.1C62.8,89.1,62.8,89.1,62.9,89.1z M62.9,89
			C62.9,89,62.9,89,62.9,89C62.9,89,62.9,89,62.9,89c0-0.1,0-0.1,0-0.2C62.8,88.9,62.8,88.9,62.9,89L62.9,89L62.9,89
			C62.9,89.1,62.9,89.1,62.9,89L62.9,89z M62.8,89.1L62.8,89c-0.1,0.1-0.1,0.1-0.2,0.1c-0.1,0-0.2-0.1-0.3-0.2c0,0,0,0,0,0
			c0,0,0,0,0,0c-0.7-1.5-2-2.3-2.8-2.3c-0.4,0-0.8,0.3-0.8,0.8c0,0,0,0.1,0,0.1c0.1-0.4,0.4-0.7,0.8-0.7c0.7,0,2.1,0.7,2.8,2.3v0
			c0,0,0,0,0,0c0.1,0.1,0.2,0.2,0.3,0.2C62.7,89.3,62.8,89.2,62.8,89.1z"/>
		<g>
			
				<linearGradient id="SVGID_00000066476115997245516030000005440914396817351085_" gradientUnits="userSpaceOnUse" x1="38.5331" y1="-1529.6293" x2="30.0939" y2="-1515.0121" gradientTransform="matrix(1 0 0 -1 0 -1492.3954)">
				<stop  offset="0" style="stop-color:#848689"/>
				<stop  offset="0.8528" style="stop-color:#808285"/>
			</linearGradient>
			<path style="fill:url(#SVGID_00000066476115997245516030000005440914396817351085_);" d="M39.3,23.2c-0.3-0.5-0.6-1-1.1-1.4
				c-2-1.8-5.3-1.6-7.1,0.4l-6,6.6v0.4l10.5,9.6l0.2-0.2c0.6-0.7,1.1-1.2,1.9-1.9c0,0,0-0.4,0-0.4l-3.3-3l0.2,0.2l2.3-2.6l1.1-1.3
				c0.4-0.4,0.8-0.9,1.1-1.4c0.6-1,0.9-2.2,0.7-3.4C39.8,24.3,39.6,23.7,39.3,23.2z M36.4,27.4l-3.9,4.3l-3.5-3.2l0.2,0.2l3.1-3.6
				c0.3-0.3,0.5-0.6,0.8-0.9c0.3-0.3,0.6-0.5,1-0.6c0.7-0.2,1.6-0.1,2.2,0.5C37.2,24.9,37.3,26.4,36.4,27.4z"/>
			
				<linearGradient id="SVGID_00000018948056553527676960000001115683927959486138_" gradientUnits="userSpaceOnUse" x1="72.165" y1="-1521.1313" x2="61.9872" y2="-1503.5029" gradientTransform="matrix(1 0 0 -1 0 -1492.3954)">
				<stop  offset="0" style="stop-color:#797A7D"/>
				<stop  offset="8.717640e-02" style="stop-color:#757779"/>
				<stop  offset="0.475" style="stop-color:#696A6D"/>
				<stop  offset="0.85" style="stop-color:#656668"/>
			</linearGradient>
			<path style="fill:url(#SVGID_00000018948056553527676960000001115683927959486138_);" d="M69.2,11.7h-8.3l0,14.7
				c1.1-0.1,2-0.1,2.9-0.1h0.3v-4.4h3.6l3,4.7c0.1,0.2,0.3,0.3,0.4,0.4c0.2,0,0.3,0.1,0.5,0.1c0.3,0.1,0.6,0.1,0.9,0.2
				c0.3,0.1,0.6,0.2,0.9,0.2l0.5,0.1c0.2-0.1,0.3-0.1,0.5-0.2l-3.8-6c0.6,0,1.1-0.2,1.6-0.5c0.5-0.3,1-0.6,1.4-1.1
				c0.4-0.4,0.7-1,0.9-1.5c0.2-0.6,0.2-1.2,0.1-1.7C74.5,14,71.9,11.7,69.2,11.7z M69.2,19.1h-5.1l0-4.5l5.1-0.1
				c1.3,0,2.4,0.8,2.4,2.1C71.6,18,70.5,19.1,69.2,19.1z"/>
			
				<linearGradient id="SVGID_00000042018078413355689760000015680604269217230506_" gradientUnits="userSpaceOnUse" x1="97.1011" y1="-1529.2423" x2="88.9553" y2="-1515.1333" gradientTransform="matrix(1 0 0 -1 0 -1492.3954)">
				<stop  offset="0" style="stop-color:#434345"/>
				<stop  offset="5.305134e-02" style="stop-color:#48484A"/>
				<stop  offset="0.3241" style="stop-color:#5B5C5E"/>
				<stop  offset="0.5917" style="stop-color:#67686B"/>
				<stop  offset="0.85" style="stop-color:#6B6C6F"/>
			</linearGradient>
			<path style="fill:url(#SVGID_00000042018078413355689760000015680604269217230506_);" d="M89.9,22.3c-1.9,1.8-0.8,4.5,0.8,6.3
				l1.6,1.7c1.6,1.7,3.1,3.4,1.7,4.5c-1.4,1.2-5.3-1.7-7.7-6.7l-2.1,1.6c0.1,0.7,0.4,1.3,0.6,1.9c0.3,0.6,0.7,1.1,1.1,1.7
				c0.8,1.1,1.7,2,2.8,2.9s2.2,1.6,3.6,1.9c0.7,0.2,1.4,0.2,2.1,0.1c0.7-0.2,1.3-0.5,1.7-1.1c2.2-2,1.4-4.9-2-8.5L92.8,27
				c-0.4-0.6-0.6-1-0.7-1.3c-0.1-0.3-0.1-0.5,0-0.7c0.1-0.2,0.2-0.3,0.4-0.4c0.4-0.2,0.9,0,1.4,0.2c0.5,0.2,0.9,0.5,1.4,0.8
				c0.9,0.6,1.6,1.4,2.3,2.2c0.7,0.8,1.3,1.7,1.5,2.7l0.1,0.4l0.3-0.3c0.1-0.1,0.2-0.1,0.3-0.2c0.1-0.1,0.2-0.1,0.3-0.2l1.2-0.9
				c0.1-0.2,0.1-0.3,0.2-0.5C99.8,24.1,93.1,19.3,89.9,22.3z"/>
			
				<linearGradient id="SVGID_00000041281268078199435540000003938577633871445159_" gradientUnits="userSpaceOnUse" x1="84.1973" y1="-1519.9224" x2="78.3987" y2="-1509.879" gradientTransform="matrix(1 0 0 -1 0 -1492.3954)">
				<stop  offset="0" style="stop-color:#58595B"/>
				<stop  offset="4.705749e-02" style="stop-color:#5C5D5F"/>
				<stop  offset="0.3201" style="stop-color:#707274"/>
				<stop  offset="0.5897" style="stop-color:#7C7E81"/>
				<stop  offset="0.85" style="stop-color:#808285"/>
			</linearGradient>
			<path style="fill:url(#SVGID_00000041281268078199435540000003938577633871445159_);" d="M85.4,16.2c-0.9-0.4-1.8-0.8-2.8-1.1
				l-5.4,13.1c0,0-0.1,0.3-0.1,0.3l0.1,0.4c0.9,0.3,1.7,0.7,2.5,1.1L80,30l5.4-13L85.4,16.2L85.4,16.2z"/>
			
				<linearGradient id="SVGID_00000148619478210192428950000000970546362360655287_" gradientUnits="userSpaceOnUse" x1="52.3866" y1="-1522.9653" x2="43.8957" y2="-1508.2587" gradientTransform="matrix(1 0 0 -1 0 -1492.3954)">
				<stop  offset="0" style="stop-color:#808285"/>
				<stop  offset="0.85" style="stop-color:#808285"/>
			</linearGradient>
			<path style="fill:url(#SVGID_00000148619478210192428950000000970546362360655287_);" d="M58.9,26.1L48,14.1c-1,0.3-2,0.7-3,1.1
				l-1.1,16.1c0,0.1,0,0.6,0,0.6c1-0.6,2.3-1.3,3.3-1.8l0.2-3.8c1.9-0.8,3.8-1.5,5.8-2l2.5,2.8c1.1-0.2,2.6-0.5,3.7-0.6l-0.2-0.2
				L58.9,26.1z M47.5,23.4l0.2-5.3l3.5,4C49.9,22.5,48.7,22.9,47.5,23.4z"/>
		</g>
		<path class="st2" d="M31.1,22.3l-6,6.6l10.5,9.6c0.7-0.7,1.4-1.4,2.1-2.1l-3.3-3l4.1-4.5c1.8-2,1.8-5.3-0.2-7.1
			C36.2,20,33,20.3,31.1,22.3z M36.4,27.4l-3.9,4.3l-3.5-3.2l3.9-4.3c0.9-1,2.4-1,3.4-0.2C37.2,24.9,37.3,26.4,36.4,27.4z M45,15.2
			l-1.1,16.4c1-0.6,2-1.1,3-1.6l0.2-3.8c2-0.9,4-1.6,6.2-2.2l2.5,2.9c1.1-0.2,2.2-0.4,3.4-0.6L48,14.1C47,14.5,46,14.8,45,15.2z
			 M47.2,23.5l0.2-6.2l4.1,4.7C50,22.4,48.6,23,47.2,23.5z M74.5,16.7c0-2.7-2.6-4.9-5.3-4.9h-8.3v14.4c1-0.1,1.9-0.1,2.9-0.1l0,0
			v-4.4h3.7l3.2,5c1.3,0.2,2.5,0.5,3.7,0.9l-3.8-6C72.7,20.9,74.5,19,74.5,16.7z M69.2,19.1h-5.4v-4.8h5.4c1.3,0,2.4,1.1,2.4,2.4
			C71.6,18,70.5,19.1,69.2,19.1z M92.8,27l1.4,1.5c3.4,3.6,4.2,6.5,2,8.5c-0.9,0.8-2.2,1-3.5,0.7c-1.7-0.3-3.6-1.5-5.3-3.3
			c-1.5-1.6-2.7-3.5-3.2-4.8l2.1-1.6c2.3,5,6.2,7.9,7.7,6.7c1.3-1.1-0.1-2.8-1.7-4.5l-1.6-1.7c-1.7-1.7-2.7-4.5-0.8-6.3
			c3.2-3,9.9,1.8,11.6,6.6c0,0-1.4,1-2,1.5c-0.8-2.7-4.7-6.6-6.9-6.1C91.9,24.4,91.3,25.4,92.8,27z M85.4,16.2l-5.6,13.4
			c-0.9-0.4-1.8-0.8-2.8-1.2L82.6,15C83.6,15.4,84.5,15.8,85.4,16.2z"/>
		
			<linearGradient id="SVGID_00000119817463432263251980000015188555526130336388_" gradientUnits="userSpaceOnUse" x1="75.6961" y1="-1502.9845" x2="53.4098" y2="-1541.5854" gradientTransform="matrix(1 0 0 -1 0 -1492.3954)">
			<stop  offset="0" style="stop-color:#000000"/>
			<stop  offset="1" style="stop-color:#939598"/>
		</linearGradient>
		<path style="opacity:0.7;fill:url(#SVGID_00000119817463432263251980000015188555526130336388_);enable-background:new    ;" d="
			M53.2,24l2.5,2.9l-0.2,0.3l-2.5-2.8L53.2,24z M46.9,30l0.3,0.1l0.2-3.8L47,26.2L46.9,30z M47.2,23.5l0.3-0.1l0.2-5.3l-0.3-0.7
			L47.2,23.5z M36.3,24c-1-0.9-2.5-0.8-3.4,0.2l-3.9,4.3l0.2,0.2l3.1-3.6c0.3-0.3,0.5-0.6,0.8-0.9c0.3-0.3,0.6-0.5,1-0.6
			C34.8,23.3,35.7,23.5,36.3,24z M39.3,23.2l-0.1-0.2c1,1.8,0.7,4.3-0.8,5.9l-4.1,4.5l0.2,0.2l2.3-2.6l1.1-1.3
			c0.4-0.4,0.8-0.9,1.1-1.4c0.6-1,0.9-2.2,0.7-3.4C39.8,24.3,39.6,23.7,39.3,23.2z M35.6,38.5l0,0.4l0.2-0.2
			c0.6-0.7,1.1-1.2,1.9-1.9l0-0.4C36.9,37.1,36.2,37.8,35.6,38.5z M80,30l5.4-13v-0.8l-5.6,13.4L80,30z M99.4,30.4l-0.2,0.5l0.3-0.3
			c0.1-0.1,0.2-0.1,0.3-0.2c0.1-0.1,0.2-0.1,0.3-0.2l1.2-0.9l0.2-0.5C101.4,28.9,100,29.9,99.4,30.4z M70.5,21.5
			c0.6,0,1.1-0.2,1.6-0.5c0.5-0.3,1-0.6,1.4-1.1c0.4-0.4,0.7-1,0.9-1.5c0.2-0.6,0.2-1.2,0.1-1.7C74.5,19,72.7,20.9,70.5,21.5z
			 M63.8,14.3v4.8h0.3l0-4.5L63.8,14.3z M63.8,26l0.3,0.3v-4.4l-0.3-0.3V26z"/>
		<g>
			<g>
				<g>
					<path class="st2" d="M35.3,102.4l-0.7-0.5l0.6-1.9l-1.8-1.6l-1.8,0.9l-0.6-0.6l5.4-2.5l0.7,0.6L35.3,102.4z M36,97.2l-1.9,0.9
						l1.3,1.1L36,97.2z"/>
					<path class="st2" d="M40.6,99.5l-3,4.6l-0.6-0.4l3-4.6L40.6,99.5z"/>
					<path class="st2" d="M43,101l0.9,5.1l0,0l1.9-3.6l0.7,0.4l-2.5,4.8l-0.7-0.3l-0.9-5.2l0,0l-1.9,3.7l-0.7-0.4l2.5-4.8L43,101z"
						/>
					<path class="st2" d="M52.3,105l-0.3,0.7l-1.8-0.6l-1.5,4.4l-0.7-0.3l1.5-4.4l-1.8-0.6l0.3-0.7L52.3,105z"/>
					<path class="st2" d="M64.1,109l2.5,0l0,1.4c0,1-1.1,1.6-2.4,1.6c-1.4,0-2.9-1-2.9-2.9c0-1.5,1.3-2.8,3-2.8c1.3,0,1.9,0.7,2.3,1
						L66,108c-0.3-0.3-0.7-0.8-1.6-0.8c-1.4,0-2.3,0.9-2.3,2c0,1,0.8,2,2.2,2c0.9,0,1.6-0.4,1.6-0.9l0-0.6l-1.7,0L64.1,109z"/>
					<path class="st2" d="M72.6,105.7l0.1,0.8l-3.6,0.5l0.2,1.4l1.8-0.3l0.1,0.8l-1.8,0.3l0.2,1.6l3.7-0.5l0.1,0.8l-4.5,0.6
						l-0.8-5.3L72.6,105.7z"/>
					<path class="st2" d="M77.5,104.4c0.8-0.3,1.7-0.1,2.1,1c0.3,1.1-0.3,1.7-0.7,1.9l1.7,1.8l-0.8,0.3l-1.7-1.8l-1.9,0.6l0.7,2.2
						l-0.7,0.2l-1.6-5.2L77.5,104.4z M75.4,105.8l0.5,1.5l2.3-0.7c0.5-0.2,0.8-0.6,0.6-1.1c-0.2-0.6-0.7-0.6-1.1-0.5L75.4,105.8z"/>
					<path class="st2" d="M94.2,101.3l-0.7,0.5l-1.7-1l-2,1.4l0.4,2l-0.7,0.4l-1.1-5.8l0.7-0.5L94.2,101.3z M89.3,99.3l0.4,2l1.4-1
						L89.3,99.3z"/>
					<path class="st2" d="M92.5,95.6l3.7,4l-0.6,0.5l-3.7-3.9L92.5,95.6z"/>
					<path class="st2" d="M94.7,93.5l5.2,0.4l0,0l-3-2.7l0.5-0.6l4,3.6l-0.5,0.6l-5.2-0.4l0,0l3.1,2.8l-0.5,0.6l-4-3.6L94.7,93.5z"
						/>
					<polygon class="st2" points="85.5,100.7 84.8,101.1 84.7,104.9 81.5,102.7 80.8,103.1 83.2,108 83.9,107.6 82.3,104.2 
						82.3,104.2 85.4,106.3 85.5,102.5 85.5,102.5 87.4,105.9 88.1,105.5 					"/>
				</g>
				<path class="st2" d="M33.2,93.8c-0.4-1.6-2.1-3.3-3.4-3.3c-0.3,0-0.5,0.1-0.8,0.2c-0.3,0.2-0.4,0.4-0.4,0.8
					c-0.1,0.5,0.1,1.1,0.5,1.6l0.6,0.8c0.4,0.6,0.9,1.2,0.8,1.7c0,0.2-0.1,0.4-0.3,0.5c-0.1,0.1-0.2,0.1-0.3,0.1
					c-0.8,0-2.1-1.4-2.8-3.4l0,0l-0.6,0.5l0,0v0c0.1,0.5,0.5,1.3,1,2.1c0.6,0.8,1.3,1.4,1.9,1.6c0.2,0.1,0.4,0.1,0.6,0.1
					c0.3,0,0.5-0.1,0.7-0.2c0.3-0.2,0.5-0.5,0.5-0.9c0.1-0.6-0.2-1.5-1-2.5l-0.5-0.7c-0.4-0.5-0.4-0.9-0.3-1.1
					c0.1-0.2,0.2-0.3,0.4-0.3c0,0,0.1,0,0.1,0c0.9,0,2.2,1.5,2.6,2.7l0,0l0,0C32.9,94,33.1,93.9,33.2,93.8L33.2,93.8L33.2,93.8z"/>
			</g>
			<path class="st2" d="M56.9,109.2l-1.9-0.4l0.2-0.8l1.9,0.4L56.9,109.2z"/>
		</g>
		<g>
			<g class="st20">
				<g>
					<path class="st21" d="M35.3,102.7l-0.8-0.6l0.7-1.8l-1.8-1.6l-1.8,0.9l-0.9-0.8l5.6-2.6l0.8,0.7L35.3,102.7z M36,97.4l-1.9,0.9
						l1.3,1.1L36,97.4z"/>
					<path class="st21" d="M40.8,99.5l-3.2,4.8l-0.9-0.6l3.1-4.8L40.8,99.5z"/>
					<path class="st21" d="M43,100.9l1,5.4l0,0l2-3.8l0.7,0.4l-2.6,5l-0.7-0.4l-0.9-5.2l0,0l-1.9,3.7l-0.9-0.5l2.5-4.8L43,100.9z"/>
					<path class="st21" d="M52.4,104.9l-0.3,1l-1.8-0.6l-1.5,4.4l-0.9-0.3l1.5-4.4l-1.8-0.6l0.3-1L52.4,104.9z"/>
					<path class="st21" d="M64.1,108.9l2.6,0.1l0,1.8c0,1-1.1,1.6-2.4,1.6c-1.4,0-2.9-1-2.9-2.9c0-1.5,1.3-2.8,3-2.8
						c1.3,0,2.1,0.6,2.4,0.9l-0.7,0.7c-0.3-0.3-0.7-0.8-1.6-0.8c-1.4,0-2.3,0.9-2.3,2c0,1.1,0.8,2,2.2,2c0.9,0,1.6-0.4,1.6-0.9
						l0-0.6l-1.8,0L64.1,108.9z"/>
					<path class="st21" d="M72.6,106l0.1,0.8l-3.6,0.5l0.2,1.4l1.8-0.3l0.1,0.8l-1.8,0.3l0.2,1.6l3.7-0.5l0.1,0.8l-4.5,0.6l-0.8-5.3
						L72.6,106z"/>
					<path class="st21" d="M77.5,104.6c0.8-0.2,1.7-0.1,2.1,1c0.3,1.1-0.3,1.7-0.7,1.9l1.8,1.8l-0.9,0.3l-1.7-1.8l-1.9,0.6l0.7,2.2
						l-0.8,0.2l-1.6-5.2L77.5,104.6z M75.5,106l0.5,1.5l2.3-0.7c0.6-0.2,0.8-0.5,0.6-1c-0.2-0.6-0.7-0.6-1.1-0.5L75.5,106z"/>
					<path class="st21" d="M94.4,101.4l-0.8,0.6l-1.7-1l-2,1.4l0.4,1.9l-0.8,0.5l-1.1-5.8l0.9-0.7L94.4,101.4z M89.4,99.5l0.4,2
						l1.4-1L89.4,99.5z"/>
					<path class="st21" d="M92.5,95.5l3.9,4.1l-0.6,0.6l-3.9-4.2L92.5,95.5z"/>
					<path class="st21" d="M94.5,93.5l5.4,0.6l0,0l-3.3-2.9l0.6-0.7l4.2,3.8l-0.5,0.7l-5.2-0.4l0.1-0.1l3.1,2.8l-0.6,0.6L94,94.1
						L94.5,93.5z"/>
					<polygon class="st21" points="85.6,100.9 84.9,101.3 84.8,105.1 81.6,103 81,103.3 83.3,108.2 84,107.9 82.4,104.4 82.4,104.4 
						85.5,106.5 85.6,102.8 85.7,102.7 87.5,106.1 88.2,105.7 					"/>
				</g>
				<path class="st21" d="M33.3,94c-0.4-1.6-2.1-3.3-3.4-3.3c-0.3,0-0.5,0.1-0.8,0.2c-0.3,0.2-0.4,0.4-0.4,0.7
					c-0.1,0.5,0.1,1.1,0.5,1.6l0.6,0.8c0.4,0.6,0.9,1.2,0.8,1.7c0,0.2-0.2,0.4-0.3,0.5c-0.1,0.1-0.2,0.1-0.4,0.1
					c-0.8,0-2.1-1.4-2.7-3.4l0,0l-0.6,0.5l0,0l0,0c0.1,0.5,0.5,1.3,1,2.1c0.6,0.8,1.3,1.4,1.9,1.6c0.2,0.1,0.4,0.1,0.6,0.1
					c0.3,0,0.5-0.1,0.7-0.2c0.3-0.2,0.5-0.5,0.5-0.9c0.1-0.6-0.2-1.5-1-2.5L29.9,93c-0.4-0.5-0.4-0.9-0.3-1.1
					c0.1-0.2,0.2-0.3,0.4-0.3c0,0,0.1,0,0.1,0c0.9,0,2.2,1.5,2.6,2.7l0,0l0,0C32.9,94.2,33.2,94.1,33.3,94L33.3,94L33.3,94z"/>
			</g>
			<path class="st22" d="M57,109.4l-2-0.5l0.2-1.1l2,0.5L57,109.4z"/>
		</g>
		<g>
			<path class="st23" d="M36.3,96.1l-5.5,2.6l0.6,0.5l0.1,0h0l1.8-0.9l1.9,1.6l-0.6,1.9l0,0l0,0.1l0.6,0.4v0v0l0-0.1l0,0v0l0,0
				l1.7-5.6L36.3,96.1z M34.1,98l1.9-1l-0.6,2.1L34.1,98z"/>
			<polygon class="st23" points="40.6,99.4 39.9,99 39.9,99 39.9,99 36.9,103.6 37.5,104 37.5,104 37.6,104 37.6,104 37.6,104 			
				"/>
			<polygon class="st23" points="45.8,102.4 43.9,106 42.9,100.9 42.3,100.5 42.3,100.5 42.2,100.5 42.2,100.5 42.2,100.5 
				39.7,105.4 40.3,105.7 40.3,105.7 40.4,105.7 40.4,105.6 40.4,105.7 40.4,105.7 40.4,105.7 40.4,105.6 40.4,105.6 40.4,105.6 
				40.4,105.6 42.4,102 43.3,107 44,107.3 44,107.3 44,107.3 44,107.3 44,107.3 44,107.3 44,107.3 44.1,107.3 44.1,107.3 
				44.1,107.3 44.1,107.3 46.5,102.8 			"/>
			<polygon class="st23" points="48,103.4 47.7,104.2 49.6,104.8 48.1,109.1 48.1,109.1 48.1,109.2 48.7,109.3 48.7,109.3 
				48.7,109.3 48.7,109.3 48.7,109.3 48.7,109.3 48.7,109.3 50.2,105 52,105.6 52,105.6 52,105.6 52.1,105.5 52.1,105.5 52.1,105.5 
				52.1,105.5 52.3,104.9 			"/>
			<polygon class="st23" points="73.3,110.2 73.3,110.2 73.3,110.2 73.3,110.2 73.3,110.2 73.3,110.2 73.3,110.2 69.6,110.7 
				69.4,109.2 71.2,108.9 71.2,108.8 71.2,108.8 71.1,108.1 71,108.1 71,108.1 71,108.1 71,108.1 69.2,108.3 69,107 72.6,106.5 
				72.6,106.4 72.7,106.4 72.5,105.6 72.5,105.6 72.5,105.6 72.5,105.6 72.5,105.6 72.5,105.6 72.5,105.6 68.2,106.3 68.9,111.6 
				69,111.6 69,111.6 69,111.6 69,111.7 69,111.7 69,111.7 73.4,111 73.4,111 73.4,111 			"/>
			<path class="st23" d="M92.7,100.4l-3.6-2.2l-0.7,0.5l1.2,5.9l0.7-0.4l0.1-0.1l-0.4-2l2-1.5l1.7,1l0,0l0,0l0.6-0.4l0,0l0.1,0
				L92.7,100.4z M89.7,101.3l-0.5-2.1l1.9,1.1L89.7,101.3z"/>
			<polygon class="st23" points="92.5,95.5 91.9,96.1 95.6,100 95.6,100 95.6,100 96.1,99.6 96.1,99.6 96.1,99.5 			"/>
			<polygon class="st23" points="101.3,94.1 97.3,90.4 96.8,91 100,93.9 94.6,93.5 94.6,93.5 94.1,94 98.2,97.6 98.2,97.6 
				98.2,97.6 98.5,97.2 98.5,97.1 98.5,97.1 95.5,94.3 100.9,94.6 100.9,94.6 100.9,94.6 101.3,94.2 101.3,94.1 			"/>
			<polygon class="st23" points="55.2,108 55,108.8 56.9,109.2 56.9,109.2 56.9,109.2 56.9,109.1 56.9,109.1 56.9,109.1 56.9,109.1 
				57.1,108.4 			"/>
			<path class="st23" d="M79.3,106.8c0.2-0.3,0.4-0.8,0.2-1.4c-0.2-0.5-0.4-0.8-0.8-1c-0.2-0.1-0.4-0.2-0.7-0.2
				c-0.2,0-0.4,0-0.6,0.1l-3.1,0.9l1,3.2l0.6,2h0l0,0l0.1,0l0,0l0.6-0.2l-0.7-2.2l2.1-0.7l1.6,1.9l0,0h0l0.1,0l0,0l0.6-0.3l-1.7-1.8
				C78.8,107.1,79.2,107,79.3,106.8z M75.3,105.8l2.4-0.8c0.1,0,0.2-0.1,0.3-0.1c0.3,0,0.6,0.2,0.8,0.6c0,0.1,0,0.1,0,0.2
				c0,0.4-0.2,0.7-0.7,0.8l-2.4,0.7L75.3,105.8z"/>
			<path class="st23" d="M31.2,96.4c0.1-0.2,0.1-0.4,0.1-0.6c0.1-0.6-0.2-1.3-1-2.3l-0.5-0.7c-0.4-0.5-0.3-0.9-0.2-1.2
				c0,0,0-0.1,0.1-0.1c0.1-0.1,0.2-0.2,0.3-0.2c0,0,0.1,0,0.1,0c0.9,0,2.3,1.5,2.6,2.7l0,0h0l0,0l0,0c0.2-0.1,0.3-0.2,0.5-0.2l0,0
				l0,0c0,0,0,0,0,0c0,0,0,0,0,0l0,0l0,0c-0.4-1.4-1.5-2.7-2.6-3.1c-0.3-0.1-0.5-0.2-0.8-0.2l0,0c0,0,0,0,0,0
				c-0.3,0-0.5,0.1-0.8,0.2c-0.2,0.2-0.4,0.4-0.4,0.7c0,0.1,0,0.3,0,0.4c0,0.4,0.4,1,0.7,1.4l0.5,0.7c0.4,0.5,0.7,0.7,0.7,1.2
				c0,0.2,0,0.3,0,0.4c0,0.2-0.1,0.4-0.3,0.5c-0.1,0.1-0.2,0.1-0.4,0.1c-0.1,0-0.2,0-0.3-0.1c-0.8-0.3-1.8-1.6-2.4-3.3l0-0.1l0,0
				l-0.6,0.5l0,0c0,0,0,0.1,0,0.1c0,0,0.5,1.3,1.1,2c0.6,0.8,1.2,1.3,1.8,1.5c0.2,0.1,0.4,0.1,0.6,0.1h0l0,0c0.3,0,0.6,0,0.7-0.1
				C30.9,96.7,31.1,96.5,31.2,96.4z"/>
			<path class="st23" d="M64.2,108.9L64.2,108.9v0.8h0v0.1h0.1l0,0l1.6,0l0,0.6c0,0.5-0.7,0.9-1.6,0.9c-0.1,0-0.1,0-0.2,0
				c-0.7-0.1-1.2-0.4-1.6-0.8c-0.3-0.4-0.4-0.6-0.4-1.2c0-0.4,0.1-0.7,0.3-1c0.4-0.6,1.1-1.1,2.1-1.1c1,0,1.4,0.5,1.6,0.8l0,0v0l0,0
				c0,0,0,0,0,0h0l0,0l0.5-0.5l0,0l0,0c-0.1-0.1-0.2-0.2-0.3-0.3c-0.4-0.3-1-0.7-2-0.7l0,0c0,0,0,0-0.1,0h0l0,0c-1.7,0-3,1.2-3,2.7
				c0,0.1,0,0.2,0,0.4c0.1,1.6,1.5,2.5,2.9,2.5l0,0c0,0,0,0,0,0c0,0,0,0,0,0s0,0,0,0c0,0,0,0,0,0l0,0c1,0,1.8-0.3,2.2-0.9
				c0.1-0.2,0.2-0.4,0.2-0.7l0-1.4L64.2,108.9z"/>
			<polygon class="st23" points="85.5,100.6 84.8,101 84.6,104.9 81.5,102.7 80.8,103 82.2,105.8 83.2,107.9 83.2,107.9 83.2,107.9 
				83.6,107.7 83.9,107.6 82.2,104.1 85.4,106.2 85.4,106.2 85.4,106.2 85.4,106.1 85.4,106.2 85.4,106.2 85.4,106.2 85.5,103.1 
				85.5,102.5 85.5,102.5 87.4,105.8 87.4,105.8 87.4,105.8 87.4,105.8 87.4,105.8 88,105.4 			"/>
		</g>
		<g>
			<polygon class="st2" points="55.2,108 55,108.8 55,108.8 55,108.8 56.9,109.2 56.9,109.2 56.9,109.2 56.9,109.2 56.9,109.2 
				57.1,108.4 			"/>
			<path class="st2" d="M64.2,108.9L64.2,108.9l0,0.8l0,0v0l1.7,0l-0.1,0.6c0,0.5-0.7,0.9-1.6,0.9c-1.4,0-2.3-0.9-2.2-2
				c0-0.4,0.1-0.8,0.3-1.1c0.1-0.2,0.3-0.3,0.5-0.5c0.1,0,0.1-0.1,0.2-0.1c0.4-0.2,0.8-0.3,1.3-0.3c1,0,1.4,0.5,1.7,0.8l0,0
				c0,0,0,0,0,0v0c0,0,0,0,0,0l0,0c0,0,0,0,0,0l0.5-0.6l0,0l0,0c-0.3-0.3-1-1-2.3-1c0,0,0,0,0,0c0,0,0,0,0,0c-1.7,0-3,1.2-3,2.8
				c0,0,0,0,0,0c0,0,0,0,0,0c0,1.8,1.5,2.8,2.9,2.9c0.6,0,1.1-0.1,1.5-0.3c0.1-0.1,0.2-0.1,0.3-0.2c0.2-0.1,0.3-0.3,0.4-0.4
				c0.1-0.2,0.2-0.4,0.2-0.7l0-1.4L64.2,108.9L64.2,108.9z"/>
			<path class="st2" d="M31,96.6c0.2-0.2,0.2-0.5,0.2-0.8c0.1-0.6-0.2-1.3-1-2.3l-0.5-0.7c-0.4-0.5-0.3-0.9-0.2-1.1
				c0-0.1,0.1-0.1,0.2-0.2c0.1-0.1,0.2-0.1,0.2-0.1c0,0,0.1,0,0.1,0c0.9,0,2.3,1.5,2.6,2.7l0,0h0l0,0l0,0c0.2-0.1,0.3-0.2,0.5-0.2
				l0,0c-0.2-0.6-0.5-1.3-0.9-1.8c-0.7-0.9-1.7-1.5-2.5-1.5c-0.3,0-0.5,0.1-0.7,0.2c-0.1,0.1-0.1,0.1-0.2,0.2
				c-0.1,0.1-0.2,0.3-0.2,0.4c0,0.1,0,0.1,0,0.2c0,0.1,0,0.1,0,0.2c0,0.4,0.3,1,0.6,1.5l0.5,0.7c0.4,0.5,0.7,1,0.8,1.4
				c0,0.1,0,0.1,0,0.2c0,0,0,0.1-0.1,0.2c0,0.1-0.1,0.2-0.2,0.2c0,0-0.1,0.1-0.1,0.1c-0.1,0.1-0.2,0.1-0.3,0.1c-0.4,0-1-0.4-1.6-1.2
				c-0.4-0.6-0.8-1.3-1.1-2.2l0-0.1l-0.6,0.6c0,0,0.3,1.1,1,2c0.6,0.8,1.3,1.4,2,1.6c0.2,0.1,0.4,0.1,0.6,0.1l0,0l0,0
				c0.3,0,0.6,0,0.7-0.1C30.9,96.7,30.9,96.7,31,96.6z"/>
			<polygon class="st2" points="46.5,102.8 46.5,102.8 46.5,102.8 45.8,102.4 45.8,102.4 45.8,102.4 45.8,102.4 45.8,102.4 
				43.9,106.1 42.9,100.9 42.9,100.9 42.9,100.9 42.9,100.9 42.9,100.9 42.3,100.6 42.3,100.6 42.2,100.6 42.2,100.6 42.2,100.6 
				39.7,105.4 39.7,105.4 39.7,105.4 39.7,105.4 39.7,105.4 39.7,105.4 40.4,105.7 40.4,105.7 40.4,105.7 42.4,101.9 43.3,107 
				44,107.3 44,107.3 44.1,107.3 46.5,102.8 			"/>
			<path class="st2" d="M36.9,96.7l-0.7-0.6l-5.4,2.6l0.6,0.5l1.9-0.9l1.9,1.6l-0.6,1.9l0,0v0l0,0l0,0l0.6,0.4l0-0.1l0,0l0,0h0
				L36.9,96.7z M36.1,97l-0.6,2.1l-1.3-1.1L36.1,97z"/>
			<polygon class="st2" points="40.6,99.4 39.9,99 36.9,103.6 37.5,104 37.6,104 			"/>
			<polygon class="st2" points="48,103.4 47.8,104.1 47.7,104.2 49.6,104.8 48.1,109.2 48.1,109.2 48.1,109.2 48.1,109.2 
				48.1,109.2 48.7,109.4 48.7,109.3 48.7,109.3 48.7,109.3 48.7,109.3 50.2,105 52,105.6 52,105.6 52.1,105.6 52.1,105.6 
				52.1,105.6 52.3,104.9 			"/>
			<polygon class="st2" points="73.3,110.2 73.3,110.2 73.3,110.2 69.6,110.8 69.4,109.2 71.1,108.9 71.1,108.9 71.1,108.9 
				71.1,108.9 71.2,108.9 71.2,108.9 71.2,108.9 71.2,108.9 71.2,108.9 71.1,108.1 71,108.1 71,108.1 69.2,108.4 69,107 72.6,106.5 
				72.6,106.5 72.6,106.5 72.6,106.5 72.6,106.5 72.6,106.5 72.6,106.5 72.6,106.4 72.7,106.4 72.5,105.7 72.5,105.7 72.5,105.7 
				68.2,106.3 68.2,106.3 68.2,106.3 68.2,106.3 68.2,106.3 68.2,106.4 68.2,106.4 68.2,106.4 69,111.7 69,111.7 69,111.7 
				73.4,111.1 73.4,111 73.4,111 73.4,111 73.4,111 73.4,111 73.4,111 			"/>
			<path class="st2" d="M78.7,107.2c0.2-0.1,0.5-0.2,0.6-0.4c0.2-0.3,0.4-0.8,0.2-1.4c-0.1-0.5-0.4-0.8-0.7-0.9
				c-0.4-0.2-0.9-0.2-1.3-0.1l-3,0.9l0.5,1.5l1.1,3.7l0.3-0.1l0.4-0.1l-0.6-2.2l2.1-0.7l1.6,1.9l0.6-0.3v0l0.1,0L78.7,107.2z
				 M77.7,105c0.4-0.1,0.9,0,1.1,0.6c0,0.1,0,0.1,0,0.2c0,0.1,0,0.1,0,0.2c0,0.1,0,0.1,0,0.2c-0.1,0.2-0.3,0.4-0.7,0.5l-2.4,0.7
				l-0.4-1.5L77.7,105z"/>
			<path class="st2" d="M89.1,98.2l-0.7,0.5l1.2,5.9l0.6-0.4l0,0l-0.4-2l2-1.5l1.7,1l0.6-0.4l0,0l0.1,0L89.1,98.2z M89.7,101.3
				l-0.5-2.1l1.9,1.1L89.7,101.3z"/>
			<polygon class="st2" points="92.5,95.6 91.9,96.1 95.6,100 96.1,99.6 96.1,99.6 96.1,99.6 			"/>
			<polygon class="st2" points="101.3,94.1 97.3,90.4 96.8,91 100,93.9 94.6,93.5 94.1,94 98.1,97.6 98.5,97.2 98.5,97.2 98.5,97.1 
				95.5,94.3 100.8,94.6 101.2,94.2 101.2,94.2 			"/>
			<polygon class="st2" points="85.5,100.7 84.8,101 84.7,104.9 82.7,103.6 81.5,102.7 81.4,102.8 80.8,103 80.8,103 80.8,103.1 
				80.8,103.1 83.2,107.9 83.8,107.6 83.8,107.6 83.8,107.6 82.1,104 83.6,105 85.4,106.2 85.4,106.2 85.4,106.2 85.4,106.2 
				85.4,106.2 85.4,106.2 85.4,106.2 85.5,103.5 85.5,102.4 85.9,103.1 87.4,105.8 87.4,105.8 87.4,105.8 87.4,105.8 87.4,105.8 
				87.8,105.5 87.9,105.4 87.9,105.4 87.9,105.4 			"/>
		</g>
		<g>
			<g>
				<g>
					<path class="st24" d="M35.3,102.4l-0.7-0.5l0.6-1.9l-1.8-1.6l-1.8,0.9l-0.6-0.6l5.4-2.5l0.7,0.6L35.3,102.4z M36,97.2l-1.9,0.9
						l1.3,1.1L36,97.2z"/>
					<path class="st24" d="M40.6,99.5l-3,4.6l-0.6-0.4l3-4.6L40.6,99.5z"/>
					<path class="st24" d="M43,101l0.9,5.1l0,0l1.9-3.6l0.7,0.4l-2.5,4.8l-0.7-0.3l-0.9-5.2l0,0l-1.9,3.7l-0.7-0.4l2.5-4.8L43,101z"
						/>
					<path class="st24" d="M52.3,105l-0.3,0.7l-1.8-0.6l-1.5,4.4l-0.7-0.3l1.5-4.4l-1.8-0.6l0.3-0.7L52.3,105z"/>
					<path class="st24" d="M64.1,109l2.5,0l0,1.4c0,1-1.1,1.6-2.4,1.6c-1.4,0-2.9-1-2.9-2.9c0-1.5,1.3-2.8,3-2.8
						c1.3,0,1.9,0.7,2.3,1L66,108c-0.3-0.3-0.7-0.8-1.6-0.8c-1.4,0-2.3,0.9-2.3,2c0,1,0.8,2,2.2,2c0.9,0,1.6-0.4,1.6-0.9l0-0.6
						l-1.7,0L64.1,109z"/>
					<path class="st24" d="M72.6,105.7l0.1,0.8l-3.6,0.5l0.2,1.4l1.8-0.3l0.1,0.8l-1.8,0.3l0.2,1.6l3.7-0.5l0.1,0.8l-4.5,0.6
						l-0.8-5.3L72.6,105.7z"/>
					<path class="st24" d="M77.5,104.4c0.8-0.3,1.7-0.1,2.1,1c0.3,1.1-0.3,1.7-0.7,1.9l1.7,1.8l-0.8,0.3l-1.7-1.8l-1.9,0.6l0.7,2.2
						l-0.7,0.2l-1.6-5.2L77.5,104.4z M75.4,105.8l0.5,1.5l2.3-0.7c0.5-0.2,0.8-0.6,0.6-1.1c-0.2-0.6-0.7-0.6-1.1-0.5L75.4,105.8z"/>
					<path class="st24" d="M94.2,101.3l-0.7,0.5l-1.7-1l-2,1.4l0.4,2l-0.7,0.4l-1.1-5.8l0.7-0.5L94.2,101.3z M89.3,99.3l0.4,2l1.4-1
						L89.3,99.3z"/>
					<path class="st24" d="M92.5,95.6l3.7,4l-0.6,0.5l-3.7-3.9L92.5,95.6z"/>
					<path class="st24" d="M94.7,93.5l5.2,0.4l0,0l-3-2.7l0.5-0.6l4,3.6l-0.5,0.6l-5.2-0.4l0,0l3.1,2.8l-0.5,0.6l-4-3.6L94.7,93.5z"
						/>
					<polygon class="st24" points="85.5,100.7 84.8,101.1 84.7,104.9 81.5,102.7 80.8,103.1 83.2,108 83.9,107.6 82.3,104.2 
						82.3,104.2 85.4,106.3 85.5,102.5 85.5,102.5 87.4,105.9 88.1,105.5 					"/>
				</g>
				<path class="st24" d="M33.2,93.8c-0.4-1.6-2.1-3.3-3.4-3.3c-0.3,0-0.5,0.1-0.8,0.2c-0.3,0.2-0.4,0.4-0.4,0.8
					c-0.1,0.5,0.1,1.1,0.5,1.6l0.6,0.8c0.4,0.6,0.9,1.2,0.8,1.7c0,0.2-0.1,0.4-0.3,0.5c-0.1,0.1-0.2,0.1-0.3,0.1
					c-0.8,0-2.1-1.4-2.8-3.4l0,0l-0.6,0.5l0,0v0c0.1,0.5,0.5,1.3,1,2.1c0.6,0.8,1.3,1.4,1.9,1.6c0.2,0.1,0.4,0.1,0.6,0.1
					c0.3,0,0.5-0.1,0.7-0.2c0.3-0.2,0.5-0.5,0.5-0.9c0.1-0.6-0.2-1.5-1-2.5l-0.5-0.7c-0.4-0.5-0.4-0.9-0.3-1.1
					c0.1-0.2,0.2-0.3,0.4-0.3c0,0,0.1,0,0.1,0c0.9,0,2.2,1.5,2.6,2.7l0,0l0,0C32.9,94,33.1,93.9,33.2,93.8L33.2,93.8L33.2,93.8z"/>
			</g>
			<path class="st24" d="M56.9,109.2l-1.9-0.4l0.2-0.8l1.9,0.4L56.9,109.2z"/>
		</g>
	</g>
</g>
</svg>
