<?xml version="1.0" encoding="utf-8"?>
<!-- Generator: Adobe Illustrator 25.2.0, SVG Export Plug-In . SVG Version: 6.00 Build 0)  -->
<svg version="1.1" id="Layer_1" xmlns="http://www.w3.org/2000/svg" xmlns:xlink="http://www.w3.org/1999/xlink" x="0px" y="0px"
	 width="128px" height="128px" viewBox="0 0 128 128" style="enable-background:new 0 0 128 128;" xml:space="preserve">
<style type="text/css">
	.st0{fill:none;}
	.st1{stroke:#C0BFBF;stroke-linejoin:round;stroke-miterlimit:10;}
	.st2{fill:#FFFFFF;}
	.st3{stroke:#BFBEBE;stroke-linejoin:round;stroke-miterlimit:10;}
	.st4{fill:#4FB2CD;}
	.st5{fill:#BFBEBE;}
	.st6{fill:#53B3CE;}
</style>
<g>
	<ellipse transform="matrix(0.9732 -0.2298 0.2298 0.9732 -12.9921 16.4163)" class="st2" cx="64" cy="64" rx="57.1" ry="57.1"/>
	<g>
		<g>
			<path class="st4" d="M64,127C29.3,127,1,98.7,1,64S29.3,1,64,1s63,28.3,63,63S98.7,127,64,127z M64,6.9C32.5,6.9,6.9,32.5,6.9,64
				c0,31.5,25.6,57.1,57.1,57.1c31.5,0,57.1-25.6,57.1-57.1C121.1,32.5,95.5,6.9,64,6.9z"/>
		</g>
		<g>
			<path class="st2" d="M8.5,64.4l27.2-47.7h56.5l27.2,47.7l-27.2,47.7H35.7L8.5,64.4L8.5,64.4z"/>
			<path class="st5" d="M92.3,114.6H35.7c-0.9,0-1.7-0.5-2.2-1.3L6.3,65.7c-0.4-0.8-0.4-1.7,0-2.5l27.2-47.7
				c0.4-0.8,1.3-1.3,2.2-1.3h56.5c0.9,0,1.7,0.5,2.2,1.3l27.2,47.7c0.4,0.8,0.4,1.7,0,2.5l-27.2,47.7
				C94,114.1,93.2,114.6,92.3,114.6z M37.2,109.6h53.6l25.8-45.2L90.8,19.3H37.2L11.4,64.4L37.2,109.6z"/>
		</g>
		<path class="st4" d="M64.8,82C59.4,82,54,82,48,82c5.7-2.9,5.8-2.9,6.1-9.2c0.3-6.9-0.1-13.8-0.5-20.7c-0.2-3.8-3.2-3.9-6.5-5
			c4.3-1.8,8-1.1,11.6-1.2c1.3-0.1,1.3,1.2,1.3,2.2c0,1.8,0,3.6,0,5.3c0.3,0.1,0.7,0.2,1,0.3c0.9-1.2,1.8-2.4,2.7-3.5
			c2.1-2.5,4.7-4.2,7.9-4.8c4.1-0.7,7.5,2.8,6.7,6.8c-0.3,1.5-1,2.4-2.5,2.7c-1.4,0.3-2.3-0.3-3.1-1.3c-3.8-4.7-6.9-4.4-10.1,0.8
			c-1.2,2-2,4.1-2,6.5c0,4.6-0.2,9.2-0.1,13.8C60.6,79.4,60.7,79.4,64.8,82z"/>
		<path class="st6" d="M73.8,82.8c-2.2-0.4-3.8-1.6-4.1-4.1c-0.2-2.3,2-4.5,4.3-4.4c2.5,0.2,3.9,1.7,4.1,4.2
			C78.3,80.8,76.2,82.8,73.8,82.8z"/>
	</g>
</g>
</svg>
