<?xml version="1.0" encoding="utf-8"?>
<!-- Generator: Adobe Illustrator 24.3.0, SVG Export Plug-In . SVG Version: 6.00 Build 0)  -->
<svg version="1.1" id="Layer_1" xmlns="http://www.w3.org/2000/svg" xmlns:xlink="http://www.w3.org/1999/xlink" x="0px" y="0px"
	 viewBox="0 0 50 50" style="enable-background:new 0 0 50 50;" xml:space="preserve">
<style type="text/css">
	.st0{fill:url(#SVGID_1_);}
	.st1{fill:#FFFFFF;}
</style>
<linearGradient id="SVGID_1_" gradientUnits="userSpaceOnUse" x1="25" y1="48.571" x2="25" y2="1.429">
	<stop  offset="2.228009e-02" style="stop-color:#0E0E0E"/>
	<stop  offset="0.549" style="stop-color:#FFFFFF"/>
	<stop  offset="1" style="stop-color:#0E0E0E"/>
</linearGradient>
<circle class="st0" cx="25" cy="25" r="23.6"/>
<circle cx="25" cy="25" r="21.7"/>
<path class="st1" d="M13.4,38.2h4.1v-0.8c0,0-1.2-0.2-0.7-1.5c0.5-1.3,8.1-20.5,8.1-20.5L33.1,36c0,0,0.1,1.3-0.5,1.3s-0.1,1-0.1,1
	h4.2c0,0-0.1-0.8-0.1-1.1c-2.8-5.7-10.7-25.5-10.7-25.5h-1.7c0,0-8.1,20.8-10.7,25.3C13.4,37.6,13.4,38.2,13.4,38.2z"/>
</svg>
