<?xml version="1.0" encoding="utf-8"?>
<!-- Generator: Adobe Illustrator 24.3.0, SVG Export Plug-In . SVG Version: 6.00 Build 0)  -->
<svg version="1.1" id="Layer_1" xmlns="http://www.w3.org/2000/svg" xmlns:xlink="http://www.w3.org/1999/xlink" x="0px" y="0px"
	 viewBox="0 0 50 50" style="enable-background:new 0 0 50 50;" xml:space="preserve">
<style type="text/css">
	.st0{clip-path:url(#SVGID_2_);}
	.st1{fill:#FFD609;}
	.st2{opacity:0.45;}
	.st3{fill:#FA9F29;}
	.st4{fill:#FFFFFF;}
	.st5{fill:#4C3415;}
	.st6{fill:#010101;}
	.st7{opacity:0.45;clip-path:url(#SVGID_4_);}
	.st8{opacity:0.66;}
	.st9{opacity:0.45;clip-path:url(#SVGID_6_);}
</style>
<g>
	<defs>
		<circle id="SVGID_1_" cx="25" cy="25" r="24"/>
	</defs>
	<clipPath id="SVGID_2_">
		<use xlink:href="#SVGID_1_"  style="overflow:visible;"/>
	</clipPath>
	<g class="st0">
		<circle class="st1" cx="25" cy="25" r="24"/>
	</g>
	<g class="st0">
		<g>
			<path class="st1" d="M28.9,29.5l-1.3,4.3l-0.3,0.9L25,42c-8.9,0-16-7.2-16-16s7.2-16,16-16c0.9,0,1.8,0.1,2.7,0.2L25,29.5h0v0.2
				l0-0.2H28.9z"/>
		</g>
		<g class="st2">
			<polygon class="st3" points="25,29.8 25,29.5 25,29.5 			"/>
		</g>
		<g>
			<path class="st4" d="M27.7,10.2L25,29.5h3.8L25,42l0,0c8.9,0,16-7.2,16-16C41,18.1,35.3,11.5,27.7,10.2z"/>
		</g>
		<g>
			<g>
				<path class="st1" d="M27.3,34.8c-0.2,0-0.3-0.1-0.4-0.3C26.9,34.3,27,34,27.2,34c1.3-0.3,2.5-0.9,3.6-1.8
					c0.2-0.1,0.4-0.1,0.6,0.1c0.1,0.2,0.1,0.4-0.1,0.6C30.1,33.8,28.8,34.4,27.3,34.8C27.4,34.8,27.3,34.8,27.3,34.8z"/>
			</g>
		</g>
		<g>
			<g>
				<path class="st4" d="M27.5,33.9l-0.3,0.9c-0.7,0.1-1.4,0.2-2.1,0.2c-3,0-5.6-1.2-7-2.1c-0.2-0.1-0.3-0.4-0.1-0.5
					c0.1-0.2,0.4-0.3,0.5-0.1C20.3,33.2,23.7,34.8,27.5,33.9C27.5,33.9,27.5,33.9,27.5,33.9z"/>
			</g>
		</g>
	</g>
	<g class="st0">
		<path class="st4" d="M24.8,42.3c-9,0-16.3-7.3-16.3-16.3c0-9,7.3-16.3,16.3-16.3c9,0,16.3,7.3,16.3,16.3
			C41.1,35,33.8,42.3,24.8,42.3z M24.8,10.2C16.1,10.2,9,17.3,9,26s7.1,15.8,15.8,15.8c8.7,0,15.8-7.1,15.8-15.8
			S33.5,10.2,24.8,10.2z"/>
	</g>
	<g class="st0">
		<g>
			<path class="st5" d="M35.7,19.6c-2.8,0-6.9,0-10.7,0v3.6c0,0,0.1,0,0.1,0h0.1c0.3,0,0.3,0.2,0.4,0.6l1.3,4.1
				c0.1,0.3,0.4,0.6,0.8,0.6h6.2c0.3,0,0.7-0.2,0.8-0.6c0.3-1.1,1.1-3.5,1.9-5.8C37.3,19.9,36.3,19.6,35.7,19.6z"/>
		</g>
	</g>
	<g class="st0">
		<g>
			<path class="st5" d="M14.3,19.6c2.8,0,6.9,0,10.7,0v3.6c0,0-0.1,0-0.1,0h-0.1c-0.3,0-0.3,0.2-0.4,0.6l-1.3,4.1
				c-0.1,0.3-0.4,0.6-0.8,0.6h-6.2c-0.3,0-0.7-0.2-0.8-0.6c-0.3-1.1-1.1-3.5-1.9-5.8C12.7,19.9,13.7,19.6,14.3,19.6z"/>
		</g>
	</g>
	<g class="st0">
		<g>
			<path class="st6" d="M22.4,23.5L22,26c-0.1,0.7-0.8,1.3-1.5,1.3h-2.6c-0.5,0-0.9-0.3-1.1-0.7l-1.6-3.4c-0.1-0.2-0.1-0.3-0.1-0.5
				L15,22c0-0.5,0.4-1,0.9-1h6.4c0.3,0,0.5,0.3,0.5,0.6L22.4,23.5"/>
		</g>
		<g>
			<path class="st6" d="M34.1,21h-6.4c-0.3,0-0.5,0.3-0.5,0.6L28,26c0.1,0.7,0.8,1.3,1.5,1.3h2.6c0.5,0,0.9-0.3,1.1-0.7l1.6-3.4
				c0.1-0.2,0.1-0.3,0.1-0.5L35,22C35,21.5,34.6,21,34.1,21z"/>
		</g>
		<g>
			<defs>
				<path id="SVGID_3_" d="M22.4,23.5L22,26c-0.1,0.7-0.8,1.3-1.5,1.3h-2.6c-0.5,0-0.9-0.3-1.1-0.7l-1.6-3.4
					c-0.1-0.2-0.1-0.3-0.1-0.5L15,22c0-0.5,0.4-1,0.9-1h6.4c0.3,0,0.5,0.3,0.5,0.6L22.4,23.5"/>
			</defs>
			<clipPath id="SVGID_4_">
				<use xlink:href="#SVGID_3_"  style="overflow:visible;"/>
			</clipPath>
			<g class="st7">
				<g class="st8">
					
						<rect x="14.5" y="23" transform="matrix(0.5523 -0.8336 0.8336 0.5523 -11.19 26.4871)" class="st4" width="9.1" height="1.3"/>
				</g>
				<g class="st8">
					
						<rect x="14.2" y="22.6" transform="matrix(0.5522 -0.8337 0.8337 0.5522 -11.5342 24.2685)" class="st4" width="5.3" height="0.6"/>
				</g>
				<g class="st8">
					
						<rect x="14" y="22" transform="matrix(0.5523 -0.8336 0.8336 0.5523 -11.3923 23.0554)" class="st4" width="3.5" height="0.3"/>
				</g>
			</g>
		</g>
		<g>
			<defs>
				<path id="SVGID_5_" d="M34.1,21h-6.4c-0.3,0-0.5,0.3-0.5,0.6L28,26c0.1,0.7,0.8,1.3,1.5,1.3h2.6c0.5,0,0.9-0.3,1.1-0.7l1.6-3.4
					c0.1-0.2,0.1-0.3,0.1-0.5L35,22C35,21.5,34.6,21,34.1,21z"/>
			</defs>
			<clipPath id="SVGID_6_">
				<use xlink:href="#SVGID_5_"  style="overflow:visible;"/>
			</clipPath>
			<g class="st9">
				<g class="st8">
					
						<rect x="26.7" y="23.4" transform="matrix(0.5523 -0.8336 0.8336 0.5523 -6.1863 36.5372)" class="st4" width="8.5" height="1.3"/>
				</g>
				<g class="st8">
					
						<rect x="26.6" y="22.5" transform="matrix(0.5523 -0.8336 0.8336 0.5523 -5.9922 34.4383)" class="st4" width="5" height="0.6"/>
				</g>
				<g class="st8">
					
						<rect x="26.5" y="22" transform="matrix(0.5523 -0.8336 0.8336 0.5523 -5.8251 33.3646)" class="st4" width="3.3" height="0.3"/>
				</g>
			</g>
		</g>
	</g>
	<g class="st0">
		<rect x="23.7" y="-1.4" class="st4" width="0.8" height="11.3"/>
	</g>
	<g class="st0">
		
			<rect x="27.2" y="-0.4" transform="matrix(0.9998 -2.127953e-02 2.127953e-02 0.9998 -9.799910e-02 0.5882)" class="st4" width="0.8" height="10.6"/>
	</g>
	<g class="st0">
		
			<rect x="25.4" y="5.7" transform="matrix(5.387438e-02 -0.9985 0.9985 5.387438e-02 22.2131 35.7347)" class="st4" width="9.2" height="0.8"/>
	</g>
	<g class="st0">
		<rect x="26.9" y="6.1" transform="matrix(0.3675 -0.93 0.93 0.3675 13.7501 33.3123)" class="st4" width="9" height="0.8"/>
	</g>
	<g class="st0">
		<rect x="28.9" y="7.1" transform="matrix(0.2941 -0.9558 0.9558 0.2941 16.4595 37.4067)" class="st4" width="9.3" height="0.8"/>
	</g>
	<g class="st0">
		<rect x="30.4" y="7.9" transform="matrix(0.6146 -0.7889 0.7889 0.6146 6.9083 30.8467)" class="st4" width="9.2" height="0.8"/>
	</g>
	<g class="st0">
		<rect x="32.2" y="8.5" transform="matrix(0.66 -0.7513 0.7513 0.66 5.9211 30.9848)" class="st4" width="9.9" height="0.8"/>
	</g>
	<g class="st0">
		<rect x="34.1" y="10.8" transform="matrix(0.68 -0.7332 0.7332 0.68 4.1389 31.9383)" class="st4" width="9.2" height="0.8"/>
	</g>
	<g class="st0">
		<rect x="36.6" y="12.8" transform="matrix(0.7226 -0.6912 0.6912 0.7226 2.2124 32.0564)" class="st4" width="8.9" height="0.8"/>
	</g>
	<g class="st0">
		<rect x="37.8" y="14.8" transform="matrix(0.7178 -0.6963 0.6963 0.7178 1.3551 33.8185)" class="st4" width="9.1" height="0.8"/>
	</g>
	<g class="st0">
		
			<rect x="38.8" y="16.4" transform="matrix(0.9258 -0.3779 0.3779 0.9258 -3.1629 17.5089)" class="st4" width="8.4" height="0.8"/>
	</g>
	<g class="st0">
		<rect x="39.7" y="18.3" transform="matrix(0.894 -0.4481 0.4481 0.894 -3.7186 21.781)" class="st4" width="9" height="0.8"/>
	</g>
	<g class="st0">
		
			<rect x="40.1" y="19.9" transform="matrix(0.9953 -9.652186e-02 9.652186e-02 0.9953 -1.7582 4.3724)" class="st4" width="8.3" height="0.8"/>
	</g>
	<g class="st0">
		<rect x="39.9" y="22.6" class="st4" width="9" height="0.8"/>
	</g>
	<g class="st0">
		<rect x="41.1" y="24.6" class="st4" width="7.9" height="0.8"/>
	</g>
	<g class="st0">
		<rect x="39.6" y="28" class="st4" width="9.2" height="0.8"/>
	</g>
	<g class="st0">
		
			<rect x="43.8" y="26.8" transform="matrix(1.105374e-02 -0.9999 0.9999 1.105374e-02 13.0273 74.5971)" class="st4" width="0.8" height="7.8"/>
	</g>
	<g class="st0">
		<rect x="43.8" y="28.1" transform="matrix(0.387 -0.9221 0.9221 0.387 -2.6712 60.6021)" class="st4" width="0.8" height="8.5"/>
	</g>
	<g class="st0">
		<rect x="42.8" y="30.4" transform="matrix(0.3742 -0.9274 0.9274 0.3742 -4.8209 61.5373)" class="st4" width="0.8" height="8"/>
	</g>
	<g class="st0">
		
			<rect x="42.3" y="31.4" transform="matrix(0.6487 -0.7611 0.7611 0.6487 -12.0796 44.9945)" class="st4" width="0.8" height="8.4"/>
	</g>
	<g class="st0">
		
			<rect x="40.8" y="33.8" transform="matrix(0.6926 -0.7213 0.7213 0.6926 -14.691 41.4061)" class="st4" width="0.8" height="8.3"/>
	</g>
	<g class="st0">
		
			<rect x="39.5" y="35.7" transform="matrix(0.7003 -0.7138 0.7138 0.7003 -16.664 40.4993)" class="st4" width="0.8" height="8.7"/>
	</g>
	<g class="st0">
		<rect x="36.7" y="38.1" transform="matrix(0.7167 -0.6974 0.6974 0.7167 -18.799 37.8055)" class="st4" width="0.8" height="8"/>
	</g>
	<g class="st0">
		<rect x="34.9" y="39" transform="matrix(0.7142 -0.6999 0.6999 0.7142 -20.2819 37.1436)" class="st4" width="0.8" height="8.8"/>
	</g>
	<g class="st0">
		<rect x="33.3" y="40" transform="matrix(0.9328 -0.3604 0.3604 0.9328 -13.588 15.1037)" class="st4" width="0.8" height="8"/>
	</g>
	<g class="st0">
		
			<rect x="29.6" y="41.3" transform="matrix(0.9992 -4.051199e-02 4.051199e-02 0.9992 -1.8302 1.2546)" class="st4" width="0.8" height="9"/>
	</g>
	<g class="st0">
		
			<rect x="31.5" y="40.8" transform="matrix(0.8943 -0.4475 0.4475 0.8943 -16.9232 19.0696)" class="st4" width="0.8" height="9.1"/>
	</g>
	<g class="st0">
		<rect x="27.2" y="42" transform="matrix(1 -8.969428e-03 8.969428e-03 1 -0.4135 0.25)" class="st4" width="0.8" height="8.4"/>
	</g>
	<g class="st0">
		
			<rect x="20.9" y="46.3" transform="matrix(4.231733e-03 -1 1 4.231733e-03 -21.5213 71.7761)" class="st4" width="8.7" height="0.8"/>
	</g>
	<g class="st0">
		<rect x="21.7" y="42" class="st4" width="0.8" height="8.8"/>
	</g>
	<g class="st0">
		
			<rect x="12.9" y="44.9" transform="matrix(0.5182 -0.8553 0.8553 0.5182 -30.3387 36.8268)" class="st4" width="9.1" height="0.8"/>
	</g>
	<g class="st0">
		
			<rect x="14.4" y="46.2" transform="matrix(5.826407e-02 -0.9983 0.9983 5.826407e-02 -28.059 63.4187)" class="st4" width="10.3" height="0.8"/>
	</g>
	<g class="st0">
		
			<rect x="8.6" y="43.7" transform="matrix(0.7216 -0.6923 0.6923 0.7216 -26.6905 21.8281)" class="st4" width="10.3" height="0.8"/>
	</g>
	<g class="st0">
		<rect x="12" y="43.8" transform="matrix(0.3721 -0.9282 0.9282 0.3721 -30.9894 42.656)" class="st4" width="8" height="0.8"/>
	</g>
	<g class="st0">
		
			<rect x="7.4" y="42.1" transform="matrix(0.6996 -0.7146 0.7146 0.6996 -26.7566 21.3358)" class="st4" width="9.2" height="0.8"/>
	</g>
	<g class="st0">
		<rect x="6.3" y="40.1" transform="matrix(0.7002 -0.714 0.714 0.7002 -25.8182 19.5665)" class="st4" width="8.1" height="0.8"/>
	</g>
	<g class="st0">
		<rect x="4.2" y="37.6" transform="matrix(0.7005 -0.7137 0.7137 0.7005 -24.622 17.3534)" class="st4" width="8.4" height="0.8"/>
	</g>
	<g class="st0">
		<rect x="0.2" y="34.2" transform="matrix(0.953 -0.3029 0.3029 0.953 -10.2368 3.2428)" class="st4" width="10.2" height="0.8"/>
	</g>
	<g class="st0">
		<rect x="1.8" y="35.7" transform="matrix(0.7652 -0.6438 0.6438 0.7652 -21.7256 12.708)" class="st4" width="9.5" height="0.8"/>
	</g>
	<g class="st0">
		<rect x="-0.2" y="30.3" class="st4" width="9.5" height="0.8"/>
	</g>
	<g class="st0">
		<rect x="0.6" y="32.1" transform="matrix(0.916 -0.4012 0.4012 0.916 -12.6175 4.7955)" class="st4" width="9" height="0.8"/>
	</g>
	<g class="st0">
		<rect x="-0.6" y="28" class="st4" width="9.5" height="0.8"/>
	</g>
	<g class="st0">
		<rect x="-0.8" y="25.7" class="st4" width="9.5" height="0.8"/>
	</g>
	<g class="st0">
		<rect x="-0.2" y="22.4" class="st4" width="9.2" height="0.8"/>
	</g>
	<g class="st0">
		<rect x="-0.2" y="20.4" class="st4" width="9.5" height="0.8"/>
	</g>
	<g class="st0">
		
			<rect x="4.2" y="13.3" transform="matrix(0.4443 -0.8959 0.8959 0.4443 -14.022 14.4324)" class="st4" width="0.8" height="10.4"/>
	</g>
	<g class="st0">
		
			<rect x="5.8" y="12.8" transform="matrix(0.2778 -0.9606 0.9606 0.2778 -11.9392 18.3389)" class="st4" width="0.8" height="8.7"/>
	</g>
	<g class="st0">
		<rect x="6" y="9.2" transform="matrix(0.6808 -0.7325 0.7325 0.6808 -8.6554 9.3472)" class="st4" width="0.8" height="10.9"/>
	</g>
	<g class="st0">
		<rect x="7.5" y="6.9" transform="matrix(0.7526 -0.6585 0.6585 0.7526 -6.3659 8.3828)" class="st4" width="0.8" height="11.4"/>
	</g>
	<g class="st0">
		<rect x="8.9" y="5.1" transform="matrix(0.701 -0.7131 0.7131 0.701 -4.9936 9.8779)" class="st4" width="0.8" height="11.7"/>
	</g>
	<g class="st0">
		
			<rect x="11.2" y="3.1" transform="matrix(0.7204 -0.6935 0.6935 0.7204 -2.8815 10.5693)" class="st4" width="0.8" height="11.4"/>
	</g>
	<g class="st0">
		
			<rect x="13.4" y="2.1" transform="matrix(0.7226 -0.6913 0.6913 0.7226 -1.3791 11.6112)" class="st4" width="0.8" height="10.8"/>
	</g>
	<g class="st0">
		
			<rect x="15.4" y="-0.2" transform="matrix(0.9595 -0.2818 0.2818 0.9595 -0.9749 4.6979)" class="st4" width="0.8" height="11.9"/>
	</g>
	<g class="st0">
		
			<rect x="19.2" y="-1.3" transform="matrix(0.9994 -3.456786e-02 3.456786e-02 0.9994 -0.1496 0.6804)" class="st4" width="0.8" height="12"/>
	</g>
	<g class="st0">
		<rect x="17.3" y="0.6" transform="matrix(0.9204 -0.391 0.391 0.9204 -0.8624 7.409)" class="st4" width="0.8" height="10.5"/>
	</g>
	<g class="st0">
		
			<rect x="21.2" y="-1.5" transform="matrix(0.9997 -2.501029e-02 2.501029e-02 0.9997 -0.103 0.5428)" class="st4" width="0.8" height="11.8"/>
	</g>
</g>
</svg>
