<?xml version="1.0" encoding="utf-8"?>
<!-- Generator: Adobe Illustrator 25.2.0, SVG Export Plug-In . SVG Version: 6.00 Build 0)  -->
<svg version="1.1" id="Layer_1" xmlns="http://www.w3.org/2000/svg" xmlns:xlink="http://www.w3.org/1999/xlink" x="0px" y="0px"
	 width="128px" height="128px" viewBox="0 0 128 128" style="enable-background:new 0 0 128 128;" xml:space="preserve">
<style type="text/css">
	.st0{fill:#EEF4F4;}
	.st1{fill:#17A84B;}
	.st2{fill:#077FA2;}
</style>
<circle class="st0" cx="64" cy="64" r="63.5"/>
<g>
	<path class="st1" d="M64,67.4l-1.7,0.1c-3.7,0-6.6,2.9-7.1,6.6c-0.2,1.9-0.2,2.5-0.3,3.1c-0.1,1.5-0.5,2.1-2,1.3
		c-2.2-1.2-4.3-2.6-6.3-4.2c-11.5-10.8-10.4-28.5,3.7-38.2c3.3-2.3,5.3-4.8,4.5-9c-1.2-5.9-6.3-8.6-11.5-5.6
		c-13.6,7.8-20.2,19.8-20.8,33.1c0,3.8,0.5,7.6,1.4,11.3c0,0.2,0,0.4,0.1,0.6c2.4,12.1,9.2,21,20.8,26.8c2.5,1.2,5.1,2.1,7.7,2.9
		c0.6,0.1,1.2,0.5,1.6,1c0.4,0.5,0.6,1.2,0.6,1.8c0,0.8,0.1,1.7,0.3,2.5c0.7,3.8,3.6,6.1,7.5,6.2H64v-0.1L64,67.4z"/>
	<path class="st2" d="M84.5,21.6c-5.2-3-10.3-0.3-11.4,5.6c-0.8,4.2,1.2,6.8,4.4,9c14.1,9.7,15.2,27.4,3.7,38.2
		c-2,1.5-4.1,2.9-6.3,4.2c-1.5,0.9-1.9,0.2-2-1.3c0-1.1-0.1-2.1-0.3-3.1c-0.5-3.8-3.3-6.6-7.1-6.6L64,67.4v40.2v0.1h1.3
		c3.9,0,6.9-2.4,7.6-6.2c0.1-0.8,0.2-1.7,0.3-2.5c0-0.7,0.2-1.3,0.6-1.8c0.4-0.5,1-0.9,1.6-1c2.7-0.7,5.2-1.7,7.7-2.9
		c11.5-5.8,18.4-14.8,20.8-26.8c0-0.2,0.1-0.4,0.1-0.6c0.9-3.7,1.4-7.5,1.4-11.3C104.7,41.4,98.1,29.4,84.5,21.6z"/>
	<path class="st1" d="M63.7,47.8c-4.9,0.1-8.2,3.5-8.1,8.4c0,5.3,3.3,8.7,8.4,8.7H64V47.8L63.7,47.8z"/>
	<path class="st2" d="M72.5,56.3c0-2.2-0.9-4.4-2.5-6c-1.6-1.6-3.7-2.5-6-2.5V65c1.1,0,2.2-0.2,3.3-0.7c1-0.4,2-1.1,2.8-1.9
		c0.8-0.8,1.4-1.8,1.8-2.8C72.3,58.6,72.6,57.5,72.5,56.3L72.5,56.3z"/>
</g>
</svg>
