<?xml version="1.0" encoding="utf-8"?>
<!-- Generator: Adobe Illustrator 25.1.0, SVG Export Plug-In . SVG Version: 6.00 Build 0)  -->
<svg version="1.1" id="Layer_1" xmlns="http://www.w3.org/2000/svg" xmlns:xlink="http://www.w3.org/1999/xlink" x="0px" y="0px"
	 width="128px" height="128px" viewBox="0 0 128 128" style="enable-background:new 0 0 128 128;" xml:space="preserve">
<style type="text/css">
	.st0{fill:#1C2951;}
	.st1{fill:#FEFEFE;}
	.st2{fill:#4374B6;}
</style>
<g>
	<circle class="st0" cx="64" cy="64" r="63"/>
	<g id="GIl56u.tif_1_">
		<g>
			<path class="st1" d="M106,63.9c-0.1,6.9,0.1,13.8-0.7,20.6C104,94.9,95,104.1,84.5,105.3c-11.4,1.3-22.9,0.8-34.4,0.5
				c-2.8-0.1-5.5-0.2-8.2-0.8c-11-2.4-19-12-19.5-23.2c-0.6-11.9-0.6-23.8,0-35.7C23,33.3,33.3,22.9,46.1,22.3
				c11.9-0.6,23.8-0.6,35.7,0c12.9,0.6,23.2,11,23.8,23.9C105.9,52.1,106.1,58,106,63.9z"/>
			<path class="st2" d="M41.1,54.8c0-2.1,0-4.3,0-6.4c0-2.9,0.7-3.6,3.5-3.8c2.3-0.1,4.7-0.3,7-0.6c3.9-0.5,7.3-2,10.4-4.3
				c2.1-1.5,2.7-1.6,4.7,0c5,3.9,10.9,4.7,17,5c3.4,0.1,4,0.7,4,4c-0.1,7.7-0.4,15.5-1.9,23.1c-1.3,6.4-4.6,11.3-10.3,14.5
				c-3.1,1.7-6.2,3.6-9.2,5.5c-1.4,0.9-2.6,0.8-3.9-0.1c-2.8-1.7-5.5-3.5-8.4-5c-7.4-3.9-10.6-10.3-11.7-18.3
				C41.7,63.9,41.4,59.3,41.1,54.8z"/>
			<path class="st1" d="M47,50.3c0.9-0.8,2.8-0.5,4.2-0.7c4.2-0.6,8.3-1.8,11.9-4.1c0.9-0.6,1.5-0.7,2.5-0.1c4.5,3,9.5,4.1,14.8,4.5
				c1.4,0.1,1.9,0.4,1.8,1.9c-0.2,6.6-0.5,13.1-1.9,19.6c-1,4.3-3.3,7.6-7.1,9.8c-2.6,1.5-5.2,3-7.8,4.6c-0.7,0.4-1.3,0.4-2,0
				c-1.9-1.2-3.8-2.5-5.9-3.4c-6-2.8-8.8-7.7-9.6-14C47.2,63.8,45.9,51.3,47,50.3z"/>
		</g>
	</g>
</g>
</svg>
