<svg width="315" height="315" viewBox="0 0 315 315" fill="none" xmlns="http://www.w3.org/2000/svg">
<path fill-rule="evenodd" clip-rule="evenodd" d="M205.638 127.044L205.637 127.05L215.775 127.104C216.929 127.019 218.092 127.024 219.254 127.122L244.015 127.254C247.781 127.471 250.767 130.607 250.767 134.445C250.767 136.259 250.1 137.916 249 139.181L236.951 160.148C236.856 160.325 236.758 160.501 236.657 160.676L206.843 212.695C202.804 219.741 195.542 223.744 188.016 223.903L188.017 223.908L187.666 223.908C187.472 223.909 187.278 223.907 187.084 223.903L98.861 223.45H89.0293L89.0298 223.274C96.4988 222.231 102.783 217.455 105.965 210.875L106.036 210.877L149.258 135.155C151.684 130.342 156.645 127.044 162.37 127.044L161.972 127.052L161.985 127.044H205.638Z" fill="#2BBDF7"/>
<path fill-rule="evenodd" clip-rule="evenodd" d="M136.577 89.8872L214.449 89.8884C218.214 90.1055 221.199 93.2413 221.199 97.0794C221.199 98.6179 220.719 100.044 219.902 101.213L198.886 137.966L176.545 177.026L176.558 177.023H176.74L169.595 189.498C163.572 200.007 166.954 213.385 177.111 219.743L177.741 220.123C180.602 221.787 183.678 222.739 186.765 223.032L186.766 223.556L149.949 223.556L149.934 223.588H86.0881C82.4629 223.522 78.7818 222.597 75.3761 220.696C64.4229 214.58 60.4655 200.677 66.5369 189.644L114.989 101.592C119.429 93.5224 128.005 89.2222 136.577 89.8872Z" fill="#2B6DEF"/>
<path fill-rule="evenodd" clip-rule="evenodd" d="M162.117 127.044L204.999 127.088L198.796 137.938L176.455 176.999L176.467 176.995H176.649L169.505 189.471C163.482 199.979 166.864 213.358 177.02 219.715L177.651 220.096C180.512 221.76 183.587 222.711 186.674 223.004L186.675 223.529L149.859 223.528L149.844 223.561L88.8665 223.563C95.6266 222.857 101.973 219.107 105.797 212.908L106.227 212.182L151.327 132.769C153.885 129.439 157.821 127.238 162.275 127.032L162.117 127.044Z" fill="white"/>
<path fill-rule="evenodd" clip-rule="evenodd" d="M162.117 127.044L204.999 127.088L198.796 137.938L176.455 176.999L176.467 176.995H176.649L169.505 189.471C163.482 199.979 166.864 213.358 177.02 219.715L177.651 220.096C180.512 221.76 183.587 222.711 186.674 223.004L186.675 223.529L149.859 223.528L149.844 223.561L88.8665 223.563C95.6266 222.857 101.973 219.107 105.797 212.908L106.227 212.182L151.327 132.769C153.885 129.439 157.821 127.238 162.275 127.032L162.117 127.044Z" fill="#0CC19B" fill-opacity="0.5"/>
<path fill-rule="evenodd" clip-rule="evenodd" d="M162.117 127.044L204.999 127.088L198.796 137.938L176.455 176.999L176.467 176.995H176.649L169.505 189.471C163.482 199.979 166.864 213.358 177.02 219.715L177.651 220.096C180.512 221.76 183.587 222.711 186.674 223.004L186.675 223.529L149.859 223.528L149.844 223.561L88.8665 223.563C95.6266 222.857 101.973 219.107 105.797 212.908L106.227 212.182L151.327 132.769C153.885 129.439 157.821 127.238 162.275 127.032L162.117 127.044Z" fill="#003CB2"/>
</svg>
