<svg xmlns="http://www.w3.org/2000/svg" xmlns:xlink="http://www.w3.org/1999/xlink" viewBox="0 0 50 50"><defs><circle id="a" cx="25" cy="25" r="24.5"/></defs><clipPath id="b"><use xlink:href="#a" overflow="visible"/></clipPath><g clip-path="url(#b)"><linearGradient id="c" gradientUnits="userSpaceOnUse" x1="18.05" y1="2.2" x2="18.05" y2="51.8" gradientTransform="matrix(1 0 0 -1 0 52)"><stop offset="0" stop-color="#3831ab"/><stop offset=".537" stop-color="#5153e5"/><stop offset="1" stop-color="#5b62fe"/></linearGradient><path fill="url(#c)" d="M13.9 49.8H0V.2h36.1z"/><linearGradient id="d" gradientUnits="userSpaceOnUse" x1="31.95" y1="2.2" x2="31.95" y2="51.8" gradientTransform="matrix(1 0 0 -1 0 52)"><stop offset="0" stop-color="#292477"/><stop offset=".537" stop-color="#4942d1"/><stop offset="1" stop-color="#4e48dd"/></linearGradient><path fill="url(#d)" d="M36.1.2H50v49.6H13.9z"/><g><path d="M12.5 13.7h5.8l.3.1.2.2 6.3 14.2 6-13.9s.1-.5.8-.6c.7-.2 5.7 0 5.7 0s.6 0 .2.9c-.4.9-8.1 20.2-11.6 26.5-.2.3-.5.8-1.1.8-.3 0-.6-.2-1-.7-1.1-1.4-11.8-26.7-11.8-26.7s-.3-.6.2-.8z" opacity=".08"/><path d="M11.5 12.7h5.8l.3.1.2.2 6.3 14.2 6-13.9s.1-.5.8-.6c.7-.2 5.7 0 5.7 0s.6 0 .2.9c-.4.9-8.1 20.2-11.6 26.5-.2.3-.5.8-1.1.8-.3 0-.6-.2-1-.7-1.1-1.4-11.8-26.7-11.8-26.7s-.3-.6.2-.8z" fill="#fff"/></g></g></svg>