<?xml version="1.0" encoding="utf-8"?>
<!-- Generator: Adobe Illustrator 24.3.0, SVG Export Plug-In . SVG Version: 6.00 Build 0)  -->
<svg version="1.1" id="Layer_1" xmlns="http://www.w3.org/2000/svg" xmlns:xlink="http://www.w3.org/1999/xlink" x="0px" y="0px"
	 viewBox="0 0 50 50" style="enable-background:new 0 0 50 50;" xml:space="preserve">
<style type="text/css">
	.st0{fill:#21252E;}
	.st1{fill:#FFFFFF;}
</style>
<circle class="st0" cx="24.9" cy="24.9" r="24.5"/>
<g>
	<g>
		<path class="st1" d="M32.9,22.3h-4.1c-0.7,0-1.2-0.5-1.2-1.2v-4.1c0-0.7-0.5-1.2-1.2-1.2h-2.8c-0.7,0-1.2,0.5-1.2,1.2v4.1
			c0,0.7-0.5,1.2-1.2,1.2H17c-0.7,0-1.2,0.5-1.2,1.2v2.8c0,0.7,0.5,1.2,1.2,1.2h4.1c0.7,0,1.2,0.5,1.2,1.2v4.1
			c0,0.7,0.5,1.2,1.2,1.2h2.8c0.7,0,1.2-0.5,1.2-1.2v-4.1c0-0.7,0.5-1.2,1.2-1.2h4.1c0.7,0,1.2-0.5,1.2-1.2v-2.8
			C34.1,22.8,33.5,22.3,32.9,22.3z"/>
	</g>
	<g>
		<g>
			<path class="st1" d="M24.9,17.7c-3.4,0-6.2-2.8-6.2-6.2c0-3.4,2.8-6.2,6.2-6.2s6.2,2.8,6.2,6.2C31.2,14.9,28.4,17.7,24.9,17.7z
				 M24.9,7.3c-2.3,0-4.2,1.9-4.2,4.2s1.9,4.2,4.2,4.2s4.2-1.9,4.2-4.2S27.3,7.3,24.9,7.3z"/>
		</g>
		<g>
			<circle class="st1" cx="24.9" cy="11.5" r="2"/>
		</g>
	</g>
	<g>
		<g>
			<path class="st1" d="M38.3,31.1c-3.4,0-6.2-2.8-6.2-6.2s2.8-6.2,6.2-6.2s6.2,2.8,6.2,6.2S41.7,31.1,38.3,31.1z M38.3,20.6
				c-2.3,0-4.2,1.9-4.2,4.2s1.9,4.2,4.2,4.2s4.2-1.9,4.2-4.2S40.6,20.6,38.3,20.6z"/>
		</g>
		<g>
			<circle class="st1" cx="38.3" cy="24.9" r="2"/>
		</g>
	</g>
	<g>
		<g>
			<path class="st1" d="M24.9,44.4c-3.4,0-6.2-2.8-6.2-6.2s2.8-6.2,6.2-6.2s6.2,2.8,6.2,6.2S28.4,44.4,24.9,44.4z M24.9,34
				c-2.3,0-4.2,1.9-4.2,4.2s1.9,4.2,4.2,4.2s4.2-1.9,4.2-4.2S27.3,34,24.9,34z"/>
		</g>
		<g>
			<circle class="st1" cx="24.9" cy="38.2" r="2"/>
		</g>
	</g>
	<g>
		<g>
			<path class="st1" d="M11.6,31.1c-3.4,0-6.2-2.8-6.2-6.2s2.8-6.2,6.2-6.2s6.2,2.8,6.2,6.2S15,31.1,11.6,31.1z M11.6,20.6
				c-2.3,0-4.2,1.9-4.2,4.2s1.9,4.2,4.2,4.2s4.2-1.9,4.2-4.2S13.9,20.6,11.6,20.6z"/>
		</g>
		<g>
			<circle class="st1" cx="11.6" cy="24.9" r="2"/>
		</g>
	</g>
</g>
</svg>
