<?xml version="1.0" encoding="utf-8"?>
<!-- Generator: Adobe Illustrator 25.2.3, SVG Export Plug-In . SVG Version: 6.00 Build 0)  -->
<svg version="1.1" id="Layer_1" xmlns="http://www.w3.org/2000/svg" xmlns:xlink="http://www.w3.org/1999/xlink" x="0px" y="0px"
	 width="128px" height="128px" viewBox="0 0 128 128" style="enable-background:new 0 0 128 128;" xml:space="preserve">
<style type="text/css">
	.st0{fill-rule:evenodd;clip-rule:evenodd;fill:#EEF4F4;}
	.st1{fill-rule:evenodd;clip-rule:evenodd;fill:url(#SVGID_1_);}
</style>
<circle class="st0" cx="64" cy="64" r="63.5"/>
<linearGradient id="SVGID_1_" gradientUnits="userSpaceOnUse" x1="43.7378" y1="125.217" x2="80.7082" y2="15.6384" gradientTransform="matrix(1 0 0 -1 0 129.41)">
	<stop  offset="0" style="stop-color:#273498"/>
	<stop  offset="0.53" style="stop-color:#0074C2"/>
	<stop  offset="1" style="stop-color:#00ABE7"/>
</linearGradient>
<path class="st1" d="M43.6,49.1c5.8-3.4,11.7-6.7,17.5-10.1c1.7-1,3.9-1,5.6,0l8.7,4.9c0.4,0.2,0.5,0.7,0.2,1.1
	c-0.1,0.1-0.1,0.2-0.2,0.2L54.3,57.4c-0.5,0.3-0.9,0.9-0.9,1.5v10.2c0,0.6,0.3,1.2,0.9,1.5l8.9,5.1c0.5,0.3,1.2,0.3,1.7,0l36.5-21
	c6.2-3.6,6.2-13.9,0-17.5L68.5,18.3c-2.8-1.7-6.3-1.7-9.1,0L26.6,37.2c-2.8,1.6-4.6,4.6-4.6,7.9c0,12.6,0.1,25.3,0,37.9
	c0,3.3,1.7,6.3,4.6,7.9l32.8,19c2.8,1.6,6.3,1.6,9.1,0l32.8-19c2.8-1.6,4.6-4.6,4.5-7.9V66.5l-39,22.6c-1.7,1-3.9,1-5.6,0L43.7,79
	c-1.8-1-2.9-2.9-2.8-4.9V53.9C40.8,51.9,41.9,50.1,43.6,49.1L43.6,49.1z"/>
</svg>
