<?xml version="1.0" encoding="utf-8"?>
<!-- Generator: Adobe Illustrator 25.2.1, SVG Export Plug-In . SVG Version: 6.00 Build 0)  -->
<svg version="1.1" id="Layer_1" xmlns="http://www.w3.org/2000/svg" xmlns:xlink="http://www.w3.org/1999/xlink" x="0px" y="0px"
	 viewBox="0 0 128 128" style="enable-background:new 0 0 128 128;" xml:space="preserve">
<style type="text/css">
	.st0{fill:url(#SVGID_1_);}
	.st1{fill:#FFFFFF;}
</style>
<linearGradient id="SVGID_1_" gradientUnits="userSpaceOnUse" x1="13.4665" y1="25.7524" x2="113.1319" y2="105.1313" gradientTransform="matrix(1 0 0 -1 0 130)">
	<stop  offset="0" style="stop-color:#F9B443"/>
	<stop  offset="1" style="stop-color:#F3C35E"/>
</linearGradient>
<path class="st0" d="M64,128c35.3,0,64-28.7,64-64S99.3,0,64,0S0,28.7,0,64S28.7,128,64,128z"/>
<g>
	<path class="st1" d="M90,47.8c3.9,0,7.2-0.1,10.5,0c2.9,0.1,5.5,0.9,5.4,4.4c-0.1,3.5-2.4,4.7-5.6,4.7c-24.1,0-48.2,0-72.3,0
		c-3.2,0-5.6-1-5.8-4.5c-0.1-3.8,2.6-4.4,5.7-4.5c7.3-0.3,7.3-0.3,4.8-7c-2.1-5.6-4.1-11.2-6.3-16.8c-1.1-2.9-0.8-5.7,1.8-6.8
		c3.1-1.3,5.5,0.5,6.7,3.8c2.9,7.8,6,15.6,8.8,23.4c0.9,2.5,1.9,3.5,4.7,3.4c9.5-0.2,19-0.2,28.4,0c2.7,0,3.9-0.9,4.8-3.4
		c2.6-7.3,5.4-14.6,8.2-21.9c0.5-1.4,1.1-2.9,2-4.1c1.2-1.5,2.8-2.1,4.8-1.3c1.8,0.7,2.6,1.9,2.6,3.8c0,2.9-1.2,5.4-2.2,8
		C94.8,35.2,92.4,41.3,90,47.8z"/>
	<path class="st1" d="M105.7,68.9c-0.7-3.1-3.2-3.5-5.8-3.5c-12,0-23.9,0-35.9,0c0,0,0,0,0,0c-12.1,0-24.2,0-36.3,0
		c-2.9,0-5.5,0.7-5.5,4.3c0,3.5,2.3,4.8,5.5,4.8c4.7,0,9.5,0.1,14.2-0.1c2.7-0.1,3.9,0.8,4.8,3.3c3.2,9.2,6.8,18.2,10.3,27.3
		c1.1,2.8,1.7,6.2,5.8,6.1c3.8-0.1,4.5-3.2,5.5-5.9c3.5-9.2,7-18.4,10.4-27.7c0.8-2.3,2-3.2,4.5-3.1c5.8,0.2,11.7,0.1,17.5,0
		C104.2,74.4,106.4,71.9,105.7,68.9z M62.6,94.2c-2.5-6.4-4.6-12-6.7-17.5c-0.6-1.6-0.1-2.3,1.6-2.3c4,0,8,0,12.5,0
		C67.5,81.1,65.2,87.2,62.6,94.2z"/>
</g>
</svg>
