<svg id="Capa_1" enable-background="new 0 0 512 512" height="512" viewBox="0 0 512 512" width="512" xmlns="http://www.w3.org/2000/svg"><g><path d="m466.846 85.224-102.221 31.454c-14.774 4.546-19.086 23.38-7.761 33.901l22.969 21.34-106.643 114.784-121.329-76.706c-9.443-5.97-21.851-3.965-28.934 4.672l-117.909 143.779c-7.749 9.45-6.371 23.392 3.079 31.141 4.115 3.375 9.082 5.018 14.018 5.018 6.399 0 12.748-2.762 17.123-8.097l105.506-128.655 120.327 76.073c9.003 5.692 20.785 4.161 28.035-3.642l119.148-128.246 22.974 21.344c11.325 10.521 29.792 4.837 33.24-10.232l23.857-104.259c3.446-15.065-10.707-28.214-25.479-23.669z" fill="#b3e59f"/><path d="m485.862 410.019-101.996-32.162c-14.748-4.647-18.93-23.51-7.534-33.954l23.123-21.187-49.311-53.825-29.994-32.738-38.059-41.544-31.675 77.689-16.972 41.633-40.759 99.983c-3.054 7.502-9.957 12.723-18.001 13.642-.841.089-1.671.133-2.5.133-7.147 0-13.918-3.463-18.089-9.393l-65.044-92.516-26.42-37.583-52.287-74.359c-7.025-10.002-4.625-23.798 5.377-30.824 9.991-7.036 23.798-4.625 30.824 5.366l45.206 64.302 26.42 37.584 48.824 69.436 28.456-69.79 16.961-41.633 41.887-102.738c2.866-7.026 9.128-12.093 16.585-13.432 7.468-1.339 15.102 1.239 20.225 6.838l59.257 64.678 29.994 32.749 51.723 56.447 23.123-21.176c11.396-10.444 29.828-4.636 33.169 10.455l23.134 104.42c3.34 15.091-10.899 28.146-25.647 23.499z" fill="#df75a5"/><g fill="#dd5790"><path d="m183.839 356.33 87.304-214.16c1.677-4.111 4.522-7.543 8.083-9.958-2.71-.555-5.538-.605-8.343-.102-7.457 1.339-13.719 6.406-16.585 13.432l-41.887 102.738-16.961 41.633-21.403 52.493z"/><path d="m509.604 398.587-101.996-32.162c-14.748-4.646-18.93-23.51-7.534-33.954l16.226-13.127-117.365-128.107-16.844 3.372 38.059 41.544 29.994 32.737 49.311 53.825-23.123 21.187c-11.396 10.444-7.214 29.308 7.534 33.954l101.996 32.162c10.45 3.293 20.636-2.307 24.502-11.216-.257-.075-.498-.132-.76-.215z"/><path d="m170.938 414.923-143.75-204.457c-7.025-10.002-4.625-23.798 5.377-30.824.099-.07.203-.123.303-.191-5.758-1.174-11.964-.088-17.147 3.562-10.002 7.026-12.402 20.822-5.377 30.824l52.287 74.359 26.42 37.583 65.044 92.515c4.171 5.93 10.942 9.393 18.089 9.393.83 0 1.66-.044 2.5-.133 3.629-.414 7.021-1.711 9.936-3.692-5.453-1.109-10.382-4.247-13.682-8.939z"/></g><path d="m118.17 290.266-29.119 35.514-17.231-11.125-9.189-26.458 29.119-35.515 20.924 11.587z" fill="#b3e59f"/><path d="m356.863 150.579 9.513 8.839c-8.864-10.752-4.218-27.621 9.656-31.89l102.221-31.454c4.536-1.396 9.012-1.118 12.94.367-3.859-8.839-13.945-14.417-24.348-11.216l-102.221 31.454c-14.773 4.545-19.085 23.379-7.761 33.9z" fill="#95d6a4"/><path d="m16.426 369.297 119.899-146.246c6.739-8.218 18.295-10.415 27.535-5.468l-11.999-7.586c-9.443-5.97-21.851-3.965-28.934 4.672l-117.909 143.779c-7.749 9.45-6.371 23.392 3.079 31.141 1.707 1.4 3.565 2.485 5.502 3.295-3.591-7.507-2.799-16.726 2.827-23.587z" fill="#95d6a4"/><path d="m380.359 236.374-30.215 32.516-20.428-9.827-9.566-22.91 30.215-32.527 19.177 9.638z" fill="#b3e59f"/><path d="m284.597 297.553 106.642-114.785-11.532-10.715-106.517 114.65z" fill="#95d6a4"/></g></svg>