<?xml version="1.0" encoding="UTF-8" standalone="no"?>
<!-- Created with Inkscape (http://www.inkscape.org/) -->

<svg
   xmlns:dc="http://purl.org/dc/elements/1.1/"
   xmlns:cc="http://creativecommons.org/ns#"
   xmlns:rdf="http://www.w3.org/1999/02/22-rdf-syntax-ns#"
   xmlns:svg="http://www.w3.org/2000/svg"
   xmlns="http://www.w3.org/2000/svg"
   xmlns:sodipodi="http://sodipodi.sourceforge.net/DTD/sodipodi-0.dtd"
   xmlns:inkscape="http://www.inkscape.org/namespaces/inkscape"
   version="1.1"
   id="svg1671"
   xml:space="preserve"
   width="816"
   height="816"
   viewBox="0 0 816 816"
   sodipodi:docname="dollar-skull-publicdomainvectors [Converted].svg"
   inkscape:version="0.92.4 (5da689c313, 2019-01-14)"><metadata
     id="metadata1677"><rdf:RDF><cc:Work
         rdf:about=""><dc:format>image/svg+xml</dc:format><dc:type
           rdf:resource="http://purl.org/dc/dcmitype/StillImage" /><dc:title></dc:title></cc:Work></rdf:RDF></metadata><defs
     id="defs1675"><clipPath
       clipPathUnits="userSpaceOnUse"
       id="clipPath1687"><path
         d="M 0,612 H 612 V 0 H 0 Z"
         id="path1685"
         inkscape:connector-curvature="0" /></clipPath></defs><sodipodi:namedview
     pagecolor="#ffffff"
     bordercolor="#666666"
     borderopacity="1"
     objecttolerance="10"
     gridtolerance="10"
     guidetolerance="10"
     inkscape:pageopacity="0"
     inkscape:pageshadow="2"
     inkscape:window-width="1920"
     inkscape:window-height="1018"
     id="namedview1673"
     showgrid="false"
     inkscape:zoom="0.28921569"
     inkscape:cx="408"
     inkscape:cy="408"
     inkscape:window-x="-8"
     inkscape:window-y="-8"
     inkscape:window-maximized="1"
     inkscape:current-layer="g1679" /><g
     id="g1679"
     inkscape:groupmode="layer"
     inkscape:label="dollar-skull-publicdomainvectors [Converted]"
     transform="matrix(1.3333333,0,0,-1.3333333,0,816)"><g
       id="g1681"><g
         id="g1683"
         clip-path="url(#clipPath1687)"><path
           d="m 351.512,189.924 c 0.427,0.111 0.654,0.174 0.654,0.174 0,0 -0.167,-0.162 -0.484,-0.465 -0.327,-0.289 -0.787,-0.744 -1.413,-1.266 -0.624,-0.527 -1.368,-1.209 -2.309,-1.846 -0.938,-0.642 -1.971,-1.435 -3.198,-2.126 -1.233,-0.676 -2.542,-1.5 -4.048,-2.124 -0.748,-0.326 -1.517,-0.662 -2.304,-1.003 -0.805,-0.303 -1.645,-0.559 -2.495,-0.846 -0.427,-0.139 -0.853,-0.295 -1.292,-0.416 -0.446,-0.106 -0.894,-0.211 -1.345,-0.317 -0.904,-0.203 -1.812,-0.457 -2.753,-0.58 -0.938,-0.129 -1.886,-0.273 -2.844,-0.379 -0.958,-0.091 -1.928,-0.101 -2.896,-0.15 -0.968,-0.053 -1.934,0.014 -2.897,0.066 -0.965,0.045 -1.926,0.106 -2.864,0.27 -0.941,0.139 -1.88,0.268 -2.789,0.461 -0.907,0.221 -1.798,0.437 -2.67,0.676 -0.872,0.213 -1.697,0.551 -2.513,0.838 -0.811,0.3 -1.61,0.566 -2.345,0.943 -0.738,0.35 -1.452,0.691 -2.145,1.023 -0.685,0.35 -1.315,0.743 -1.926,1.104 -0.604,0.375 -1.192,0.699 -1.724,1.072 -0.525,0.383 -1.02,0.746 -1.491,1.086 -0.457,0.352 -0.891,0.664 -1.274,0.977 -0.363,0.326 -0.699,0.629 -1.001,0.898 -0.607,0.533 -1.056,1.002 -1.374,1.299 -0.312,0.311 -0.475,0.478 -0.475,0.478 0,0 0.222,-0.066 0.647,-0.189 0.412,-0.139 1.038,-0.311 1.798,-0.588 0.381,-0.133 0.806,-0.279 1.268,-0.439 0.469,-0.125 0.955,-0.287 1.483,-0.444 0.518,-0.166 1.069,-0.341 1.647,-0.527 0.588,-0.164 1.206,-0.336 1.851,-0.516 0.644,-0.166 1.293,-0.398 1.988,-0.554 0.691,-0.162 1.404,-0.33 2.137,-0.502 0.724,-0.194 1.479,-0.33 2.249,-0.465 0.773,-0.115 1.536,-0.346 2.34,-0.422 0.804,-0.094 1.609,-0.213 2.423,-0.336 0.821,-0.088 1.653,-0.121 2.485,-0.211 0.832,-0.111 1.678,-0.076 2.522,-0.113 0.844,-0.029 1.692,-0.076 2.541,-0.008 0.847,0.035 1.699,0.018 2.542,0.084 0.844,0.094 1.686,0.148 2.524,0.217 0.837,0.066 1.66,0.238 2.484,0.328 0.412,0.055 0.82,0.109 1.226,0.164 0.402,0.076 0.804,0.152 1.199,0.23 0.802,0.149 1.586,0.293 2.358,0.436 0.768,0.184 1.517,0.361 2.248,0.533 0.741,0.153 1.457,0.324 2.141,0.531 0.696,0.186 1.366,0.368 2.008,0.541 0.66,0.147 1.267,0.354 1.854,0.534 0.593,0.175 1.155,0.341 1.681,0.498 1.075,0.287 1.995,0.593 2.762,0.836 0.761,0.256 1.391,0.41 1.809,0.535 m -42.272,165.47 c 0,0 -0.053,0.178 -0.156,0.512 -0.118,0.328 -0.223,0.843 -0.469,1.445 -0.117,0.307 -0.249,0.644 -0.392,1.014 -0.149,0.367 -0.348,0.742 -0.538,1.16 -0.182,0.425 -0.44,0.84 -0.693,1.292 -0.241,0.459 -0.554,0.908 -0.874,1.385 -0.631,0.958 -1.439,1.92 -2.345,2.918 -0.954,0.948 -1.99,1.957 -3.216,2.85 -2.402,1.847 -5.354,3.44 -8.509,4.669 -3.153,1.243 -6.509,2.091 -9.717,2.646 -1.602,0.251 -3.174,0.468 -4.673,0.576 -1.496,0.13 -2.918,0.181 -4.237,0.189 -1.315,0.002 -2.526,-0.032 -3.6,-0.112 -1.073,-0.062 -2.008,-0.17 -2.773,-0.268 -0.767,-0.097 -1.373,-0.195 -1.783,-0.274 -0.41,-0.075 -0.631,-0.114 -0.631,-0.114 0,0 0.21,0.072 0.608,0.207 0.392,0.142 0.971,0.333 1.726,0.551 0.75,0.22 1.67,0.472 2.736,0.705 1.066,0.247 2.283,0.471 3.617,0.678 5.33,0.818 12.689,1.068 19.992,-0.56 3.639,-0.801 7.258,-2.059 10.464,-3.8 1.622,-0.836 3.096,-1.857 4.473,-2.864 1.342,-1.063 2.577,-2.146 3.611,-3.265 0.518,-0.556 1.022,-1.089 1.445,-1.646 0.418,-0.525 0.828,-1.019 1.164,-1.523 4.006,7.251 8.931,18.326 9.416,29.643 0.647,-12.711 4.709,-22.455 8.508,-29.286 0.281,0.383 0.585,0.766 0.906,1.166 0.42,0.557 0.923,1.09 1.442,1.646 1.035,1.119 2.268,2.202 3.609,3.265 1.38,1.007 2.854,2.028 4.475,2.864 3.205,1.741 6.825,2.999 10.466,3.8 7.302,1.628 14.658,1.378 19.99,0.56 1.337,-0.207 2.552,-0.431 3.617,-0.678 1.07,-0.233 1.986,-0.485 2.739,-0.705 0.754,-0.218 1.334,-0.409 1.725,-0.551 0.394,-0.135 0.605,-0.207 0.605,-0.207 0,0 -0.218,0.039 -0.629,0.114 -0.41,0.079 -1.015,0.177 -1.782,0.274 -0.764,0.098 -1.703,0.206 -2.774,0.268 -1.072,0.08 -2.285,0.114 -3.601,0.112 -1.318,-0.008 -2.744,-0.059 -4.24,-0.189 -1.498,-0.108 -3.064,-0.325 -4.671,-0.576 -3.207,-0.555 -6.562,-1.403 -9.715,-2.646 -3.153,-1.229 -6.108,-2.822 -8.509,-4.669 -1.226,-0.893 -2.262,-1.902 -3.216,-2.85 -0.909,-0.998 -1.717,-1.96 -2.349,-2.918 -0.316,-0.477 -0.631,-0.926 -0.871,-1.385 -0.25,-0.452 -0.51,-0.867 -0.692,-1.292 -0.19,-0.418 -0.391,-0.793 -0.54,-1.16 -0.142,-0.37 -0.272,-0.707 -0.388,-1.014 -0.245,-0.594 -0.352,-1.1 -0.466,-1.429 0.117,-0.176 0.246,-0.363 0.352,-0.528 -12.983,-3.628 -28.637,0 -28.637,0 m 32.965,-66.009 c 0,-8.104 -1.565,-15.518 -4.156,-21.227 -3.174,-7 -5.93,19.51 -11.195,19.51 -5.314,0 -12.03,-26.426 -15.206,-19.313 -2.535,5.682 -4.063,13.018 -4.063,21.03 0,18.037 12.165,32.659 17.309,32.659 4.41,0 17.311,-14.622 17.311,-32.659 m 44.951,238.951 h -10.588 v 22.166 h 73.424 v -22.166 h -20.004 c -0.675,-12.468 -1.763,-35.401 -3.125,-62.346 4.487,-1.55 9.088,-3 13.871,-4.734 22.707,-8.238 38.661,-12.885 47.855,-14.115 9.183,-1.229 16.461,-0.884 21.808,0.951 5.35,1.835 10.972,7.386 16.889,16.604 l 15.667,-2.087 -8.827,-108.901 -21.309,2.853 c -6.414,28.328 -28.154,53.412 -65.202,75.248 -0.296,0.174 -0.597,0.338 -0.895,0.513 -5.238,11.352 -11.987,21.847 -19.998,31.206 -11.794,13.776 -26.301,24.753 -42.671,32.753 z m -97.04,-415.607 h 15.799 V 90.564 h -91.434 v 22.165 h 21.04 l 4.487,47.734 c -19.346,4.685 -43.128,11.963 -71.368,21.498 -16.304,5.316 -29.676,8.766 -40.113,10.162 -9.196,1.231 -19.014,0.967 -29.466,-0.871 -10.45,-1.842 -19.25,-5.596 -26.394,-11.314 l -18.801,2.525 16.402,122.618 18.801,-2.513 c 10.836,-36.578 36.669,-66.82 77.485,-90.722 23.51,-13.772 48.579,-24.672 75.185,-32.737 l 0.458,4.842 c 8.303,-1.574 32.942,-19.533 51.033,-41.445 l 0.052,-0.067 c -0.588,-6.162 -1.158,-12.14 -1.711,-17.177 -0.502,-4.578 -0.987,-8.377 -1.455,-12.533 m -15.261,415.607 h -16.042 v 22.166 h 73.424 v -22.166 h -13.069 c -0.289,-4.156 -0.664,-11.37 -1.109,-19.148 -16.377,-1.097 -31.948,-5.4 -46.171,-12.021 z M 104.404,383.823 c -13.365,14.542 -19.027,29.427 -16.99,44.658 3.456,25.833 26.867,45.124 70.252,57.864 32.369,9.509 70.12,13.127 113.233,10.872 -14.153,-6.734 -26.949,-15.934 -37.84,-27.06 -18.457,-5.902 -28.397,-13.967 -29.767,-24.208 -0.663,-4.963 0.456,-9.757 3.348,-14.384 -7.734,-17.043 -12.055,-35.996 -12.055,-55.956 0,-18.597 3.821,-36.984 11.13,-53.908 -16.709,7.22 -30.487,13.676 -41.331,19.365 -26.626,13.959 -46.617,28.21 -59.98,42.757 m 269.964,-119.512 -0.149,-0.321 -0.098,-0.429 c -1.773,-6.206 -2.313,-15.067 -2.345,-21.993 h -0.097 c -3.48,0 -7.376,0.243 -11.969,-2.988 -3.508,1.369 -7.784,0.428 -10.592,-1.799 -2.889,0.86 -7.207,1.74 -11.606,-1.082 -3.883,2.039 -9.316,2.229 -13.457,-0.443 -3.476,2.06 -8.577,2.394 -12.713,-0.01 -3.929,1.983 -7.779,2.318 -11.14,0.973 -4.29,2.652 -7.875,2.64 -10.546,1.787 -3.13,2.537 -6.757,3.707 -9.966,4.205 -0.132,7.416 -0.752,15.527 -2.486,21.602 l -0.099,0.339 -0.147,0.325 c -7.82,16.679 -37.908,7.066 -47.903,3.32 -3.089,3.381 -9.384,10.683 -15.614,20.385 3.517,6.472 11.069,22.098 15.415,33.999 3.955,-5.181 9.808,-9.528 17.521,-13.004 6.291,-4.654 15.087,-7.056 25.389,-7.056 20.953,0 37.078,21.662 37.941,28.581 2.311,18.523 -16.988,27.27 -37.941,27.27 -20.954,0 -35.707,-8.603 -35.707,-27.27 0,-1.257 0.071,-2.469 0.204,-3.649 -1.935,2.401 -3.285,5.002 -4.009,7.809 -3.858,14.896 9.97,31.529 10.106,31.69 l 1.328,1.565 -13.659,80.614 c 22.019,30.031 57.223,49.519 96.825,49.519 37.381,0 70.848,-17.364 93.001,-44.57 l -14.284,-83.51 -0.349,-2.081 1.386,-1.581 c 0.139,-0.153 13.687,-15.786 10.143,-30.035 -0.56,-2.251 -1.55,-4.373 -2.933,-6.368 0.006,0.25 0.02,0.495 0.02,0.75 0,18.605 -14.755,27.18 -35.708,27.18 -20.955,0 -40.253,-8.717 -37.942,-27.18 0.863,-6.895 16.987,-28.482 37.942,-28.482 13.102,0 23.781,3.862 29.943,11.306 5.663,3.24 10.02,7.056 13.035,11.421 4.803,-12.758 13.353,-30.028 17.186,-36.934 -6.263,-9.75 -12.622,-17.127 -15.731,-20.531 -10.035,3.763 -40.33,13.455 -48.195,-3.324 m -0.844,-46.276 0.074,-3.65 c -2.725,-1.805 -5.466,-3.444 -8.225,-4.936 l -0.232,6 c 2.762,0.768 5.558,1.629 8.383,2.586 m -9.423,3.512 v 13.445 c 2.77,0.969 4.65,0.93 6.972,0.881 0.097,-0.002 0.236,-0.006 0.332,-0.006 0.155,-5.418 0.442,-9.863 0.628,-11.961 -2.513,-0.867 -5.162,-1.65 -7.932,-2.359 m -4.502,-14.981 c -1.967,-0.902 -3.944,-1.73 -5.928,-2.474 l -0.33,8.56 c 1.968,0.385 3.964,0.821 5.974,1.297 z m 0.055,13.399 c -2.275,-0.551 -5.252,-1.037 -6.636,-1.465 v 13.287 c 0,1.537 4.512,2.135 5.881,1.067 l 1.045,-0.791 v -11.538 l -0.546,-0.004 z m -12.158,-8.326 0.366,-9.5 c -2.291,-0.68 -4.59,-1.264 -6.9,-1.737 l -0.399,10.319 c 2.275,0.248 4.587,0.55 6.933,0.918 m -1.405,5.849 c -1.386,-0.299 -2.772,-0.55 -6.927,-0.761 v 13.968 c 4.155,1.287 5.541,1.27 6.927,0.758 z m -18.121,-1.607 -0.022,14.707 c 2.255,1.18 5.674,0.896 7.06,-0.037 v -14.352 c -2.771,-0.164 -4.792,-0.265 -7.038,-0.318 m 6.729,-5.68 0.417,-10.781 c -2.292,-0.299 -4.595,-0.486 -6.907,-0.586 l -0.426,11.039 c 2.257,0.055 4.567,0.166 6.916,0.328 m -20.471,6.006 v 13.846 c 2.77,1.683 6.328,0.99 7.665,-0.459 l 0.125,-13.723 c -2.691,0.045 -5.02,0.164 -7.79,0.336 m 8.219,-6.361 0.699,-11.049 c -3.051,0.094 -7.534,0.357 -8.918,0.797 v 10.631 c 1.384,-0.204 5.194,-0.334 8.219,-0.379 m -20.688,7.648 v 13.248 c 1.386,0.785 5.542,0.311 6.927,-0.519 v -13.491 c -2.771,0.223 -5.541,0.479 -6.927,0.762 m 5.542,-6.728 v -10.143 c -1.386,0.482 -5.542,1.066 -6.927,1.732 v 9.333 c 1.385,-0.346 5.541,-0.657 6.927,-0.922 m -16.625,8.986 v 12.301 c 1.386,0.621 2.771,1.105 5.542,-0.465 v -13.09 c -2.771,0.398 -4.156,0.822 -5.542,1.254 m 2.771,-7.006 v -8.486 c -1.385,0.586 -2.771,1.22 -4.156,1.896 v 7.657 c 1.385,-0.366 2.771,-0.725 4.156,-1.067 m -14.811,10.264 c 0.105,1.31 0.735,6.095 0.825,12.752 1.735,-0.352 3.793,-1.121 5.442,-2.506 h -1.154 v -11.983 c -1.385,0.61 -3.522,1.2 -5.113,1.737 m 5.113,-7.668 v -6.559 c -2.77,1.25 -5.541,2.6 -8.311,4.082 v 4.985 c 2.77,-0.748 5.541,-1.62 8.311,-2.508 m 121.912,-16.625 c -15.239,-4.319 -40.368,-27.983 -53.886,-43.485 -0.021,0.016 -0.143,0.03 -0.162,0.043 -0.246,0.239 -0.599,0.553 -0.909,1 -0.316,0.426 -0.662,0.981 -0.988,1.586 -0.32,0.614 -0.653,1.297 -0.953,2.035 -0.604,1.477 -1.168,3.145 -1.633,4.858 -0.94,3.426 -1.551,7.008 -1.779,9.711 -0.121,1.351 -0.144,2.488 -0.106,3.281 0.035,0.787 0.123,1.246 0.123,1.246 0,0 -0.204,-0.406 -0.457,-1.185 -0.253,-0.776 -0.537,-1.905 -0.788,-3.282 -0.507,-2.754 -0.886,-6.476 -0.887,-10.277 -0.003,-1.898 0.097,-3.818 0.317,-5.656 0.109,-0.918 0.258,-1.819 0.444,-2.686 0.014,-0.066 0.03,-0.125 0.047,-0.193 -12.121,1.861 -30.168,1.348 -41.09,-0.977 0.101,0.383 0.197,0.772 0.286,1.17 0.186,0.867 0.332,1.768 0.446,2.686 0.218,1.838 0.318,3.758 0.313,5.656 -0.002,3.801 -0.379,7.523 -0.887,10.277 -0.251,1.377 -0.533,2.506 -0.788,3.282 -0.254,0.779 -0.457,1.185 -0.457,1.185 0,0 0.089,-0.459 0.127,-1.246 0.038,-0.793 0.014,-1.93 -0.102,-3.281 -0.231,-2.703 -0.839,-6.285 -1.781,-9.711 -0.465,-1.713 -1.021,-3.381 -1.624,-4.858 -0.302,-0.738 -0.622,-1.421 -0.941,-2.035 -0.089,-0.16 -0.458,-0.308 -0.546,-0.461 -13.854,15.454 -36.802,37.196 -52.041,41.317 v 64.832 c 2.771,0.75 6.927,1.306 9.698,1.527 v -36.443 l 15.239,-8.02 v -11.14 l 1.526,-0.85 c 18.147,-10.553 36.002,-15.826 53.378,-15.826 18.336,0 36.194,5.871 53.407,17.617 l 1.324,0.899 0.307,8.023 17.511,9.297 v 36.289 c 1.385,-0.221 4.156,-0.707 8.312,-1.356 z M 206.173,375.609 c 0,22.716 6.116,44.003 16.75,62.266 l 11.401,-67.281 c -3.767,-4.997 -14.013,-20.37 -11.019,-36.083 0.012,-1.955 -1.826,-7.343 -4.398,-13.757 -8.346,16.95 -12.734,35.729 -12.734,54.855 m 241.362,0 c 0,-20.135 -4.831,-39.822 -14.029,-57.441 -3.916,8.934 -7.075,17.093 -7.032,19.504 l -0.004,-0.064 -0.549,0.059 c 1.827,14.556 -7.648,28.297 -11.317,32.996 l 12.507,73.134 c 12.892,-19.511 20.424,-42.972 20.424,-68.188 m 77.785,-97.25 c -16.138,12.395 -42.083,26.498 -77.793,42.307 -1.9,-4.298 -4.019,-8.507 -6.369,-12.595 3.703,-7.831 6.82,-13.899 8.223,-16.005 l 2.525,-3.896 -2.547,-3.916 c -9.183,-14.881 -18.986,-24.984 -20.857,-26.858 l -0.189,-0.177 -3.612,-3.106 -5.073,1.696 c -0.921,0.38 -2.381,0.814 -3.903,1.244 -0.337,0.095 -0.753,0.191 -1.092,0.285 -0.192,0.055 -0.66,0.109 -0.66,0.164 v 3.725 c 2.771,-0.94 5.801,-1.94 8.023,-2.86 l 2.743,-1.129 2.095,2.082 c 0.43,0.434 10.671,10.737 20.366,26.446 l 1.485,2.408 -1.568,2.353 c -1.689,2.536 -5.326,9.67 -9.087,17.679 11.983,20.326 18.324,43.571 18.324,67.403 0,72.486 -58.095,131.458 -129.5,131.458 -71.404,0 -129.498,-58.972 -129.498,-131.458 0,-22.986 5.921,-45.506 17.115,-65.321 -3.786,-8.534 -7.8,-16.698 -9.841,-19.763 l -1.571,-2.355 1.485,-2.408 c 9.633,-15.608 19.803,-25.848 20.23,-26.278 l 2.086,-2.084 2.693,1.133 c 2.007,0.834 4.323,1.733 7.094,2.594 v -72.203 h 4.473 c 8.861,0 35.73,-21.186 54.245,-43.617 l 2.089,-1.993 3.025,1.418 c 9.55,4.034 42.693,4.295 49.254,0.36 l 3.254,-1.916 2.415,2.113 c 18.516,22.432 45.386,43.635 54.245,43.635 h 4.326 v 40.617 c 0,0.922 0.187,1.846 0.241,2.773 4.884,-3.587 9.009,-7.138 12.27,-10.648 7.805,-8.404 11.212,-16.463 10.18,-24.172 -1.389,-10.39 -10.082,-19.099 -26.061,-25.441 0.247,3.787 0.506,8.558 0.76,11.33 h -1.716 c -7.01,0 -33.144,-18.301 -52.108,-41.276 l -0.405,-0.316 -4.283,-1.877 -2.798,1.289 -2.698,-28.474 H 332.237 V 90.564 h 91.434 v 22.165 h -17.49 c 0.734,8.312 1.569,18.205 2.476,30.732 26.701,1.346 51.174,5.207 73.361,11.297 48.556,13.322 74.658,33.662 78.294,60.846 2.862,21.4 -8.803,42.373 -34.992,62.755"
           style="fill:#231f20;fill-opacity:1;fill-rule:nonzero;stroke:none"
           id="path1689"
           inkscape:connector-curvature="0" /></g></g></g></svg>